<?xml version="1.0" encoding="utf-8" standalone="no"?>
<!DOCTYPE svg PUBLIC "-//W3C//DTD SVG 1.1//EN"
  "http://www.w3.org/Graphics/SVG/1.1/DTD/svg11.dtd">
<!-- Created with matplotlib (http://matplotlib.org/) -->
<svg height="346pt" version="1.1" viewBox="0 0 346 346" width="346pt" xmlns="http://www.w3.org/2000/svg" xmlns:xlink="http://www.w3.org/1999/xlink">
 <defs>
  <style type="text/css">
*{stroke-linecap:butt;stroke-linejoin:round;}
  </style>
 </defs>
 <g id="figure_1">
  <g id="patch_1">
   <path d="
M4.71845e-16 346.882
L346.688 346.882
L346.688 0
L4.71845e-16 0
z
" style="fill:#ffffff;"/>
  </g>
  <g id="axes_1">
   <g id="patch_2">
    <path d="
M32.16 316.197
L300.665 316.197
L300.665 30.8781
L32.16 30.8781
z
" style="fill:#ffffff;"/>
   </g>
   <g id="line2d_1">
    <path clip-path="url(#p14e4df259a)" d="
M73.1968 272.59
L103.688 281.631" style="fill:none;stroke:#ffb2b2;stroke-linecap:square;"/>
   </g>
   <g id="line2d_2">
    <path clip-path="url(#p14e4df259a)" d="
M73.1968 272.59
L80.7849 264.527" style="fill:none;stroke:#000000;stroke-linecap:square;"/>
   </g>
   <g id="line2d_3">
    <path clip-path="url(#p14e4df259a)" d="
M73.1968 272.59
L64.6888 240.19" style="fill:none;stroke:#ffb2b2;stroke-linecap:square;"/>
   </g>
   <g id="line2d_4">
    <path clip-path="url(#p14e4df259a)" d="
M80.7849 264.527
L83.5309 259.943" style="fill:none;stroke:#ffb2b2;stroke-linecap:square;"/>
   </g>
   <g id="line2d_5">
    <path clip-path="url(#p14e4df259a)" d="
M80.7849 264.527
L85.0984 261.609" style="fill:none;stroke:#ffb2b2;stroke-linecap:square;"/>
   </g>
   <g id="line2d_6">
    <path clip-path="url(#p14e4df259a)" d="
M80.7849 264.527
L113.835 229.407" style="fill:none;stroke:#000000;stroke-linecap:square;"/>
   </g>
   <g id="line2d_7">
    <path clip-path="url(#p14e4df259a)" d="
M113.835 229.407
L102.588 268.926" style="fill:none;stroke:#ffb2b2;stroke-linecap:square;"/>
   </g>
   <g id="line2d_8">
    <path clip-path="url(#p14e4df259a)" d="
M113.835 229.407
L117.091 225.947" style="fill:none;stroke:#000000;stroke-linecap:square;"/>
   </g>
   <g id="line2d_9">
    <path clip-path="url(#p14e4df259a)" d="
M113.835 229.407
L76.6445 241.359" style="fill:none;stroke:#ffb2b2;stroke-linecap:square;"/>
   </g>
   <g id="line2d_10">
    <path clip-path="url(#p14e4df259a)" d="
M113.835 229.407
L102.434 241.521" style="fill:none;stroke:#000000;stroke-linecap:square;"/>
   </g>
   <g id="line2d_11">
    <path clip-path="url(#p14e4df259a)" d="
M113.835 229.407
L124.115 243.983" style="fill:none;stroke:#ffb2b2;stroke-linecap:square;"/>
   </g>
   <g id="line2d_12">
    <path clip-path="url(#p14e4df259a)" d="
M113.835 229.407
L100.118 218.483" style="fill:none;stroke:#ffb2b2;stroke-linecap:square;"/>
   </g>
   <g id="line2d_13">
    <path clip-path="url(#p14e4df259a)" d="
M102.434 241.521
L127.71 269.874" style="fill:none;stroke:#ffb2b2;stroke-linecap:square;"/>
   </g>
   <g id="line2d_14">
    <path clip-path="url(#p14e4df259a)" d="
M100.118 218.483
L113.811 216.762" style="fill:none;stroke:#ffb2b2;stroke-linecap:square;"/>
   </g>
   <g id="line2d_15">
    <path clip-path="url(#p14e4df259a)" d="
M102.434 241.521
L75.377 270.273" style="fill:none;stroke:#000000;stroke-linecap:square;"/>
   </g>
   <g id="line2d_16">
    <path clip-path="url(#p14e4df259a)" d="
M102.434 241.521
L75.7528 214.664" style="fill:none;stroke:#ffb2b2;stroke-linecap:square;"/>
   </g>
   <g id="line2d_17">
    <path clip-path="url(#p14e4df259a)" d="
M124.115 243.983
L125.735 229.432" style="fill:none;stroke:#ffb2b2;stroke-linecap:square;"/>
   </g>
   <g id="line2d_18">
    <path clip-path="url(#p14e4df259a)" d="
M125.735 229.432
L106.765 221.312" style="fill:none;stroke:#ffb2b2;stroke-linecap:square;"/>
   </g>
   <g id="line2d_19">
    <path clip-path="url(#p14e4df259a)" d="
M113.811 216.762
L121.453 236.92" style="fill:none;stroke:#ffb2b2;stroke-linecap:square;"/>
   </g>
   <g id="line2d_20">
    <path clip-path="url(#p14e4df259a)" d="
M127.71 269.874
L100.375 255.32" style="fill:none;stroke:#ffb2b2;stroke-linecap:square;"/>
   </g>
   <g id="line2d_21">
    <path clip-path="url(#p14e4df259a)" d="
M75.377 270.273
L69.5777 276.412" style="fill:none;stroke:#ffb2b2;stroke-linecap:square;"/>
   </g>
   <g id="line2d_22">
    <path clip-path="url(#p14e4df259a)" d="
M75.7528 214.664
L89.4487 243.71" style="fill:none;stroke:#ffb2b2;stroke-linecap:square;"/>
   </g>
   <g id="line2d_23">
    <path clip-path="url(#p14e4df259a)" d="
M75.377 270.273
L69.6005 276.436" style="fill:none;stroke:#ffb2b2;stroke-linecap:square;"/>
   </g>
   <g id="line2d_24">
    <path clip-path="url(#p14e4df259a)" d="
M75.377 270.273
L57.8223 288.927" style="fill:none;stroke:#000000;stroke-linecap:square;"/>
   </g>
   <g id="line2d_25">
    <path clip-path="url(#p14e4df259a)" d="
M113.835 229.407
L137.779 239.654" style="fill:none;stroke:#ffb2b2;stroke-linecap:square;"/>
   </g>
   <g id="line2d_26">
    <path clip-path="url(#p14e4df259a)" d="
M125.735 229.432
L135.735 223.307" style="fill:none;stroke:#ffb2b2;stroke-linecap:square;"/>
   </g>
   <g id="line2d_27">
    <path clip-path="url(#p14e4df259a)" d="
M113.811 216.762
L119.576 206.136" style="fill:none;stroke:#ffb2b2;stroke-linecap:square;"/>
   </g>
   <g id="line2d_28">
    <path clip-path="url(#p14e4df259a)" d="
M124.115 243.983
L89.8261 193.252" style="fill:none;stroke:#ffb2b2;stroke-linecap:square;"/>
   </g>
   <g id="line2d_29">
    <path clip-path="url(#p14e4df259a)" d="
M113.835 229.407
L86.1683 258.806" style="fill:none;stroke:#000000;stroke-linecap:square;"/>
   </g>
   <g id="line2d_30">
    <path clip-path="url(#p14e4df259a)" d="
M113.835 229.407
L104.192 203.963" style="fill:none;stroke:#ffb2b2;stroke-linecap:square;"/>
   </g>
   <g id="line2d_31">
    <path clip-path="url(#p14e4df259a)" d="
M100.118 218.483
L147.859 254.919" style="fill:none;stroke:#ffb2b2;stroke-linecap:square;"/>
   </g>
   <g id="line2d_32">
    <path clip-path="url(#p14e4df259a)" d="
M75.377 270.273
L83.67 261.461" style="fill:none;stroke:#000000;stroke-linecap:square;"/>
   </g>
   <g id="line2d_33">
    <path clip-path="url(#p14e4df259a)" d="
M113.811 216.762
L126.534 215.102" style="fill:none;stroke:#ffb2b2;stroke-linecap:square;"/>
   </g>
   <g id="line2d_34">
    <path clip-path="url(#p14e4df259a)" d="
M125.735 229.432
L127.297 215.912" style="fill:none;stroke:#ffb2b2;stroke-linecap:square;"/>
   </g>
   <g id="line2d_35">
    <path clip-path="url(#p14e4df259a)" d="
M119.576 206.136
L122.097 205.436" style="fill:none;stroke:#ffb2b2;stroke-linecap:square;"/>
   </g>
   <g id="line2d_36">
    <path clip-path="url(#p14e4df259a)" d="
M75.377 270.273
L111.85 242.017" style="fill:none;stroke:#ffb2b2;stroke-linecap:square;"/>
   </g>
   <g id="line2d_37">
    <path clip-path="url(#p14e4df259a)" d="
M135.735 223.307
L136.394 220.628" style="fill:none;stroke:#ffb2b2;stroke-linecap:square;"/>
   </g>
   <g id="line2d_38">
    <path clip-path="url(#p14e4df259a)" d="
M75.377 270.273
L101.968 231.516" style="fill:none;stroke:#ffb2b2;stroke-linecap:square;"/>
   </g>
   <g id="line2d_39">
    <path clip-path="url(#p14e4df259a)" d="
M122.097 205.436
L102.681 218.648" style="fill:none;stroke:#ffb2b2;stroke-linecap:square;"/>
   </g>
   <g id="line2d_40">
    <path clip-path="url(#p14e4df259a)" d="
M137.779 239.654
L153.658 193.667" style="fill:none;stroke:#ffb2b2;stroke-linecap:square;"/>
   </g>
   <g id="line2d_41">
    <path clip-path="url(#p14e4df259a)" d="
M104.192 203.963
L147.468 187.09" style="fill:none;stroke:#ffb2b2;stroke-linecap:square;"/>
   </g>
   <g id="line2d_42">
    <path clip-path="url(#p14e4df259a)" d="
M86.1683 258.806
L44.3663 292.809" style="fill:none;stroke:#ffb2b2;stroke-linecap:square;"/>
   </g>
   <g id="line2d_43">
    <path clip-path="url(#p14e4df259a)" d="
M136.394 220.628
L123.96 241.26" style="fill:none;stroke:#ffb2b2;stroke-linecap:square;"/>
   </g>
   <g id="line2d_44">
    <path clip-path="url(#p14e4df259a)" d="
M86.1683 258.806
L64.956 281.347" style="fill:none;stroke:#000000;stroke-linecap:square;"/>
   </g>
   <g id="line2d_45">
    <path clip-path="url(#p14e4df259a)" d="
M119.576 206.136
L129.211 187.871" style="fill:none;stroke:#ffb2b2;stroke-linecap:square;"/>
   </g>
   <g id="line2d_46">
    <path clip-path="url(#p14e4df259a)" d="
M86.1683 258.806
L54.1697 303.226" style="fill:none;stroke:#ffb2b2;stroke-linecap:square;"/>
   </g>
   <g id="line2d_47">
    <path clip-path="url(#p14e4df259a)" d="
M135.735 223.307
L152.923 213.069" style="fill:none;stroke:#ffb2b2;stroke-linecap:square;"/>
   </g>
   <g id="line2d_48">
    <path clip-path="url(#p14e4df259a)" d="
M86.1683 258.806
L113.449 272.794" style="fill:none;stroke:#ffb2b2;stroke-linecap:square;"/>
   </g>
   <g id="line2d_49">
    <path clip-path="url(#p14e4df259a)" d="
M104.192 203.963
L72.6517 189.378" style="fill:none;stroke:#ffb2b2;stroke-linecap:square;"/>
   </g>
   <g id="line2d_50">
    <path clip-path="url(#p14e4df259a)" d="
M136.394 220.628
L162.171 179.896" style="fill:none;stroke:#ffb2b2;stroke-linecap:square;"/>
   </g>
   <g id="line2d_51">
    <path clip-path="url(#p14e4df259a)" d="
M135.735 223.307
L106.799 226.3" style="fill:none;stroke:#ffb2b2;stroke-linecap:square;"/>
   </g>
   <g id="line2d_52">
    <path clip-path="url(#p14e4df259a)" d="
M86.1683 258.806
L73.0048 229.817" style="fill:none;stroke:#ffb2b2;stroke-linecap:square;"/>
   </g>
   <g id="line2d_53">
    <path clip-path="url(#p14e4df259a)" d="
M86.1683 258.806
L95.5313 248.857" style="fill:none;stroke:#000000;stroke-linecap:square;"/>
   </g>
   <g id="line2d_54">
    <path clip-path="url(#p14e4df259a)" d="
M122.097 205.436
L160.429 178.044" style="fill:none;stroke:#ffb2b2;stroke-linecap:square;"/>
   </g>
   <g id="line2d_55">
    <path clip-path="url(#p14e4df259a)" d="
M137.779 239.654
L151.505 273.169" style="fill:none;stroke:#ffb2b2;stroke-linecap:square;"/>
   </g>
   <g id="line2d_56">
    <path clip-path="url(#p14e4df259a)" d="
M119.576 206.136
L116.759 236.884" style="fill:none;stroke:#ffb2b2;stroke-linecap:square;"/>
   </g>
   <g id="line2d_57">
    <path clip-path="url(#p14e4df259a)" d="
M162.171 179.896
L170.635 151.774" style="fill:none;stroke:#ffb2b2;stroke-linecap:square;"/>
   </g>
   <g id="line2d_58">
    <path clip-path="url(#p14e4df259a)" d="
M83.67 261.461
L107.449 282.884" style="fill:none;stroke:#ffb2b2;stroke-linecap:square;"/>
   </g>
   <g id="line2d_59">
    <path clip-path="url(#p14e4df259a)" d="
M83.67 261.461
L84.6581 260.411" style="fill:none;stroke:#000000;stroke-linecap:square;"/>
   </g>
   <g id="line2d_60">
    <path clip-path="url(#p14e4df259a)" d="
M160.429 178.044
L186.893 169.051" style="fill:none;stroke:#ffb2b2;stroke-linecap:square;"/>
   </g>
   <g id="line2d_61">
    <path clip-path="url(#p14e4df259a)" d="
M83.67 261.461
L63.5098 236.193" style="fill:none;stroke:#ffb2b2;stroke-linecap:square;"/>
   </g>
   <g id="line2d_62">
    <path clip-path="url(#p14e4df259a)" d="
M83.67 261.461
L37.3235 286.725" style="fill:none;stroke:#ffb2b2;stroke-linecap:square;"/>
   </g>
   <g id="line2d_63">
    <path clip-path="url(#p14e4df259a)" d="
M83.67 261.461
L59.8946 310.71" style="fill:none;stroke:#ffb2b2;stroke-linecap:square;"/>
   </g>
   <g id="line2d_64">
    <path clip-path="url(#p14e4df259a)" d="
M83.67 261.461
L38.5823 309.372" style="fill:none;stroke:#000000;stroke-linecap:square;"/>
   </g>
   <g id="line2d_65">
    <path clip-path="url(#p14e4df259a)" d="
M160.429 178.044
L160.889 189.743" style="fill:none;stroke:#ffb2b2;stroke-linecap:square;"/>
   </g>
   <g id="line2d_66">
    <path clip-path="url(#p14e4df259a)" d="
M162.171 179.896
L151.162 179.406" style="fill:none;stroke:#ffb2b2;stroke-linecap:square;"/>
   </g>
   <g id="line2d_67">
    <path clip-path="url(#p14e4df259a)" d="
M95.5313 248.857
L100.896 249.402" style="fill:none;stroke:#ffb2b2;stroke-linecap:square;"/>
   </g>
   <g id="line2d_68">
    <path clip-path="url(#p14e4df259a)" d="
M160.429 178.044
L141.76 193.144" style="fill:none;stroke:#ffb2b2;stroke-linecap:square;"/>
   </g>
   <g id="line2d_69">
    <path clip-path="url(#p14e4df259a)" d="
M95.5313 248.857
L95.0664 249.351" style="fill:none;stroke:#000000;stroke-linecap:square;"/>
   </g>
   <g id="line2d_70">
    <path clip-path="url(#p14e4df259a)" d="
M95.5313 248.857
L95.0187 243.156" style="fill:none;stroke:#ffb2b2;stroke-linecap:square;"/>
   </g>
   <g id="line2d_71">
    <path clip-path="url(#p14e4df259a)" d="
M162.171 179.896
L147.961 199.733" style="fill:none;stroke:#ffb2b2;stroke-linecap:square;"/>
   </g>
   <g id="line2d_72">
    <path clip-path="url(#p14e4df259a)" d="
M95.5313 248.857
L122.271 270.37" style="fill:none;stroke:#ffb2b2;stroke-linecap:square;"/>
   </g>
   <g id="line2d_73">
    <path clip-path="url(#p14e4df259a)" d="
M95.5313 248.857
L75.2863 220.443" style="fill:none;stroke:#ffb2b2;stroke-linecap:square;"/>
   </g>
   <g id="line2d_74">
    <path clip-path="url(#p14e4df259a)" d="
M162.171 179.896
L196.447 188.452" style="fill:none;stroke:#ffb2b2;stroke-linecap:square;"/>
   </g>
   <g id="line2d_75">
    <path clip-path="url(#p14e4df259a)" d="
M160.429 178.044
L152.377 141.621" style="fill:none;stroke:#ffb2b2;stroke-linecap:square;"/>
   </g>
   <g id="line2d_76">
    <path clip-path="url(#p14e4df259a)" d="
M95.5313 248.857
L104.833 238.973" style="fill:none;stroke:#000000;stroke-linecap:square;"/>
   </g>
   <g id="line2d_77">
    <path clip-path="url(#p14e4df259a)" d="
M104.833 238.973
L104.944 304.123" style="fill:none;stroke:#ffb2b2;stroke-linecap:square;"/>
   </g>
   <g id="line2d_78">
    <path clip-path="url(#p14e4df259a)" d="
M104.833 238.973
L129.842 212.397" style="fill:none;stroke:#000000;stroke-linecap:square;"/>
   </g>
   <g id="line2d_79">
    <path clip-path="url(#p14e4df259a)" d="
M104.833 238.973
L43.5222 238.855" style="fill:none;stroke:#ffb2b2;stroke-linecap:square;"/>
   </g>
   <g id="line2d_80">
    <path clip-path="url(#p14e4df259a)" d="
M152.377 141.621
L175.557 155.432" style="fill:none;stroke:#ffb2b2;stroke-linecap:square;"/>
   </g>
   <g id="line2d_81">
    <path clip-path="url(#p14e4df259a)" d="
M196.447 188.452
L183.45 163.82" style="fill:none;stroke:#ffb2b2;stroke-linecap:square;"/>
   </g>
   <g id="line2d_82">
    <path clip-path="url(#p14e4df259a)" d="
M175.557 155.432
L163.926 116.922" style="fill:none;stroke:#ffb2b2;stroke-linecap:square;"/>
   </g>
   <g id="line2d_83">
    <path clip-path="url(#p14e4df259a)" d="
M83.67 261.461
L92.9657 253.275" style="fill:none;stroke:#ffb2b2;stroke-linecap:square;"/>
   </g>
   <g id="line2d_84">
    <path clip-path="url(#p14e4df259a)" d="
M183.45 163.82
L219.692 176.18" style="fill:none;stroke:#ffb2b2;stroke-linecap:square;"/>
   </g>
   <g id="line2d_85">
    <path clip-path="url(#p14e4df259a)" d="
M83.67 261.461
L91.3735 251.583" style="fill:none;stroke:#ffb2b2;stroke-linecap:square;"/>
   </g>
   <g id="line2d_86">
    <path clip-path="url(#p14e4df259a)" d="
M83.67 261.461
L86.9387 257.988" style="fill:none;stroke:#000000;stroke-linecap:square;"/>
   </g>
   <g id="line2d_87">
    <path clip-path="url(#p14e4df259a)" d="
M163.926 116.922
L159.272 122.285" style="fill:none;stroke:#ffb2b2;stroke-linecap:square;"/>
   </g>
   <g id="line2d_88">
    <path clip-path="url(#p14e4df259a)" d="
M129.842 212.397
L145.505 229.631" style="fill:none;stroke:#ffb2b2;stroke-linecap:square;"/>
   </g>
   <g id="line2d_89">
    <path clip-path="url(#p14e4df259a)" d="
M129.842 212.397
L113.624 195.754" style="fill:none;stroke:#ffb2b2;stroke-linecap:square;"/>
   </g>
   <g id="line2d_90">
    <path clip-path="url(#p14e4df259a)" d="
M129.842 212.397
L110.856 232.572" style="fill:none;stroke:#000000;stroke-linecap:square;"/>
   </g>
   <g id="line2d_91">
    <path clip-path="url(#p14e4df259a)" d="
M219.692 176.18
L214.644 181.125" style="fill:none;stroke:#ffb2b2;stroke-linecap:square;"/>
   </g>
   <g id="line2d_92">
    <path clip-path="url(#p14e4df259a)" d="
M219.692 176.18
L249.465 177.247" style="fill:none;stroke:#ffb2b2;stroke-linecap:square;"/>
   </g>
   <g id="line2d_93">
    <path clip-path="url(#p14e4df259a)" d="
M86.9387 257.988
L115.74 237.041" style="fill:none;stroke:#ffb2b2;stroke-linecap:square;"/>
   </g>
   <g id="line2d_94">
    <path clip-path="url(#p14e4df259a)" d="
M163.926 116.922
L162.921 85.2842" style="fill:none;stroke:#ffb2b2;stroke-linecap:square;"/>
   </g>
   <g id="line2d_95">
    <path clip-path="url(#p14e4df259a)" d="
M86.9387 257.988
L106.651 227.383" style="fill:none;stroke:#ffb2b2;stroke-linecap:square;"/>
   </g>
   <g id="line2d_96">
    <path clip-path="url(#p14e4df259a)" d="
M86.9387 257.988
L82.2767 262.942" style="fill:none;stroke:#000000;stroke-linecap:square;"/>
   </g>
   <g id="line2d_97">
    <path clip-path="url(#p14e4df259a)" d="
M82.2767 262.942
L92.6761 231.09" style="fill:none;stroke:#ffb2b2;stroke-linecap:square;"/>
   </g>
   <g id="line2d_98">
    <path clip-path="url(#p14e4df259a)" d="
M106.651 227.383
L75.4991 192.77" style="fill:none;stroke:#ffb2b2;stroke-linecap:square;"/>
   </g>
   <g id="line2d_99">
    <path clip-path="url(#p14e4df259a)" d="
M82.2767 262.942
L60.2501 286.347" style="fill:none;stroke:#000000;stroke-linecap:square;"/>
   </g>
   <g id="line2d_100">
    <path clip-path="url(#p14e4df259a)" d="
M162.921 85.2842
L169.442 87.1443" style="fill:none;stroke:#ffb2b2;stroke-linecap:square;"/>
   </g>
   <g id="line2d_101">
    <path clip-path="url(#p14e4df259a)" d="
M82.2767 262.942
L112.251 251.891" style="fill:none;stroke:#ffb2b2;stroke-linecap:square;"/>
   </g>
   <g id="line2d_102">
    <path clip-path="url(#p14e4df259a)" d="
M249.465 177.247
L247.714 170.318" style="fill:none;stroke:#ffb2b2;stroke-linecap:square;"/>
   </g>
   <g id="line2d_103">
    <path clip-path="url(#p14e4df259a)" d="
M115.74 237.041
L148.313 270.144" style="fill:none;stroke:#ffb2b2;stroke-linecap:square;"/>
   </g>
   <g id="line2d_104">
    <path clip-path="url(#p14e4df259a)" d="
M162.921 85.2842
L187.751 36.365" style="fill:none;stroke:#ffb2b2;stroke-linecap:square;"/>
   </g>
   <g id="line2d_105">
    <path clip-path="url(#p14e4df259a)" d="
M129.842 212.397
L132.393 217.056" style="fill:none;stroke:#ffb2b2;stroke-linecap:square;"/>
   </g>
   <g id="line2d_106">
    <path clip-path="url(#p14e4df259a)" d="
M169.442 87.1443
L159.829 91.9433" style="fill:none;stroke:#ffb2b2;stroke-linecap:square;"/>
   </g>
   <g id="line2d_107">
    <path clip-path="url(#p14e4df259a)" d="
M129.842 212.397
L125.458 209.687" style="fill:none;stroke:#ffb2b2;stroke-linecap:square;"/>
   </g>
   <g id="line2d_108">
    <path clip-path="url(#p14e4df259a)" d="
M163.926 116.922
L184.624 103.138" style="fill:none;stroke:#ffb2b2;stroke-linecap:square;"/>
   </g>
   <g id="line2d_109">
    <path clip-path="url(#p14e4df259a)" d="
M249.465 177.247
L295.501 150.862" style="fill:none;stroke:#ffb2b2;stroke-linecap:square;"/>
   </g>
   <g id="line2d_110">
    <path clip-path="url(#p14e4df259a)" d="
M247.714 170.318
L243.198 180.533" style="fill:none;stroke:#ffb2b2;stroke-linecap:square;"/>
   </g>
   <g id="line2d_111">
    <path clip-path="url(#p14e4df259a)" d="
M219.692 176.18
L232.663 154.186" style="fill:none;stroke:#ffb2b2;stroke-linecap:square;"/>
   </g>
   <g id="line2d_112">
    <path clip-path="url(#p14e4df259a)" d="
M129.842 212.397
L112.986 230.31" style="fill:none;stroke:#000000;stroke-linecap:square;"/>
   </g>
   <g id="matplotlib.axis_1">
    <g id="xtick_1">
     <g id="line2d_113">
      <defs>
       <path d="
M0 0
L0 4" id="m741efc42ff" style="stroke:#000000;stroke-width:0.5;"/>
      </defs>
      <g>
       <use style="stroke:#000000;stroke-width:0.5;" x="73.1967675525" xlink:href="#m741efc42ff" y="20.878125"/>
      </g>
     </g>
     <g id="text_1">
      <!-- -1 -->
      <defs>
       <path d="
M12.4062 8.29688
L28.5156 8.29688
L28.5156 63.9219
L10.9844 60.4062
L10.9844 69.3906
L28.4219 72.9062
L38.2812 72.9062
L38.2812 8.29688
L54.3906 8.29688
L54.3906 0
L12.4062 0
z
" id="BitstreamVeraSans-Roman-31"/>
       <path d="
M4.89062 31.3906
L31.2031 31.3906
L31.2031 23.3906
L4.89062 23.3906
z
" id="BitstreamVeraSans-Roman-2d"/>
      </defs>
      <g transform="translate(68.9178613025 14.7984375)scale(0.1 -0.1)">
       <use xlink:href="#BitstreamVeraSans-Roman-2d"/>
       <use x="36.083984375" xlink:href="#BitstreamVeraSans-Roman-31"/>
      </g>
     </g>
    </g>
    <g id="xtick_2">
     <g id="line2d_114">
      <g>
       <use style="stroke:#000000;stroke-width:0.5;" x="116.397670163" xlink:href="#m741efc42ff" y="20.878125"/>
      </g>
     </g>
     <g id="text_2">
      <!-- -0.98 -->
      <defs>
       <path d="
M31.7812 66.4062
Q24.1719 66.4062 20.3281 58.9062
Q16.5 51.4219 16.5 36.375
Q16.5 21.3906 20.3281 13.8906
Q24.1719 6.39062 31.7812 6.39062
Q39.4531 6.39062 43.2812 13.8906
Q47.125 21.3906 47.125 36.375
Q47.125 51.4219 43.2812 58.9062
Q39.4531 66.4062 31.7812 66.4062
M31.7812 74.2188
Q44.0469 74.2188 50.5156 64.5156
Q56.9844 54.8281 56.9844 36.375
Q56.9844 17.9688 50.5156 8.26562
Q44.0469 -1.42188 31.7812 -1.42188
Q19.5312 -1.42188 13.0625 8.26562
Q6.59375 17.9688 6.59375 36.375
Q6.59375 54.8281 13.0625 64.5156
Q19.5312 74.2188 31.7812 74.2188" id="BitstreamVeraSans-Roman-30"/>
       <path d="
M10.9844 1.51562
L10.9844 10.5
Q14.7031 8.73438 18.5 7.8125
Q22.3125 6.89062 25.9844 6.89062
Q35.75 6.89062 40.8906 13.4531
Q46.0469 20.0156 46.7812 33.4062
Q43.9531 29.2031 39.5938 26.9531
Q35.25 24.7031 29.9844 24.7031
Q19.0469 24.7031 12.6719 31.3125
Q6.29688 37.9375 6.29688 49.4219
Q6.29688 60.6406 12.9375 67.4219
Q19.5781 74.2188 30.6094 74.2188
Q43.2656 74.2188 49.9219 64.5156
Q56.5938 54.8281 56.5938 36.375
Q56.5938 19.1406 48.4062 8.85938
Q40.2344 -1.42188 26.4219 -1.42188
Q22.7031 -1.42188 18.8906 -0.6875
Q15.0938 0.046875 10.9844 1.51562
M30.6094 32.4219
Q37.25 32.4219 41.125 36.9531
Q45.0156 41.5 45.0156 49.4219
Q45.0156 57.2812 41.125 61.8438
Q37.25 66.4062 30.6094 66.4062
Q23.9688 66.4062 20.0938 61.8438
Q16.2188 57.2812 16.2188 49.4219
Q16.2188 41.5 20.0938 36.9531
Q23.9688 32.4219 30.6094 32.4219" id="BitstreamVeraSans-Roman-39"/>
       <path d="
M10.6875 12.4062
L21 12.4062
L21 0
L10.6875 0
z
" id="BitstreamVeraSans-Roman-2e"/>
       <path d="
M31.7812 34.625
Q24.75 34.625 20.7188 30.8594
Q16.7031 27.0938 16.7031 20.5156
Q16.7031 13.9219 20.7188 10.1562
Q24.75 6.39062 31.7812 6.39062
Q38.8125 6.39062 42.8594 10.1719
Q46.9219 13.9688 46.9219 20.5156
Q46.9219 27.0938 42.8906 30.8594
Q38.875 34.625 31.7812 34.625
M21.9219 38.8125
Q15.5781 40.375 12.0312 44.7188
Q8.5 49.0781 8.5 55.3281
Q8.5 64.0625 14.7188 69.1406
Q20.9531 74.2188 31.7812 74.2188
Q42.6719 74.2188 48.875 69.1406
Q55.0781 64.0625 55.0781 55.3281
Q55.0781 49.0781 51.5312 44.7188
Q48 40.375 41.7031 38.8125
Q48.8281 37.1562 52.7969 32.3125
Q56.7812 27.4844 56.7812 20.5156
Q56.7812 9.90625 50.3125 4.23438
Q43.8438 -1.42188 31.7812 -1.42188
Q19.7344 -1.42188 13.25 4.23438
Q6.78125 9.90625 6.78125 20.5156
Q6.78125 27.4844 10.7812 32.3125
Q14.7969 37.1562 21.9219 38.8125
M18.3125 54.3906
Q18.3125 48.7344 21.8438 45.5625
Q25.3906 42.3906 31.7812 42.3906
Q38.1406 42.3906 41.7188 45.5625
Q45.3125 48.7344 45.3125 54.3906
Q45.3125 60.0625 41.7188 63.2344
Q38.1406 66.4062 31.7812 66.4062
Q25.3906 66.4062 21.8438 63.2344
Q18.3125 60.0625 18.3125 54.3906" id="BitstreamVeraSans-Roman-38"/>
      </defs>
      <g transform="translate(104.047670163 14.7984375)scale(0.1 -0.1)">
       <use xlink:href="#BitstreamVeraSans-Roman-2d"/>
       <use x="36.083984375" xlink:href="#BitstreamVeraSans-Roman-30"/>
       <use x="99.70703125" xlink:href="#BitstreamVeraSans-Roman-2e"/>
       <use x="131.494140625" xlink:href="#BitstreamVeraSans-Roman-39"/>
       <use x="195.1171875" xlink:href="#BitstreamVeraSans-Roman-38"/>
      </g>
     </g>
    </g>
    <g id="xtick_3">
     <g id="line2d_115">
      <g>
       <use style="stroke:#000000;stroke-width:0.5;" x="159.598572774" xlink:href="#m741efc42ff" y="20.878125"/>
      </g>
     </g>
     <g id="text_3">
      <!-- -0.96 -->
      <defs>
       <path d="
M33.0156 40.375
Q26.375 40.375 22.4844 35.8281
Q18.6094 31.2969 18.6094 23.3906
Q18.6094 15.5312 22.4844 10.9531
Q26.375 6.39062 33.0156 6.39062
Q39.6562 6.39062 43.5312 10.9531
Q47.4062 15.5312 47.4062 23.3906
Q47.4062 31.2969 43.5312 35.8281
Q39.6562 40.375 33.0156 40.375
M52.5938 71.2969
L52.5938 62.3125
Q48.875 64.0625 45.0938 64.9844
Q41.3125 65.9219 37.5938 65.9219
Q27.8281 65.9219 22.6719 59.3281
Q17.5312 52.7344 16.7969 39.4062
Q19.6719 43.6562 24.0156 45.9219
Q28.375 48.1875 33.5938 48.1875
Q44.5781 48.1875 50.9531 41.5156
Q57.3281 34.8594 57.3281 23.3906
Q57.3281 12.1562 50.6875 5.35938
Q44.0469 -1.42188 33.0156 -1.42188
Q20.3594 -1.42188 13.6719 8.26562
Q6.98438 17.9688 6.98438 36.375
Q6.98438 53.6562 15.1875 63.9375
Q23.3906 74.2188 37.2031 74.2188
Q40.9219 74.2188 44.7031 73.4844
Q48.4844 72.75 52.5938 71.2969" id="BitstreamVeraSans-Roman-36"/>
      </defs>
      <g transform="translate(147.221229024 14.7984375)scale(0.1 -0.1)">
       <use xlink:href="#BitstreamVeraSans-Roman-2d"/>
       <use x="36.083984375" xlink:href="#BitstreamVeraSans-Roman-30"/>
       <use x="99.70703125" xlink:href="#BitstreamVeraSans-Roman-2e"/>
       <use x="131.494140625" xlink:href="#BitstreamVeraSans-Roman-39"/>
       <use x="195.1171875" xlink:href="#BitstreamVeraSans-Roman-36"/>
      </g>
     </g>
    </g>
    <g id="xtick_4">
     <g id="line2d_116">
      <g>
       <use style="stroke:#000000;stroke-width:0.5;" x="202.799475384" xlink:href="#m741efc42ff" y="20.878125"/>
      </g>
     </g>
     <g id="text_4">
      <!-- -0.94 -->
      <defs>
       <path d="
M37.7969 64.3125
L12.8906 25.3906
L37.7969 25.3906
z

M35.2031 72.9062
L47.6094 72.9062
L47.6094 25.3906
L58.0156 25.3906
L58.0156 17.1875
L47.6094 17.1875
L47.6094 0
L37.7969 0
L37.7969 17.1875
L4.89062 17.1875
L4.89062 26.7031
z
" id="BitstreamVeraSans-Roman-34"/>
      </defs>
      <g transform="translate(190.387756634 14.7984375)scale(0.1 -0.1)">
       <use xlink:href="#BitstreamVeraSans-Roman-2d"/>
       <use x="36.083984375" xlink:href="#BitstreamVeraSans-Roman-30"/>
       <use x="99.70703125" xlink:href="#BitstreamVeraSans-Roman-2e"/>
       <use x="131.494140625" xlink:href="#BitstreamVeraSans-Roman-39"/>
       <use x="195.1171875" xlink:href="#BitstreamVeraSans-Roman-34"/>
      </g>
     </g>
    </g>
    <g id="xtick_5">
     <g id="line2d_117">
      <g>
       <use style="stroke:#000000;stroke-width:0.5;" x="246.000377995" xlink:href="#m741efc42ff" y="20.878125"/>
      </g>
     </g>
     <g id="text_5">
      <!-- -0.92 -->
      <defs>
       <path d="
M19.1875 8.29688
L53.6094 8.29688
L53.6094 0
L7.32812 0
L7.32812 8.29688
Q12.9375 14.1094 22.625 23.8906
Q32.3281 33.6875 34.8125 36.5312
Q39.5469 41.8438 41.4219 45.5312
Q43.3125 49.2188 43.3125 52.7812
Q43.3125 58.5938 39.2344 62.25
Q35.1562 65.9219 28.6094 65.9219
Q23.9688 65.9219 18.8125 64.3125
Q13.6719 62.7031 7.8125 59.4219
L7.8125 69.3906
Q13.7656 71.7812 18.9375 73
Q24.125 74.2188 28.4219 74.2188
Q39.75 74.2188 46.4844 68.5469
Q53.2188 62.8906 53.2188 53.4219
Q53.2188 48.9219 51.5312 44.8906
Q49.8594 40.875 45.4062 35.4062
Q44.1875 33.9844 37.6406 27.2188
Q31.1094 20.4531 19.1875 8.29688" id="BitstreamVeraSans-Roman-32"/>
      </defs>
      <g transform="translate(233.808971745 14.7984375)scale(0.1 -0.1)">
       <use xlink:href="#BitstreamVeraSans-Roman-2d"/>
       <use x="36.083984375" xlink:href="#BitstreamVeraSans-Roman-30"/>
       <use x="99.70703125" xlink:href="#BitstreamVeraSans-Roman-2e"/>
       <use x="131.494140625" xlink:href="#BitstreamVeraSans-Roman-39"/>
       <use x="195.1171875" xlink:href="#BitstreamVeraSans-Roman-32"/>
      </g>
     </g>
    </g>
    <g id="xtick_6">
     <g id="line2d_118">
      <g>
       <use style="stroke:#000000;stroke-width:0.5;" x="289.201280605" xlink:href="#m741efc42ff" y="20.878125"/>
      </g>
     </g>
     <g id="text_6">
      <!-- -0.9 -->
      <g transform="translate(280.041905605 14.7984375)scale(0.1 -0.1)">
       <use xlink:href="#BitstreamVeraSans-Roman-2d"/>
       <use x="36.083984375" xlink:href="#BitstreamVeraSans-Roman-30"/>
       <use x="99.70703125" xlink:href="#BitstreamVeraSans-Roman-2e"/>
       <use x="131.494140625" xlink:href="#BitstreamVeraSans-Roman-39"/>
      </g>
     </g>
    </g>
    <g id="xtick_7">
     <g id="line2d_119">
      <defs>
       <path d="
M0 0
L0 2" id="m5284c7e2a0" style="stroke:#000000;stroke-width:0.5;"/>
      </defs>
      <g>
       <use style="stroke:#000000;stroke-width:0.5;" x="40.7960905946" xlink:href="#m5284c7e2a0" y="20.878125"/>
      </g>
     </g>
    </g>
    <g id="xtick_8">
     <g id="line2d_120">
      <g>
       <use style="stroke:#000000;stroke-width:0.5;" x="51.5963162473" xlink:href="#m5284c7e2a0" y="20.878125"/>
      </g>
     </g>
    </g>
    <g id="xtick_9">
     <g id="line2d_121">
      <g>
       <use style="stroke:#000000;stroke-width:0.5;" x="62.3965418999" xlink:href="#m5284c7e2a0" y="20.878125"/>
      </g>
     </g>
    </g>
    <g id="xtick_10">
     <g id="line2d_122">
      <g>
       <use style="stroke:#000000;stroke-width:0.5;" x="83.9969932052" xlink:href="#m5284c7e2a0" y="20.878125"/>
      </g>
     </g>
    </g>
    <g id="xtick_11">
     <g id="line2d_123">
      <g>
       <use style="stroke:#000000;stroke-width:0.5;" x="94.7972188578" xlink:href="#m5284c7e2a0" y="20.878125"/>
      </g>
     </g>
    </g>
    <g id="xtick_12">
     <g id="line2d_124">
      <g>
       <use style="stroke:#000000;stroke-width:0.5;" x="105.59744451" xlink:href="#m5284c7e2a0" y="20.878125"/>
      </g>
     </g>
    </g>
    <g id="xtick_13">
     <g id="line2d_125">
      <g>
       <use style="stroke:#000000;stroke-width:0.5;" x="127.197895816" xlink:href="#m5284c7e2a0" y="20.878125"/>
      </g>
     </g>
    </g>
    <g id="xtick_14">
     <g id="line2d_126">
      <g>
       <use style="stroke:#000000;stroke-width:0.5;" x="137.998121468" xlink:href="#m5284c7e2a0" y="20.878125"/>
      </g>
     </g>
    </g>
    <g id="xtick_15">
     <g id="line2d_127">
      <g>
       <use style="stroke:#000000;stroke-width:0.5;" x="148.798347121" xlink:href="#m5284c7e2a0" y="20.878125"/>
      </g>
     </g>
    </g>
    <g id="xtick_16">
     <g id="line2d_128">
      <g>
       <use style="stroke:#000000;stroke-width:0.5;" x="170.398798426" xlink:href="#m5284c7e2a0" y="20.878125"/>
      </g>
     </g>
    </g>
    <g id="xtick_17">
     <g id="line2d_129">
      <g>
       <use style="stroke:#000000;stroke-width:0.5;" x="181.199024079" xlink:href="#m5284c7e2a0" y="20.878125"/>
      </g>
     </g>
    </g>
    <g id="xtick_18">
     <g id="line2d_130">
      <g>
       <use style="stroke:#000000;stroke-width:0.5;" x="191.999249731" xlink:href="#m5284c7e2a0" y="20.878125"/>
      </g>
     </g>
    </g>
    <g id="xtick_19">
     <g id="line2d_131">
      <g>
       <use style="stroke:#000000;stroke-width:0.5;" x="213.599701037" xlink:href="#m5284c7e2a0" y="20.878125"/>
      </g>
     </g>
    </g>
    <g id="xtick_20">
     <g id="line2d_132">
      <g>
       <use style="stroke:#000000;stroke-width:0.5;" x="224.399926689" xlink:href="#m5284c7e2a0" y="20.878125"/>
      </g>
     </g>
    </g>
    <g id="xtick_21">
     <g id="line2d_133">
      <g>
       <use style="stroke:#000000;stroke-width:0.5;" x="235.200152342" xlink:href="#m5284c7e2a0" y="20.878125"/>
      </g>
     </g>
    </g>
    <g id="xtick_22">
     <g id="line2d_134">
      <g>
       <use style="stroke:#000000;stroke-width:0.5;" x="256.800603647" xlink:href="#m5284c7e2a0" y="20.878125"/>
      </g>
     </g>
    </g>
    <g id="xtick_23">
     <g id="line2d_135">
      <g>
       <use style="stroke:#000000;stroke-width:0.5;" x="267.6008293" xlink:href="#m5284c7e2a0" y="20.878125"/>
      </g>
     </g>
    </g>
    <g id="xtick_24">
     <g id="line2d_136">
      <g>
       <use style="stroke:#000000;stroke-width:0.5;" x="278.401054953" xlink:href="#m5284c7e2a0" y="20.878125"/>
      </g>
     </g>
    </g>
    <g id="text_7">
     <!-- $a_{ij}$ -->
     <defs>
      <path d="
M17.3906 -1.125
Q11.0781 -1.125 7.4375 3.64062
Q3.8125 8.40625 3.8125 14.8906
Q3.8125 21.2969 7.125 28.1719
Q10.4531 35.0625 16.0938 39.625
Q21.7344 44.1875 28.2188 44.1875
Q31.2031 44.1875 33.5469 42.5781
Q35.8906 40.9688 37.2031 38.1875
Q38.3281 42.1875 41.6094 42.1875
Q42.875 42.1875 43.7188 41.4219
Q44.5781 40.6719 44.5781 39.4062
Q44.5781 39.1094 44.5469 38.9531
Q44.5312 38.8125 44.4844 38.625
L37.5 10.6875
Q36.8125 7.71875 36.8125 5.8125
Q36.8125 1.51562 39.7031 1.51562
Q42.8281 1.51562 44.4531 5.48438
Q46.0938 9.46875 47.2188 14.7031
Q47.4062 15.2812 48 15.2812
L49.2188 15.2812
Q49.6094 15.2812 49.8438 14.9375
Q50.0938 14.5938 50.0938 14.3125
Q48.3438 7.32812 46.2656 3.09375
Q44.1875 -1.125 39.5 -1.125
Q36.1406 -1.125 33.5469 0.84375
Q30.9531 2.82812 30.3281 6.10938
Q23.875 -1.125 17.3906 -1.125
M17.4844 1.51562
Q21.0938 1.51562 24.4844 4.21875
Q27.875 6.9375 30.3281 10.5938
Q30.4219 10.6875 30.4219 10.8906
L35.7969 32.625
L35.8906 32.9062
Q35.2969 36.4688 33.3125 39.0312
Q31.3438 41.6094 27.9844 41.6094
Q24.6094 41.6094 21.7031 38.8438
Q18.7969 36.0781 16.7969 32.3281
Q14.8438 28.3281 13.0625 21.3438
Q11.2812 14.3594 11.2812 10.5
Q11.2812 7.03125 12.7656 4.26562
Q14.2656 1.51562 17.4844 1.51562" id="Cmmi10-61"/>
      <path d="
M7.8125 7.17188
Q7.8125 9.03125 8.59375 11.0781
L16.7031 32.625
Q18.0156 36.2812 18.0156 38.625
Q18.0156 41.6094 15.8281 41.6094
Q11.8594 41.6094 9.29688 37.5312
Q6.73438 33.4531 5.51562 28.4219
Q5.32812 27.7812 4.6875 27.7812
L3.51562 27.7812
Q2.6875 27.7812 2.6875 28.7188
L2.6875 29
Q4.29688 34.9688 7.60938 39.5781
Q10.9375 44.1875 16.0156 44.1875
Q19.5781 44.1875 22.0469 41.8438
Q24.5156 39.5 24.5156 35.8906
Q24.5156 34.0312 23.6875 31.9844
L15.5781 10.5
Q14.2031 7.17188 14.2031 4.5
Q14.2031 1.51562 16.5 1.51562
Q20.4062 1.51562 23.0156 5.6875
Q25.6406 9.85938 26.7031 14.7031
Q26.9062 15.2812 27.4844 15.2812
L28.7188 15.2812
Q29.1094 15.2812 29.3438 15.0156
Q29.5938 14.75 29.5938 14.4062
Q29.5938 14.3125 29.5 14.1094
Q28.125 8.45312 24.7344 3.65625
Q21.3438 -1.125 16.3125 -1.125
Q12.7969 -1.125 10.2969 1.29688
Q7.8125 3.71875 7.8125 7.17188
M19.0938 60.5938
Q19.0938 62.7031 20.8438 64.4062
Q22.6094 66.1094 24.7031 66.1094
Q26.4219 66.1094 27.5156 65.0625
Q28.6094 64.0156 28.6094 62.4062
Q28.6094 60.1562 26.8281 58.4688
Q25.0469 56.7812 22.9062 56.7812
Q21.2969 56.7812 20.1875 57.875
Q19.0938 58.9844 19.0938 60.5938" id="Cmmi10-69"/>
      <path d="
M-1.3125 -14.2031
Q-1.3125 -11.7656 0.359375 -9.98438
Q2.04688 -8.20312 4.5 -8.20312
Q6.10938 -8.20312 7.20312 -9.20312
Q8.29688 -10.2031 8.29688 -11.8125
Q8.29688 -13.7188 7.09375 -15.25
Q5.90625 -16.7969 4.10938 -17.2812
Q5.85938 -17.9219 7.625 -17.9219
Q11.8594 -17.9219 14.9844 -13.9844
Q18.1094 -10.0625 19.3906 -5.17188
L28.8125 32.4219
Q29.5 35.2969 29.5 37.3125
Q29.5 41.6094 26.5156 41.6094
Q22.125 41.6094 18.8281 37.625
Q15.5312 33.6406 13.4844 28.4219
Q13.2812 27.7812 12.7031 27.7812
L11.5312 27.7812
Q10.6875 27.7812 10.6875 28.7188
L10.6875 29
Q12.9375 35.0156 17.0781 39.5938
Q21.2344 44.1875 26.7031 44.1875
Q30.8594 44.1875 33.5156 41.5938
Q36.1875 39.0156 36.1875 35.0156
Q36.1875 33.5938 35.8906 32.1719
L26.4219 -5.8125
Q25.3906 -9.85938 22.5 -13.2344
Q19.625 -16.6094 15.625 -18.5625
Q11.625 -20.5156 7.42188 -20.5156
Q4.04688 -20.5156 1.35938 -18.8906
Q-1.3125 -17.2812 -1.3125 -14.2031
M30.3281 60.5938
Q30.3281 62.7969 32.0312 64.4531
Q33.7344 66.1094 35.8906 66.1094
Q37.5938 66.1094 38.6875 65.0625
Q39.7969 64.0156 39.7969 62.4062
Q39.7969 60.1562 38.0156 58.4688
Q36.2344 56.7812 34.0781 56.7812
Q32.4688 56.7812 31.3906 57.9062
Q30.3281 59.0312 30.3281 60.5938" id="Cmmi10-6a"/>
     </defs>
     <g transform="translate(7.2 29.963125)scale(0.16 -0.16)">
      <use transform="translate(0.0 0.8125)" xlink:href="#Cmmi10-61"/>
      <use transform="translate(52.783203125 -24.696875)scale(0.7)" xlink:href="#Cmmi10-69"/>
      <use transform="translate(76.8798828125 -24.696875)scale(0.7)" xlink:href="#Cmmi10-6a"/>
     </g>
    </g>
   </g>
   <g id="matplotlib.axis_2">
    <g id="ytick_1">
     <g id="line2d_137">
      <defs>
       <path d="
M0 0
L-4 0" id="mcb0005524f" style="stroke:#000000;stroke-width:0.5;"/>
      </defs>
      <g>
       <use style="stroke:#000000;stroke-width:0.5;" x="310.66453949" xlink:href="#mcb0005524f" y="272.590103542"/>
      </g>
     </g>
     <g id="text_8">
      <!-- -1 -->
      <g transform="translate(314.66453949 275.349478542)scale(0.1 -0.1)">
       <use xlink:href="#BitstreamVeraSans-Roman-2d"/>
       <use x="36.083984375" xlink:href="#BitstreamVeraSans-Roman-31"/>
      </g>
     </g>
    </g>
    <g id="ytick_2">
     <g id="line2d_138">
      <g>
       <use style="stroke:#000000;stroke-width:0.5;" x="310.66453949" xlink:href="#mcb0005524f" y="226.683927226"/>
      </g>
     </g>
     <g id="text_9">
      <!-- -0.98 -->
      <g transform="translate(314.66453949 229.443302226)scale(0.1 -0.1)">
       <use xlink:href="#BitstreamVeraSans-Roman-2d"/>
       <use x="36.083984375" xlink:href="#BitstreamVeraSans-Roman-30"/>
       <use x="99.70703125" xlink:href="#BitstreamVeraSans-Roman-2e"/>
       <use x="131.494140625" xlink:href="#BitstreamVeraSans-Roman-39"/>
       <use x="195.1171875" xlink:href="#BitstreamVeraSans-Roman-38"/>
      </g>
     </g>
    </g>
    <g id="ytick_3">
     <g id="line2d_139">
      <g>
       <use style="stroke:#000000;stroke-width:0.5;" x="310.66453949" xlink:href="#mcb0005524f" y="180.777750909"/>
      </g>
     </g>
     <g id="text_10">
      <!-- -0.96 -->
      <g transform="translate(314.66453949 183.537125909)scale(0.1 -0.1)">
       <use xlink:href="#BitstreamVeraSans-Roman-2d"/>
       <use x="36.083984375" xlink:href="#BitstreamVeraSans-Roman-30"/>
       <use x="99.70703125" xlink:href="#BitstreamVeraSans-Roman-2e"/>
       <use x="131.494140625" xlink:href="#BitstreamVeraSans-Roman-39"/>
       <use x="195.1171875" xlink:href="#BitstreamVeraSans-Roman-36"/>
      </g>
     </g>
    </g>
    <g id="ytick_4">
     <g id="line2d_140">
      <g>
       <use style="stroke:#000000;stroke-width:0.5;" x="310.66453949" xlink:href="#mcb0005524f" y="134.871574593"/>
      </g>
     </g>
     <g id="text_11">
      <!-- -0.94 -->
      <g transform="translate(314.66453949 137.630949593)scale(0.1 -0.1)">
       <use xlink:href="#BitstreamVeraSans-Roman-2d"/>
       <use x="36.083984375" xlink:href="#BitstreamVeraSans-Roman-30"/>
       <use x="99.70703125" xlink:href="#BitstreamVeraSans-Roman-2e"/>
       <use x="131.494140625" xlink:href="#BitstreamVeraSans-Roman-39"/>
       <use x="195.1171875" xlink:href="#BitstreamVeraSans-Roman-34"/>
      </g>
     </g>
    </g>
    <g id="ytick_5">
     <g id="line2d_141">
      <g>
       <use style="stroke:#000000;stroke-width:0.5;" x="310.66453949" xlink:href="#mcb0005524f" y="88.9653982773"/>
      </g>
     </g>
     <g id="text_12">
      <!-- -0.92 -->
      <g transform="translate(314.66453949 91.7247732773)scale(0.1 -0.1)">
       <use xlink:href="#BitstreamVeraSans-Roman-2d"/>
       <use x="36.083984375" xlink:href="#BitstreamVeraSans-Roman-30"/>
       <use x="99.70703125" xlink:href="#BitstreamVeraSans-Roman-2e"/>
       <use x="131.494140625" xlink:href="#BitstreamVeraSans-Roman-39"/>
       <use x="195.1171875" xlink:href="#BitstreamVeraSans-Roman-32"/>
      </g>
     </g>
    </g>
    <g id="ytick_6">
     <g id="line2d_142">
      <g>
       <use style="stroke:#000000;stroke-width:0.5;" x="310.66453949" xlink:href="#mcb0005524f" y="43.0592219612"/>
      </g>
     </g>
     <g id="text_13">
      <!-- -0.9 -->
      <g transform="translate(314.66453949 45.8185969612)scale(0.1 -0.1)">
       <use xlink:href="#BitstreamVeraSans-Roman-2d"/>
       <use x="36.083984375" xlink:href="#BitstreamVeraSans-Roman-30"/>
       <use x="99.70703125" xlink:href="#BitstreamVeraSans-Roman-2e"/>
       <use x="131.494140625" xlink:href="#BitstreamVeraSans-Roman-39"/>
      </g>
     </g>
    </g>
    <g id="ytick_7">
     <g id="line2d_143">
      <defs>
       <path d="
M0 0
L-2 0" id="ma4f294b3af" style="stroke:#000000;stroke-width:0.5;"/>
      </defs>
      <g>
       <use style="stroke:#000000;stroke-width:0.5;" x="310.66453949" xlink:href="#ma4f294b3af" y="307.019735779"/>
      </g>
     </g>
    </g>
    <g id="ytick_8">
     <g id="line2d_144">
      <g>
       <use style="stroke:#000000;stroke-width:0.5;" x="310.66453949" xlink:href="#ma4f294b3af" y="295.5431917"/>
      </g>
     </g>
    </g>
    <g id="ytick_9">
     <g id="line2d_145">
      <g>
       <use style="stroke:#000000;stroke-width:0.5;" x="310.66453949" xlink:href="#ma4f294b3af" y="284.066647621"/>
      </g>
     </g>
    </g>
    <g id="ytick_10">
     <g id="line2d_146">
      <g>
       <use style="stroke:#000000;stroke-width:0.5;" x="310.66453949" xlink:href="#ma4f294b3af" y="261.113559463"/>
      </g>
     </g>
    </g>
    <g id="ytick_11">
     <g id="line2d_147">
      <g>
       <use style="stroke:#000000;stroke-width:0.5;" x="310.66453949" xlink:href="#ma4f294b3af" y="249.637015384"/>
      </g>
     </g>
    </g>
    <g id="ytick_12">
     <g id="line2d_148">
      <g>
       <use style="stroke:#000000;stroke-width:0.5;" x="310.66453949" xlink:href="#ma4f294b3af" y="238.160471305"/>
      </g>
     </g>
    </g>
    <g id="ytick_13">
     <g id="line2d_149">
      <g>
       <use style="stroke:#000000;stroke-width:0.5;" x="310.66453949" xlink:href="#ma4f294b3af" y="215.207383147"/>
      </g>
     </g>
    </g>
    <g id="ytick_14">
     <g id="line2d_150">
      <g>
       <use style="stroke:#000000;stroke-width:0.5;" x="310.66453949" xlink:href="#ma4f294b3af" y="203.730839068"/>
      </g>
     </g>
    </g>
    <g id="ytick_15">
     <g id="line2d_151">
      <g>
       <use style="stroke:#000000;stroke-width:0.5;" x="310.66453949" xlink:href="#ma4f294b3af" y="192.254294988"/>
      </g>
     </g>
    </g>
    <g id="ytick_16">
     <g id="line2d_152">
      <g>
       <use style="stroke:#000000;stroke-width:0.5;" x="310.66453949" xlink:href="#ma4f294b3af" y="169.30120683"/>
      </g>
     </g>
    </g>
    <g id="ytick_17">
     <g id="line2d_153">
      <g>
       <use style="stroke:#000000;stroke-width:0.5;" x="310.66453949" xlink:href="#ma4f294b3af" y="157.824662751"/>
      </g>
     </g>
    </g>
    <g id="ytick_18">
     <g id="line2d_154">
      <g>
       <use style="stroke:#000000;stroke-width:0.5;" x="310.66453949" xlink:href="#ma4f294b3af" y="146.348118672"/>
      </g>
     </g>
    </g>
    <g id="ytick_19">
     <g id="line2d_155">
      <g>
       <use style="stroke:#000000;stroke-width:0.5;" x="310.66453949" xlink:href="#ma4f294b3af" y="123.395030514"/>
      </g>
     </g>
    </g>
    <g id="ytick_20">
     <g id="line2d_156">
      <g>
       <use style="stroke:#000000;stroke-width:0.5;" x="310.66453949" xlink:href="#ma4f294b3af" y="111.918486435"/>
      </g>
     </g>
    </g>
    <g id="ytick_21">
     <g id="line2d_157">
      <g>
       <use style="stroke:#000000;stroke-width:0.5;" x="310.66453949" xlink:href="#ma4f294b3af" y="100.441942356"/>
      </g>
     </g>
    </g>
    <g id="ytick_22">
     <g id="line2d_158">
      <g>
       <use style="stroke:#000000;stroke-width:0.5;" x="310.66453949" xlink:href="#ma4f294b3af" y="77.4888541983"/>
      </g>
     </g>
    </g>
    <g id="ytick_23">
     <g id="line2d_159">
      <g>
       <use style="stroke:#000000;stroke-width:0.5;" x="310.66453949" xlink:href="#ma4f294b3af" y="66.0123101193"/>
      </g>
     </g>
    </g>
    <g id="ytick_24">
     <g id="line2d_160">
      <g>
       <use style="stroke:#000000;stroke-width:0.5;" x="310.66453949" xlink:href="#ma4f294b3af" y="54.5357660403"/>
      </g>
     </g>
    </g>
    <g id="text_14">
     <!-- $a_{ji}$ -->
     <g transform="translate(302.18453949 333.281625)scale(0.16 -0.16)">
      <use transform="translate(0.0 0.8125)" xlink:href="#Cmmi10-61"/>
      <use transform="translate(52.783203125 -24.696875)scale(0.7)" xlink:href="#Cmmi10-6a"/>
      <use transform="translate(81.5625 -24.696875)scale(0.7)" xlink:href="#Cmmi10-69"/>
     </g>
    </g>
   </g>
   <g id="patch_3">
    <path d="
M32.16 20.8781
L300.665 20.8781" style="fill:none;stroke:#000000;stroke-width:0.8;"/>
   </g>
   <g id="patch_4">
    <path d="
M310.665 316.197
L310.665 30.8781" style="fill:none;stroke:#000000;stroke-width:0.8;"/>
   </g>
  </g>
 </g>
 <defs>
  <clipPath id="p14e4df259a">
   <rect height="285.3185" width="268.50453949" x="32.16" y="30.878125"/>
  </clipPath>
 </defs>
</svg>
