<?xml version="1.0" encoding="utf-8" standalone="no"?>
<!DOCTYPE svg PUBLIC "-//W3C//DTD SVG 1.1//EN"
  "http://www.w3.org/Graphics/SVG/1.1/DTD/svg11.dtd">
<!-- Created with matplotlib (http://matplotlib.org/) -->
<svg height="205pt" version="1.1" viewBox="0 0 202 205" width="202pt" xmlns="http://www.w3.org/2000/svg" xmlns:xlink="http://www.w3.org/1999/xlink">
 <defs>
  <style type="text/css">
*{stroke-linecap:butt;stroke-linejoin:round;}
  </style>
 </defs>
 <g id="figure_1">
  <g id="patch_1">
   <path d="
M4.44089e-16 205.012
L202.752 205.012
L202.752 0
L4.44089e-16 0
z
" style="fill:#ffffff;"/>
  </g>
  <g id="axes_1">
   <g id="patch_2">
    <path d="
M22.3358 187.603
L186.873 187.603
L186.873 7.2
L22.3358 7.2
z
" style="fill:#ffffff;"/>
   </g>
   <g id="line2d_1">
    <path clip-path="url(#p875f397177)" d="
M25.5 183.556
L29.9615 182.328
L34.0433 180.976
L37.8245 179.491
L41.3525 177.869
L44.6749 176.097
L47.8074 174.175
L50.7976 172.079
L53.6611 169.8
L56.414 167.325
L59.0719 164.635
L61.6665 161.691
L64.182 158.499
L66.6501 155.006
L69.0707 151.192
L71.4596 147.011
L73.8328 142.401
L76.1901 137.328
L78.5316 131.755
L80.9047 125.523
L83.3253 118.528
L85.8566 110.518
L88.6727 100.841
L92.5647 86.5741
L96.9787 70.5853
L99.3835 62.7189
L101.456 56.6771
L103.386 51.7162
L105.269 47.4781
L107.152 43.782
L109.05 40.5372
L111.012 37.6199
L113.053 34.9804
L115.204 32.5607
L117.483 30.3328
L119.919 28.2616
L122.545 26.3221
L125.393 24.4979
L128.494 22.7781
L131.88 21.1566
L135.613 19.6181
L139.727 18.1672
L144.267 16.8044
L149.314 15.5255
L154.915 14.3392
L161.18 13.2438
L168.204 12.2458
L176.131 11.349
L183.709 10.6693
L183.709 10.6693" style="fill:none;stroke:#0000ff;stroke-linecap:square;"/>
   </g>
   <g id="line2d_2">
    <path clip-path="url(#p875f397177)" d="
M25.5 184.134
L30.183 182.967
L34.4388 181.682
L38.3624 180.267
L42.017 178.714
L45.4343 177.022
L48.6618 175.176
L51.7152 173.175
L54.642 170.99
L57.4423 168.622
L60.1477 166.042
L62.774 163.229
L65.3211 160.173
L67.8208 156.824
L70.2731 153.161
L72.6778 149.167
L75.0668 144.762
L77.4399 139.913
L79.813 134.552
L82.2178 128.562
L84.7017 121.767
L87.3754 113.784
L90.5712 103.498
L97.8014 79.9542
L100.08 73.4805
L102.105 68.3774
L104.035 64.1051
L105.933 60.4365
L107.832 57.2436
L109.778 54.3995
L111.803 51.8306
L113.923 49.4979
L116.185 47.3399
L118.606 45.3406
L121.216 43.4754
L124.048 41.7273
L127.149 40.0771
L130.551 38.5213
L134.316 37.0467
L138.493 35.6539
L143.128 34.346
L148.302 33.1212
L154.092 31.9832
L160.594 30.9365
L167.919 29.9871
L176.257 29.1358
L183.709 28.5354
L183.709 28.5354" style="fill:none;stroke:#ff0000;stroke-linecap:square;"/>
   </g>
   <g id="matplotlib.axis_1">
    <g id="xtick_1">
     <g id="line2d_3">
      <defs>
       <path d="
M0 0
L0 -4" id="m93b0483c22" style="stroke:#000000;stroke-width:0.5;"/>
      </defs>
      <g>
       <use style="stroke:#000000;stroke-width:0.5;" x="25.5" xlink:href="#m93b0483c22" y="184.133786982"/>
      </g>
     </g>
    </g>
    <g id="xtick_2">
     <g id="line2d_4">
      <g>
       <use style="stroke:#000000;stroke-width:0.5;" x="104.604349689" xlink:href="#m93b0483c22" y="184.133786982"/>
      </g>
     </g>
     <g id="text_1">
      <!-- 500 -->
      <defs>
       <path d="
M31.7812 66.4062
Q24.1719 66.4062 20.3281 58.9062
Q16.5 51.4219 16.5 36.375
Q16.5 21.3906 20.3281 13.8906
Q24.1719 6.39062 31.7812 6.39062
Q39.4531 6.39062 43.2812 13.8906
Q47.125 21.3906 47.125 36.375
Q47.125 51.4219 43.2812 58.9062
Q39.4531 66.4062 31.7812 66.4062
M31.7812 74.2188
Q44.0469 74.2188 50.5156 64.5156
Q56.9844 54.8281 56.9844 36.375
Q56.9844 17.9688 50.5156 8.26562
Q44.0469 -1.42188 31.7812 -1.42188
Q19.5312 -1.42188 13.0625 8.26562
Q6.59375 17.9688 6.59375 36.375
Q6.59375 54.8281 13.0625 64.5156
Q19.5312 74.2188 31.7812 74.2188" id="BitstreamVeraSans-Roman-30"/>
       <path d="
M10.7969 72.9062
L49.5156 72.9062
L49.5156 64.5938
L19.8281 64.5938
L19.8281 46.7344
Q21.9688 47.4688 24.1094 47.8281
Q26.2656 48.1875 28.4219 48.1875
Q40.625 48.1875 47.75 41.5
Q54.8906 34.8125 54.8906 23.3906
Q54.8906 11.625 47.5625 5.09375
Q40.2344 -1.42188 26.9062 -1.42188
Q22.3125 -1.42188 17.5469 -0.640625
Q12.7969 0.140625 7.71875 1.70312
L7.71875 11.625
Q12.1094 9.23438 16.7969 8.0625
Q21.4844 6.89062 26.7031 6.89062
Q35.1562 6.89062 40.0781 11.3281
Q45.0156 15.7656 45.0156 23.3906
Q45.0156 31 40.0781 35.4375
Q35.1562 39.8906 26.7031 39.8906
Q22.75 39.8906 18.8125 39.0156
Q14.8906 38.1406 10.7969 36.2812
z
" id="BitstreamVeraSans-Roman-35"/>
      </defs>
      <g transform="translate(95.7785684394 195.732224482)scale(0.1 -0.1)">
       <use xlink:href="#BitstreamVeraSans-Roman-35"/>
       <use x="63.623046875" xlink:href="#BitstreamVeraSans-Roman-30"/>
       <use x="127.24609375" xlink:href="#BitstreamVeraSans-Roman-30"/>
      </g>
     </g>
    </g>
    <g id="xtick_3">
     <g id="line2d_5">
      <g>
       <use style="stroke:#000000;stroke-width:0.5;" x="183.708699379" xlink:href="#m93b0483c22" y="184.133786982"/>
      </g>
     </g>
     <g id="text_2">
      <!-- 1000 -->
      <defs>
       <path d="
M12.4062 8.29688
L28.5156 8.29688
L28.5156 63.9219
L10.9844 60.4062
L10.9844 69.3906
L28.4219 72.9062
L38.2812 72.9062
L38.2812 8.29688
L54.3906 8.29688
L54.3906 0
L12.4062 0
z
" id="BitstreamVeraSans-Roman-31"/>
      </defs>
      <g transform="translate(171.864949379 195.732224482)scale(0.1 -0.1)">
       <use xlink:href="#BitstreamVeraSans-Roman-31"/>
       <use x="63.623046875" xlink:href="#BitstreamVeraSans-Roman-30"/>
       <use x="127.24609375" xlink:href="#BitstreamVeraSans-Roman-30"/>
       <use x="190.869140625" xlink:href="#BitstreamVeraSans-Roman-30"/>
      </g>
     </g>
    </g>
    <g id="xtick_4">
     <g id="line2d_6">
      <defs>
       <path d="
M0 0
L0 -2" id="m177f7580d0" style="stroke:#000000;stroke-width:0.5;"/>
      </defs>
      <g>
       <use style="stroke:#000000;stroke-width:0.5;" x="41.3208699379" xlink:href="#m177f7580d0" y="184.133786982"/>
      </g>
     </g>
    </g>
    <g id="xtick_5">
     <g id="line2d_7">
      <g>
       <use style="stroke:#000000;stroke-width:0.5;" x="57.1417398757" xlink:href="#m177f7580d0" y="184.133786982"/>
      </g>
     </g>
    </g>
    <g id="xtick_6">
     <g id="line2d_8">
      <g>
       <use style="stroke:#000000;stroke-width:0.5;" x="72.9626098136" xlink:href="#m177f7580d0" y="184.133786982"/>
      </g>
     </g>
    </g>
    <g id="xtick_7">
     <g id="line2d_9">
      <g>
       <use style="stroke:#000000;stroke-width:0.5;" x="88.7834797515" xlink:href="#m177f7580d0" y="184.133786982"/>
      </g>
     </g>
    </g>
    <g id="xtick_8">
     <g id="line2d_10">
      <g>
       <use style="stroke:#000000;stroke-width:0.5;" x="120.425219627" xlink:href="#m177f7580d0" y="184.133786982"/>
      </g>
     </g>
    </g>
    <g id="xtick_9">
     <g id="line2d_11">
      <g>
       <use style="stroke:#000000;stroke-width:0.5;" x="136.246089565" xlink:href="#m177f7580d0" y="184.133786982"/>
      </g>
     </g>
    </g>
    <g id="xtick_10">
     <g id="line2d_12">
      <g>
       <use style="stroke:#000000;stroke-width:0.5;" x="152.066959503" xlink:href="#m177f7580d0" y="184.133786982"/>
      </g>
     </g>
    </g>
    <g id="xtick_11">
     <g id="line2d_13">
      <g>
       <use style="stroke:#000000;stroke-width:0.5;" x="167.887829441" xlink:href="#m177f7580d0" y="184.133786982"/>
      </g>
     </g>
    </g>
   </g>
   <g id="matplotlib.axis_2">
    <g id="ytick_1">
     <g id="line2d_14">
      <defs>
       <path d="
M0 0
L4 0" id="m728421d6d4" style="stroke:#000000;stroke-width:0.5;"/>
      </defs>
      <g>
       <use style="stroke:#000000;stroke-width:0.5;" x="25.5" xlink:href="#m728421d6d4" y="184.133786982"/>
      </g>
     </g>
    </g>
    <g id="ytick_2">
     <g id="line2d_15">
      <g>
       <use style="stroke:#000000;stroke-width:0.5;" x="25.5" xlink:href="#m728421d6d4" y="165.992944236"/>
      </g>
     </g>
     <g id="text_3">
      <!-- $\pi$ -->
      <defs>
       <path d="
M10.1094 1.70312
Q10.1094 2.25 10.5 3.32812
Q13.2812 9.125 15.6875 14.7188
Q18.1094 20.3125 20.0312 25.6094
Q21.9688 30.9062 23.5781 36.9219
L17.1875 36.9219
Q13.5312 36.9219 10.3438 34.625
Q7.17188 32.3281 5.07812 28.8125
Q4.89062 28.4219 4.5 28.4219
L3.32812 28.4219
Q2.39062 28.4219 2.39062 29.3906
Q2.39062 29.5938 2.59375 29.9844
Q5.85938 35.5469 9.59375 39.3281
Q13.3281 43.1094 18.0156 43.1094
L54.2969 43.1094
Q55.3281 43.1094 56.0469 42.4219
Q56.7812 41.75 56.7812 40.5781
Q56.7812 39.1094 55.7344 38.0156
Q54.6875 36.9219 53.2188 36.9219
L40.4844 36.9219
Q38.875 29.0469 38.7188 21.5781
Q38.7188 11.9688 42.0938 4.20312
Q42.3906 3.60938 42.3906 2.98438
Q42.3906 1.90625 41.75 0.96875
Q41.1094 0.046875 40.1094 -0.53125
Q39.1094 -1.125 37.9844 -1.125
Q35.3594 -1.125 34.375 3.17188
Q33.4062 7.46875 33.4062 11.5312
Q33.4062 17.2344 34.375 22.5312
Q35.3594 27.8281 37.5 36.9219
L26.6094 36.9219
Q18.7031 4.89062 17.0938 1.60938
Q15.6719 -1.125 13.1875 -1.125
Q11.9688 -1.125 11.0312 -0.3125
Q10.1094 0.484375 10.1094 1.70312" id="Cmmi10-bc"/>
      </defs>
      <g transform="translate(15.8 168.752319236)scale(0.1 -0.1)">
       <use transform="translate(0.0 0.890625)" xlink:href="#Cmmi10-bc"/>
      </g>
     </g>
    </g>
    <g id="ytick_3">
     <g id="line2d_16">
      <g>
       <use style="stroke:#000000;stroke-width:0.5;" x="25.5" xlink:href="#m728421d6d4" y="147.852101489"/>
      </g>
     </g>
     <g id="text_4">
      <!-- $2 \, \pi$ -->
      <defs>
       <path d="
M4.98438 0
L4.98438 2.6875
Q4.98438 2.9375 5.17188 3.21875
L20.7031 20.4062
Q24.2188 24.2188 26.4062 26.7969
Q28.6094 29.3906 30.75 32.7656
Q32.9062 36.1406 34.1562 39.625
Q35.4062 43.1094 35.4062 47.0156
Q35.4062 51.125 33.8906 54.8594
Q32.375 58.5938 29.375 60.8438
Q26.375 63.0938 22.125 63.0938
Q17.7812 63.0938 14.3125 60.4688
Q10.8438 57.8594 9.42188 53.7188
Q9.8125 53.8125 10.5 53.8125
Q12.75 53.8125 14.3281 52.2969
Q15.9219 50.7812 15.9219 48.3906
Q15.9219 46.0938 14.3281 44.5
Q12.75 42.9219 10.5 42.9219
Q8.15625 42.9219 6.5625 44.5469
Q4.98438 46.1875 4.98438 48.3906
Q4.98438 52.1562 6.39062 55.4375
Q7.8125 58.7344 10.4688 61.2969
Q13.1406 63.875 16.4844 65.2344
Q19.8281 66.6094 23.5781 66.6094
Q29.2969 66.6094 34.2188 64.1875
Q39.1562 61.7656 42.0312 57.3438
Q44.9219 52.9375 44.9219 47.0156
Q44.9219 42.6719 43.0156 38.7656
Q41.1094 34.8594 38.125 31.6562
Q35.1562 28.4688 30.5156 24.4062
Q25.875 20.3594 24.4219 19
L13.0938 8.10938
L22.7031 8.10938
Q29.7812 8.10938 34.5469 8.21875
Q39.3125 8.34375 39.5938 8.59375
Q40.7656 9.85938 42 17.8281
L44.9219 17.8281
L42.0938 0
z
" id="Cmr10-32"/>
      </defs>
      <g transform="translate(7.2 150.611476489)scale(0.1 -0.1)">
       <use transform="translate(0.0 0.390625)" xlink:href="#Cmr10-32"/>
       <use transform="translate(85.1171875 0.390625)" xlink:href="#Cmmi10-bc"/>
      </g>
     </g>
    </g>
    <g id="ytick_4">
     <g id="line2d_17">
      <g>
       <use style="stroke:#000000;stroke-width:0.5;" x="25.5" xlink:href="#m728421d6d4" y="129.711258742"/>
      </g>
     </g>
     <g id="text_5">
      <!-- $3 \, \pi$ -->
      <defs>
       <path d="
M9.51562 7.71875
Q11.8594 4.29688 15.8125 2.64062
Q19.7812 0.984375 24.3125 0.984375
Q30.125 0.984375 32.5625 5.9375
Q35.0156 10.8906 35.0156 17.1875
Q35.0156 20.0156 34.5 22.8438
Q33.9844 25.6875 32.7656 28.125
Q31.5469 30.5625 29.4219 32.0312
Q27.2969 33.5 24.2188 33.5
L17.5781 33.5
Q16.7031 33.5 16.7031 34.4219
L16.7031 35.2969
Q16.7031 36.0781 17.5781 36.0781
L23.0938 36.5312
Q26.6094 36.5312 28.9219 39.1562
Q31.25 41.7969 32.3281 45.5781
Q33.4062 49.3594 33.4062 52.7812
Q33.4062 57.5625 31.1562 60.6406
Q28.9062 63.7188 24.3125 63.7188
Q20.5156 63.7188 17.0469 62.2812
Q13.5781 60.8438 11.5312 57.9062
Q11.7188 57.9531 11.8594 57.9844
Q12.0156 58.0156 12.2031 58.0156
Q14.4531 58.0156 15.9688 56.4531
Q17.4844 54.8906 17.4844 52.6875
Q17.4844 50.5312 15.9688 48.9688
Q14.4531 47.4062 12.2031 47.4062
Q10.0156 47.4062 8.45312 48.9688
Q6.89062 50.5312 6.89062 52.6875
Q6.89062 56.9844 9.46875 60.1562
Q12.0625 63.3281 16.1406 64.9688
Q20.2188 66.6094 24.3125 66.6094
Q27.3438 66.6094 30.7031 65.7031
Q34.0781 64.7969 36.8125 63.1094
Q39.5469 61.4219 41.2812 58.7812
Q43.0156 56.1562 43.0156 52.7812
Q43.0156 48.5781 41.1406 45.0156
Q39.2656 41.4531 35.9844 38.8594
Q32.7188 36.2812 28.8125 35.0156
Q33.1562 34.1875 37.0625 31.7344
Q40.9688 29.2969 43.3281 25.4844
Q45.7031 21.6875 45.7031 17.2812
Q45.7031 11.7656 42.6719 7.29688
Q39.6562 2.82812 34.7188 0.3125
Q29.7812 -2.20312 24.3125 -2.20312
Q19.625 -2.20312 14.9062 -0.40625
Q10.2031 1.375 7.20312 4.9375
Q4.20312 8.5 4.20312 13.4844
Q4.20312 15.9688 5.85938 17.625
Q7.51562 19.2812 10.0156 19.2812
Q11.625 19.2812 12.9688 18.5312
Q14.3125 17.7812 15.0625 16.4062
Q15.8281 15.0469 15.8281 13.4844
Q15.8281 11.0312 14.1094 9.375
Q12.4062 7.71875 10.0156 7.71875
z
" id="Cmr10-33"/>
      </defs>
      <g transform="translate(7.2 132.470633742)scale(0.1 -0.1)">
       <use transform="translate(0.0 0.390625)" xlink:href="#Cmr10-33"/>
       <use transform="translate(85.1171875 0.390625)" xlink:href="#Cmmi10-bc"/>
      </g>
     </g>
    </g>
    <g id="ytick_5">
     <g id="line2d_18">
      <g>
       <use style="stroke:#000000;stroke-width:0.5;" x="25.5" xlink:href="#m728421d6d4" y="111.570415996"/>
      </g>
     </g>
     <g id="text_6">
      <!-- $4 \, \pi$ -->
      <defs>
       <path d="
M2.78125 16.5
L2.78125 20.0156
L33.6875 66.1094
Q34.0312 66.6094 34.7188 66.6094
L36.1875 66.6094
Q37.3125 66.6094 37.3125 65.4844
L37.3125 20.0156
L47.125 20.0156
L47.125 16.5
L37.3125 16.5
L37.3125 6.6875
Q37.3125 4.64062 40.2344 4.07812
Q43.1719 3.51562 47.0156 3.51562
L47.0156 0
L19.4844 0
L19.4844 3.51562
Q23.3438 3.51562 26.2656 4.07812
Q29.2031 4.64062 29.2031 6.6875
L29.2031 16.5
z

M6.10938 20.0156
L29.7812 20.0156
L29.7812 55.4219
z
" id="Cmr10-34"/>
      </defs>
      <g transform="translate(7.2 114.329790996)scale(0.1 -0.1)">
       <use transform="translate(0.0 0.390625)" xlink:href="#Cmr10-34"/>
       <use transform="translate(85.1171875 0.390625)" xlink:href="#Cmmi10-bc"/>
      </g>
     </g>
    </g>
    <g id="ytick_6">
     <g id="line2d_19">
      <g>
       <use style="stroke:#000000;stroke-width:0.5;" x="25.5" xlink:href="#m728421d6d4" y="93.4295732492"/>
      </g>
     </g>
     <g id="text_7">
      <!-- $5 \, \pi$ -->
      <defs>
       <path d="
M8.6875 11.375
Q9.71875 8.45312 11.8438 6.04688
Q13.9688 3.65625 16.875 2.3125
Q19.7812 0.984375 22.9062 0.984375
Q30.125 0.984375 32.8594 6.59375
Q35.5938 12.2031 35.5938 20.2188
Q35.5938 23.6875 35.4688 26.0469
Q35.3594 28.4219 34.8125 30.6094
Q33.8906 34.125 31.5625 36.7656
Q29.25 39.4062 25.875 39.4062
Q22.5156 39.4062 20.0938 38.375
Q17.6719 37.3594 16.1562 35.9844
Q14.6562 34.625 13.4844 33.1094
Q12.3125 31.5938 12.0156 31.5
L10.8906 31.5
Q10.6406 31.5 10.2656 31.8125
Q9.90625 32.125 9.90625 32.4219
L9.90625 65.8281
Q9.90625 66.0625 10.2188 66.3281
Q10.5469 66.6094 10.8906 66.6094
L11.1875 66.6094
Q17.9219 63.375 25.4844 63.375
Q32.9062 63.375 39.7969 66.6094
L40.0938 66.6094
Q40.4375 66.6094 40.7188 66.3594
Q41.0156 66.1094 41.0156 65.8281
L41.0156 64.8906
Q41.0156 64.4062 40.8281 64.4062
Q37.4062 59.8594 32.25 57.3125
Q27.0938 54.7812 21.5781 54.7812
Q17.5781 54.7812 13.375 55.9062
L13.375 37.0156
Q16.7031 39.7031 19.3125 40.8438
Q21.9219 42 25.9844 42
Q31.5 42 35.8594 38.8125
Q40.2344 35.6406 42.5781 30.5312
Q44.9219 25.4375 44.9219 20.125
Q44.9219 14.1094 41.9688 8.98438
Q39.0156 3.85938 33.9375 0.828125
Q28.8594 -2.20312 22.9062 -2.20312
Q17.9688 -2.20312 13.8438 0.328125
Q9.71875 2.875 7.34375 7.17188
Q4.98438 11.4688 4.98438 16.3125
Q4.98438 18.5625 6.4375 19.9688
Q7.90625 21.3906 10.1094 21.3906
Q12.3125 21.3906 13.7969 19.9375
Q15.2812 18.5 15.2812 16.3125
Q15.2812 14.1562 13.7969 12.6719
Q12.3125 11.1875 10.1094 11.1875
Q9.76562 11.1875 9.32812 11.25
Q8.89062 11.3281 8.6875 11.375" id="Cmr10-35"/>
      </defs>
      <g transform="translate(7.2 96.1889482492)scale(0.1 -0.1)">
       <use transform="translate(0.0 0.390625)" xlink:href="#Cmr10-35"/>
       <use transform="translate(85.1171875 0.390625)" xlink:href="#Cmmi10-bc"/>
      </g>
     </g>
    </g>
    <g id="ytick_7">
     <g id="line2d_20">
      <g>
       <use style="stroke:#000000;stroke-width:0.5;" x="25.5" xlink:href="#m728421d6d4" y="75.2887305026"/>
      </g>
     </g>
     <g id="text_8">
      <!-- $6 \, \pi$ -->
      <defs>
       <path d="
M25 -2.20312
Q18.7969 -2.20312 14.6406 1.09375
Q10.5 4.39062 8.21875 9.64062
Q5.95312 14.8906 5.07812 20.6562
Q4.20312 26.4219 4.20312 32.3281
Q4.20312 40.2344 7.28125 48.1875
Q10.3594 56.1562 16.3281 61.375
Q22.3125 66.6094 30.5156 66.6094
Q33.9375 66.6094 36.8906 65.3125
Q39.8438 64.0156 41.5312 61.5
Q43.2188 58.9844 43.2188 55.4219
Q43.2188 53.375 41.8281 51.9844
Q40.4375 50.5938 38.375 50.5938
Q36.4219 50.5938 35 52
Q33.5938 53.4219 33.5938 55.4219
Q33.5938 57.375 35 58.7812
Q36.4219 60.2031 38.375 60.2031
L38.9219 60.2031
Q37.6406 62.0156 35.3281 62.8594
Q33.0156 63.7188 30.5156 63.7188
Q27.4844 63.7188 24.9219 62.3906
Q22.3594 61.0781 20.3125 58.8281
Q18.2656 56.5938 16.8906 53.875
Q15.5312 51.1719 14.7656 47.7031
Q14.0156 44.2344 13.8125 41.2031
Q13.625 38.1875 13.625 33.5938
Q15.375 37.7031 18.5938 40.3125
Q21.8281 42.9219 25.875 42.9219
Q30.3281 42.9219 33.9844 41.1094
Q37.6406 39.3125 40.2812 36.1094
Q42.9219 32.9062 44.3125 28.7969
Q45.7031 24.7031 45.7031 20.5156
Q45.7031 14.6562 43.0938 9.34375
Q40.4844 4.04688 35.7344 0.921875
Q31 -2.20312 25 -2.20312
M25 0.984375
Q28.8594 0.984375 31.2031 2.73438
Q33.5469 4.5 34.6406 7.39062
Q35.75 10.2969 36.0156 13.25
Q36.2812 16.2188 36.2812 20.5156
Q36.2812 26.1719 35.7344 30.1719
Q35.2031 34.1875 32.8125 37.2344
Q30.4219 40.2812 25.4844 40.2812
Q21.4375 40.2812 18.8281 37.5469
Q16.2188 34.8125 15.0156 30.6406
Q13.8125 26.4688 13.8125 22.6094
Q13.8125 21.2969 13.9219 20.6094
Q13.9219 20.4531 13.8906 20.3594
Q13.875 20.2656 13.8125 20.125
Q13.8125 15.8281 14.6875 11.4219
Q15.5781 7.03125 18.0625 4
Q20.5625 0.984375 25 0.984375" id="Cmr10-36"/>
      </defs>
      <g transform="translate(7.2 78.0481055026)scale(0.1 -0.1)">
       <use transform="translate(0.0 0.390625)" xlink:href="#Cmr10-36"/>
       <use transform="translate(85.1171875 0.390625)" xlink:href="#Cmmi10-bc"/>
      </g>
     </g>
    </g>
    <g id="ytick_8">
     <g id="line2d_21">
      <g>
       <use style="stroke:#000000;stroke-width:0.5;" x="25.5" xlink:href="#m728421d6d4" y="57.147887756"/>
      </g>
     </g>
     <g id="text_9">
      <!-- $7 \, \pi$ -->
      <defs>
       <path d="
M17.3906 2.59375
Q17.3906 8.15625 18.3594 13.4688
Q19.3438 18.7969 21.2188 24
Q23.0938 29.2031 25.75 34.2031
Q28.4219 39.2031 31.5938 43.6094
L40.7188 56.2969
L29.2969 56.2969
Q11.5312 56.2969 10.9844 55.8125
Q9.67188 54.2031 8.5 46.5781
L5.60938 46.5781
L8.89062 67.5781
L11.8125 67.5781
L11.8125 67.2812
Q11.8125 65.4844 17.9219 64.9375
Q24.0312 64.4062 29.8906 64.4062
L48.4844 64.4062
L48.4844 61.8125
Q48.4844 61.7188 48.4531 61.6719
Q48.4375 61.625 48.3906 61.5312
L34.625 42.1875
Q29.5469 34.6719 28.2656 25.4844
Q27 16.3125 27 2.59375
Q27 0.640625 25.5781 -0.78125
Q24.1719 -2.20312 22.2188 -2.20312
Q20.2188 -2.20312 18.7969 -0.78125
Q17.3906 0.640625 17.3906 2.59375" id="Cmr10-37"/>
      </defs>
      <g transform="translate(7.2 59.907262756)scale(0.1 -0.1)">
       <use transform="translate(0.0 0.421875)" xlink:href="#Cmr10-37"/>
       <use transform="translate(85.1171875 0.421875)" xlink:href="#Cmmi10-bc"/>
      </g>
     </g>
    </g>
    <g id="ytick_9">
     <g id="line2d_22">
      <g>
       <use style="stroke:#000000;stroke-width:0.5;" x="25.5" xlink:href="#m728421d6d4" y="39.0070450094"/>
      </g>
     </g>
     <g id="text_10">
      <!-- $8 \, \pi$ -->
      <defs>
       <path d="
M4.20312 15.1875
Q4.20312 21.1875 8.15625 25.7969
Q12.1094 30.4219 18.3125 33.5
L14.5938 35.8906
Q11.1875 38.1406 9.03125 41.875
Q6.89062 45.6094 6.89062 49.7031
Q6.89062 54.5 9.40625 58.3438
Q11.9219 62.2031 16.0938 64.4062
Q20.2656 66.6094 25 66.6094
Q29.4375 66.6094 33.5625 64.7969
Q37.7031 62.9844 40.3594 59.6094
Q43.0156 56.25 43.0156 51.6094
Q43.0156 48.25 41.4219 45.3594
Q39.8438 42.4844 37.0781 40.1875
Q34.3281 37.8906 31.2031 36.2812
L36.9219 32.625
Q40.875 30.0312 43.2812 25.8281
Q45.7031 21.625 45.7031 17
Q45.7031 11.5781 42.7969 7.125
Q39.8906 2.6875 35.1094 0.234375
Q30.3281 -2.20312 25 -2.20312
Q19.8281 -2.20312 15.0156 -0.09375
Q10.2031 2 7.20312 5.98438
Q4.20312 9.96875 4.20312 15.1875
M9.625 15.1875
Q9.625 11.2344 11.7969 7.95312
Q13.9688 4.6875 17.5312 2.82812
Q21.0938 0.984375 25 0.984375
Q30.8125 0.984375 35.5469 4.375
Q40.2812 7.76562 40.2812 13.375
Q40.2812 15.2812 39.5156 17.1562
Q38.7656 19.0469 37.4219 20.5781
Q36.0781 22.125 34.4219 23.0938
L21 31.7812
Q17.875 30.125 15.25 27.5781
Q12.6406 25.0469 11.125 21.875
Q9.625 18.7031 9.625 15.1875
M16.5 45.7031
L28.6094 37.8906
Q32.8125 40.3281 35.5 43.7969
Q38.1875 47.2656 38.1875 51.6094
Q38.1875 54.9844 36.2969 57.7812
Q34.4219 60.5938 31.3906 62.1562
Q28.375 63.7188 24.9062 63.7188
Q21.875 63.7188 18.7969 62.5469
Q15.7188 61.375 13.7188 59.0469
Q11.7188 56.7344 11.7188 53.6094
Q11.7188 48.9219 16.5 45.7031" id="Cmr10-38"/>
      </defs>
      <g transform="translate(7.2 41.7664200094)scale(0.1 -0.1)">
       <use transform="translate(0.0 0.390625)" xlink:href="#Cmr10-38"/>
       <use transform="translate(85.1171875 0.390625)" xlink:href="#Cmmi10-bc"/>
      </g>
     </g>
    </g>
    <g id="ytick_10">
     <g id="line2d_23">
      <g>
       <use style="stroke:#000000;stroke-width:0.5;" x="25.5" xlink:href="#m728421d6d4" y="20.8662022628"/>
      </g>
     </g>
     <g id="text_11">
      <!-- $9 \, \pi$ -->
      <defs>
       <path d="
M11.2812 4.20312
Q14.0156 0.984375 20.7969 0.984375
Q24.6094 0.984375 27.9062 3.5625
Q31.2031 6.15625 33.0156 9.90625
Q35.1094 14.1562 35.6875 18.9688
Q36.2812 23.7812 36.2812 30.9062
Q34.5781 26.8594 31.375 24.2656
Q28.1719 21.6875 24.0312 21.6875
Q18.2188 21.6875 13.6406 24.8281
Q9.07812 27.9844 6.64062 33.125
Q4.20312 38.2812 4.20312 44.0938
Q4.20312 50.0938 6.9375 55.2969
Q9.67188 60.5 14.5 63.5469
Q19.3438 66.6094 25.4844 66.6094
Q31.5469 66.6094 35.625 63.3125
Q39.7031 60.0156 41.8438 54.8125
Q44 49.6094 44.8438 43.7969
Q45.7031 37.9844 45.7031 32.3281
Q45.7031 24.6094 42.875 16.5781
Q40.0469 8.54688 34.4062 3.17188
Q28.7656 -2.20312 20.7969 -2.20312
Q14.8906 -2.20312 10.7812 0.578125
Q6.6875 3.375 6.6875 8.98438
Q6.6875 11.0312 8.07812 12.4219
Q9.46875 13.8125 11.5312 13.8125
Q13.5312 13.8125 14.9219 12.4219
Q16.3125 11.0312 16.3125 8.98438
Q16.3125 7.03125 14.8906 5.60938
Q13.4844 4.20312 11.5312 4.20312
z

M24.4219 24.3125
Q28.5156 24.3125 31.125 27.0625
Q33.7344 29.8281 34.9062 33.9219
Q36.0781 38.0312 36.0781 42.0938
L36.0781 44
L36.0781 44.3906
Q36.0781 51.9062 33.875 57.8125
Q31.6875 63.7188 25.4844 63.7188
Q21.5312 63.7188 19.0625 61.9844
Q16.6094 60.25 15.4375 57.375
Q14.2656 54.5 13.9375 51.2188
Q13.625 47.9531 13.625 44.0938
Q13.625 38.4219 14.1562 34.4219
Q14.7031 30.4219 17.0938 27.3594
Q19.4844 24.3125 24.4219 24.3125" id="Cmr10-39"/>
      </defs>
      <g transform="translate(7.2 23.6255772628)scale(0.1 -0.1)">
       <use transform="translate(0.0 0.390625)" xlink:href="#Cmr10-39"/>
       <use transform="translate(85.1171875 0.390625)" xlink:href="#Cmmi10-bc"/>
      </g>
     </g>
    </g>
    <g id="ytick_11">
     <g id="line2d_24">
      <defs>
       <path d="
M0 0
L2 0" id="mf0c55a9a47" style="stroke:#000000;stroke-width:0.5;"/>
      </defs>
      <g>
       <use style="stroke:#000000;stroke-width:0.5;" x="25.5" xlink:href="#mf0c55a9a47" y="179.598576296"/>
      </g>
     </g>
    </g>
    <g id="ytick_12">
     <g id="line2d_25">
      <g>
       <use style="stroke:#000000;stroke-width:0.5;" x="25.5" xlink:href="#mf0c55a9a47" y="175.063365609"/>
      </g>
     </g>
    </g>
    <g id="ytick_13">
     <g id="line2d_26">
      <g>
       <use style="stroke:#000000;stroke-width:0.5;" x="25.5" xlink:href="#mf0c55a9a47" y="170.528154922"/>
      </g>
     </g>
    </g>
    <g id="ytick_14">
     <g id="line2d_27">
      <g>
       <use style="stroke:#000000;stroke-width:0.5;" x="25.5" xlink:href="#mf0c55a9a47" y="161.457733549"/>
      </g>
     </g>
    </g>
    <g id="ytick_15">
     <g id="line2d_28">
      <g>
       <use style="stroke:#000000;stroke-width:0.5;" x="25.5" xlink:href="#mf0c55a9a47" y="156.922522862"/>
      </g>
     </g>
    </g>
    <g id="ytick_16">
     <g id="line2d_29">
      <g>
       <use style="stroke:#000000;stroke-width:0.5;" x="25.5" xlink:href="#mf0c55a9a47" y="152.387312176"/>
      </g>
     </g>
    </g>
    <g id="ytick_17">
     <g id="line2d_30">
      <g>
       <use style="stroke:#000000;stroke-width:0.5;" x="25.5" xlink:href="#mf0c55a9a47" y="143.316890802"/>
      </g>
     </g>
    </g>
    <g id="ytick_18">
     <g id="line2d_31">
      <g>
       <use style="stroke:#000000;stroke-width:0.5;" x="25.5" xlink:href="#mf0c55a9a47" y="138.781680116"/>
      </g>
     </g>
    </g>
    <g id="ytick_19">
     <g id="line2d_32">
      <g>
       <use style="stroke:#000000;stroke-width:0.5;" x="25.5" xlink:href="#mf0c55a9a47" y="134.246469429"/>
      </g>
     </g>
    </g>
    <g id="ytick_20">
     <g id="line2d_33">
      <g>
       <use style="stroke:#000000;stroke-width:0.5;" x="25.5" xlink:href="#mf0c55a9a47" y="125.176048056"/>
      </g>
     </g>
    </g>
    <g id="ytick_21">
     <g id="line2d_34">
      <g>
       <use style="stroke:#000000;stroke-width:0.5;" x="25.5" xlink:href="#mf0c55a9a47" y="120.640837369"/>
      </g>
     </g>
    </g>
    <g id="ytick_22">
     <g id="line2d_35">
      <g>
       <use style="stroke:#000000;stroke-width:0.5;" x="25.5" xlink:href="#mf0c55a9a47" y="116.105626682"/>
      </g>
     </g>
    </g>
    <g id="ytick_23">
     <g id="line2d_36">
      <g>
       <use style="stroke:#000000;stroke-width:0.5;" x="25.5" xlink:href="#mf0c55a9a47" y="107.035205309"/>
      </g>
     </g>
    </g>
    <g id="ytick_24">
     <g id="line2d_37">
      <g>
       <use style="stroke:#000000;stroke-width:0.5;" x="25.5" xlink:href="#mf0c55a9a47" y="102.499994623"/>
      </g>
     </g>
    </g>
    <g id="ytick_25">
     <g id="line2d_38">
      <g>
       <use style="stroke:#000000;stroke-width:0.5;" x="25.5" xlink:href="#mf0c55a9a47" y="97.9647839359"/>
      </g>
     </g>
    </g>
    <g id="ytick_26">
     <g id="line2d_39">
      <g>
       <use style="stroke:#000000;stroke-width:0.5;" x="25.5" xlink:href="#mf0c55a9a47" y="88.8943625626"/>
      </g>
     </g>
    </g>
    <g id="ytick_27">
     <g id="line2d_40">
      <g>
       <use style="stroke:#000000;stroke-width:0.5;" x="25.5" xlink:href="#mf0c55a9a47" y="84.3591518759"/>
      </g>
     </g>
    </g>
    <g id="ytick_28">
     <g id="line2d_41">
      <g>
       <use style="stroke:#000000;stroke-width:0.5;" x="25.5" xlink:href="#mf0c55a9a47" y="79.8239411893"/>
      </g>
     </g>
    </g>
    <g id="ytick_29">
     <g id="line2d_42">
      <g>
       <use style="stroke:#000000;stroke-width:0.5;" x="25.5" xlink:href="#mf0c55a9a47" y="70.753519816"/>
      </g>
     </g>
    </g>
    <g id="ytick_30">
     <g id="line2d_43">
      <g>
       <use style="stroke:#000000;stroke-width:0.5;" x="25.5" xlink:href="#mf0c55a9a47" y="66.2183091293"/>
      </g>
     </g>
    </g>
    <g id="ytick_31">
     <g id="line2d_44">
      <g>
       <use style="stroke:#000000;stroke-width:0.5;" x="25.5" xlink:href="#mf0c55a9a47" y="61.6830984427"/>
      </g>
     </g>
    </g>
    <g id="ytick_32">
     <g id="line2d_45">
      <g>
       <use style="stroke:#000000;stroke-width:0.5;" x="25.5" xlink:href="#mf0c55a9a47" y="52.6126770694"/>
      </g>
     </g>
    </g>
    <g id="ytick_33">
     <g id="line2d_46">
      <g>
       <use style="stroke:#000000;stroke-width:0.5;" x="25.5" xlink:href="#mf0c55a9a47" y="48.0774663827"/>
      </g>
     </g>
    </g>
    <g id="ytick_34">
     <g id="line2d_47">
      <g>
       <use style="stroke:#000000;stroke-width:0.5;" x="25.5" xlink:href="#mf0c55a9a47" y="43.5422556961"/>
      </g>
     </g>
    </g>
    <g id="ytick_35">
     <g id="line2d_48">
      <g>
       <use style="stroke:#000000;stroke-width:0.5;" x="25.5" xlink:href="#mf0c55a9a47" y="34.4718343228"/>
      </g>
     </g>
    </g>
    <g id="ytick_36">
     <g id="line2d_49">
      <g>
       <use style="stroke:#000000;stroke-width:0.5;" x="25.5" xlink:href="#mf0c55a9a47" y="29.9366236361"/>
      </g>
     </g>
    </g>
    <g id="ytick_37">
     <g id="line2d_50">
      <g>
       <use style="stroke:#000000;stroke-width:0.5;" x="25.5" xlink:href="#mf0c55a9a47" y="25.4014129494"/>
      </g>
     </g>
    </g>
    <g id="ytick_38">
     <g id="line2d_51">
      <g>
       <use style="stroke:#000000;stroke-width:0.5;" x="25.5" xlink:href="#mf0c55a9a47" y="16.3309915761"/>
      </g>
     </g>
    </g>
    <g id="ytick_39">
     <g id="line2d_52">
      <g>
       <use style="stroke:#000000;stroke-width:0.5;" x="25.5" xlink:href="#mf0c55a9a47" y="11.7957808895"/>
      </g>
     </g>
    </g>
   </g>
   <g id="patch_3">
    <path d="
M22.3358 184.134
L186.873 184.134" style="fill:none;stroke:#000000;stroke-width:0.8;"/>
   </g>
   <g id="patch_4">
    <path d="
M25.5 187.603
L25.5 7.2" style="fill:none;stroke:#000000;stroke-width:0.8;"/>
   </g>
   <g id="legend_1">
    <g id="patch_5">
     <path d="
M91.2329 181.603
L180.873 181.603
L180.873 142.245
L91.2329 142.245
L91.2329 181.603
z
" style="fill:#e6e6e6;stroke:#000000;"/>
    </g>
    <g id="line2d_53">
     <path d="
M102.033 154.363
L95.4329 154.363" style="fill:none;stroke:#0000ff;stroke-linecap:square;"/>
    </g>
    <g id="line2d_54"/>
    <g id="text_12">
     <!-- prey $u_0$ -->
     <defs>
      <path id="BitstreamVeraSans-Roman-20"/>
      <path d="
M25 -2.20312
Q12.75 -2.20312 8.32812 7.875
Q3.90625 17.9688 3.90625 31.8906
Q3.90625 40.5781 5.48438 48.2344
Q7.07812 55.9062 11.7812 61.25
Q16.5 66.6094 25 66.6094
Q31.5938 66.6094 35.7812 63.375
Q39.9844 60.1562 42.1875 55.0469
Q44.3906 49.9531 45.1875 44.1094
Q46 38.2812 46 31.8906
Q46 23.2969 44.4062 15.7969
Q42.8281 8.29688 38.1875 3.04688
Q33.5469 -2.20312 25 -2.20312
M25 0.390625
Q30.5625 0.390625 33.2969 6.09375
Q36.0312 11.8125 36.6719 18.75
Q37.3125 25.6875 37.3125 33.5
Q37.3125 41.0156 36.6719 47.3594
Q36.0312 53.7188 33.3125 58.8594
Q30.6094 64.0156 25 64.0156
Q19.3438 64.0156 16.6094 58.8281
Q13.875 53.6562 13.2344 47.3281
Q12.5938 41.0156 12.5938 33.5
Q12.5938 27.9375 12.8594 23
Q13.1406 18.0625 14.3125 12.8125
Q15.4844 7.5625 18.0938 3.96875
Q20.7031 0.390625 25 0.390625" id="Cmr10-30"/>
      <path d="
M32.1719 -5.07812
Q28.375 -14.8438 24.75 -17.8125
Q21.1406 -20.7969 15.0938 -20.7969
L7.90625 -20.7969
L7.90625 -13.2812
L13.1875 -13.2812
Q16.8906 -13.2812 18.9375 -11.5156
Q21 -9.76562 23.4844 -3.21875
L25.0938 0.875
L2.98438 54.6875
L12.5 54.6875
L29.5938 11.9219
L46.6875 54.6875
L56.2031 54.6875
z
" id="BitstreamVeraSans-Roman-79"/>
      <path d="
M10.5938 10.8906
Q10.5938 14.1562 11.4688 17.5938
Q12.3594 21.0469 13.9375 25.2656
Q15.5312 29.5 16.7031 32.625
Q18.0156 36.2812 18.0156 38.625
Q18.0156 41.6094 15.8281 41.6094
Q11.8594 41.6094 9.29688 37.5312
Q6.73438 33.4531 5.51562 28.4219
Q5.32812 27.7812 4.6875 27.7812
L3.51562 27.7812
Q2.6875 27.7812 2.6875 28.7188
L2.6875 29
Q4.29688 34.9688 7.60938 39.5781
Q10.9375 44.1875 16.0156 44.1875
Q19.5781 44.1875 22.0469 41.8438
Q24.5156 39.5 24.5156 35.8906
Q24.5156 34.0312 23.6875 31.9844
Q23.25 30.7656 21.6875 26.6562
Q20.125 22.5625 19.2812 19.875
Q18.4531 17.1875 17.9219 14.5938
Q17.3906 12.0156 17.3906 9.42188
Q17.3906 6.10938 18.7969 3.8125
Q20.2188 1.51562 23.3906 1.51562
Q29.7812 1.51562 34.625 9.42188
Q34.7188 9.8125 34.7812 10.1719
Q34.8594 10.5469 34.9062 10.8906
L42.0938 39.8906
Q42.4375 41.2188 43.6562 42.1562
Q44.875 43.1094 46.2969 43.1094
Q47.5156 43.1094 48.4062 42.3281
Q49.3125 41.5469 49.3125 40.2812
Q49.3125 39.7031 49.2188 39.5
L42 10.6875
Q41.3125 7.71875 41.3125 5.8125
Q41.3125 1.51562 44.1875 1.51562
Q47.4062 1.51562 49 5.48438
Q50.5938 9.46875 51.7031 14.7031
Q51.9062 15.2812 52.4844 15.2812
L53.7188 15.2812
Q54.1094 15.2812 54.3438 14.9375
Q54.5938 14.5938 54.5938 14.3125
Q53.5156 10.0156 52.5156 6.9375
Q51.5156 3.85938 49.3594 1.35938
Q47.2188 -1.125 44 -1.125
Q40.8281 -1.125 38.3125 0.609375
Q35.7969 2.34375 34.9062 5.32812
Q32.625 2.39062 29.5938 0.625
Q26.5625 -1.125 23.1875 -1.125
Q17.4375 -1.125 14.0156 2.01562
Q10.5938 5.17188 10.5938 10.8906" id="Cmmi10-75"/>
      <path d="
M56.2031 29.5938
L56.2031 25.2031
L14.8906 25.2031
Q15.4844 15.9219 20.4844 11.0625
Q25.4844 6.20312 34.4219 6.20312
Q39.5938 6.20312 44.4531 7.46875
Q49.3125 8.73438 54.1094 11.2812
L54.1094 2.78125
Q49.2656 0.734375 44.1875 -0.34375
Q39.1094 -1.42188 33.8906 -1.42188
Q20.7969 -1.42188 13.1562 6.1875
Q5.51562 13.8125 5.51562 26.8125
Q5.51562 40.2344 12.7656 48.1094
Q20.0156 56 32.3281 56
Q43.3594 56 49.7812 48.8906
Q56.2031 41.7969 56.2031 29.5938
M47.2188 32.2344
Q47.125 39.5938 43.0938 43.9844
Q39.0625 48.3906 32.4219 48.3906
Q24.9062 48.3906 20.3906 44.1406
Q15.875 39.8906 15.1875 32.1719
z
" id="BitstreamVeraSans-Roman-65"/>
      <path d="
M41.1094 46.2969
Q39.5938 47.1719 37.8125 47.5781
Q36.0312 48 33.8906 48
Q26.2656 48 22.1875 43.0469
Q18.1094 38.0938 18.1094 28.8125
L18.1094 0
L9.07812 0
L9.07812 54.6875
L18.1094 54.6875
L18.1094 46.1875
Q20.9531 51.1719 25.4844 53.5781
Q30.0312 56 36.5312 56
Q37.4531 56 38.5781 55.875
Q39.7031 55.7656 41.0625 55.5156
z
" id="BitstreamVeraSans-Roman-72"/>
      <path d="
M18.1094 8.20312
L18.1094 -20.7969
L9.07812 -20.7969
L9.07812 54.6875
L18.1094 54.6875
L18.1094 46.3906
Q20.9531 51.2656 25.2656 53.625
Q29.5938 56 35.5938 56
Q45.5625 56 51.7812 48.0938
Q58.0156 40.1875 58.0156 27.2969
Q58.0156 14.4062 51.7812 6.48438
Q45.5625 -1.42188 35.5938 -1.42188
Q29.5938 -1.42188 25.2656 0.953125
Q20.9531 3.32812 18.1094 8.20312
M48.6875 27.2969
Q48.6875 37.2031 44.6094 42.8438
Q40.5312 48.4844 33.4062 48.4844
Q26.2656 48.4844 22.1875 42.8438
Q18.1094 37.2031 18.1094 27.2969
Q18.1094 17.3906 22.1875 11.75
Q26.2656 6.10938 33.4062 6.10938
Q40.5312 6.10938 44.6094 11.75
Q48.6875 17.3906 48.6875 27.2969" id="BitstreamVeraSans-Roman-70"/>
     </defs>
     <g transform="translate(105.032873366 158.563076923)scale(0.12 -0.12)">
      <use xlink:href="#BitstreamVeraSans-Roman-70"/>
      <use transform="translate(63.4765625 0.0)" xlink:href="#BitstreamVeraSans-Roman-72"/>
      <use transform="translate(104.58984375 0.0)" xlink:href="#BitstreamVeraSans-Roman-65"/>
      <use transform="translate(166.11328125 0.0)" xlink:href="#BitstreamVeraSans-Roman-79"/>
      <use transform="translate(225.29296875 0.0)" xlink:href="#BitstreamVeraSans-Roman-20"/>
      <use transform="translate(257.080078125 0.0)" xlink:href="#Cmmi10-75"/>
      <use transform="translate(314.2578125 -25.509375)scale(0.7)" xlink:href="#Cmr10-30"/>
     </g>
    </g>
    <g id="line2d_55">
     <path d="
M102.033 167.083
L95.4329 167.083" style="fill:none;stroke:#ff0000;stroke-linecap:square;"/>
    </g>
    <g id="line2d_56"/>
    <g id="text_13">
     <!-- predator $u_1$ -->
     <defs>
      <path d="
M45.4062 46.3906
L45.4062 75.9844
L54.3906 75.9844
L54.3906 0
L45.4062 0
L45.4062 8.20312
Q42.5781 3.32812 38.25 0.953125
Q33.9375 -1.42188 27.875 -1.42188
Q17.9688 -1.42188 11.7344 6.48438
Q5.51562 14.4062 5.51562 27.2969
Q5.51562 40.1875 11.7344 48.0938
Q17.9688 56 27.875 56
Q33.9375 56 38.25 53.625
Q42.5781 51.2656 45.4062 46.3906
M14.7969 27.2969
Q14.7969 17.3906 18.875 11.75
Q22.9531 6.10938 30.0781 6.10938
Q37.2031 6.10938 41.2969 11.75
Q45.4062 17.3906 45.4062 27.2969
Q45.4062 37.2031 41.2969 42.8438
Q37.2031 48.4844 30.0781 48.4844
Q22.9531 48.4844 18.875 42.8438
Q14.7969 37.2031 14.7969 27.2969" id="BitstreamVeraSans-Roman-64"/>
      <path d="
M18.3125 70.2188
L18.3125 54.6875
L36.8125 54.6875
L36.8125 47.7031
L18.3125 47.7031
L18.3125 18.0156
Q18.3125 11.3281 20.1406 9.42188
Q21.9688 7.51562 27.5938 7.51562
L36.8125 7.51562
L36.8125 0
L27.5938 0
Q17.1875 0 13.2344 3.875
Q9.28125 7.76562 9.28125 18.0156
L9.28125 47.7031
L2.6875 47.7031
L2.6875 54.6875
L9.28125 54.6875
L9.28125 70.2188
z
" id="BitstreamVeraSans-Roman-74"/>
      <path d="
M30.6094 48.3906
Q23.3906 48.3906 19.1875 42.75
Q14.9844 37.1094 14.9844 27.2969
Q14.9844 17.4844 19.1562 11.8438
Q23.3438 6.20312 30.6094 6.20312
Q37.7969 6.20312 41.9844 11.8594
Q46.1875 17.5312 46.1875 27.2969
Q46.1875 37.0156 41.9844 42.7031
Q37.7969 48.3906 30.6094 48.3906
M30.6094 56
Q42.3281 56 49.0156 48.375
Q55.7188 40.7656 55.7188 27.2969
Q55.7188 13.875 49.0156 6.21875
Q42.3281 -1.42188 30.6094 -1.42188
Q18.8438 -1.42188 12.1719 6.21875
Q5.51562 13.875 5.51562 27.2969
Q5.51562 40.7656 12.1719 48.375
Q18.8438 56 30.6094 56" id="BitstreamVeraSans-Roman-6f"/>
      <path d="
M34.2812 27.4844
Q23.3906 27.4844 19.1875 25
Q14.9844 22.5156 14.9844 16.5
Q14.9844 11.7188 18.1406 8.90625
Q21.2969 6.10938 26.7031 6.10938
Q34.1875 6.10938 38.7031 11.4062
Q43.2188 16.7031 43.2188 25.4844
L43.2188 27.4844
z

M52.2031 31.2031
L52.2031 0
L43.2188 0
L43.2188 8.29688
Q40.1406 3.32812 35.5469 0.953125
Q30.9531 -1.42188 24.3125 -1.42188
Q15.9219 -1.42188 10.9531 3.29688
Q6 8.01562 6 15.9219
Q6 25.1406 12.1719 29.8281
Q18.3594 34.5156 30.6094 34.5156
L43.2188 34.5156
L43.2188 35.4062
Q43.2188 41.6094 39.1406 45
Q35.0625 48.3906 27.6875 48.3906
Q23 48.3906 18.5469 47.2656
Q14.1094 46.1406 10.0156 43.8906
L10.0156 52.2031
Q14.9375 54.1094 19.5781 55.0469
Q24.2188 56 28.6094 56
Q40.4844 56 46.3438 49.8438
Q52.2031 43.7031 52.2031 31.2031" id="BitstreamVeraSans-Roman-61"/>
      <path d="
M9.28125 0
L9.28125 3.51562
Q21.7812 3.51562 21.7812 6.6875
L21.7812 59.1875
Q16.6094 56.6875 8.6875 56.6875
L8.6875 60.2031
Q20.9531 60.2031 27.2031 66.6094
L28.6094 66.6094
Q28.9531 66.6094 29.2656 66.3281
Q29.5938 66.0625 29.5938 65.7188
L29.5938 6.6875
Q29.5938 3.51562 42.0938 3.51562
L42.0938 0
z
" id="Cmr10-31"/>
     </defs>
     <g transform="translate(105.032873366 171.283076923)scale(0.12 -0.12)">
      <use transform="translate(0.0 0.015625)" xlink:href="#BitstreamVeraSans-Roman-70"/>
      <use transform="translate(63.4765625 0.015625)" xlink:href="#BitstreamVeraSans-Roman-72"/>
      <use transform="translate(104.58984375 0.015625)" xlink:href="#BitstreamVeraSans-Roman-65"/>
      <use transform="translate(166.11328125 0.015625)" xlink:href="#BitstreamVeraSans-Roman-64"/>
      <use transform="translate(229.58984375 0.015625)" xlink:href="#BitstreamVeraSans-Roman-61"/>
      <use transform="translate(290.869140625 0.015625)" xlink:href="#BitstreamVeraSans-Roman-74"/>
      <use transform="translate(330.078125 0.015625)" xlink:href="#BitstreamVeraSans-Roman-6f"/>
      <use transform="translate(391.259765625 0.015625)" xlink:href="#BitstreamVeraSans-Roman-72"/>
      <use transform="translate(432.373046875 0.015625)" xlink:href="#BitstreamVeraSans-Roman-20"/>
      <use transform="translate(464.16015625 0.015625)" xlink:href="#Cmmi10-75"/>
      <use transform="translate(521.337890625 -25.49375)scale(0.7)" xlink:href="#Cmr10-31"/>
     </g>
    </g>
   </g>
  </g>
 </g>
 <defs>
  <clipPath id="p875f397177">
   <rect height="180.403076923" width="164.537047354" x="22.3358260124" y="7.2"/>
  </clipPath>
 </defs>
</svg>
