<?xml version="1.0" encoding="utf-8" standalone="no"?>
<!DOCTYPE svg PUBLIC "-//W3C//DTD SVG 1.1//EN"
  "http://www.w3.org/Graphics/SVG/1.1/DTD/svg11.dtd">
<!-- Created with matplotlib (http://matplotlib.org/) -->
<svg height="133pt" version="1.1" viewBox="0 0 132 133" width="132pt" xmlns="http://www.w3.org/2000/svg" xmlns:xlink="http://www.w3.org/1999/xlink">
 <defs>
  <style type="text/css">
*{stroke-linecap:butt;stroke-linejoin:round;}
  </style>
 </defs>
 <g id="figure_1">
  <g id="patch_1">
   <path d="
M0 133.31
L132.703 133.31
L132.703 0
L0 0
z
" style="fill:#ffffff;"/>
  </g>
  <g id="axes_1">
   <g id="patch_2">
    <path d="
M23.6579 114.495
L123.106 114.495
L123.106 7.2
L23.6579 7.2
z
" style="fill:#ffffff;"/>
   </g>
   <g id="line2d_1">
    <path clip-path="url(#p545efacba7)" d="
M25.5703 85.6833
L27.5218 79.69
L29.4733 74.7083
L31.4248 70.551
L33.3763 66.9796
L35.3278 63.8358
L37.2793 61.0164
L39.2307 58.4519
L41.1822 56.093
L43.1337 53.904
L45.0852 51.8579
L47.0367 49.9338
L48.9882 48.1155
L50.9397 46.3897
L52.8912 44.7456
L54.8427 43.1743
L56.7942 41.6685
L58.7457 40.2217
L60.6971 38.8285
L62.6486 37.4843
L64.6001 36.1851
L66.5516 34.9273
L68.5031 33.7078
L70.4546 32.5238
L72.4061 31.3728
L74.3576 30.2528
L76.3091 29.1616
L78.2606 28.0976
L80.2121 27.0591
L82.1636 26.0446
L84.115 25.0528
L86.0665 24.0826
L88.018 23.1327
L89.9695 22.2023
L91.921 21.2902
L93.8725 20.3958
L95.824 19.5182
L97.7755 18.6566
L99.727 17.8106
L101.678 16.9793
L103.63 16.1625
L105.581 15.3596
L107.533 14.5702
L109.484 13.7941
L111.436 13.0312
L113.387 12.2813
L115.339 11.5446
L117.29 10.8213
L119.242 10.112
L121.193 9.41746" style="fill:none;stroke:#7f00ff;stroke-linecap:square;"/>
   </g>
   <g id="line2d_2">
    <path clip-path="url(#p545efacba7)" d="
M25.5703 99.0576
L27.5218 93.0644
L29.4733 88.0827
L31.4248 83.9254
L33.3763 80.354
L35.3278 77.2101
L37.2793 74.3908
L39.2307 71.8263
L41.1822 69.4674
L43.1337 67.2784
L45.0852 65.2323
L47.0367 63.3082
L48.9882 61.4899
L50.9397 59.7641
L52.8912 58.12
L54.8427 56.5487
L56.7942 55.0429
L58.7457 53.596
L60.6971 52.2029
L62.6486 50.8587
L64.6001 49.5595
L66.5516 48.3017
L68.5031 47.0822
L70.4546 45.8982
L72.4061 44.7472
L74.3576 43.6272
L76.3091 42.536
L78.2606 41.472
L80.2121 40.4335
L82.1636 39.4191
L84.115 38.4274
L86.0665 37.4572
L88.018 36.5074
L89.9695 35.5771
L91.921 34.6653
L93.8725 33.7712
L95.824 32.894
L97.7755 32.0331
L99.727 31.1878
L101.678 30.3578
L103.63 29.5426
L105.581 28.7418
L107.533 27.9555
L109.484 27.1834
L111.436 26.4259
L113.387 25.6833
L115.339 24.9562
L117.29 24.2456
L119.242 23.5529
L121.193 22.8801" style="fill:none;stroke:#00ffff;stroke-linecap:square;"/>
   </g>
   <g id="line2d_3">
    <path clip-path="url(#p545efacba7)" d="
M25.5703 99.0576
L27.5218 93.0644
L29.4733 88.0827
L31.4248 83.9254
L33.3763 80.354
L35.3278 77.2101
L37.2793 74.3908
L39.2307 71.8263
L41.1822 69.4674
L43.1337 67.2784
L45.0852 65.2323
L47.0367 63.3082
L48.9882 61.4899
L50.9397 59.7641
L52.8912 58.12
L54.8427 56.5487
L56.7942 55.0429
L58.7457 53.596
L60.6971 52.2029
L62.6486 50.8587
L64.6001 49.5595
L66.5516 48.3017
L68.5031 47.0821
L70.4546 45.8981
L72.4061 44.7472
L74.3576 43.6271
L76.3091 42.5359
L78.2606 41.4718
L80.2121 40.4333
L82.1636 39.4187
L84.115 38.4268
L86.0665 37.4564
L88.018 36.5062
L89.9695 35.5753
L91.921 34.6627
L93.8725 33.7674
L95.824 32.8886
L97.7755 32.0254
L99.727 31.177
L101.678 30.3426
L103.63 29.5213
L105.581 28.7124
L107.533 27.9148
L109.484 27.1277
L111.436 26.3498
L113.387 25.58
L115.339 24.8166
L117.29 24.0579
L119.242 23.3016
L121.193 22.5449" style="fill:none;stroke:#7fff00;stroke-linecap:square;"/>
   </g>
   <g id="line2d_4">
    <path clip-path="url(#p545efacba7)" d="
M25.5703 85.6833
L27.5218 79.69
L29.4733 74.7083
L31.4248 70.551
L33.3763 66.9796
L35.3278 63.8358
L37.2793 61.0164
L39.2307 58.4519
L41.1822 56.093
L43.1337 53.904
L45.0852 51.8579
L47.0367 49.9338
L48.9882 48.1155
L50.9397 46.3897
L52.8912 44.7456
L54.8427 43.1743
L56.7942 41.6685
L58.7457 40.2217
L60.6971 38.8285
L62.6486 37.4843
L64.6001 36.1851
L66.5516 34.9273
L68.5031 33.7078
L70.4546 32.5238
L72.4061 31.3728
L74.3576 30.2527
L76.3091 29.1616
L78.2606 28.0975
L80.2121 27.0589
L82.1636 26.0444
L84.115 25.0526
L86.0665 24.0822
L88.018 23.1322
L89.9695 22.2014
L91.921 21.289
L93.8725 20.394
L95.824 19.5157
L97.7755 18.6531
L99.727 17.8055
L101.678 16.9723
L103.63 16.1526
L105.581 15.3459
L107.533 14.5514
L109.484 13.7684
L111.436 12.996
L113.387 12.2336
L115.339 11.4802
L117.29 10.7349
L119.242 9.99635
L121.193 9.26337" style="fill:none;stroke:#ff0000;stroke-linecap:square;"/>
   </g>
   <g id="matplotlib.axis_1">
    <g id="xtick_1">
     <g id="line2d_5">
      <defs>
       <path d="
M0 0
L0 -4" id="m93b0483c22" style="stroke:#000000;stroke-width:0.5;"/>
      </defs>
      <g>
       <use style="stroke:#000000;stroke-width:0.5;" x="25.5703125" xlink:href="#m93b0483c22" y="112.432011834"/>
      </g>
     </g>
    </g>
    <g id="xtick_2">
     <g id="line2d_6">
      <g>
       <use style="stroke:#000000;stroke-width:0.5;" x="45.0852221915" xlink:href="#m93b0483c22" y="112.432011834"/>
      </g>
     </g>
     <g id="text_1">
      <!-- 1 -->
      <defs>
       <path d="
M12.4062 8.29688
L28.5156 8.29688
L28.5156 63.9219
L10.9844 60.4062
L10.9844 69.3906
L28.4219 72.9062
L38.2812 72.9062
L38.2812 8.29688
L54.3906 8.29688
L54.3906 0
L12.4062 0
z
" id="BitstreamVeraSans-Roman-31"/>
      </defs>
      <g transform="translate(42.9149096915 124.030449334)scale(0.1 -0.1)">
       <use xlink:href="#BitstreamVeraSans-Roman-31"/>
      </g>
     </g>
    </g>
    <g id="xtick_3">
     <g id="line2d_7">
      <g>
       <use style="stroke:#000000;stroke-width:0.5;" x="64.6001318831" xlink:href="#m93b0483c22" y="112.432011834"/>
      </g>
     </g>
     <g id="text_2">
      <!-- 2 -->
      <defs>
       <path d="
M19.1875 8.29688
L53.6094 8.29688
L53.6094 0
L7.32812 0
L7.32812 8.29688
Q12.9375 14.1094 22.625 23.8906
Q32.3281 33.6875 34.8125 36.5312
Q39.5469 41.8438 41.4219 45.5312
Q43.3125 49.2188 43.3125 52.7812
Q43.3125 58.5938 39.2344 62.25
Q35.1562 65.9219 28.6094 65.9219
Q23.9688 65.9219 18.8125 64.3125
Q13.6719 62.7031 7.8125 59.4219
L7.8125 69.3906
Q13.7656 71.7812 18.9375 73
Q24.125 74.2188 28.4219 74.2188
Q39.75 74.2188 46.4844 68.5469
Q53.2188 62.8906 53.2188 53.4219
Q53.2188 48.9219 51.5312 44.8906
Q49.8594 40.875 45.4062 35.4062
Q44.1875 33.9844 37.6406 27.2188
Q31.1094 20.4531 19.1875 8.29688" id="BitstreamVeraSans-Roman-32"/>
      </defs>
      <g transform="translate(62.2860693831 124.030449334)scale(0.1 -0.1)">
       <use xlink:href="#BitstreamVeraSans-Roman-32"/>
      </g>
     </g>
    </g>
    <g id="xtick_4">
     <g id="line2d_8">
      <g>
       <use style="stroke:#000000;stroke-width:0.5;" x="84.1150415746" xlink:href="#m93b0483c22" y="112.432011834"/>
      </g>
     </g>
     <g id="text_3">
      <!-- 3 -->
      <defs>
       <path d="
M40.5781 39.3125
Q47.6562 37.7969 51.625 33
Q55.6094 28.2188 55.6094 21.1875
Q55.6094 10.4062 48.1875 4.48438
Q40.7656 -1.42188 27.0938 -1.42188
Q22.5156 -1.42188 17.6562 -0.515625
Q12.7969 0.390625 7.625 2.20312
L7.625 11.7188
Q11.7188 9.32812 16.5938 8.10938
Q21.4844 6.89062 26.8125 6.89062
Q36.0781 6.89062 40.9375 10.5469
Q45.7969 14.2031 45.7969 21.1875
Q45.7969 27.6406 41.2812 31.2656
Q36.7656 34.9062 28.7188 34.9062
L20.2188 34.9062
L20.2188 43.0156
L29.1094 43.0156
Q36.375 43.0156 40.2344 45.9219
Q44.0938 48.8281 44.0938 54.2969
Q44.0938 59.9062 40.1094 62.9062
Q36.1406 65.9219 28.7188 65.9219
Q24.6562 65.9219 20.0156 65.0312
Q15.375 64.1562 9.8125 62.3125
L9.8125 71.0938
Q15.4375 72.6562 20.3438 73.4375
Q25.25 74.2188 29.5938 74.2188
Q40.8281 74.2188 47.3594 69.1094
Q53.9062 64.0156 53.9062 55.3281
Q53.9062 49.2656 50.4375 45.0938
Q46.9688 40.9219 40.5781 39.3125" id="BitstreamVeraSans-Roman-33"/>
      </defs>
      <g transform="translate(81.7158228246 124.030449334)scale(0.1 -0.1)">
       <use xlink:href="#BitstreamVeraSans-Roman-33"/>
      </g>
     </g>
    </g>
    <g id="xtick_5">
     <g id="line2d_9">
      <g>
       <use style="stroke:#000000;stroke-width:0.5;" x="103.629951266" xlink:href="#m93b0483c22" y="112.432011834"/>
      </g>
     </g>
     <g id="text_4">
      <!-- 4 -->
      <defs>
       <path d="
M37.7969 64.3125
L12.8906 25.3906
L37.7969 25.3906
z

M35.2031 72.9062
L47.6094 72.9062
L47.6094 25.3906
L58.0156 25.3906
L58.0156 17.1875
L47.6094 17.1875
L47.6094 0
L37.7969 0
L37.7969 17.1875
L4.89062 17.1875
L4.89062 26.7031
z
" id="BitstreamVeraSans-Roman-34"/>
      </defs>
      <g transform="translate(100.973701266 124.030449334)scale(0.1 -0.1)">
       <use xlink:href="#BitstreamVeraSans-Roman-34"/>
      </g>
     </g>
    </g>
    <g id="xtick_6">
     <g id="text_5">
      <!-- 5 -->
      <defs>
       <path d="
M10.7969 72.9062
L49.5156 72.9062
L49.5156 64.5938
L19.8281 64.5938
L19.8281 46.7344
Q21.9688 47.4688 24.1094 47.8281
Q26.2656 48.1875 28.4219 48.1875
Q40.625 48.1875 47.75 41.5
Q54.8906 34.8125 54.8906 23.3906
Q54.8906 11.625 47.5625 5.09375
Q40.2344 -1.42188 26.9062 -1.42188
Q22.3125 -1.42188 17.5469 -0.640625
Q12.7969 0.140625 7.71875 1.70312
L7.71875 11.625
Q12.1094 9.23438 16.7969 8.0625
Q21.4844 6.89062 26.7031 6.89062
Q35.1562 6.89062 40.0781 11.3281
Q45.0156 15.7656 45.0156 23.3906
Q45.0156 31 40.0781 35.4375
Q35.1562 39.8906 26.7031 39.8906
Q22.75 39.8906 18.8125 39.0156
Q14.8906 38.1406 10.7969 36.2812
z
" id="BitstreamVeraSans-Roman-35"/>
      </defs>
      <g transform="translate(120.786267208 124.030449334)scale(0.1 -0.1)">
       <use xlink:href="#BitstreamVeraSans-Roman-35"/>
      </g>
     </g>
    </g>
    <g id="xtick_7">
     <g id="line2d_10">
      <defs>
       <path d="
M0 0
L0 -2" id="m177f7580d0" style="stroke:#000000;stroke-width:0.5;"/>
      </defs>
      <g>
       <use style="stroke:#000000;stroke-width:0.5;" x="29.4732944383" xlink:href="#m177f7580d0" y="112.432011834"/>
      </g>
     </g>
    </g>
    <g id="xtick_8">
     <g id="line2d_11">
      <g>
       <use style="stroke:#000000;stroke-width:0.5;" x="33.3762763766" xlink:href="#m177f7580d0" y="112.432011834"/>
      </g>
     </g>
    </g>
    <g id="xtick_9">
     <g id="line2d_12">
      <g>
       <use style="stroke:#000000;stroke-width:0.5;" x="37.2792583149" xlink:href="#m177f7580d0" y="112.432011834"/>
      </g>
     </g>
    </g>
    <g id="xtick_10">
     <g id="line2d_13">
      <g>
       <use style="stroke:#000000;stroke-width:0.5;" x="41.1822402532" xlink:href="#m177f7580d0" y="112.432011834"/>
      </g>
     </g>
    </g>
    <g id="xtick_11">
     <g id="line2d_14">
      <g>
       <use style="stroke:#000000;stroke-width:0.5;" x="45.0852221915" xlink:href="#m177f7580d0" y="112.432011834"/>
      </g>
     </g>
    </g>
    <g id="xtick_12">
     <g id="line2d_15">
      <g>
       <use style="stroke:#000000;stroke-width:0.5;" x="48.9882041298" xlink:href="#m177f7580d0" y="112.432011834"/>
      </g>
     </g>
    </g>
    <g id="xtick_13">
     <g id="line2d_16">
      <g>
       <use style="stroke:#000000;stroke-width:0.5;" x="52.8911860682" xlink:href="#m177f7580d0" y="112.432011834"/>
      </g>
     </g>
    </g>
    <g id="xtick_14">
     <g id="line2d_17">
      <g>
       <use style="stroke:#000000;stroke-width:0.5;" x="56.7941680065" xlink:href="#m177f7580d0" y="112.432011834"/>
      </g>
     </g>
    </g>
    <g id="xtick_15">
     <g id="line2d_18">
      <g>
       <use style="stroke:#000000;stroke-width:0.5;" x="60.6971499448" xlink:href="#m177f7580d0" y="112.432011834"/>
      </g>
     </g>
    </g>
    <g id="xtick_16">
     <g id="line2d_19">
      <g>
       <use style="stroke:#000000;stroke-width:0.5;" x="64.6001318831" xlink:href="#m177f7580d0" y="112.432011834"/>
      </g>
     </g>
    </g>
    <g id="xtick_17">
     <g id="line2d_20">
      <g>
       <use style="stroke:#000000;stroke-width:0.5;" x="68.5031138214" xlink:href="#m177f7580d0" y="112.432011834"/>
      </g>
     </g>
    </g>
    <g id="xtick_18">
     <g id="line2d_21">
      <g>
       <use style="stroke:#000000;stroke-width:0.5;" x="72.4060957597" xlink:href="#m177f7580d0" y="112.432011834"/>
      </g>
     </g>
    </g>
    <g id="xtick_19">
     <g id="line2d_22">
      <g>
       <use style="stroke:#000000;stroke-width:0.5;" x="76.309077698" xlink:href="#m177f7580d0" y="112.432011834"/>
      </g>
     </g>
    </g>
    <g id="xtick_20">
     <g id="line2d_23">
      <g>
       <use style="stroke:#000000;stroke-width:0.5;" x="80.2120596363" xlink:href="#m177f7580d0" y="112.432011834"/>
      </g>
     </g>
    </g>
    <g id="xtick_21">
     <g id="line2d_24">
      <g>
       <use style="stroke:#000000;stroke-width:0.5;" x="84.1150415746" xlink:href="#m177f7580d0" y="112.432011834"/>
      </g>
     </g>
    </g>
    <g id="xtick_22">
     <g id="line2d_25">
      <g>
       <use style="stroke:#000000;stroke-width:0.5;" x="88.0180235129" xlink:href="#m177f7580d0" y="112.432011834"/>
      </g>
     </g>
    </g>
    <g id="xtick_23">
     <g id="line2d_26">
      <g>
       <use style="stroke:#000000;stroke-width:0.5;" x="91.9210054512" xlink:href="#m177f7580d0" y="112.432011834"/>
      </g>
     </g>
    </g>
    <g id="xtick_24">
     <g id="line2d_27">
      <g>
       <use style="stroke:#000000;stroke-width:0.5;" x="95.8239873895" xlink:href="#m177f7580d0" y="112.432011834"/>
      </g>
     </g>
    </g>
    <g id="xtick_25">
     <g id="line2d_28">
      <g>
       <use style="stroke:#000000;stroke-width:0.5;" x="99.7269693278" xlink:href="#m177f7580d0" y="112.432011834"/>
      </g>
     </g>
    </g>
    <g id="xtick_26">
     <g id="line2d_29">
      <g>
       <use style="stroke:#000000;stroke-width:0.5;" x="103.629951266" xlink:href="#m177f7580d0" y="112.432011834"/>
      </g>
     </g>
    </g>
    <g id="xtick_27">
     <g id="line2d_30">
      <g>
       <use style="stroke:#000000;stroke-width:0.5;" x="107.532933204" xlink:href="#m177f7580d0" y="112.432011834"/>
      </g>
     </g>
    </g>
    <g id="xtick_28">
     <g id="line2d_31">
      <g>
       <use style="stroke:#000000;stroke-width:0.5;" x="111.435915143" xlink:href="#m177f7580d0" y="112.432011834"/>
      </g>
     </g>
    </g>
    <g id="xtick_29">
     <g id="line2d_32">
      <g>
       <use style="stroke:#000000;stroke-width:0.5;" x="115.338897081" xlink:href="#m177f7580d0" y="112.432011834"/>
      </g>
     </g>
    </g>
    <g id="xtick_30">
     <g id="line2d_33">
      <g>
       <use style="stroke:#000000;stroke-width:0.5;" x="119.241879019" xlink:href="#m177f7580d0" y="112.432011834"/>
      </g>
     </g>
    </g>
   </g>
   <g id="matplotlib.axis_2">
    <g id="ytick_1">
     <g id="line2d_34">
      <defs>
       <path d="
M0 0
L4 0" id="m728421d6d4" style="stroke:#000000;stroke-width:0.5;"/>
      </defs>
      <g>
       <use style="stroke:#000000;stroke-width:0.5;" x="25.5703125" xlink:href="#m728421d6d4" y="112.432011834"/>
      </g>
     </g>
    </g>
    <g id="ytick_2">
     <g id="line2d_35">
      <g>
       <use style="stroke:#000000;stroke-width:0.5;" x="25.5703125" xlink:href="#m728421d6d4" y="85.683250354"/>
      </g>
     </g>
     <g id="text_6">
      <!-- 0.5 -->
      <defs>
       <path d="
M31.7812 66.4062
Q24.1719 66.4062 20.3281 58.9062
Q16.5 51.4219 16.5 36.375
Q16.5 21.3906 20.3281 13.8906
Q24.1719 6.39062 31.7812 6.39062
Q39.4531 6.39062 43.2812 13.8906
Q47.125 21.3906 47.125 36.375
Q47.125 51.4219 43.2812 58.9062
Q39.4531 66.4062 31.7812 66.4062
M31.7812 74.2188
Q44.0469 74.2188 50.5156 64.5156
Q56.9844 54.8281 56.9844 36.375
Q56.9844 17.9688 50.5156 8.26562
Q44.0469 -1.42188 31.7812 -1.42188
Q19.5312 -1.42188 13.0625 8.26562
Q6.59375 17.9688 6.59375 36.375
Q6.59375 54.8281 13.0625 64.5156
Q19.5312 74.2188 31.7812 74.2188" id="BitstreamVeraSans-Roman-30"/>
       <path d="
M10.6875 12.4062
L21 12.4062
L21 0
L10.6875 0
z
" id="BitstreamVeraSans-Roman-2e"/>
      </defs>
      <g transform="translate(7.2 88.442625354)scale(0.1 -0.1)">
       <use xlink:href="#BitstreamVeraSans-Roman-30"/>
       <use x="63.623046875" xlink:href="#BitstreamVeraSans-Roman-2e"/>
       <use x="95.41015625" xlink:href="#BitstreamVeraSans-Roman-35"/>
      </g>
     </g>
    </g>
    <g id="ytick_3">
     <g id="line2d_36">
      <g>
       <use style="stroke:#000000;stroke-width:0.5;" x="25.5703125" xlink:href="#m728421d6d4" y="58.9344888736"/>
      </g>
     </g>
     <g id="text_7">
      <!-- 1 -->
      <g transform="translate(17.2296875 61.6938638736)scale(0.1 -0.1)">
       <use xlink:href="#BitstreamVeraSans-Roman-31"/>
      </g>
     </g>
    </g>
    <g id="ytick_4">
     <g id="line2d_37">
      <g>
       <use style="stroke:#000000;stroke-width:0.5;" x="25.5703125" xlink:href="#m728421d6d4" y="32.1857273932"/>
      </g>
     </g>
     <g id="text_8">
      <!-- 1.5 -->
      <g transform="translate(7.6390625 34.9451023932)scale(0.1 -0.1)">
       <use xlink:href="#BitstreamVeraSans-Roman-31"/>
       <use x="63.623046875" xlink:href="#BitstreamVeraSans-Roman-2e"/>
       <use x="95.41015625" xlink:href="#BitstreamVeraSans-Roman-35"/>
      </g>
     </g>
    </g>
    <g id="ytick_5">
     <g id="line2d_38">
      <defs>
       <path d="
M0 0
L2 0" id="mf0c55a9a47" style="stroke:#000000;stroke-width:0.5;"/>
      </defs>
      <g>
       <use style="stroke:#000000;stroke-width:0.5;" x="25.5703125" xlink:href="#mf0c55a9a47" y="107.082259538"/>
      </g>
     </g>
    </g>
    <g id="ytick_6">
     <g id="line2d_39">
      <g>
       <use style="stroke:#000000;stroke-width:0.5;" x="25.5703125" xlink:href="#mf0c55a9a47" y="101.732507242"/>
      </g>
     </g>
    </g>
    <g id="ytick_7">
     <g id="line2d_40">
      <g>
       <use style="stroke:#000000;stroke-width:0.5;" x="25.5703125" xlink:href="#mf0c55a9a47" y="96.3827549461"/>
      </g>
     </g>
    </g>
    <g id="ytick_8">
     <g id="line2d_41">
      <g>
       <use style="stroke:#000000;stroke-width:0.5;" x="25.5703125" xlink:href="#mf0c55a9a47" y="91.03300265"/>
      </g>
     </g>
    </g>
    <g id="ytick_9">
     <g id="line2d_42">
      <g>
       <use style="stroke:#000000;stroke-width:0.5;" x="25.5703125" xlink:href="#mf0c55a9a47" y="85.683250354"/>
      </g>
     </g>
    </g>
    <g id="ytick_10">
     <g id="line2d_43">
      <g>
       <use style="stroke:#000000;stroke-width:0.5;" x="25.5703125" xlink:href="#mf0c55a9a47" y="80.3334980579"/>
      </g>
     </g>
    </g>
    <g id="ytick_11">
     <g id="line2d_44">
      <g>
       <use style="stroke:#000000;stroke-width:0.5;" x="25.5703125" xlink:href="#mf0c55a9a47" y="74.9837457618"/>
      </g>
     </g>
    </g>
    <g id="ytick_12">
     <g id="line2d_45">
      <g>
       <use style="stroke:#000000;stroke-width:0.5;" x="25.5703125" xlink:href="#mf0c55a9a47" y="69.6339934657"/>
      </g>
     </g>
    </g>
    <g id="ytick_13">
     <g id="line2d_46">
      <g>
       <use style="stroke:#000000;stroke-width:0.5;" x="25.5703125" xlink:href="#mf0c55a9a47" y="64.2842411697"/>
      </g>
     </g>
    </g>
    <g id="ytick_14">
     <g id="line2d_47">
      <g>
       <use style="stroke:#000000;stroke-width:0.5;" x="25.5703125" xlink:href="#mf0c55a9a47" y="58.9344888736"/>
      </g>
     </g>
    </g>
    <g id="ytick_15">
     <g id="line2d_48">
      <g>
       <use style="stroke:#000000;stroke-width:0.5;" x="25.5703125" xlink:href="#mf0c55a9a47" y="53.5847365775"/>
      </g>
     </g>
    </g>
    <g id="ytick_16">
     <g id="line2d_49">
      <g>
       <use style="stroke:#000000;stroke-width:0.5;" x="25.5703125" xlink:href="#mf0c55a9a47" y="48.2349842815"/>
      </g>
     </g>
    </g>
    <g id="ytick_17">
     <g id="line2d_50">
      <g>
       <use style="stroke:#000000;stroke-width:0.5;" x="25.5703125" xlink:href="#mf0c55a9a47" y="42.8852319854"/>
      </g>
     </g>
    </g>
    <g id="ytick_18">
     <g id="line2d_51">
      <g>
       <use style="stroke:#000000;stroke-width:0.5;" x="25.5703125" xlink:href="#mf0c55a9a47" y="37.5354796893"/>
      </g>
     </g>
    </g>
    <g id="ytick_19">
     <g id="line2d_52">
      <g>
       <use style="stroke:#000000;stroke-width:0.5;" x="25.5703125" xlink:href="#mf0c55a9a47" y="32.1857273932"/>
      </g>
     </g>
    </g>
    <g id="ytick_20">
     <g id="line2d_53">
      <g>
       <use style="stroke:#000000;stroke-width:0.5;" x="25.5703125" xlink:href="#mf0c55a9a47" y="26.8359750972"/>
      </g>
     </g>
    </g>
    <g id="ytick_21">
     <g id="line2d_54">
      <g>
       <use style="stroke:#000000;stroke-width:0.5;" x="25.5703125" xlink:href="#mf0c55a9a47" y="21.4862228011"/>
      </g>
     </g>
    </g>
    <g id="ytick_22">
     <g id="line2d_55">
      <g>
       <use style="stroke:#000000;stroke-width:0.5;" x="25.5703125" xlink:href="#mf0c55a9a47" y="16.136470505"/>
      </g>
     </g>
    </g>
    <g id="ytick_23">
     <g id="line2d_56">
      <g>
       <use style="stroke:#000000;stroke-width:0.5;" x="25.5703125" xlink:href="#mf0c55a9a47" y="10.786718209"/>
      </g>
     </g>
    </g>
   </g>
   <g id="patch_3">
    <path d="
M23.6579 112.432
L123.106 112.432" style="fill:none;stroke:#000000;stroke-width:0.8;"/>
   </g>
   <g id="patch_4">
    <path d="
M25.5703 114.495
L25.5703 7.2" style="fill:none;stroke:#000000;stroke-width:0.8;"/>
   </g>
   <g id="legend_1">
    <g id="patch_5">
     <path d="
M82.4258 108.495
L117.106 108.495
L117.106 44.4229
L82.4258 44.4229
L82.4258 108.495
z
" style="fill:#e6e6e6;stroke:#000000;"/>
    </g>
    <g id="line2d_57">
     <path d="
M93.2258 56.541
L86.6258 56.541" style="fill:none;stroke:#7f00ff;stroke-linecap:square;"/>
    </g>
    <g id="line2d_58"/>
    <g id="text_9">
     <!-- $c_{11}$ -->
     <defs>
      <path d="
M11.7188 11.9219
Q11.7188 7.5625 13.9375 4.53125
Q16.1562 1.51562 20.3125 1.51562
Q26.2656 1.51562 31.75 4.25
Q37.25 6.98438 40.7188 11.8125
Q41.0156 12.1094 41.5 12.1094
Q42 12.1094 42.5 11.5469
Q43.0156 10.9844 43.0156 10.5
Q43.0156 10.1094 42.8281 9.90625
Q39.1562 4.78125 32.9531 1.82812
Q26.7656 -1.125 20.125 -1.125
Q15.3281 -1.125 11.6719 1.14062
Q8.01562 3.42188 6 7.21875
Q4 11.0312 4 15.8281
Q4 22.5625 7.76562 29.2031
Q11.5312 35.8438 17.7812 40.0156
Q24.0312 44.1875 30.9062 44.1875
Q35.4062 44.1875 38.9844 42.0156
Q42.5781 39.8438 42.5781 35.5938
Q42.5781 32.8594 40.9844 30.9219
Q39.4062 29 36.7188 29
Q35.1094 29 34 30
Q32.9062 31 32.9062 32.625
Q32.9062 34.9688 34.6094 36.625
Q36.3281 38.2812 38.625 38.2812
L38.8125 38.2812
Q37.6406 39.9844 35.4219 40.7969
Q33.2031 41.6094 30.8125 41.6094
Q24.9531 41.6094 20.5469 36.5938
Q16.1562 31.5938 13.9375 24.625
Q11.7188 17.6719 11.7188 11.9219" id="Cmmi10-63"/>
      <path d="
M9.28125 0
L9.28125 3.51562
Q21.7812 3.51562 21.7812 6.6875
L21.7812 59.1875
Q16.6094 56.6875 8.6875 56.6875
L8.6875 60.2031
Q20.9531 60.2031 27.2031 66.6094
L28.6094 66.6094
Q28.9531 66.6094 29.2656 66.3281
Q29.5938 66.0625 29.5938 65.7188
L29.5938 6.6875
Q29.5938 3.51562 42.0938 3.51562
L42.0938 0
z
" id="Cmr10-31"/>
     </defs>
     <g transform="translate(96.2258311383 60.7410096154)scale(0.12 -0.12)">
      <use transform="translate(0.0 0.8125)" xlink:href="#Cmmi10-63"/>
      <use transform="translate(43.212890625 -24.696875)scale(0.7)" xlink:href="#Cmr10-31"/>
      <use transform="translate(78.212890625 -24.696875)scale(0.7)" xlink:href="#Cmr10-31"/>
     </g>
    </g>
    <g id="line2d_59">
     <path d="
M93.2258 69.0191
L86.6258 69.0191" style="fill:none;stroke:#00ffff;stroke-linecap:square;"/>
    </g>
    <g id="line2d_60"/>
    <g id="text_10">
     <!-- $c_{12}$ -->
     <defs>
      <path d="
M4.98438 0
L4.98438 2.6875
Q4.98438 2.9375 5.17188 3.21875
L20.7031 20.4062
Q24.2188 24.2188 26.4062 26.7969
Q28.6094 29.3906 30.75 32.7656
Q32.9062 36.1406 34.1562 39.625
Q35.4062 43.1094 35.4062 47.0156
Q35.4062 51.125 33.8906 54.8594
Q32.375 58.5938 29.375 60.8438
Q26.375 63.0938 22.125 63.0938
Q17.7812 63.0938 14.3125 60.4688
Q10.8438 57.8594 9.42188 53.7188
Q9.8125 53.8125 10.5 53.8125
Q12.75 53.8125 14.3281 52.2969
Q15.9219 50.7812 15.9219 48.3906
Q15.9219 46.0938 14.3281 44.5
Q12.75 42.9219 10.5 42.9219
Q8.15625 42.9219 6.5625 44.5469
Q4.98438 46.1875 4.98438 48.3906
Q4.98438 52.1562 6.39062 55.4375
Q7.8125 58.7344 10.4688 61.2969
Q13.1406 63.875 16.4844 65.2344
Q19.8281 66.6094 23.5781 66.6094
Q29.2969 66.6094 34.2188 64.1875
Q39.1562 61.7656 42.0312 57.3438
Q44.9219 52.9375 44.9219 47.0156
Q44.9219 42.6719 43.0156 38.7656
Q41.1094 34.8594 38.125 31.6562
Q35.1562 28.4688 30.5156 24.4062
Q25.875 20.3594 24.4219 19
L13.0938 8.10938
L22.7031 8.10938
Q29.7812 8.10938 34.5469 8.21875
Q39.3125 8.34375 39.5938 8.59375
Q40.7656 9.85938 42 17.8281
L44.9219 17.8281
L42.0938 0
z
" id="Cmr10-32"/>
     </defs>
     <g transform="translate(96.2258311383 73.2191346154)scale(0.12 -0.12)">
      <use transform="translate(0.0 0.8125)" xlink:href="#Cmmi10-63"/>
      <use transform="translate(43.212890625 -24.696875)scale(0.7)" xlink:href="#Cmr10-31"/>
      <use transform="translate(78.212890625 -24.696875)scale(0.7)" xlink:href="#Cmr10-32"/>
     </g>
    </g>
    <g id="line2d_61">
     <path d="
M93.2258 81.4973
L86.6258 81.4973" style="fill:none;stroke:#7fff00;stroke-linecap:square;"/>
    </g>
    <g id="line2d_62"/>
    <g id="text_11">
     <!-- $c_{21}$ -->
     <g transform="translate(96.2258311383 85.6972596154)scale(0.12 -0.12)">
      <use transform="translate(0.0 0.8125)" xlink:href="#Cmmi10-63"/>
      <use transform="translate(43.212890625 -24.696875)scale(0.7)" xlink:href="#Cmr10-32"/>
      <use transform="translate(78.212890625 -24.696875)scale(0.7)" xlink:href="#Cmr10-31"/>
     </g>
    </g>
    <g id="line2d_63">
     <path d="
M93.2258 93.9754
L86.6258 93.9754" style="fill:none;stroke:#ff0000;stroke-linecap:square;"/>
    </g>
    <g id="line2d_64"/>
    <g id="text_12">
     <!-- $c_{22}$ -->
     <g transform="translate(96.2258311383 98.1753846154)scale(0.12 -0.12)">
      <use transform="translate(0.0 0.8125)" xlink:href="#Cmmi10-63"/>
      <use transform="translate(43.212890625 -24.696875)scale(0.7)" xlink:href="#Cmr10-32"/>
      <use transform="translate(78.212890625 -24.696875)scale(0.7)" xlink:href="#Cmr10-32"/>
     </g>
    </g>
   </g>
  </g>
 </g>
 <defs>
  <clipPath id="p545efacba7">
   <rect height="107.295384615" width="99.4479797881" x="23.6578513502" y="7.2"/>
  </clipPath>
 </defs>
</svg>
