<?xml version="1.0" encoding="utf-8" standalone="no"?>
<!DOCTYPE svg PUBLIC "-//W3C//DTD SVG 1.1//EN"
  "http://www.w3.org/Graphics/SVG/1.1/DTD/svg11.dtd">
<!-- Created with matplotlib (http://matplotlib.org/) -->
<svg height="131pt" version="1.1" viewBox="0 0 131 131" width="131pt" xmlns="http://www.w3.org/2000/svg" xmlns:xlink="http://www.w3.org/1999/xlink">
 <defs>
  <style type="text/css">
*{stroke-linecap:butt;stroke-linejoin:round;}
  </style>
 </defs>
 <g id="figure_1">
  <g id="patch_1">
   <path d="
M0 131.765
L131.659 131.765
L131.659 0
L0 0
z
" style="fill:#ffffff;"/>
  </g>
  <g id="axes_1">
   <g id="patch_2">
    <path d="
M28.0751 124.565
L110.539 124.565
L110.539 30.685
L28.0751 30.685
z
" style="fill:#ffffff;"/>
   </g>
   <g id="line2d_1">
    <path clip-path="url(#paff1c2e263)" d="
M29.6609 122.76
L30.3004 122.412
L30.9398 122.062
L31.5793 121.712
L32.2187 121.359
L32.8582 121.006
L33.4976 120.651
L34.1371 120.294
L34.7765 119.936
L35.416 119.576
L36.0555 119.215
L36.6949 118.852
L37.3344 118.488
L37.9738 118.122
L38.6133 117.755
L39.2527 117.385
L39.8922 117.014
L40.5316 116.642
L41.1711 116.267
L41.8105 115.891
L42.45 115.513
L43.0894 115.133
L43.7289 114.752
L44.3683 114.369
L45.0078 113.983
L45.6472 113.596
L46.2867 113.207
L46.9261 112.816
L47.5656 112.423
L48.205 112.027
L48.8445 111.63
L49.4839 111.231
L50.1234 110.829
L50.7628 110.426
L51.4023 110.02
L52.0417 109.612
L52.6812 109.202
L53.3206 108.789
L53.9601 108.374
L54.5995 107.957
L55.239 107.537
L55.8784 107.115
L56.5179 106.69
L57.1573 106.262
L57.7968 105.832
L58.4363 105.4
L59.0757 104.964
L59.7152 104.526
L60.3546 104.085
L60.9941 103.642
L61.6335 103.195
L62.273 102.745
L62.9124 102.292
L63.5519 101.836
L64.1913 101.377
L64.8308 100.915
L65.4702 100.449
L66.1097 99.9804
L66.7491 99.5079
L67.3886 99.0318
L68.028 98.5522
L68.6675 98.0689
L69.3069 97.5817
L69.9464 97.0907
L70.5858 96.5957
L71.2253 96.0966
L71.8647 95.5934
L72.5042 95.0859
L73.1436 94.574
L73.7831 94.0575
L74.4225 93.5364
L75.062 93.0106
L75.7014 92.4799
L76.3409 91.9441
L76.9803 91.4032
L77.6198 90.857
L78.2592 90.3052
L78.8987 89.7478
L79.5381 89.1846
L80.1776 88.6153
L80.8171 88.0398
L81.4565 87.4579
L82.096 86.8693
L82.7354 86.2739
L83.3749 85.6713
L84.0143 85.0613
L84.6538 84.4436
L85.2932 83.818
L85.9327 83.1841
L86.5721 82.5415
L87.2116 81.89
L87.851 81.2291
L88.4905 80.5584
L89.1299 79.8774
L89.7694 79.1858
L90.4088 78.4828
L91.0483 77.7681
L91.6877 77.0409
L92.3272 76.3006
L92.9666 75.5465
L93.6061 74.7777
L94.2455 73.9934
L94.885 73.1926
L95.5244 72.3742
L96.1639 71.5369
L96.8033 70.6795
L97.4428 69.8003
L98.0822 68.8977
L98.7217 67.9696
L99.3611 67.0138
L100.001 66.0277
L100.64 65.008
L101.279 63.9513
L101.919 62.853
L102.558 61.708
L103.198 60.5096
L103.837 59.2496
L104.477 57.9174
L105.116 56.499
L105.756 54.9751
L106.395 53.3178
L107.035 51.4846
L107.674 49.4037
L108.313 46.935
L108.953 43.7166" style="fill:none;stroke:#ff0000;stroke-linecap:square;"/>
   </g>
   <g id="line2d_2">
    <path clip-path="url(#paff1c2e263)" d="
M29.6609 115.816
L30.3004 115.468
L30.9398 115.119
L31.5793 114.768
L32.2187 114.416
L32.8582 114.062
L33.4976 113.707
L34.1371 113.35
L34.7765 112.992
L35.416 112.633
L36.0555 112.271
L36.6949 111.909
L37.3344 111.544
L37.9738 111.178
L38.6133 110.811
L39.2527 110.442
L39.8922 110.071
L40.5316 109.698
L41.1711 109.324
L41.8105 108.947
L42.45 108.569
L43.0894 108.19
L43.7289 107.808
L44.3683 107.425
L45.0078 107.039
L45.6472 106.652
L46.2867 106.263
L46.9261 105.872
L47.5656 105.479
L48.205 105.084
L48.8445 104.686
L49.4839 104.287
L50.1234 103.886
L50.7628 103.482
L51.4023 103.076
L52.0417 102.668
L52.6812 102.258
L53.3206 101.845
L53.9601 101.43
L54.5995 101.013
L55.239 100.593
L55.8784 100.171
L56.5179 99.746
L57.1573 99.3187
L57.7968 98.8887
L58.4363 98.456
L59.0757 98.0207
L59.7152 97.5826
L60.3546 97.1416
L60.9941 96.6978
L61.6335 96.2511
L62.273 95.8013
L62.9124 95.3485
L63.5519 94.8926
L64.1913 94.4336
L64.8308 93.9712
L65.4702 93.5056
L66.1097 93.0366
L66.7491 92.5641
L67.3886 92.0881
L68.028 91.6084
L68.6675 91.1251
L69.3069 90.6379
L69.9464 90.1469
L70.5858 89.6519
L71.2253 89.1529
L71.8647 88.6496
L72.5042 88.1421
L73.1436 87.6302
L73.7831 87.1137
L74.4225 86.5927
L75.062 86.0668
L75.7014 85.5361
L76.3409 85.0004
L76.9803 84.4594
L77.6198 83.9132
L78.2592 83.3614
L78.8987 82.804
L79.5381 82.2408
L80.1776 81.6715
L80.8171 81.096
L81.4565 80.5141
L82.096 79.9255
L82.7354 79.3301
L83.3749 78.7275
L84.0143 78.1175
L84.6538 77.4998
L85.2932 76.8742
L85.9327 76.2403
L86.5721 75.5977
L87.2116 74.9462
L87.851 74.2853
L88.4905 73.6146
L89.1299 72.9337
L89.7694 72.242
L90.4088 71.539
L91.0483 70.8243
L91.6877 70.0971
L92.3272 69.3569
L92.9666 68.6027
L93.6061 67.834
L94.2455 67.0497
L94.885 66.2488
L95.5244 65.4304
L96.1639 64.5931
L96.8033 63.7357
L97.4428 62.8565
L98.0822 61.9539
L98.7217 61.0258
L99.3611 60.07
L100.001 59.0839
L100.64 58.0642
L101.279 57.0075
L101.919 55.9093
L102.558 54.7642
L103.198 53.5658
L103.837 52.3058
L104.477 50.9736
L105.116 49.5552
L105.756 48.0313
L106.395 46.374
L107.035 44.5408
L107.674 42.4599
L108.313 39.9912
L108.953 36.7728" style="fill:none;stroke:#00ff00;stroke-linecap:square;"/>
   </g>
   <g id="line2d_3">
    <path clip-path="url(#paff1c2e263)" d="
M29.6609 115.816
L30.3004 115.468
L30.9398 115.119
L31.5793 114.768
L32.2187 114.416
L32.8582 114.062
L33.4976 113.707
L34.1371 113.35
L34.7765 112.992
L35.416 112.633
L36.0555 112.271
L36.6949 111.909
L37.3344 111.544
L37.9738 111.178
L38.6133 110.811
L39.2527 110.442
L39.8922 110.071
L40.5316 109.698
L41.1711 109.324
L41.8105 108.947
L42.45 108.569
L43.0894 108.19
L43.7289 107.808
L44.3683 107.425
L45.0078 107.039
L45.6472 106.652
L46.2867 106.263
L46.9261 105.872
L47.5656 105.479
L48.205 105.084
L48.8445 104.686
L49.4839 104.287
L50.1234 103.886
L50.7628 103.482
L51.4023 103.076
L52.0417 102.668
L52.6812 102.258
L53.3206 101.845
L53.9601 101.43
L54.5995 101.013
L55.239 100.593
L55.8784 100.171
L56.5179 99.746
L57.1573 99.3187
L57.7968 98.8887
L58.4363 98.456
L59.0757 98.0207
L59.7152 97.5826
L60.3546 97.1416
L60.9941 96.6978
L61.6335 96.2511
L62.273 95.8013
L62.9124 95.3485
L63.5519 94.8926
L64.1913 94.4336
L64.8308 93.9712
L65.4702 93.5056
L66.1097 93.0366
L66.7491 92.5641
L67.3886 92.0881
L68.028 91.6084
L68.6675 91.1251
L69.3069 90.6379
L69.9464 90.1469
L70.5858 89.6519
L71.2253 89.1529
L71.8647 88.6496
L72.5042 88.1421
L73.1436 87.6302
L73.7831 87.1137
L74.4225 86.5927
L75.062 86.0668
L75.7014 85.5361
L76.3409 85.0004
L76.9803 84.4594
L77.6198 83.9132
L78.2592 83.3614
L78.8987 82.804
L79.5381 82.2408
L80.1776 81.6715
L80.8171 81.096
L81.4565 80.5141
L82.096 79.9255
L82.7354 79.3301
L83.3749 78.7275
L84.0143 78.1175
L84.6538 77.4998
L85.2932 76.8742
L85.9327 76.2403
L86.5721 75.5977
L87.2116 74.9462
L87.851 74.2853
L88.4905 73.6146
L89.1299 72.9337
L89.7694 72.242
L90.4088 71.539
L91.0483 70.8243
L91.6877 70.0971
L92.3272 69.3569
L92.9666 68.6027
L93.6061 67.834
L94.2455 67.0497
L94.885 66.2488
L95.5244 65.4304
L96.1639 64.5931
L96.8033 63.7357
L97.4428 62.8565
L98.0822 61.9539
L98.7217 61.0258
L99.3611 60.07
L100.001 59.0839
L100.64 58.0642
L101.279 57.0075
L101.919 55.9093
L102.558 54.7642
L103.198 53.5658
L103.837 52.3058
L104.477 50.9736
L105.116 49.5552
L105.756 48.0313
L106.395 46.374
L107.035 44.5408
L107.674 42.4599
L108.313 39.9912
L108.953 36.7728" style="fill:none;stroke:#00ff00;stroke-linecap:square;"/>
   </g>
   <g id="line2d_4">
    <path clip-path="url(#paff1c2e263)" d="
M29.6609 122.76
L30.3004 122.412
L30.9398 122.062
L31.5793 121.712
L32.2187 121.359
L32.8582 121.006
L33.4976 120.651
L34.1371 120.294
L34.7765 119.936
L35.416 119.576
L36.0555 119.215
L36.6949 118.852
L37.3344 118.488
L37.9738 118.122
L38.6133 117.755
L39.2527 117.385
L39.8922 117.014
L40.5316 116.642
L41.1711 116.267
L41.8105 115.891
L42.45 115.513
L43.0894 115.133
L43.7289 114.752
L44.3683 114.369
L45.0078 113.983
L45.6472 113.596
L46.2867 113.207
L46.9261 112.816
L47.5656 112.423
L48.205 112.027
L48.8445 111.63
L49.4839 111.231
L50.1234 110.829
L50.7628 110.426
L51.4023 110.02
L52.0417 109.612
L52.6812 109.202
L53.3206 108.789
L53.9601 108.374
L54.5995 107.957
L55.239 107.537
L55.8784 107.115
L56.5179 106.69
L57.1573 106.262
L57.7968 105.832
L58.4363 105.4
L59.0757 104.964
L59.7152 104.526
L60.3546 104.085
L60.9941 103.642
L61.6335 103.195
L62.273 102.745
L62.9124 102.292
L63.5519 101.836
L64.1913 101.377
L64.8308 100.915
L65.4702 100.449
L66.1097 99.9804
L66.7491 99.5079
L67.3886 99.0318
L68.028 98.5522
L68.6675 98.0689
L69.3069 97.5817
L69.9464 97.0907
L70.5858 96.5957
L71.2253 96.0966
L71.8647 95.5934
L72.5042 95.0859
L73.1436 94.574
L73.7831 94.0575
L74.4225 93.5364
L75.062 93.0106
L75.7014 92.4799
L76.3409 91.9441
L76.9803 91.4032
L77.6198 90.857
L78.2592 90.3052
L78.8987 89.7478
L79.5381 89.1846
L80.1776 88.6153
L80.8171 88.0398
L81.4565 87.4579
L82.096 86.8693
L82.7354 86.2739
L83.3749 85.6713
L84.0143 85.0613
L84.6538 84.4436
L85.2932 83.818
L85.9327 83.1841
L86.5721 82.5415
L87.2116 81.89
L87.851 81.2291
L88.4905 80.5584
L89.1299 79.8774
L89.7694 79.1858
L90.4088 78.4828
L91.0483 77.7681
L91.6877 77.0409
L92.3272 76.3006
L92.9666 75.5465
L93.6061 74.7777
L94.2455 73.9934
L94.885 73.1926
L95.5244 72.3742
L96.1639 71.5369
L96.8033 70.6795
L97.4428 69.8003
L98.0822 68.8977
L98.7217 67.9696
L99.3611 67.0138
L100.001 66.0277
L100.64 65.008
L101.279 63.9513
L101.919 62.853
L102.558 61.708
L103.198 60.5096
L103.837 59.2496
L104.477 57.9174
L105.116 56.499
L105.756 54.9751
L106.395 53.3178
L107.035 51.4846
L107.674 49.4037
L108.313 46.935
L108.953 43.7166" style="fill:none;stroke:#ff0000;stroke-linecap:square;"/>
   </g>
   <g id="matplotlib.axis_1">
    <g id="xtick_1">
     <g id="line2d_5">
      <defs>
       <path d="
M0 0
L0 -4" id="m93b0483c22" style="stroke:#000000;stroke-width:0.5;"/>
      </defs>
      <g>
       <use style="stroke:#000000;stroke-width:0.5;" x="29.6609375" xlink:href="#m93b0483c22" y="32.4903846154"/>
      </g>
     </g>
    </g>
    <g id="xtick_2">
     <g id="line2d_6">
      <g>
       <use style="stroke:#000000;stroke-width:0.5;" x="68.0280221058" xlink:href="#m93b0483c22" y="32.4903846154"/>
      </g>
     </g>
     <g id="text_1">
      <!-- 0.06 -->
      <defs>
       <path d="
M33.0156 40.375
Q26.375 40.375 22.4844 35.8281
Q18.6094 31.2969 18.6094 23.3906
Q18.6094 15.5312 22.4844 10.9531
Q26.375 6.39062 33.0156 6.39062
Q39.6562 6.39062 43.5312 10.9531
Q47.4062 15.5312 47.4062 23.3906
Q47.4062 31.2969 43.5312 35.8281
Q39.6562 40.375 33.0156 40.375
M52.5938 71.2969
L52.5938 62.3125
Q48.875 64.0625 45.0938 64.9844
Q41.3125 65.9219 37.5938 65.9219
Q27.8281 65.9219 22.6719 59.3281
Q17.5312 52.7344 16.7969 39.4062
Q19.6719 43.6562 24.0156 45.9219
Q28.375 48.1875 33.5938 48.1875
Q44.5781 48.1875 50.9531 41.5156
Q57.3281 34.8594 57.3281 23.3906
Q57.3281 12.1562 50.6875 5.35938
Q44.0469 -1.42188 33.0156 -1.42188
Q20.3594 -1.42188 13.6719 8.26562
Q6.98438 17.9688 6.98438 36.375
Q6.98438 53.6562 15.1875 63.9375
Q23.3906 74.2188 37.2031 74.2188
Q40.9219 74.2188 44.7031 73.4844
Q48.4844 72.75 52.5938 71.2969" id="BitstreamVeraSans-Roman-36"/>
       <path d="
M31.7812 66.4062
Q24.1719 66.4062 20.3281 58.9062
Q16.5 51.4219 16.5 36.375
Q16.5 21.3906 20.3281 13.8906
Q24.1719 6.39062 31.7812 6.39062
Q39.4531 6.39062 43.2812 13.8906
Q47.125 21.3906 47.125 36.375
Q47.125 51.4219 43.2812 58.9062
Q39.4531 66.4062 31.7812 66.4062
M31.7812 74.2188
Q44.0469 74.2188 50.5156 64.5156
Q56.9844 54.8281 56.9844 36.375
Q56.9844 17.9688 50.5156 8.26562
Q44.0469 -1.42188 31.7812 -1.42188
Q19.5312 -1.42188 13.0625 8.26562
Q6.59375 17.9688 6.59375 36.375
Q6.59375 54.8281 13.0625 64.5156
Q19.5312 74.2188 31.7812 74.2188" id="BitstreamVeraSans-Roman-30"/>
       <path d="
M10.6875 12.4062
L21 12.4062
L21 0
L10.6875 0
z
" id="BitstreamVeraSans-Roman-2e"/>
      </defs>
      <g transform="translate(57.5397408558 44.0888221154)scale(0.1 -0.1)">
       <use xlink:href="#BitstreamVeraSans-Roman-30"/>
       <use x="63.623046875" xlink:href="#BitstreamVeraSans-Roman-2e"/>
       <use x="95.41015625" xlink:href="#BitstreamVeraSans-Roman-30"/>
       <use x="159.033203125" xlink:href="#BitstreamVeraSans-Roman-36"/>
      </g>
     </g>
    </g>
    <g id="xtick_3">
     <g id="line2d_7">
      <g>
       <use style="stroke:#000000;stroke-width:0.5;" x="106.395106712" xlink:href="#m93b0483c22" y="32.4903846154"/>
      </g>
     </g>
     <g id="text_2">
      <!-- 0.12 -->
      <defs>
       <path d="
M19.1875 8.29688
L53.6094 8.29688
L53.6094 0
L7.32812 0
L7.32812 8.29688
Q12.9375 14.1094 22.625 23.8906
Q32.3281 33.6875 34.8125 36.5312
Q39.5469 41.8438 41.4219 45.5312
Q43.3125 49.2188 43.3125 52.7812
Q43.3125 58.5938 39.2344 62.25
Q35.1562 65.9219 28.6094 65.9219
Q23.9688 65.9219 18.8125 64.3125
Q13.6719 62.7031 7.8125 59.4219
L7.8125 69.3906
Q13.7656 71.7812 18.9375 73
Q24.125 74.2188 28.4219 74.2188
Q39.75 74.2188 46.4844 68.5469
Q53.2188 62.8906 53.2188 53.4219
Q53.2188 48.9219 51.5312 44.8906
Q49.8594 40.875 45.4062 35.4062
Q44.1875 33.9844 37.6406 27.2188
Q31.1094 20.4531 19.1875 8.29688" id="BitstreamVeraSans-Roman-32"/>
       <path d="
M12.4062 8.29688
L28.5156 8.29688
L28.5156 63.9219
L10.9844 60.4062
L10.9844 69.3906
L28.4219 72.9062
L38.2812 72.9062
L38.2812 8.29688
L54.3906 8.29688
L54.3906 0
L12.4062 0
z
" id="BitstreamVeraSans-Roman-31"/>
      </defs>
      <g transform="translate(96.0927629617 44.0888221154)scale(0.1 -0.1)">
       <use xlink:href="#BitstreamVeraSans-Roman-30"/>
       <use x="63.623046875" xlink:href="#BitstreamVeraSans-Roman-2e"/>
       <use x="95.41015625" xlink:href="#BitstreamVeraSans-Roman-31"/>
       <use x="159.033203125" xlink:href="#BitstreamVeraSans-Roman-32"/>
      </g>
     </g>
    </g>
    <g id="xtick_4">
     <g id="line2d_8">
      <defs>
       <path d="
M0 0
L0 -2" id="m177f7580d0" style="stroke:#000000;stroke-width:0.5;"/>
      </defs>
      <g>
       <use style="stroke:#000000;stroke-width:0.5;" x="39.2527086515" xlink:href="#m177f7580d0" y="32.4903846154"/>
      </g>
     </g>
    </g>
    <g id="xtick_5">
     <g id="line2d_9">
      <g>
       <use style="stroke:#000000;stroke-width:0.5;" x="48.8444798029" xlink:href="#m177f7580d0" y="32.4903846154"/>
      </g>
     </g>
    </g>
    <g id="xtick_6">
     <g id="line2d_10">
      <g>
       <use style="stroke:#000000;stroke-width:0.5;" x="58.4362509544" xlink:href="#m177f7580d0" y="32.4903846154"/>
      </g>
     </g>
    </g>
    <g id="xtick_7">
     <g id="line2d_11">
      <g>
       <use style="stroke:#000000;stroke-width:0.5;" x="77.6197932573" xlink:href="#m177f7580d0" y="32.4903846154"/>
      </g>
     </g>
    </g>
    <g id="xtick_8">
     <g id="line2d_12">
      <g>
       <use style="stroke:#000000;stroke-width:0.5;" x="87.2115644088" xlink:href="#m177f7580d0" y="32.4903846154"/>
      </g>
     </g>
    </g>
    <g id="xtick_9">
     <g id="line2d_13">
      <g>
       <use style="stroke:#000000;stroke-width:0.5;" x="96.8033355602" xlink:href="#m177f7580d0" y="32.4903846154"/>
      </g>
     </g>
    </g>
    <g id="text_3">
     <!-- $t$ -->
     <defs>
      <path d="
M6.20312 8.10938
Q6.20312 9.57812 6.5 10.8906
L13.7188 39.5938
L3.21875 39.5938
Q2.20312 39.5938 2.20312 40.9219
Q2.59375 43.1094 3.51562 43.1094
L14.5938 43.1094
L18.6094 59.4219
Q19 60.75 20.1719 61.6719
Q21.3438 62.5938 22.7969 62.5938
Q24.0781 62.5938 24.9219 61.8281
Q25.7812 61.0781 25.7812 59.8125
Q25.7812 59.5156 25.75 59.3438
Q25.7344 59.1875 25.6875 58.9844
L21.6875 43.1094
L31.9844 43.1094
Q33.0156 43.1094 33.0156 41.7969
Q32.9531 41.5469 32.8125 40.9531
Q32.6719 40.375 32.4219 39.9844
Q32.1719 39.5938 31.6875 39.5938
L20.7969 39.5938
L13.625 10.6875
Q12.8906 7.85938 12.8906 5.8125
Q12.8906 1.51562 15.8281 1.51562
Q20.2188 1.51562 23.6094 5.64062
Q27 9.76562 28.8125 14.7031
Q29.2031 15.2812 29.5938 15.2812
L30.8125 15.2812
Q31.2031 15.2812 31.4375 15.0156
Q31.6875 14.75 31.6875 14.4062
Q31.6875 14.2031 31.5938 14.1094
Q29.3906 8.0625 25.1875 3.46875
Q21 -1.125 15.5781 -1.125
Q11.625 -1.125 8.90625 1.45312
Q6.20312 4.04688 6.20312 8.10938" id="Cmmi10-74"/>
     </defs>
     <g transform="translate(118.538751849 32.4903846154)scale(0.16 -0.16)">
      <use transform="translate(0.0 0.40625)" xlink:href="#Cmmi10-74"/>
     </g>
    </g>
   </g>
   <g id="matplotlib.axis_2">
    <g id="ytick_1">
     <g id="line2d_14">
      <defs>
       <path d="
M0 0
L4 0" id="m728421d6d4" style="stroke:#000000;stroke-width:0.5;"/>
      </defs>
      <g>
       <use style="stroke:#000000;stroke-width:0.5;" x="29.6609375" xlink:href="#m728421d6d4" y="119.287721893"/>
      </g>
     </g>
     <g id="text_4">
      <!-- -0.5 -->
      <defs>
       <path d="
M4.89062 31.3906
L31.2031 31.3906
L31.2031 23.3906
L4.89062 23.3906
z
" id="BitstreamVeraSans-Roman-2d"/>
       <path d="
M10.7969 72.9062
L49.5156 72.9062
L49.5156 64.5938
L19.8281 64.5938
L19.8281 46.7344
Q21.9688 47.4688 24.1094 47.8281
Q26.2656 48.1875 28.4219 48.1875
Q40.625 48.1875 47.75 41.5
Q54.8906 34.8125 54.8906 23.3906
Q54.8906 11.625 47.5625 5.09375
Q40.2344 -1.42188 26.9062 -1.42188
Q22.3125 -1.42188 17.5469 -0.640625
Q12.7969 0.140625 7.71875 1.70312
L7.71875 11.625
Q12.1094 9.23438 16.7969 8.0625
Q21.4844 6.89062 26.7031 6.89062
Q35.1562 6.89062 40.0781 11.3281
Q45.0156 15.7656 45.0156 23.3906
Q45.0156 31 40.0781 35.4375
Q35.1562 39.8906 26.7031 39.8906
Q22.75 39.8906 18.8125 39.0156
Q14.8906 38.1406 10.7969 36.2812
z
" id="BitstreamVeraSans-Roman-35"/>
      </defs>
      <g transform="translate(7.5125 122.047096893)scale(0.1 -0.1)">
       <use xlink:href="#BitstreamVeraSans-Roman-2d"/>
       <use x="36.083984375" xlink:href="#BitstreamVeraSans-Roman-30"/>
       <use x="99.70703125" xlink:href="#BitstreamVeraSans-Roman-2e"/>
       <use x="131.494140625" xlink:href="#BitstreamVeraSans-Roman-35"/>
      </g>
     </g>
    </g>
    <g id="ytick_2">
     <g id="line2d_15">
      <g>
       <use style="stroke:#000000;stroke-width:0.5;" x="29.6609375" xlink:href="#m728421d6d4" y="101.928254438"/>
      </g>
     </g>
     <g id="text_5">
      <!-- -0.4 -->
      <defs>
       <path d="
M37.7969 64.3125
L12.8906 25.3906
L37.7969 25.3906
z

M35.2031 72.9062
L47.6094 72.9062
L47.6094 25.3906
L58.0156 25.3906
L58.0156 17.1875
L47.6094 17.1875
L47.6094 0
L37.7969 0
L37.7969 17.1875
L4.89062 17.1875
L4.89062 26.7031
z
" id="BitstreamVeraSans-Roman-34"/>
      </defs>
      <g transform="translate(7.2 104.687629438)scale(0.1 -0.1)">
       <use xlink:href="#BitstreamVeraSans-Roman-2d"/>
       <use x="36.083984375" xlink:href="#BitstreamVeraSans-Roman-30"/>
       <use x="99.70703125" xlink:href="#BitstreamVeraSans-Roman-2e"/>
       <use x="131.494140625" xlink:href="#BitstreamVeraSans-Roman-34"/>
      </g>
     </g>
    </g>
    <g id="ytick_3">
     <g id="line2d_16">
      <g>
       <use style="stroke:#000000;stroke-width:0.5;" x="29.6609375" xlink:href="#m728421d6d4" y="84.5687869822"/>
      </g>
     </g>
     <g id="text_6">
      <!-- -0.3 -->
      <defs>
       <path d="
M40.5781 39.3125
Q47.6562 37.7969 51.625 33
Q55.6094 28.2188 55.6094 21.1875
Q55.6094 10.4062 48.1875 4.48438
Q40.7656 -1.42188 27.0938 -1.42188
Q22.5156 -1.42188 17.6562 -0.515625
Q12.7969 0.390625 7.625 2.20312
L7.625 11.7188
Q11.7188 9.32812 16.5938 8.10938
Q21.4844 6.89062 26.8125 6.89062
Q36.0781 6.89062 40.9375 10.5469
Q45.7969 14.2031 45.7969 21.1875
Q45.7969 27.6406 41.2812 31.2656
Q36.7656 34.9062 28.7188 34.9062
L20.2188 34.9062
L20.2188 43.0156
L29.1094 43.0156
Q36.375 43.0156 40.2344 45.9219
Q44.0938 48.8281 44.0938 54.2969
Q44.0938 59.9062 40.1094 62.9062
Q36.1406 65.9219 28.7188 65.9219
Q24.6562 65.9219 20.0156 65.0312
Q15.375 64.1562 9.8125 62.3125
L9.8125 71.0938
Q15.4375 72.6562 20.3438 73.4375
Q25.25 74.2188 29.5938 74.2188
Q40.8281 74.2188 47.3594 69.1094
Q53.9062 64.0156 53.9062 55.3281
Q53.9062 49.2656 50.4375 45.0938
Q46.9688 40.9219 40.5781 39.3125" id="BitstreamVeraSans-Roman-33"/>
      </defs>
      <g transform="translate(7.440625 87.3281619822)scale(0.1 -0.1)">
       <use xlink:href="#BitstreamVeraSans-Roman-2d"/>
       <use x="36.083984375" xlink:href="#BitstreamVeraSans-Roman-30"/>
       <use x="99.70703125" xlink:href="#BitstreamVeraSans-Roman-2e"/>
       <use x="131.494140625" xlink:href="#BitstreamVeraSans-Roman-33"/>
      </g>
     </g>
    </g>
    <g id="ytick_4">
     <g id="line2d_17">
      <g>
       <use style="stroke:#000000;stroke-width:0.5;" x="29.6609375" xlink:href="#m728421d6d4" y="67.2093195266"/>
      </g>
     </g>
     <g id="text_7">
      <!-- -0.2 -->
      <g transform="translate(7.640625 69.9686945266)scale(0.1 -0.1)">
       <use xlink:href="#BitstreamVeraSans-Roman-2d"/>
       <use x="36.083984375" xlink:href="#BitstreamVeraSans-Roman-30"/>
       <use x="99.70703125" xlink:href="#BitstreamVeraSans-Roman-2e"/>
       <use x="131.494140625" xlink:href="#BitstreamVeraSans-Roman-32"/>
      </g>
     </g>
    </g>
    <g id="ytick_5">
     <g id="line2d_18">
      <g>
       <use style="stroke:#000000;stroke-width:0.5;" x="29.6609375" xlink:href="#m728421d6d4" y="49.849852071"/>
      </g>
     </g>
     <g id="text_8">
      <!-- -0.1 -->
      <g transform="translate(7.5625 52.609227071)scale(0.1 -0.1)">
       <use xlink:href="#BitstreamVeraSans-Roman-2d"/>
       <use x="36.083984375" xlink:href="#BitstreamVeraSans-Roman-30"/>
       <use x="99.70703125" xlink:href="#BitstreamVeraSans-Roman-2e"/>
       <use x="131.494140625" xlink:href="#BitstreamVeraSans-Roman-31"/>
      </g>
     </g>
    </g>
    <g id="ytick_6">
     <g id="line2d_19">
      <g>
       <use style="stroke:#000000;stroke-width:0.5;" x="29.6609375" xlink:href="#m728421d6d4" y="32.4903846154"/>
      </g>
     </g>
    </g>
    <g id="ytick_7">
     <g id="line2d_20">
      <defs>
       <path d="
M0 0
L2 0" id="mf0c55a9a47" style="stroke:#000000;stroke-width:0.5;"/>
      </defs>
      <g>
       <use style="stroke:#000000;stroke-width:0.5;" x="29.6609375" xlink:href="#mf0c55a9a47" y="122.759615385"/>
      </g>
     </g>
    </g>
    <g id="ytick_8">
     <g id="line2d_21">
      <g>
       <use style="stroke:#000000;stroke-width:0.5;" x="29.6609375" xlink:href="#mf0c55a9a47" y="115.815828402"/>
      </g>
     </g>
    </g>
    <g id="ytick_9">
     <g id="line2d_22">
      <g>
       <use style="stroke:#000000;stroke-width:0.5;" x="29.6609375" xlink:href="#mf0c55a9a47" y="112.343934911"/>
      </g>
     </g>
    </g>
    <g id="ytick_10">
     <g id="line2d_23">
      <g>
       <use style="stroke:#000000;stroke-width:0.5;" x="29.6609375" xlink:href="#mf0c55a9a47" y="108.87204142"/>
      </g>
     </g>
    </g>
    <g id="ytick_11">
     <g id="line2d_24">
      <g>
       <use style="stroke:#000000;stroke-width:0.5;" x="29.6609375" xlink:href="#mf0c55a9a47" y="105.400147929"/>
      </g>
     </g>
    </g>
    <g id="ytick_12">
     <g id="line2d_25">
      <g>
       <use style="stroke:#000000;stroke-width:0.5;" x="29.6609375" xlink:href="#mf0c55a9a47" y="98.4563609467"/>
      </g>
     </g>
    </g>
    <g id="ytick_13">
     <g id="line2d_26">
      <g>
       <use style="stroke:#000000;stroke-width:0.5;" x="29.6609375" xlink:href="#mf0c55a9a47" y="94.9844674556"/>
      </g>
     </g>
    </g>
    <g id="ytick_14">
     <g id="line2d_27">
      <g>
       <use style="stroke:#000000;stroke-width:0.5;" x="29.6609375" xlink:href="#mf0c55a9a47" y="91.5125739645"/>
      </g>
     </g>
    </g>
    <g id="ytick_15">
     <g id="line2d_28">
      <g>
       <use style="stroke:#000000;stroke-width:0.5;" x="29.6609375" xlink:href="#mf0c55a9a47" y="88.0406804734"/>
      </g>
     </g>
    </g>
    <g id="ytick_16">
     <g id="line2d_29">
      <g>
       <use style="stroke:#000000;stroke-width:0.5;" x="29.6609375" xlink:href="#mf0c55a9a47" y="84.5687869822"/>
      </g>
     </g>
    </g>
    <g id="ytick_17">
     <g id="line2d_30">
      <g>
       <use style="stroke:#000000;stroke-width:0.5;" x="29.6609375" xlink:href="#mf0c55a9a47" y="81.0968934911"/>
      </g>
     </g>
    </g>
    <g id="ytick_18">
     <g id="line2d_31">
      <g>
       <use style="stroke:#000000;stroke-width:0.5;" x="29.6609375" xlink:href="#mf0c55a9a47" y="77.625"/>
      </g>
     </g>
    </g>
    <g id="ytick_19">
     <g id="line2d_32">
      <g>
       <use style="stroke:#000000;stroke-width:0.5;" x="29.6609375" xlink:href="#mf0c55a9a47" y="74.1531065089"/>
      </g>
     </g>
    </g>
    <g id="ytick_20">
     <g id="line2d_33">
      <g>
       <use style="stroke:#000000;stroke-width:0.5;" x="29.6609375" xlink:href="#mf0c55a9a47" y="70.6812130178"/>
      </g>
     </g>
    </g>
    <g id="ytick_21">
     <g id="line2d_34">
      <g>
       <use style="stroke:#000000;stroke-width:0.5;" x="29.6609375" xlink:href="#mf0c55a9a47" y="67.2093195266"/>
      </g>
     </g>
    </g>
    <g id="ytick_22">
     <g id="line2d_35">
      <g>
       <use style="stroke:#000000;stroke-width:0.5;" x="29.6609375" xlink:href="#mf0c55a9a47" y="63.7374260355"/>
      </g>
     </g>
    </g>
    <g id="ytick_23">
     <g id="line2d_36">
      <g>
       <use style="stroke:#000000;stroke-width:0.5;" x="29.6609375" xlink:href="#mf0c55a9a47" y="60.2655325444"/>
      </g>
     </g>
    </g>
    <g id="ytick_24">
     <g id="line2d_37">
      <g>
       <use style="stroke:#000000;stroke-width:0.5;" x="29.6609375" xlink:href="#mf0c55a9a47" y="56.7936390533"/>
      </g>
     </g>
    </g>
    <g id="ytick_25">
     <g id="line2d_38">
      <g>
       <use style="stroke:#000000;stroke-width:0.5;" x="29.6609375" xlink:href="#mf0c55a9a47" y="53.3217455621"/>
      </g>
     </g>
    </g>
    <g id="ytick_26">
     <g id="line2d_39">
      <g>
       <use style="stroke:#000000;stroke-width:0.5;" x="29.6609375" xlink:href="#mf0c55a9a47" y="49.849852071"/>
      </g>
     </g>
    </g>
    <g id="ytick_27">
     <g id="line2d_40">
      <g>
       <use style="stroke:#000000;stroke-width:0.5;" x="29.6609375" xlink:href="#mf0c55a9a47" y="46.3779585799"/>
      </g>
     </g>
    </g>
    <g id="ytick_28">
     <g id="line2d_41">
      <g>
       <use style="stroke:#000000;stroke-width:0.5;" x="29.6609375" xlink:href="#mf0c55a9a47" y="42.9060650888"/>
      </g>
     </g>
    </g>
    <g id="ytick_29">
     <g id="line2d_42">
      <g>
       <use style="stroke:#000000;stroke-width:0.5;" x="29.6609375" xlink:href="#mf0c55a9a47" y="39.4341715976"/>
      </g>
     </g>
    </g>
    <g id="ytick_30">
     <g id="line2d_43">
      <g>
       <use style="stroke:#000000;stroke-width:0.5;" x="29.6609375" xlink:href="#mf0c55a9a47" y="35.9622781065"/>
      </g>
     </g>
    </g>
    <g id="text_9">
     <!-- $a$ -->
     <defs>
      <path d="
M17.3906 -1.125
Q11.0781 -1.125 7.4375 3.64062
Q3.8125 8.40625 3.8125 14.8906
Q3.8125 21.2969 7.125 28.1719
Q10.4531 35.0625 16.0938 39.625
Q21.7344 44.1875 28.2188 44.1875
Q31.2031 44.1875 33.5469 42.5781
Q35.8906 40.9688 37.2031 38.1875
Q38.3281 42.1875 41.6094 42.1875
Q42.875 42.1875 43.7188 41.4219
Q44.5781 40.6719 44.5781 39.4062
Q44.5781 39.1094 44.5469 38.9531
Q44.5312 38.8125 44.4844 38.625
L37.5 10.6875
Q36.8125 7.71875 36.8125 5.8125
Q36.8125 1.51562 39.7031 1.51562
Q42.8281 1.51562 44.4531 5.48438
Q46.0938 9.46875 47.2188 14.7031
Q47.4062 15.2812 48 15.2812
L49.2188 15.2812
Q49.6094 15.2812 49.8438 14.9375
Q50.0938 14.5938 50.0938 14.3125
Q48.3438 7.32812 46.2656 3.09375
Q44.1875 -1.125 39.5 -1.125
Q36.1406 -1.125 33.5469 0.84375
Q30.9531 2.82812 30.3281 6.10938
Q23.875 -1.125 17.3906 -1.125
M17.4844 1.51562
Q21.0938 1.51562 24.4844 4.21875
Q27.875 6.9375 30.3281 10.5938
Q30.4219 10.6875 30.4219 10.8906
L35.7969 32.625
L35.8906 32.9062
Q35.2969 36.4688 33.3125 39.0312
Q31.3438 41.6094 27.9844 41.6094
Q24.6094 41.6094 21.7031 38.8438
Q18.7969 36.0781 16.7969 32.3281
Q14.8438 28.3281 13.0625 21.3438
Q11.2812 14.3594 11.2812 10.5
Q11.2812 7.03125 12.7656 4.26562
Q14.2656 1.51562 17.4844 1.51562" id="Cmmi10-61"/>
     </defs>
     <g transform="translate(25.4209375 19.3575)scale(0.16 -0.16)">
      <use transform="translate(0.0 0.8125)" xlink:href="#Cmmi10-61"/>
     </g>
    </g>
   </g>
   <g id="patch_3">
    <path d="
M28.0751 32.4904
L110.539 32.4904" style="fill:none;stroke:#000000;stroke-width:0.8;"/>
   </g>
   <g id="patch_4">
    <path d="
M29.6609 124.565
L29.6609 30.685" style="fill:none;stroke:#000000;stroke-width:0.8;"/>
   </g>
  </g>
 </g>
 <defs>
  <clipPath id="paff1c2e263">
   <rect height="93.88" width="82.4636538462" x="28.075098003" y="30.685"/>
  </clipPath>
 </defs>
</svg>
