<?xml version="1.0" encoding="utf-8" standalone="no"?>
<!DOCTYPE svg PUBLIC "-//W3C//DTD SVG 1.1//EN"
  "http://www.w3.org/Graphics/SVG/1.1/DTD/svg11.dtd">
<!-- Created with matplotlib (http://matplotlib.org/) -->
<svg height="133pt" version="1.1" viewBox="0 0 131 133" width="131pt" xmlns="http://www.w3.org/2000/svg" xmlns:xlink="http://www.w3.org/1999/xlink">
 <defs>
  <style type="text/css">
*{stroke-linecap:butt;stroke-linejoin:round;}
  </style>
 </defs>
 <g id="figure_1">
  <g id="patch_1">
   <path d="
M0 133.061
L131.591 133.061
L131.591 0
L0 0
z
" style="fill:#ffffff;"/>
  </g>
  <g id="axes_1">
   <g id="patch_2">
    <path d="
M24.2242 113.78
L110.471 113.78
L110.471 30.685
L24.2242 30.685
z
" style="fill:#ffffff;"/>
   </g>
   <g id="line2d_1">
    <path clip-path="url(#p1e534b0f6f)" d="
M25.8828 32.283
L26.5516 32.4166
L27.2204 32.5509
L27.8892 32.6862
L28.558 32.8222
L29.2267 32.9591
L29.8955 33.0968
L30.5643 33.2354
L31.2331 33.3749
L31.9019 33.5153
L32.5707 33.6566
L33.2394 33.7988
L33.9082 33.942
L34.577 34.0861
L35.2458 34.2312
L35.9146 34.3773
L36.5834 34.5243
L37.2522 34.6724
L37.9209 34.8215
L38.5897 34.9717
L39.2585 35.1229
L39.9273 35.2753
L40.5961 35.4287
L41.2649 35.5832
L41.9336 35.7389
L42.6024 35.8957
L43.2712 36.0538
L43.94 36.213
L44.6088 36.3734
L45.2776 36.5351
L45.9464 36.6981
L46.6151 36.8624
L47.2839 37.0279
L47.9527 37.1948
L48.6215 37.3631
L49.2903 37.5328
L49.9591 37.7039
L50.6278 37.8764
L51.2966 38.0504
L51.9654 38.2259
L52.6342 38.403
L53.303 38.5816
L53.9718 38.7618
L54.6406 38.9437
L55.3093 39.1272
L55.9781 39.3125
L56.6469 39.4994
L57.3157 39.6882
L57.9845 39.8788
L58.6533 40.0713
L59.322 40.2656
L59.9908 40.462
L60.6596 40.6603
L61.3284 40.8607
L61.9972 41.0631
L62.666 41.2678
L63.3348 41.4746
L64.0035 41.6837
L64.6723 41.8951
L65.3411 42.1089
L66.0099 42.3251
L66.6787 42.5438
L67.3475 42.7652
L68.0162 42.9891
L68.685 43.2158
L69.3538 43.4453
L70.0226 43.6777
L70.6914 43.9131
L71.3602 44.1515
L72.029 44.3931
L72.6977 44.6379
L73.3665 44.8861
L74.0353 45.1378
L74.7041 45.393
L75.3729 45.652
L76.0417 45.9148
L76.7104 46.1816
L77.3792 46.4525
L78.048 46.7276
L78.7168 47.0072
L79.3856 47.2914
L80.0544 47.5804
L80.7232 47.8743
L81.3919 48.1734
L82.0607 48.4779
L82.7295 48.788
L83.3983 49.104
L84.0671 49.4261
L84.7359 49.7547
L85.4046 50.0899
L86.0734 50.4323
L86.7422 50.782
L87.411 51.1395
L88.0798 51.5053
L88.7486 51.8798
L89.4174 52.2634
L90.0861 52.6567
L90.7549 53.0604
L91.4237 53.475
L92.0925 53.9013
L92.7613 54.3401
L93.4301 54.7922
L94.0988 55.2587
L94.7676 55.7407
L95.4364 56.2394
L96.1052 56.7562
L96.774 57.2928
L97.4428 57.851
L98.1116 58.433
L98.7803 59.0413
L99.4491 59.6788
L100.118 60.349
L100.787 61.0562
L101.455 61.8054
L102.124 62.603
L102.793 63.457
L103.462 64.3778
L104.131 65.3788
L104.799 66.4785
L105.468 67.7034
L106.137 69.0925
L106.806 70.7087
L107.475 72.664
L108.143 75.1921
L108.812 78.9645" style="fill:none;stroke:#0000ff;stroke-linecap:square;"/>
   </g>
   <g id="line2d_2">
    <path clip-path="url(#p1e534b0f6f)" d="
M25.8828 58.9161
L26.5516 59.0497
L27.2204 59.1841
L27.8892 59.3193
L28.558 59.4553
L29.2267 59.5922
L29.8955 59.7299
L30.5643 59.8686
L31.2331 60.0081
L31.9019 60.1485
L32.5707 60.2898
L33.2394 60.432
L33.9082 60.5751
L34.577 60.7192
L35.2458 60.8643
L35.9146 61.0104
L36.5834 61.1575
L37.2522 61.3056
L37.9209 61.4547
L38.5897 61.6048
L39.2585 61.7561
L39.9273 61.9084
L40.5961 62.0618
L41.2649 62.2164
L41.9336 62.372
L42.6024 62.5289
L43.2712 62.6869
L43.94 62.8461
L44.6088 63.0066
L45.2776 63.1683
L45.9464 63.3312
L46.6151 63.4955
L47.2839 63.6611
L47.9527 63.828
L48.6215 63.9962
L49.2903 64.1659
L49.9591 64.337
L50.6278 64.5095
L51.2966 64.6835
L51.9654 64.8591
L52.6342 65.0361
L53.303 65.2147
L53.9718 65.395
L54.6406 65.5768
L55.3093 65.7604
L55.9781 65.9456
L56.6469 66.1326
L57.3157 66.3214
L57.9845 66.5119
L58.6533 66.7044
L59.322 66.8988
L59.9908 67.0951
L60.6596 67.2934
L61.3284 67.4938
L61.9972 67.6963
L62.666 67.9009
L63.3348 68.1077
L64.0035 68.3168
L64.6723 68.5282
L65.3411 68.742
L66.0099 68.9583
L66.6787 69.177
L67.3475 69.3983
L68.0162 69.6223
L68.685 69.849
L69.3538 70.0785
L70.0226 70.3108
L70.6914 70.5462
L71.3602 70.7846
L72.029 71.0262
L72.6977 71.271
L73.3665 71.5193
L74.0353 71.7709
L74.7041 72.0262
L75.3729 72.2851
L76.0417 72.5479
L76.7104 72.8147
L77.3792 73.0856
L78.048 73.3608
L78.7168 73.6404
L79.3856 73.9246
L80.0544 74.2135
L80.7232 74.5074
L81.3919 74.8065
L82.0607 75.111
L82.7295 75.4211
L83.3983 75.7371
L84.0671 76.0592
L84.7359 76.3878
L85.4046 76.7231
L86.0734 77.0654
L86.7422 77.4151
L87.411 77.7727
L88.0798 78.1385
L88.7486 78.5129
L89.4174 78.8965
L90.0861 79.2899
L90.7549 79.6935
L91.4237 80.1081
L92.0925 80.5344
L92.7613 80.9732
L93.4301 81.4253
L94.0988 81.8918
L94.7676 82.3738
L95.4364 82.8725
L96.1052 83.3893
L96.774 83.9259
L97.4428 84.4842
L98.1116 85.0662
L98.7803 85.6744
L99.4491 86.3119
L100.118 86.9821
L100.787 87.6893
L101.455 88.4385
L102.124 89.2361
L102.793 90.0902
L103.462 91.0109
L104.131 92.0119
L104.799 93.1117
L105.468 94.3365
L106.137 95.7256
L106.806 97.3419
L107.475 99.2971
L108.143 101.825
L108.812 105.598" style="fill:none;stroke:#0000ff;stroke-linecap:square;"/>
   </g>
   <g id="line2d_3">
    <path clip-path="url(#p1e534b0f6f)" d="
M25.8828 58.9161
L26.5516 59.0497
L27.2204 59.1841
L27.8892 59.3193
L28.558 59.4553
L29.2267 59.5922
L29.8955 59.7299
L30.5643 59.8686
L31.2331 60.0081
L31.9019 60.1485
L32.5707 60.2898
L33.2394 60.432
L33.9082 60.5751
L34.577 60.7192
L35.2458 60.8643
L35.9146 61.0104
L36.5834 61.1575
L37.2522 61.3056
L37.9209 61.4547
L38.5897 61.6048
L39.2585 61.7561
L39.9273 61.9084
L40.5961 62.0618
L41.2649 62.2164
L41.9336 62.372
L42.6024 62.5289
L43.2712 62.6869
L43.94 62.8461
L44.6088 63.0066
L45.2776 63.1683
L45.9464 63.3312
L46.6151 63.4955
L47.2839 63.6611
L47.9527 63.828
L48.6215 63.9962
L49.2903 64.1659
L49.9591 64.337
L50.6278 64.5095
L51.2966 64.6835
L51.9654 64.8591
L52.6342 65.0361
L53.303 65.2147
L53.9718 65.395
L54.6406 65.5768
L55.3093 65.7604
L55.9781 65.9456
L56.6469 66.1326
L57.3157 66.3214
L57.9845 66.5119
L58.6533 66.7044
L59.322 66.8988
L59.9908 67.0951
L60.6596 67.2934
L61.3284 67.4938
L61.9972 67.6963
L62.666 67.9009
L63.3348 68.1077
L64.0035 68.3168
L64.6723 68.5282
L65.3411 68.742
L66.0099 68.9583
L66.6787 69.177
L67.3475 69.3983
L68.0162 69.6223
L68.685 69.849
L69.3538 70.0785
L70.0226 70.3108
L70.6914 70.5462
L71.3602 70.7846
L72.029 71.0262
L72.6977 71.271
L73.3665 71.5193
L74.0353 71.7709
L74.7041 72.0262
L75.3729 72.2851
L76.0417 72.5479
L76.7104 72.8147
L77.3792 73.0856
L78.048 73.3608
L78.7168 73.6404
L79.3856 73.9246
L80.0544 74.2135
L80.7232 74.5074
L81.3919 74.8065
L82.0607 75.111
L82.7295 75.4211
L83.3983 75.7371
L84.0671 76.0592
L84.7359 76.3878
L85.4046 76.7231
L86.0734 77.0654
L86.7422 77.4151
L87.411 77.7727
L88.0798 78.1385
L88.7486 78.5129
L89.4174 78.8965
L90.0861 79.2899
L90.7549 79.6935
L91.4237 80.1081
L92.0925 80.5344
L92.7613 80.9732
L93.4301 81.4253
L94.0988 81.8918
L94.7676 82.3738
L95.4364 82.8725
L96.1052 83.3893
L96.774 83.9259
L97.4428 84.4842
L98.1116 85.0662
L98.7803 85.6744
L99.4491 86.3119
L100.118 86.9821
L100.787 87.6893
L101.455 88.4385
L102.124 89.2361
L102.793 90.0902
L103.462 91.0109
L104.131 92.0119
L104.799 93.1117
L105.468 94.3365
L106.137 95.7256
L106.806 97.3419
L107.475 99.2971
L108.143 101.825
L108.812 105.598" style="fill:none;stroke:#ff0000;stroke-linecap:square;"/>
   </g>
   <g id="line2d_4">
    <path clip-path="url(#p1e534b0f6f)" d="
M25.8828 32.283
L26.5516 32.4166
L27.2204 32.5509
L27.8892 32.6862
L28.558 32.8222
L29.2267 32.9591
L29.8955 33.0968
L30.5643 33.2354
L31.2331 33.3749
L31.9019 33.5153
L32.5707 33.6566
L33.2394 33.7988
L33.9082 33.942
L34.577 34.0861
L35.2458 34.2312
L35.9146 34.3773
L36.5834 34.5243
L37.2522 34.6724
L37.9209 34.8215
L38.5897 34.9717
L39.2585 35.1229
L39.9273 35.2753
L40.5961 35.4287
L41.2649 35.5832
L41.9336 35.7389
L42.6024 35.8957
L43.2712 36.0538
L43.94 36.213
L44.6088 36.3734
L45.2776 36.5351
L45.9464 36.6981
L46.6151 36.8624
L47.2839 37.0279
L47.9527 37.1948
L48.6215 37.3631
L49.2903 37.5328
L49.9591 37.7039
L50.6278 37.8764
L51.2966 38.0504
L51.9654 38.2259
L52.6342 38.403
L53.303 38.5816
L53.9718 38.7618
L54.6406 38.9437
L55.3093 39.1272
L55.9781 39.3125
L56.6469 39.4994
L57.3157 39.6882
L57.9845 39.8788
L58.6533 40.0713
L59.322 40.2656
L59.9908 40.462
L60.6596 40.6603
L61.3284 40.8607
L61.9972 41.0631
L62.666 41.2678
L63.3348 41.4746
L64.0035 41.6837
L64.6723 41.8951
L65.3411 42.1089
L66.0099 42.3251
L66.6787 42.5438
L67.3475 42.7652
L68.0162 42.9891
L68.685 43.2158
L69.3538 43.4453
L70.0226 43.6777
L70.6914 43.9131
L71.3602 44.1515
L72.029 44.3931
L72.6977 44.6379
L73.3665 44.8861
L74.0353 45.1378
L74.7041 45.393
L75.3729 45.652
L76.0417 45.9148
L76.7104 46.1816
L77.3792 46.4525
L78.048 46.7276
L78.7168 47.0072
L79.3856 47.2914
L80.0544 47.5804
L80.7232 47.8743
L81.3919 48.1734
L82.0607 48.4779
L82.7295 48.788
L83.3983 49.104
L84.0671 49.4261
L84.7359 49.7547
L85.4046 50.0899
L86.0734 50.4323
L86.7422 50.782
L87.411 51.1395
L88.0798 51.5053
L88.7486 51.8798
L89.4174 52.2634
L90.0861 52.6567
L90.7549 53.0604
L91.4237 53.475
L92.0925 53.9013
L92.7613 54.3401
L93.4301 54.7922
L94.0988 55.2587
L94.7676 55.7407
L95.4364 56.2394
L96.1052 56.7562
L96.774 57.2928
L97.4428 57.851
L98.1116 58.433
L98.7803 59.0413
L99.4491 59.6788
L100.118 60.349
L100.787 61.0562
L101.455 61.8054
L102.124 62.603
L102.793 63.457
L103.462 64.3778
L104.131 65.3788
L104.799 66.4785
L105.468 67.7034
L106.137 69.0925
L106.806 70.7087
L107.475 72.664
L108.143 75.1921
L108.812 78.9645" style="fill:none;stroke:#ff0000;stroke-linecap:square;"/>
   </g>
   <g id="matplotlib.axis_1">
    <g id="xtick_1">
     <g id="line2d_5">
      <defs>
       <path d="
M0 0
L0 -4" id="m93b0483c22" style="stroke:#000000;stroke-width:0.5;"/>
      </defs>
      <g>
       <use style="stroke:#000000;stroke-width:0.5;" x="25.8828125" xlink:href="#m93b0483c22" y="112.18239645"/>
      </g>
     </g>
    </g>
    <g id="xtick_2">
     <g id="line2d_6">
      <g>
       <use style="stroke:#000000;stroke-width:0.5;" x="66.0098905146" xlink:href="#m93b0483c22" y="112.18239645"/>
      </g>
     </g>
     <g id="text_1">
      <!-- 0.06 -->
      <defs>
       <path d="
M33.0156 40.375
Q26.375 40.375 22.4844 35.8281
Q18.6094 31.2969 18.6094 23.3906
Q18.6094 15.5312 22.4844 10.9531
Q26.375 6.39062 33.0156 6.39062
Q39.6562 6.39062 43.5312 10.9531
Q47.4062 15.5312 47.4062 23.3906
Q47.4062 31.2969 43.5312 35.8281
Q39.6562 40.375 33.0156 40.375
M52.5938 71.2969
L52.5938 62.3125
Q48.875 64.0625 45.0938 64.9844
Q41.3125 65.9219 37.5938 65.9219
Q27.8281 65.9219 22.6719 59.3281
Q17.5312 52.7344 16.7969 39.4062
Q19.6719 43.6562 24.0156 45.9219
Q28.375 48.1875 33.5938 48.1875
Q44.5781 48.1875 50.9531 41.5156
Q57.3281 34.8594 57.3281 23.3906
Q57.3281 12.1562 50.6875 5.35938
Q44.0469 -1.42188 33.0156 -1.42188
Q20.3594 -1.42188 13.6719 8.26562
Q6.98438 17.9688 6.98438 36.375
Q6.98438 53.6562 15.1875 63.9375
Q23.3906 74.2188 37.2031 74.2188
Q40.9219 74.2188 44.7031 73.4844
Q48.4844 72.75 52.5938 71.2969" id="BitstreamVeraSans-Roman-36"/>
       <path d="
M31.7812 66.4062
Q24.1719 66.4062 20.3281 58.9062
Q16.5 51.4219 16.5 36.375
Q16.5 21.3906 20.3281 13.8906
Q24.1719 6.39062 31.7812 6.39062
Q39.4531 6.39062 43.2812 13.8906
Q47.125 21.3906 47.125 36.375
Q47.125 51.4219 43.2812 58.9062
Q39.4531 66.4062 31.7812 66.4062
M31.7812 74.2188
Q44.0469 74.2188 50.5156 64.5156
Q56.9844 54.8281 56.9844 36.375
Q56.9844 17.9688 50.5156 8.26562
Q44.0469 -1.42188 31.7812 -1.42188
Q19.5312 -1.42188 13.0625 8.26562
Q6.59375 17.9688 6.59375 36.375
Q6.59375 54.8281 13.0625 64.5156
Q19.5312 74.2188 31.7812 74.2188" id="BitstreamVeraSans-Roman-30"/>
       <path d="
M10.6875 12.4062
L21 12.4062
L21 0
L10.6875 0
z
" id="BitstreamVeraSans-Roman-2e"/>
      </defs>
      <g transform="translate(55.5216092646 123.78083395)scale(0.1 -0.1)">
       <use xlink:href="#BitstreamVeraSans-Roman-30"/>
       <use x="63.623046875" xlink:href="#BitstreamVeraSans-Roman-2e"/>
       <use x="95.41015625" xlink:href="#BitstreamVeraSans-Roman-30"/>
       <use x="159.033203125" xlink:href="#BitstreamVeraSans-Roman-36"/>
      </g>
     </g>
    </g>
    <g id="xtick_3">
     <g id="line2d_7">
      <g>
       <use style="stroke:#000000;stroke-width:0.5;" x="106.136968529" xlink:href="#m93b0483c22" y="112.18239645"/>
      </g>
     </g>
     <g id="text_2">
      <!-- 0.12 -->
      <defs>
       <path d="
M19.1875 8.29688
L53.6094 8.29688
L53.6094 0
L7.32812 0
L7.32812 8.29688
Q12.9375 14.1094 22.625 23.8906
Q32.3281 33.6875 34.8125 36.5312
Q39.5469 41.8438 41.4219 45.5312
Q43.3125 49.2188 43.3125 52.7812
Q43.3125 58.5938 39.2344 62.25
Q35.1562 65.9219 28.6094 65.9219
Q23.9688 65.9219 18.8125 64.3125
Q13.6719 62.7031 7.8125 59.4219
L7.8125 69.3906
Q13.7656 71.7812 18.9375 73
Q24.125 74.2188 28.4219 74.2188
Q39.75 74.2188 46.4844 68.5469
Q53.2188 62.8906 53.2188 53.4219
Q53.2188 48.9219 51.5312 44.8906
Q49.8594 40.875 45.4062 35.4062
Q44.1875 33.9844 37.6406 27.2188
Q31.1094 20.4531 19.1875 8.29688" id="BitstreamVeraSans-Roman-32"/>
       <path d="
M12.4062 8.29688
L28.5156 8.29688
L28.5156 63.9219
L10.9844 60.4062
L10.9844 69.3906
L28.4219 72.9062
L38.2812 72.9062
L38.2812 8.29688
L54.3906 8.29688
L54.3906 0
L12.4062 0
z
" id="BitstreamVeraSans-Roman-31"/>
      </defs>
      <g transform="translate(95.8346247793 123.78083395)scale(0.1 -0.1)">
       <use xlink:href="#BitstreamVeraSans-Roman-30"/>
       <use x="63.623046875" xlink:href="#BitstreamVeraSans-Roman-2e"/>
       <use x="95.41015625" xlink:href="#BitstreamVeraSans-Roman-31"/>
       <use x="159.033203125" xlink:href="#BitstreamVeraSans-Roman-32"/>
      </g>
     </g>
    </g>
    <g id="xtick_4">
     <g id="line2d_8">
      <defs>
       <path d="
M0 0
L0 -2" id="m177f7580d0" style="stroke:#000000;stroke-width:0.5;"/>
      </defs>
      <g>
       <use style="stroke:#000000;stroke-width:0.5;" x="35.9145820037" xlink:href="#m177f7580d0" y="112.18239645"/>
      </g>
     </g>
    </g>
    <g id="xtick_5">
     <g id="line2d_9">
      <g>
       <use style="stroke:#000000;stroke-width:0.5;" x="45.9463515073" xlink:href="#m177f7580d0" y="112.18239645"/>
      </g>
     </g>
    </g>
    <g id="xtick_6">
     <g id="line2d_10">
      <g>
       <use style="stroke:#000000;stroke-width:0.5;" x="55.978121011" xlink:href="#m177f7580d0" y="112.18239645"/>
      </g>
     </g>
    </g>
    <g id="xtick_7">
     <g id="line2d_11">
      <g>
       <use style="stroke:#000000;stroke-width:0.5;" x="76.0416600183" xlink:href="#m177f7580d0" y="112.18239645"/>
      </g>
     </g>
    </g>
    <g id="xtick_8">
     <g id="line2d_12">
      <g>
       <use style="stroke:#000000;stroke-width:0.5;" x="86.073429522" xlink:href="#m177f7580d0" y="112.18239645"/>
      </g>
     </g>
    </g>
    <g id="xtick_9">
     <g id="line2d_13">
      <g>
       <use style="stroke:#000000;stroke-width:0.5;" x="96.1051990256" xlink:href="#m177f7580d0" y="112.18239645"/>
      </g>
     </g>
    </g>
    <g id="text_3">
     <!-- $t$ -->
     <defs>
      <path d="
M6.20312 8.10938
Q6.20312 9.57812 6.5 10.8906
L13.7188 39.5938
L3.21875 39.5938
Q2.20312 39.5938 2.20312 40.9219
Q2.59375 43.1094 3.51562 43.1094
L14.5938 43.1094
L18.6094 59.4219
Q19 60.75 20.1719 61.6719
Q21.3438 62.5938 22.7969 62.5938
Q24.0781 62.5938 24.9219 61.8281
Q25.7812 61.0781 25.7812 59.8125
Q25.7812 59.5156 25.75 59.3438
Q25.7344 59.1875 25.6875 58.9844
L21.6875 43.1094
L31.9844 43.1094
Q33.0156 43.1094 33.0156 41.7969
Q32.9531 41.5469 32.8125 40.9531
Q32.6719 40.375 32.4219 39.9844
Q32.1719 39.5938 31.6875 39.5938
L20.7969 39.5938
L13.625 10.6875
Q12.8906 7.85938 12.8906 5.8125
Q12.8906 1.51562 15.8281 1.51562
Q20.2188 1.51562 23.6094 5.64062
Q27 9.76562 28.8125 14.7031
Q29.2031 15.2812 29.5938 15.2812
L30.8125 15.2812
Q31.2031 15.2812 31.4375 15.0156
Q31.6875 14.75 31.6875 14.4062
Q31.6875 14.2031 31.5938 14.1094
Q29.3906 8.0625 25.1875 3.46875
Q21 -1.125 15.5781 -1.125
Q11.625 -1.125 8.90625 1.45312
Q6.20312 4.04688 6.20312 8.10938" id="Cmmi10-74"/>
     </defs>
     <g transform="translate(118.470692955 112.18239645)scale(0.16 -0.16)">
      <use transform="translate(0.0 0.40625)" xlink:href="#Cmmi10-74"/>
     </g>
    </g>
   </g>
   <g id="matplotlib.axis_2">
    <g id="ytick_1">
     <g id="line2d_14">
      <defs>
       <path d="
M0 0
L4 0" id="m728421d6d4" style="stroke:#000000;stroke-width:0.5;"/>
      </defs>
      <g>
       <use style="stroke:#000000;stroke-width:0.5;" x="25.8828125" xlink:href="#m728421d6d4" y="112.18239645"/>
      </g>
     </g>
    </g>
    <g id="ytick_2">
     <g id="line2d_15">
      <g>
       <use style="stroke:#000000;stroke-width:0.5;" x="25.8828125" xlink:href="#m728421d6d4" y="98.8658284024"/>
      </g>
     </g>
     <g id="text_4">
      <!-- 0.1 -->
      <g transform="translate(7.5625 101.625203402)scale(0.1 -0.1)">
       <use xlink:href="#BitstreamVeraSans-Roman-30"/>
       <use x="63.623046875" xlink:href="#BitstreamVeraSans-Roman-2e"/>
       <use x="95.41015625" xlink:href="#BitstreamVeraSans-Roman-31"/>
      </g>
     </g>
    </g>
    <g id="ytick_3">
     <g id="line2d_16">
      <g>
       <use style="stroke:#000000;stroke-width:0.5;" x="25.8828125" xlink:href="#m728421d6d4" y="85.549260355"/>
      </g>
     </g>
     <g id="text_5">
      <!-- 0.2 -->
      <g transform="translate(7.640625 88.308635355)scale(0.1 -0.1)">
       <use xlink:href="#BitstreamVeraSans-Roman-30"/>
       <use x="63.623046875" xlink:href="#BitstreamVeraSans-Roman-2e"/>
       <use x="95.41015625" xlink:href="#BitstreamVeraSans-Roman-32"/>
      </g>
     </g>
    </g>
    <g id="ytick_4">
     <g id="line2d_17">
      <g>
       <use style="stroke:#000000;stroke-width:0.5;" x="25.8828125" xlink:href="#m728421d6d4" y="72.2326923077"/>
      </g>
     </g>
     <g id="text_6">
      <!-- 0.3 -->
      <defs>
       <path d="
M40.5781 39.3125
Q47.6562 37.7969 51.625 33
Q55.6094 28.2188 55.6094 21.1875
Q55.6094 10.4062 48.1875 4.48438
Q40.7656 -1.42188 27.0938 -1.42188
Q22.5156 -1.42188 17.6562 -0.515625
Q12.7969 0.390625 7.625 2.20312
L7.625 11.7188
Q11.7188 9.32812 16.5938 8.10938
Q21.4844 6.89062 26.8125 6.89062
Q36.0781 6.89062 40.9375 10.5469
Q45.7969 14.2031 45.7969 21.1875
Q45.7969 27.6406 41.2812 31.2656
Q36.7656 34.9062 28.7188 34.9062
L20.2188 34.9062
L20.2188 43.0156
L29.1094 43.0156
Q36.375 43.0156 40.2344 45.9219
Q44.0938 48.8281 44.0938 54.2969
Q44.0938 59.9062 40.1094 62.9062
Q36.1406 65.9219 28.7188 65.9219
Q24.6562 65.9219 20.0156 65.0312
Q15.375 64.1562 9.8125 62.3125
L9.8125 71.0938
Q15.4375 72.6562 20.3438 73.4375
Q25.25 74.2188 29.5938 74.2188
Q40.8281 74.2188 47.3594 69.1094
Q53.9062 64.0156 53.9062 55.3281
Q53.9062 49.2656 50.4375 45.0938
Q46.9688 40.9219 40.5781 39.3125" id="BitstreamVeraSans-Roman-33"/>
      </defs>
      <g transform="translate(7.440625 74.9920673077)scale(0.1 -0.1)">
       <use xlink:href="#BitstreamVeraSans-Roman-30"/>
       <use x="63.623046875" xlink:href="#BitstreamVeraSans-Roman-2e"/>
       <use x="95.41015625" xlink:href="#BitstreamVeraSans-Roman-33"/>
      </g>
     </g>
    </g>
    <g id="ytick_5">
     <g id="line2d_18">
      <g>
       <use style="stroke:#000000;stroke-width:0.5;" x="25.8828125" xlink:href="#m728421d6d4" y="58.9161242604"/>
      </g>
     </g>
     <g id="text_7">
      <!-- 0.4 -->
      <defs>
       <path d="
M37.7969 64.3125
L12.8906 25.3906
L37.7969 25.3906
z

M35.2031 72.9062
L47.6094 72.9062
L47.6094 25.3906
L58.0156 25.3906
L58.0156 17.1875
L47.6094 17.1875
L47.6094 0
L37.7969 0
L37.7969 17.1875
L4.89062 17.1875
L4.89062 26.7031
z
" id="BitstreamVeraSans-Roman-34"/>
      </defs>
      <g transform="translate(7.2 61.6754992604)scale(0.1 -0.1)">
       <use xlink:href="#BitstreamVeraSans-Roman-30"/>
       <use x="63.623046875" xlink:href="#BitstreamVeraSans-Roman-2e"/>
       <use x="95.41015625" xlink:href="#BitstreamVeraSans-Roman-34"/>
      </g>
     </g>
    </g>
    <g id="ytick_6">
     <g id="line2d_19">
      <g>
       <use style="stroke:#000000;stroke-width:0.5;" x="25.8828125" xlink:href="#m728421d6d4" y="45.599556213"/>
      </g>
     </g>
     <g id="text_8">
      <!-- 0.5 -->
      <defs>
       <path d="
M10.7969 72.9062
L49.5156 72.9062
L49.5156 64.5938
L19.8281 64.5938
L19.8281 46.7344
Q21.9688 47.4688 24.1094 47.8281
Q26.2656 48.1875 28.4219 48.1875
Q40.625 48.1875 47.75 41.5
Q54.8906 34.8125 54.8906 23.3906
Q54.8906 11.625 47.5625 5.09375
Q40.2344 -1.42188 26.9062 -1.42188
Q22.3125 -1.42188 17.5469 -0.640625
Q12.7969 0.140625 7.71875 1.70312
L7.71875 11.625
Q12.1094 9.23438 16.7969 8.0625
Q21.4844 6.89062 26.7031 6.89062
Q35.1562 6.89062 40.0781 11.3281
Q45.0156 15.7656 45.0156 23.3906
Q45.0156 31 40.0781 35.4375
Q35.1562 39.8906 26.7031 39.8906
Q22.75 39.8906 18.8125 39.0156
Q14.8906 38.1406 10.7969 36.2812
z
" id="BitstreamVeraSans-Roman-35"/>
      </defs>
      <g transform="translate(7.5125 48.358931213)scale(0.1 -0.1)">
       <use xlink:href="#BitstreamVeraSans-Roman-30"/>
       <use x="63.623046875" xlink:href="#BitstreamVeraSans-Roman-2e"/>
       <use x="95.41015625" xlink:href="#BitstreamVeraSans-Roman-35"/>
      </g>
     </g>
    </g>
    <g id="ytick_7">
     <g id="line2d_20">
      <g>
       <use style="stroke:#000000;stroke-width:0.5;" x="25.8828125" xlink:href="#m728421d6d4" y="32.2829881657"/>
      </g>
     </g>
     <g id="text_9">
      <!-- 0.6 -->
      <g transform="translate(7.26875 35.0423631657)scale(0.1 -0.1)">
       <use xlink:href="#BitstreamVeraSans-Roman-30"/>
       <use x="63.623046875" xlink:href="#BitstreamVeraSans-Roman-2e"/>
       <use x="95.41015625" xlink:href="#BitstreamVeraSans-Roman-36"/>
      </g>
     </g>
    </g>
    <g id="ytick_8">
     <g id="line2d_21">
      <defs>
       <path d="
M0 0
L2 0" id="mf0c55a9a47" style="stroke:#000000;stroke-width:0.5;"/>
      </defs>
      <g>
       <use style="stroke:#000000;stroke-width:0.5;" x="25.8828125" xlink:href="#mf0c55a9a47" y="109.51908284"/>
      </g>
     </g>
    </g>
    <g id="ytick_9">
     <g id="line2d_22">
      <g>
       <use style="stroke:#000000;stroke-width:0.5;" x="25.8828125" xlink:href="#mf0c55a9a47" y="106.855769231"/>
      </g>
     </g>
    </g>
    <g id="ytick_10">
     <g id="line2d_23">
      <g>
       <use style="stroke:#000000;stroke-width:0.5;" x="25.8828125" xlink:href="#mf0c55a9a47" y="104.192455621"/>
      </g>
     </g>
    </g>
    <g id="ytick_11">
     <g id="line2d_24">
      <g>
       <use style="stroke:#000000;stroke-width:0.5;" x="25.8828125" xlink:href="#mf0c55a9a47" y="101.529142012"/>
      </g>
     </g>
    </g>
    <g id="ytick_12">
     <g id="line2d_25">
      <g>
       <use style="stroke:#000000;stroke-width:0.5;" x="25.8828125" xlink:href="#mf0c55a9a47" y="96.2025147929"/>
      </g>
     </g>
    </g>
    <g id="ytick_13">
     <g id="line2d_26">
      <g>
       <use style="stroke:#000000;stroke-width:0.5;" x="25.8828125" xlink:href="#mf0c55a9a47" y="93.5392011834"/>
      </g>
     </g>
    </g>
    <g id="ytick_14">
     <g id="line2d_27">
      <g>
       <use style="stroke:#000000;stroke-width:0.5;" x="25.8828125" xlink:href="#mf0c55a9a47" y="90.875887574"/>
      </g>
     </g>
    </g>
    <g id="ytick_15">
     <g id="line2d_28">
      <g>
       <use style="stroke:#000000;stroke-width:0.5;" x="25.8828125" xlink:href="#mf0c55a9a47" y="88.2125739645"/>
      </g>
     </g>
    </g>
    <g id="ytick_16">
     <g id="line2d_29">
      <g>
       <use style="stroke:#000000;stroke-width:0.5;" x="25.8828125" xlink:href="#mf0c55a9a47" y="82.8859467456"/>
      </g>
     </g>
    </g>
    <g id="ytick_17">
     <g id="line2d_30">
      <g>
       <use style="stroke:#000000;stroke-width:0.5;" x="25.8828125" xlink:href="#mf0c55a9a47" y="80.2226331361"/>
      </g>
     </g>
    </g>
    <g id="ytick_18">
     <g id="line2d_31">
      <g>
       <use style="stroke:#000000;stroke-width:0.5;" x="25.8828125" xlink:href="#mf0c55a9a47" y="77.5593195266"/>
      </g>
     </g>
    </g>
    <g id="ytick_19">
     <g id="line2d_32">
      <g>
       <use style="stroke:#000000;stroke-width:0.5;" x="25.8828125" xlink:href="#mf0c55a9a47" y="74.8960059172"/>
      </g>
     </g>
    </g>
    <g id="ytick_20">
     <g id="line2d_33">
      <g>
       <use style="stroke:#000000;stroke-width:0.5;" x="25.8828125" xlink:href="#mf0c55a9a47" y="69.5693786982"/>
      </g>
     </g>
    </g>
    <g id="ytick_21">
     <g id="line2d_34">
      <g>
       <use style="stroke:#000000;stroke-width:0.5;" x="25.8828125" xlink:href="#mf0c55a9a47" y="66.9060650888"/>
      </g>
     </g>
    </g>
    <g id="ytick_22">
     <g id="line2d_35">
      <g>
       <use style="stroke:#000000;stroke-width:0.5;" x="25.8828125" xlink:href="#mf0c55a9a47" y="64.2427514793"/>
      </g>
     </g>
    </g>
    <g id="ytick_23">
     <g id="line2d_36">
      <g>
       <use style="stroke:#000000;stroke-width:0.5;" x="25.8828125" xlink:href="#mf0c55a9a47" y="61.5794378698"/>
      </g>
     </g>
    </g>
    <g id="ytick_24">
     <g id="line2d_37">
      <g>
       <use style="stroke:#000000;stroke-width:0.5;" x="25.8828125" xlink:href="#mf0c55a9a47" y="56.2528106509"/>
      </g>
     </g>
    </g>
    <g id="ytick_25">
     <g id="line2d_38">
      <g>
       <use style="stroke:#000000;stroke-width:0.5;" x="25.8828125" xlink:href="#mf0c55a9a47" y="53.5894970414"/>
      </g>
     </g>
    </g>
    <g id="ytick_26">
     <g id="line2d_39">
      <g>
       <use style="stroke:#000000;stroke-width:0.5;" x="25.8828125" xlink:href="#mf0c55a9a47" y="50.926183432"/>
      </g>
     </g>
    </g>
    <g id="ytick_27">
     <g id="line2d_40">
      <g>
       <use style="stroke:#000000;stroke-width:0.5;" x="25.8828125" xlink:href="#mf0c55a9a47" y="48.2628698225"/>
      </g>
     </g>
    </g>
    <g id="ytick_28">
     <g id="line2d_41">
      <g>
       <use style="stroke:#000000;stroke-width:0.5;" x="25.8828125" xlink:href="#mf0c55a9a47" y="42.9362426036"/>
      </g>
     </g>
    </g>
    <g id="ytick_29">
     <g id="line2d_42">
      <g>
       <use style="stroke:#000000;stroke-width:0.5;" x="25.8828125" xlink:href="#mf0c55a9a47" y="40.2729289941"/>
      </g>
     </g>
    </g>
    <g id="ytick_30">
     <g id="line2d_43">
      <g>
       <use style="stroke:#000000;stroke-width:0.5;" x="25.8828125" xlink:href="#mf0c55a9a47" y="37.6096153846"/>
      </g>
     </g>
    </g>
    <g id="ytick_31">
     <g id="line2d_44">
      <g>
       <use style="stroke:#000000;stroke-width:0.5;" x="25.8828125" xlink:href="#mf0c55a9a47" y="34.9463017751"/>
      </g>
     </g>
    </g>
    <g id="text_10">
     <!-- $c$ -->
     <defs>
      <path d="
M11.7188 11.9219
Q11.7188 7.5625 13.9375 4.53125
Q16.1562 1.51562 20.3125 1.51562
Q26.2656 1.51562 31.75 4.25
Q37.25 6.98438 40.7188 11.8125
Q41.0156 12.1094 41.5 12.1094
Q42 12.1094 42.5 11.5469
Q43.0156 10.9844 43.0156 10.5
Q43.0156 10.1094 42.8281 9.90625
Q39.1562 4.78125 32.9531 1.82812
Q26.7656 -1.125 20.125 -1.125
Q15.3281 -1.125 11.6719 1.14062
Q8.01562 3.42188 6 7.21875
Q4 11.0312 4 15.8281
Q4 22.5625 7.76562 29.2031
Q11.5312 35.8438 17.7812 40.0156
Q24.0312 44.1875 30.9062 44.1875
Q35.4062 44.1875 38.9844 42.0156
Q42.5781 39.8438 42.5781 35.5938
Q42.5781 32.8594 40.9844 30.9219
Q39.4062 29 36.7188 29
Q35.1094 29 34 30
Q32.9062 31 32.9062 32.625
Q32.9062 34.9688 34.6094 36.625
Q36.3281 38.2812 38.625 38.2812
L38.8125 38.2812
Q37.6406 39.9844 35.4219 40.7969
Q33.2031 41.6094 30.8125 41.6094
Q24.9531 41.6094 20.5469 36.5938
Q16.1562 31.5938 13.9375 24.625
Q11.7188 17.6719 11.7188 11.9219" id="Cmmi10-63"/>
     </defs>
     <g transform="translate(22.3628125 19.3575)scale(0.16 -0.16)">
      <use transform="translate(0.0 0.8125)" xlink:href="#Cmmi10-63"/>
     </g>
    </g>
   </g>
   <g id="patch_3">
    <path d="
M24.2242 112.182
L110.471 112.182" style="fill:none;stroke:#000000;stroke-width:0.8;"/>
   </g>
   <g id="patch_4">
    <path d="
M25.8828 113.78
L25.8828 30.685" style="fill:none;stroke:#000000;stroke-width:0.8;"/>
   </g>
  </g>
 </g>
 <defs>
  <clipPath id="p1e534b0f6f">
   <rect height="83.0953846154" width="86.2464663462" x="24.2242266087" y="30.685"/>
  </clipPath>
 </defs>
</svg>
