<?xml version="1.0" encoding="utf-8" standalone="no"?>
<!DOCTYPE svg PUBLIC "-//W3C//DTD SVG 1.1//EN"
  "http://www.w3.org/Graphics/SVG/1.1/DTD/svg11.dtd">
<!-- Created with matplotlib (http://matplotlib.org/) -->
<svg height="346pt" version="1.1" viewBox="0 0 346 346" width="346pt" xmlns="http://www.w3.org/2000/svg" xmlns:xlink="http://www.w3.org/1999/xlink">
 <defs>
  <style type="text/css">
*{stroke-linecap:butt;stroke-linejoin:round;}
  </style>
 </defs>
 <g id="figure_1">
  <g id="patch_1">
   <path d="
M2.77556e-17 346.203
L346.365 346.203
L346.365 0
L2.77556e-17 0
z
" style="fill:#ffffff;"/>
  </g>
  <g id="axes_1">
   <g id="patch_2">
    <path d="
M8.91895 339.003
L314.205 339.003
L314.205 30.685
L8.91895 30.685
z
" style="fill:#ffffff;"/>
   </g>
   <g id="patch_3">
    <path clip-path="url(#p5ec19bca65)" d="
M14.7898 333.074
Q21.4118 326.387 26.4605 321.288" style="fill:none;stroke:#ff0000;stroke-linecap:round;stroke-width:2.0;"/>
    <path clip-path="url(#p5ec19bca65)" d="
M15.8715 324.876
L26.4605 321.288
L22.9774 331.912
L15.8715 324.876
z
" style="fill:#ff0000;stroke:#ff0000;stroke-linecap:round;stroke-width:2.0;"/>
   </g>
   <g id="patch_4">
    <path clip-path="url(#p5ec19bca65)" d="
M280.66 64.9155
Q287.108 58.2277 292.003 53.1497" style="fill:none;stroke:#ff0000;stroke-linecap:round;stroke-width:2.0;"/>
    <path clip-path="url(#p5ec19bca65)" d="
M281.463 56.8784
L292.003 53.1497
L288.662 63.8191
L281.463 56.8784
z
" style="fill:#ff0000;stroke:#ff0000;stroke-linecap:round;stroke-width:2.0;"/>
   </g>
   <g id="patch_5">
    <path clip-path="url(#p5ec19bca65)" d="
M280.66 64.9155
Q282.334 63.2697 282.413 63.1915" style="fill:none;stroke:#008000;stroke-linecap:round;stroke-width:2.0;"/>
    <path clip-path="url(#p5ec19bca65)" d="
M271.777 66.6366
L282.413 63.1915
L278.788 73.7676
L271.777 66.6366
z
" style="fill:#008000;stroke:#008000;stroke-linecap:round;stroke-width:2.0;"/>
   </g>
   <g id="patch_6">
    <path clip-path="url(#p5ec19bca65)" d="
M280.66 64.9155
Q292.823 52.4351 303.426 41.5561" style="fill:none;stroke:#800080;stroke-linecap:round;stroke-width:2.0;"/>
    <path clip-path="url(#p5ec19bca65)" d="
M292.865 45.2278
L303.426 41.5561
L300.027 52.2073
L292.865 45.2278
z
" style="fill:#800080;stroke:#800080;stroke-linecap:round;stroke-width:2.0;"/>
   </g>
   <g id="patch_7">
    <path clip-path="url(#p5ec19bca65)" d="
M280.66 64.9155
Q294.497 50.7894 306.77 38.2606" style="fill:none;stroke:#0000ff;stroke-linecap:round;stroke-width:2.0;"/>
    <path clip-path="url(#p5ec19bca65)" d="
M296.2 41.9055
L306.77 38.2606
L303.344 48.9032
L296.2 41.9055
z
" style="fill:#0000ff;stroke:#0000ff;stroke-linecap:round;stroke-width:2.0;"/>
   </g>
   <g id="patch_8">
    <path clip-path="url(#p5ec19bca65)" d="
M280.311 64.5637
Q286.933 58.0518 291.961 53.1078" style="fill:none;stroke:#ff0000;stroke-linecap:round;stroke-width:2.0;"/>
    <path clip-path="url(#p5ec19bca65)" d="
M281.325 56.5543
L291.961 53.1078
L288.337 63.6844
L281.325 56.5543
z
" style="fill:#ff0000;stroke:#ff0000;stroke-linecap:round;stroke-width:2.0;"/>
   </g>
   <g id="patch_9">
    <path clip-path="url(#p5ec19bca65)" d="
M280.311 64.5637
Q281.941 62.873 282.019 62.7923" style="fill:none;stroke:#008000;stroke-linecap:round;stroke-width:2.0;"/>
    <path clip-path="url(#p5ec19bca65)" d="
M271.479 66.5224
L282.019 62.7923
L278.679 73.4621
L271.479 66.5224
z
" style="fill:#008000;stroke:#008000;stroke-linecap:round;stroke-width:2.0;"/>
   </g>
   <g id="patch_10">
    <path clip-path="url(#p5ec19bca65)" d="
M280.311 64.5637
Q292.669 52.2796 303.441 41.572" style="fill:none;stroke:#800080;stroke-linecap:round;stroke-width:2.0;"/>
    <path clip-path="url(#p5ec19bca65)" d="
M292.824 45.0758
L303.441 41.572
L299.874 52.168
L292.824 45.0758
z
" style="fill:#800080;stroke:#800080;stroke-linecap:round;stroke-width:2.0;"/>
   </g>
   <g id="patch_11">
    <path clip-path="url(#p5ec19bca65)" d="
M280.311 64.5637
Q294.299 50.5889 306.704 38.1946" style="fill:none;stroke:#0000ff;stroke-linecap:round;stroke-width:2.0;"/>
    <path clip-path="url(#p5ec19bca65)" d="
M296.096 41.7255
L306.704 38.1946
L303.164 48.7997
L296.096 41.7255
z
" style="fill:#0000ff;stroke:#0000ff;stroke-linecap:round;stroke-width:2.0;"/>
   </g>
   <g id="patch_12">
    <path clip-path="url(#p5ec19bca65)" d="
M14.7898 333.074
Q21.2376 326.562 26.1121 321.64" style="fill:none;stroke:#ff0000;stroke-linecap:round;stroke-width:2.0;"/>
    <path clip-path="url(#p5ec19bca65)" d="
M15.5231 325.227
L26.1121 321.64
L22.629 332.264
L15.5231 325.227
z
" style="fill:#ff0000;stroke:#ff0000;stroke-linecap:round;stroke-width:2.0;"/>
   </g>
   <g id="line2d_1">
    <path clip-path="url(#p5ec19bca65)" d="
M14.7898 333.074
L14.7898 333.074
L14.7898 333.074
L14.7898 333.074
L14.7898 333.074
L14.7898 333.074
L14.7898 333.074
L14.7898 333.074
L14.7898 333.074
L14.7898 333.074
L14.7898 333.074
L14.7898 333.074
L14.7898 333.074
L14.7898 333.074
L14.7898 333.074
L14.7898 333.074
L14.7898 333.074
L14.7898 333.074
L14.7898 333.074
L14.7898 333.074
L14.7898 333.074
L14.7898 333.074
L14.7898 333.074
L14.7898 333.074
L14.7898 333.074
L14.7898 333.074
L14.7898 333.074
L14.7898 333.074
L14.7898 333.074
L14.7898 333.074
L14.7898 333.074
L14.7898 333.074
L14.7898 333.074
L14.7898 333.074
L14.7898 333.074
L14.7898 333.074
L14.7898 333.074
L14.7898 333.074
L14.7898 333.074
L14.7898 333.074
L14.7898 333.074
L14.7898 333.074
L14.7898 333.074
L14.7898 333.074
L14.7898 333.074
L14.7898 333.074
L14.7898 333.074
L14.7898 333.074
L14.7898 333.074
L14.7898 333.074
L14.7898 333.074
L14.7898 333.074
L14.7898 333.074
L14.7898 333.074
L14.7898 333.074
L14.7898 333.074
L14.7898 333.074
L14.7898 333.074
L14.7898 333.074
L14.7898 333.074
L14.7898 333.074
L14.7898 333.074
L14.7898 333.074
L14.7898 333.074
L14.7898 333.074
L14.7898 333.074
L14.7898 333.074
L14.7898 333.074
L14.7898 333.074
L14.7898 333.074
L14.7898 333.074
L14.7898 333.074
L14.7898 333.074
L14.7898 333.074
L14.7898 333.074
L14.7898 333.074
L14.7898 333.074
L14.7898 333.074
L14.7898 333.074
L14.7898 333.074
L14.7898 333.074
L14.7898 333.074
L14.7898 333.074
L14.7898 333.074
L14.7898 333.074
L14.7898 333.074
L14.7898 333.074
L14.7898 333.074
L14.7898 333.074
L14.7898 333.074
L14.7898 333.074" style="fill:none;stroke:#ff0000;stroke-linecap:square;"/>
   </g>
   <g id="line2d_2">
    <path clip-path="url(#p5ec19bca65)" d="
M280.66 64.9155
L280.715 64.8588
L280.771 64.8018
L280.827 64.7444
L280.884 64.6867
L280.941 64.6286
L280.998 64.5702
L281.056 64.5113
L281.114 64.4521
L281.172 64.3925
L281.231 64.3325
L281.29 64.2721
L281.35 64.2113
L281.41 64.15
L281.47 64.0883
L281.531 64.0262
L281.592 63.9636
L281.654 63.9005
L281.717 63.8369
L281.779 63.7729
L281.843 63.7083
L281.906 63.6433
L281.971 63.5777
L282.036 63.5115
L282.101 63.4448
L282.167 63.3775
L282.234 63.3097
L282.301 63.2412
L282.368 63.1721
L282.437 63.1024
L282.506 63.032
L282.575 62.9609
L282.646 62.8892
L282.717 62.8167
L282.789 62.7435
L282.861 62.6695
L282.935 62.5948
L283.009 62.5193
L283.084 62.4429
L283.159 62.3656
L283.236 62.2875
L283.313 62.2085
L283.392 62.1285
L283.471 62.0475
L283.552 61.9655
L283.633 61.8824
L283.716 61.7983
L283.8 61.713
L283.884 61.6265
L283.97 61.5388
L284.058 61.4498
L284.146 61.3595
L284.236 61.2678
L284.328 61.1746
L284.421 61.0799
L284.515 60.9836
L284.611 60.8857
L284.709 60.786
L284.809 60.6844
L284.91 60.581
L285.014 60.4755
L285.119 60.3678
L285.227 60.2578
L285.338 60.1455
L285.45 60.0306
L285.566 59.913
L285.684 59.7924
L285.806 59.6688
L285.93 59.5418
L286.058 59.4113
L286.19 59.2769
L286.326 59.1383
L286.467 58.9951
L286.612 58.8471
L286.763 58.6936
L286.919 58.5341
L287.082 58.3679
L287.253 58.1944
L287.431 58.0125
L287.619 57.8211
L287.818 57.6188
L288.029 57.4038
L288.254 57.174
L288.498 56.9261
L288.762 56.6563
L289.055 56.3585
L289.383 56.024
L289.762 55.6382
L290.217 55.1746
L290.806 54.5741
L291.73 53.6323" style="fill:none;stroke:#ff0000;stroke-linecap:square;"/>
   </g>
   <g id="line2d_3">
    <path clip-path="url(#p5ec19bca65)" d="
M280.311 64.5637
L280.368 64.5076
L280.424 64.4512
L280.481 64.3944
L280.538 64.3373
L280.595 64.2799
L280.653 64.222
L280.712 64.1638
L280.77 64.1052
L280.829 64.0463
L280.889 63.9869
L280.948 63.9271
L281.009 63.8669
L281.069 63.8063
L281.13 63.7452
L281.192 63.6837
L281.254 63.6217
L281.316 63.5593
L281.379 63.4963
L281.443 63.4329
L281.507 63.369
L281.571 63.3046
L281.636 63.2397
L281.702 63.1742
L281.768 63.1081
L281.834 63.0415
L281.901 62.9743
L281.969 62.9065
L282.038 62.8381
L282.107 62.769
L282.176 62.6993
L282.247 62.629
L282.318 62.5579
L282.39 62.4861
L282.462 62.4136
L282.535 62.3404
L282.609 62.2663
L282.684 62.1915
L282.76 62.1159
L282.836 62.0393
L282.914 61.962
L282.992 61.8836
L283.071 61.8044
L283.151 61.7242
L283.232 61.6429
L283.315 61.5606
L283.398 61.4773
L283.482 61.3928
L283.568 61.3071
L283.655 61.2202
L283.743 61.132
L283.832 61.0425
L283.923 60.9516
L284.016 60.8593
L284.109 60.7654
L284.205 60.67
L284.302 60.573
L284.4 60.4741
L284.501 60.3735
L284.603 60.271
L284.708 60.1664
L284.814 60.0597
L284.923 59.9507
L285.035 59.8393
L285.148 59.7255
L285.265 59.6089
L285.384 59.4894
L285.507 59.3668
L285.632 59.241
L285.762 59.1116
L285.895 58.9783
L286.032 58.841
L286.174 58.6991
L286.32 58.5523
L286.472 58.4001
L286.63 58.242
L286.795 58.0773
L286.966 57.9053
L287.147 57.7249
L287.336 57.5352
L287.536 57.3347
L287.749 57.1216
L287.977 56.8937
L288.222 56.6481
L288.489 56.3806
L288.784 56.0854
L289.116 55.7538
L289.498 55.3714
L289.956 54.912
L290.551 54.3168
L291.484 53.3835" style="fill:none;stroke:#ff0000;stroke-linecap:square;"/>
   </g>
   <g id="line2d_4">
    <path clip-path="url(#p5ec19bca65)" d="
M14.7898 333.074
L14.7898 333.074
L14.7898 333.074
L14.7898 333.074
L14.7898 333.074
L14.7898 333.074
L14.7898 333.074
L14.7898 333.074
L14.7898 333.074
L14.7898 333.074
L14.7898 333.074
L14.7898 333.074
L14.7898 333.074
L14.7898 333.074
L14.7898 333.074
L14.7898 333.074
L14.7898 333.074
L14.7898 333.074
L14.7898 333.074
L14.7898 333.074
L14.7898 333.074
L14.7898 333.074
L14.7898 333.074
L14.7898 333.074
L14.7898 333.074
L14.7898 333.074
L14.7898 333.074
L14.7898 333.074
L14.7898 333.074
L14.7898 333.074
L14.7898 333.074
L14.7898 333.074
L14.7898 333.074
L14.7898 333.074
L14.7898 333.074
L14.7898 333.074
L14.7898 333.074
L14.7898 333.074
L14.7898 333.074
L14.7898 333.074
L14.7898 333.074
L14.7898 333.074
L14.7898 333.074
L14.7898 333.074
L14.7898 333.074
L14.7898 333.074
L14.7898 333.074
L14.7898 333.074
L14.7898 333.074
L14.7898 333.074
L14.7898 333.074
L14.7898 333.074
L14.7898 333.074
L14.7898 333.074
L14.7898 333.074
L14.7898 333.074
L14.7898 333.074
L14.7898 333.074
L14.7898 333.074
L14.7898 333.074
L14.7898 333.074
L14.7898 333.074
L14.7898 333.074
L14.7898 333.074
L14.7898 333.074
L14.7898 333.074
L14.7898 333.074
L14.7898 333.074
L14.7898 333.074
L14.7898 333.074
L14.7898 333.074
L14.7898 333.074
L14.7898 333.074
L14.7898 333.074
L14.7898 333.074
L14.7898 333.074
L14.7898 333.074
L14.7898 333.074
L14.7898 333.074
L14.7898 333.074
L14.7898 333.074
L14.7898 333.074
L14.7898 333.074
L14.7898 333.074
L14.7898 333.074
L14.7898 333.074
L14.7898 333.074
L14.7898 333.074
L14.7898 333.074
L14.7898 333.074
L14.7898 333.074" style="fill:none;stroke:#ff0000;stroke-linecap:square;"/>
   </g>
   <g id="matplotlib.axis_1">
    <g id="xtick_1">
     <g id="line2d_5">
      <defs>
       <path d="
M0 0
L0 -4" id="m93b0483c22" style="stroke:#000000;stroke-width:0.5;"/>
      </defs>
      <g>
       <use style="stroke:#000000;stroke-width:0.5;" x="14.78984375" xlink:href="#m93b0483c22" y="64.5092477719"/>
      </g>
     </g>
     <g id="text_1">
      <!-- -20 -->
      <defs>
       <path d="
M19.1875 8.29688
L53.6094 8.29688
L53.6094 0
L7.32812 0
L7.32812 8.29688
Q12.9375 14.1094 22.625 23.8906
Q32.3281 33.6875 34.8125 36.5312
Q39.5469 41.8438 41.4219 45.5312
Q43.3125 49.2188 43.3125 52.7812
Q43.3125 58.5938 39.2344 62.25
Q35.1562 65.9219 28.6094 65.9219
Q23.9688 65.9219 18.8125 64.3125
Q13.6719 62.7031 7.8125 59.4219
L7.8125 69.3906
Q13.7656 71.7812 18.9375 73
Q24.125 74.2188 28.4219 74.2188
Q39.75 74.2188 46.4844 68.5469
Q53.2188 62.8906 53.2188 53.4219
Q53.2188 48.9219 51.5312 44.8906
Q49.8594 40.875 45.4062 35.4062
Q44.1875 33.9844 37.6406 27.2188
Q31.1094 20.4531 19.1875 8.29688" id="BitstreamVeraSans-Roman-32"/>
       <path d="
M31.7812 66.4062
Q24.1719 66.4062 20.3281 58.9062
Q16.5 51.4219 16.5 36.375
Q16.5 21.3906 20.3281 13.8906
Q24.1719 6.39062 31.7812 6.39062
Q39.4531 6.39062 43.2812 13.8906
Q47.125 21.3906 47.125 36.375
Q47.125 51.4219 43.2812 58.9062
Q39.4531 66.4062 31.7812 66.4062
M31.7812 74.2188
Q44.0469 74.2188 50.5156 64.5156
Q56.9844 54.8281 56.9844 36.375
Q56.9844 17.9688 50.5156 8.26562
Q44.0469 -1.42188 31.7812 -1.42188
Q19.5312 -1.42188 13.0625 8.26562
Q6.59375 17.9688 6.59375 36.375
Q6.59375 54.8281 13.0625 64.5156
Q19.5312 74.2188 31.7812 74.2188" id="BitstreamVeraSans-Roman-30"/>
       <path d="
M4.89062 31.3906
L31.2031 31.3906
L31.2031 23.3906
L4.89062 23.3906
z
" id="BitstreamVeraSans-Roman-2d"/>
      </defs>
      <g transform="translate(7.2 76.1076852719)scale(0.1 -0.1)">
       <use xlink:href="#BitstreamVeraSans-Roman-2d"/>
       <use x="36.083984375" xlink:href="#BitstreamVeraSans-Roman-32"/>
       <use x="99.70703125" xlink:href="#BitstreamVeraSans-Roman-30"/>
      </g>
     </g>
    </g>
    <g id="xtick_2">
     <g id="line2d_6">
      <g>
       <use style="stroke:#000000;stroke-width:0.5;" x="81.2708031064" xlink:href="#m93b0483c22" y="64.5092477719"/>
      </g>
     </g>
     <g id="text_2">
      <!-- -15 -->
      <defs>
       <path d="
M12.4062 8.29688
L28.5156 8.29688
L28.5156 63.9219
L10.9844 60.4062
L10.9844 69.3906
L28.4219 72.9062
L38.2812 72.9062
L38.2812 8.29688
L54.3906 8.29688
L54.3906 0
L12.4062 0
z
" id="BitstreamVeraSans-Roman-31"/>
       <path d="
M10.7969 72.9062
L49.5156 72.9062
L49.5156 64.5938
L19.8281 64.5938
L19.8281 46.7344
Q21.9688 47.4688 24.1094 47.8281
Q26.2656 48.1875 28.4219 48.1875
Q40.625 48.1875 47.75 41.5
Q54.8906 34.8125 54.8906 23.3906
Q54.8906 11.625 47.5625 5.09375
Q40.2344 -1.42188 26.9062 -1.42188
Q22.3125 -1.42188 17.5469 -0.640625
Q12.7969 0.140625 7.71875 1.70312
L7.71875 11.625
Q12.1094 9.23438 16.7969 8.0625
Q21.4844 6.89062 26.7031 6.89062
Q35.1562 6.89062 40.0781 11.3281
Q45.0156 15.7656 45.0156 23.3906
Q45.0156 31 40.0781 35.4375
Q35.1562 39.8906 26.7031 39.8906
Q22.75 39.8906 18.8125 39.0156
Q14.8906 38.1406 10.7969 36.2812
z
" id="BitstreamVeraSans-Roman-35"/>
      </defs>
      <g transform="translate(73.7856468564 76.1076852719)scale(0.1 -0.1)">
       <use xlink:href="#BitstreamVeraSans-Roman-2d"/>
       <use x="36.083984375" xlink:href="#BitstreamVeraSans-Roman-31"/>
       <use x="99.70703125" xlink:href="#BitstreamVeraSans-Roman-35"/>
      </g>
     </g>
    </g>
    <g id="xtick_3">
     <g id="line2d_7">
      <g>
       <use style="stroke:#000000;stroke-width:0.5;" x="147.751762463" xlink:href="#m93b0483c22" y="64.5092477719"/>
      </g>
     </g>
     <g id="text_3">
      <!-- -10 -->
      <g transform="translate(140.161918713 76.1076852719)scale(0.1 -0.1)">
       <use xlink:href="#BitstreamVeraSans-Roman-2d"/>
       <use x="36.083984375" xlink:href="#BitstreamVeraSans-Roman-31"/>
       <use x="99.70703125" xlink:href="#BitstreamVeraSans-Roman-30"/>
      </g>
     </g>
    </g>
    <g id="xtick_4">
     <g id="line2d_8">
      <g>
       <use style="stroke:#000000;stroke-width:0.5;" x="214.232721819" xlink:href="#m93b0483c22" y="64.5092477719"/>
      </g>
     </g>
     <g id="text_4">
      <!-- -5 -->
      <g transform="translate(209.928815569 76.1076852719)scale(0.1 -0.1)">
       <use xlink:href="#BitstreamVeraSans-Roman-2d"/>
       <use x="36.083984375" xlink:href="#BitstreamVeraSans-Roman-35"/>
      </g>
     </g>
    </g>
    <g id="xtick_5">
     <g id="line2d_9">
      <g>
       <use style="stroke:#000000;stroke-width:0.5;" x="280.713681175" xlink:href="#m93b0483c22" y="64.5092477719"/>
      </g>
     </g>
    </g>
    <g id="xtick_6">
     <g id="line2d_10">
      <defs>
       <path d="
M0 0
L0 -2" id="m177f7580d0" style="stroke:#000000;stroke-width:0.5;"/>
      </defs>
      <g>
       <use style="stroke:#000000;stroke-width:0.5;" x="28.0860356213" xlink:href="#m177f7580d0" y="64.5092477719"/>
      </g>
     </g>
    </g>
    <g id="xtick_7">
     <g id="line2d_11">
      <g>
       <use style="stroke:#000000;stroke-width:0.5;" x="41.3822274925" xlink:href="#m177f7580d0" y="64.5092477719"/>
      </g>
     </g>
    </g>
    <g id="xtick_8">
     <g id="line2d_12">
      <g>
       <use style="stroke:#000000;stroke-width:0.5;" x="54.6784193638" xlink:href="#m177f7580d0" y="64.5092477719"/>
      </g>
     </g>
    </g>
    <g id="xtick_9">
     <g id="line2d_13">
      <g>
       <use style="stroke:#000000;stroke-width:0.5;" x="67.9746112351" xlink:href="#m177f7580d0" y="64.5092477719"/>
      </g>
     </g>
    </g>
    <g id="xtick_10">
     <g id="line2d_14">
      <g>
       <use style="stroke:#000000;stroke-width:0.5;" x="94.5669949776" xlink:href="#m177f7580d0" y="64.5092477719"/>
      </g>
     </g>
    </g>
    <g id="xtick_11">
     <g id="line2d_15">
      <g>
       <use style="stroke:#000000;stroke-width:0.5;" x="107.863186849" xlink:href="#m177f7580d0" y="64.5092477719"/>
      </g>
     </g>
    </g>
    <g id="xtick_12">
     <g id="line2d_16">
      <g>
       <use style="stroke:#000000;stroke-width:0.5;" x="121.15937872" xlink:href="#m177f7580d0" y="64.5092477719"/>
      </g>
     </g>
    </g>
    <g id="xtick_13">
     <g id="line2d_17">
      <g>
       <use style="stroke:#000000;stroke-width:0.5;" x="134.455570591" xlink:href="#m177f7580d0" y="64.5092477719"/>
      </g>
     </g>
    </g>
    <g id="xtick_14">
     <g id="line2d_18">
      <g>
       <use style="stroke:#000000;stroke-width:0.5;" x="161.047954334" xlink:href="#m177f7580d0" y="64.5092477719"/>
      </g>
     </g>
    </g>
    <g id="xtick_15">
     <g id="line2d_19">
      <g>
       <use style="stroke:#000000;stroke-width:0.5;" x="174.344146205" xlink:href="#m177f7580d0" y="64.5092477719"/>
      </g>
     </g>
    </g>
    <g id="xtick_16">
     <g id="line2d_20">
      <g>
       <use style="stroke:#000000;stroke-width:0.5;" x="187.640338077" xlink:href="#m177f7580d0" y="64.5092477719"/>
      </g>
     </g>
    </g>
    <g id="xtick_17">
     <g id="line2d_21">
      <g>
       <use style="stroke:#000000;stroke-width:0.5;" x="200.936529948" xlink:href="#m177f7580d0" y="64.5092477719"/>
      </g>
     </g>
    </g>
    <g id="xtick_18">
     <g id="line2d_22">
      <g>
       <use style="stroke:#000000;stroke-width:0.5;" x="227.52891369" xlink:href="#m177f7580d0" y="64.5092477719"/>
      </g>
     </g>
    </g>
    <g id="xtick_19">
     <g id="line2d_23">
      <g>
       <use style="stroke:#000000;stroke-width:0.5;" x="240.825105562" xlink:href="#m177f7580d0" y="64.5092477719"/>
      </g>
     </g>
    </g>
    <g id="xtick_20">
     <g id="line2d_24">
      <g>
       <use style="stroke:#000000;stroke-width:0.5;" x="254.121297433" xlink:href="#m177f7580d0" y="64.5092477719"/>
      </g>
     </g>
    </g>
    <g id="xtick_21">
     <g id="line2d_25">
      <g>
       <use style="stroke:#000000;stroke-width:0.5;" x="267.417489304" xlink:href="#m177f7580d0" y="64.5092477719"/>
      </g>
     </g>
    </g>
    <g id="xtick_22">
     <g id="line2d_26">
      <g>
       <use style="stroke:#000000;stroke-width:0.5;" x="294.009873047" xlink:href="#m177f7580d0" y="64.5092477719"/>
      </g>
     </g>
    </g>
    <g id="text_5">
     <!-- $a_{ij}$ -->
     <defs>
      <path d="
M17.3906 -1.125
Q11.0781 -1.125 7.4375 3.64062
Q3.8125 8.40625 3.8125 14.8906
Q3.8125 21.2969 7.125 28.1719
Q10.4531 35.0625 16.0938 39.625
Q21.7344 44.1875 28.2188 44.1875
Q31.2031 44.1875 33.5469 42.5781
Q35.8906 40.9688 37.2031 38.1875
Q38.3281 42.1875 41.6094 42.1875
Q42.875 42.1875 43.7188 41.4219
Q44.5781 40.6719 44.5781 39.4062
Q44.5781 39.1094 44.5469 38.9531
Q44.5312 38.8125 44.4844 38.625
L37.5 10.6875
Q36.8125 7.71875 36.8125 5.8125
Q36.8125 1.51562 39.7031 1.51562
Q42.8281 1.51562 44.4531 5.48438
Q46.0938 9.46875 47.2188 14.7031
Q47.4062 15.2812 48 15.2812
L49.2188 15.2812
Q49.6094 15.2812 49.8438 14.9375
Q50.0938 14.5938 50.0938 14.3125
Q48.3438 7.32812 46.2656 3.09375
Q44.1875 -1.125 39.5 -1.125
Q36.1406 -1.125 33.5469 0.84375
Q30.9531 2.82812 30.3281 6.10938
Q23.875 -1.125 17.3906 -1.125
M17.4844 1.51562
Q21.0938 1.51562 24.4844 4.21875
Q27.875 6.9375 30.3281 10.5938
Q30.4219 10.6875 30.4219 10.8906
L35.7969 32.625
L35.8906 32.9062
Q35.2969 36.4688 33.3125 39.0312
Q31.3438 41.6094 27.9844 41.6094
Q24.6094 41.6094 21.7031 38.8438
Q18.7969 36.0781 16.7969 32.3281
Q14.8438 28.3281 13.0625 21.3438
Q11.2812 14.3594 11.2812 10.5
Q11.2812 7.03125 12.7656 4.26562
Q14.2656 1.51562 17.4844 1.51562" id="Cmmi10-61"/>
      <path d="
M7.8125 7.17188
Q7.8125 9.03125 8.59375 11.0781
L16.7031 32.625
Q18.0156 36.2812 18.0156 38.625
Q18.0156 41.6094 15.8281 41.6094
Q11.8594 41.6094 9.29688 37.5312
Q6.73438 33.4531 5.51562 28.4219
Q5.32812 27.7812 4.6875 27.7812
L3.51562 27.7812
Q2.6875 27.7812 2.6875 28.7188
L2.6875 29
Q4.29688 34.9688 7.60938 39.5781
Q10.9375 44.1875 16.0156 44.1875
Q19.5781 44.1875 22.0469 41.8438
Q24.5156 39.5 24.5156 35.8906
Q24.5156 34.0312 23.6875 31.9844
L15.5781 10.5
Q14.2031 7.17188 14.2031 4.5
Q14.2031 1.51562 16.5 1.51562
Q20.4062 1.51562 23.0156 5.6875
Q25.6406 9.85938 26.7031 14.7031
Q26.9062 15.2812 27.4844 15.2812
L28.7188 15.2812
Q29.1094 15.2812 29.3438 15.0156
Q29.5938 14.75 29.5938 14.4062
Q29.5938 14.3125 29.5 14.1094
Q28.125 8.45312 24.7344 3.65625
Q21.3438 -1.125 16.3125 -1.125
Q12.7969 -1.125 10.2969 1.29688
Q7.8125 3.71875 7.8125 7.17188
M19.0938 60.5938
Q19.0938 62.7031 20.8438 64.4062
Q22.6094 66.1094 24.7031 66.1094
Q26.4219 66.1094 27.5156 65.0625
Q28.6094 64.0156 28.6094 62.4062
Q28.6094 60.1562 26.8281 58.4688
Q25.0469 56.7812 22.9062 56.7812
Q21.2969 56.7812 20.1875 57.875
Q19.0938 58.9844 19.0938 60.5938" id="Cmmi10-69"/>
      <path d="
M-1.3125 -14.2031
Q-1.3125 -11.7656 0.359375 -9.98438
Q2.04688 -8.20312 4.5 -8.20312
Q6.10938 -8.20312 7.20312 -9.20312
Q8.29688 -10.2031 8.29688 -11.8125
Q8.29688 -13.7188 7.09375 -15.25
Q5.90625 -16.7969 4.10938 -17.2812
Q5.85938 -17.9219 7.625 -17.9219
Q11.8594 -17.9219 14.9844 -13.9844
Q18.1094 -10.0625 19.3906 -5.17188
L28.8125 32.4219
Q29.5 35.2969 29.5 37.3125
Q29.5 41.6094 26.5156 41.6094
Q22.125 41.6094 18.8281 37.625
Q15.5312 33.6406 13.4844 28.4219
Q13.2812 27.7812 12.7031 27.7812
L11.5312 27.7812
Q10.6875 27.7812 10.6875 28.7188
L10.6875 29
Q12.9375 35.0156 17.0781 39.5938
Q21.2344 44.1875 26.7031 44.1875
Q30.8594 44.1875 33.5156 41.5938
Q36.1875 39.0156 36.1875 35.0156
Q36.1875 33.5938 35.8906 32.1719
L26.4219 -5.8125
Q25.3906 -9.85938 22.5 -13.2344
Q19.625 -16.6094 15.625 -18.5625
Q11.625 -20.5156 7.42188 -20.5156
Q4.04688 -20.5156 1.35938 -18.8906
Q-1.3125 -17.2812 -1.3125 -14.2031
M30.3281 60.5938
Q30.3281 62.7969 32.0312 64.4531
Q33.7344 66.1094 35.8906 66.1094
Q37.5938 66.1094 38.6875 65.0625
Q39.7969 64.0156 39.7969 62.4062
Q39.7969 60.1562 38.0156 58.4688
Q36.2344 56.7812 34.0781 56.7812
Q32.4688 56.7812 31.3906 57.9062
Q30.3281 59.0312 30.3281 60.5938" id="Cmmi10-6a"/>
     </defs>
     <g transform="translate(322.205283137 64.5092477719)scale(0.16 -0.16)">
      <use transform="translate(0.0 0.8125)" xlink:href="#Cmmi10-61"/>
      <use transform="translate(52.783203125 -24.696875)scale(0.7)" xlink:href="#Cmmi10-69"/>
      <use transform="translate(76.8798828125 -24.696875)scale(0.7)" xlink:href="#Cmmi10-6a"/>
     </g>
    </g>
   </g>
   <g id="matplotlib.axis_2">
    <g id="ytick_1">
     <g id="line2d_27">
      <defs>
       <path d="
M0 0
L4 0" id="m728421d6d4" style="stroke:#000000;stroke-width:0.5;"/>
      </defs>
      <g>
       <use style="stroke:#000000;stroke-width:0.5;" x="280.713681175" xlink:href="#m728421d6d4" y="333.074298077"/>
      </g>
     </g>
     <g id="text_6">
      <!-- -20 -->
      <g transform="translate(261.533993675 335.833673077)scale(0.1 -0.1)">
       <use xlink:href="#BitstreamVeraSans-Roman-2d"/>
       <use x="36.083984375" xlink:href="#BitstreamVeraSans-Roman-32"/>
       <use x="99.70703125" xlink:href="#BitstreamVeraSans-Roman-30"/>
      </g>
     </g>
    </g>
    <g id="ytick_2">
     <g id="line2d_28">
      <g>
       <use style="stroke:#000000;stroke-width:0.5;" x="280.713681175" xlink:href="#m728421d6d4" y="265.933035501"/>
      </g>
     </g>
     <g id="text_7">
      <!-- -15 -->
      <g transform="translate(261.743368675 268.692410501)scale(0.1 -0.1)">
       <use xlink:href="#BitstreamVeraSans-Roman-2d"/>
       <use x="36.083984375" xlink:href="#BitstreamVeraSans-Roman-31"/>
       <use x="99.70703125" xlink:href="#BitstreamVeraSans-Roman-35"/>
      </g>
     </g>
    </g>
    <g id="ytick_3">
     <g id="line2d_29">
      <g>
       <use style="stroke:#000000;stroke-width:0.5;" x="280.713681175" xlink:href="#m728421d6d4" y="198.791772924"/>
      </g>
     </g>
     <g id="text_8">
      <!-- -10 -->
      <g transform="translate(261.533993675 201.551147924)scale(0.1 -0.1)">
       <use xlink:href="#BitstreamVeraSans-Roman-2d"/>
       <use x="36.083984375" xlink:href="#BitstreamVeraSans-Roman-31"/>
       <use x="99.70703125" xlink:href="#BitstreamVeraSans-Roman-30"/>
      </g>
     </g>
    </g>
    <g id="ytick_4">
     <g id="line2d_30">
      <g>
       <use style="stroke:#000000;stroke-width:0.5;" x="280.713681175" xlink:href="#m728421d6d4" y="131.650510348"/>
      </g>
     </g>
     <g id="text_9">
      <!-- -5 -->
      <g transform="translate(268.105868675 134.409885348)scale(0.1 -0.1)">
       <use xlink:href="#BitstreamVeraSans-Roman-2d"/>
       <use x="36.083984375" xlink:href="#BitstreamVeraSans-Roman-35"/>
      </g>
     </g>
    </g>
    <g id="ytick_5">
     <g id="line2d_31">
      <g>
       <use style="stroke:#000000;stroke-width:0.5;" x="280.713681175" xlink:href="#m728421d6d4" y="64.5092477719"/>
      </g>
     </g>
    </g>
    <g id="ytick_6">
     <g id="line2d_32">
      <defs>
       <path d="
M0 0
L2 0" id="mf0c55a9a47" style="stroke:#000000;stroke-width:0.5;"/>
      </defs>
      <g>
       <use style="stroke:#000000;stroke-width:0.5;" x="280.713681175" xlink:href="#mf0c55a9a47" y="319.646045562"/>
      </g>
     </g>
    </g>
    <g id="ytick_7">
     <g id="line2d_33">
      <g>
       <use style="stroke:#000000;stroke-width:0.5;" x="280.713681175" xlink:href="#mf0c55a9a47" y="306.217793046"/>
      </g>
     </g>
    </g>
    <g id="ytick_8">
     <g id="line2d_34">
      <g>
       <use style="stroke:#000000;stroke-width:0.5;" x="280.713681175" xlink:href="#mf0c55a9a47" y="292.789540531"/>
      </g>
     </g>
    </g>
    <g id="ytick_9">
     <g id="line2d_35">
      <g>
       <use style="stroke:#000000;stroke-width:0.5;" x="280.713681175" xlink:href="#mf0c55a9a47" y="279.361288016"/>
      </g>
     </g>
    </g>
    <g id="ytick_10">
     <g id="line2d_36">
      <g>
       <use style="stroke:#000000;stroke-width:0.5;" x="280.713681175" xlink:href="#mf0c55a9a47" y="252.504782985"/>
      </g>
     </g>
    </g>
    <g id="ytick_11">
     <g id="line2d_37">
      <g>
       <use style="stroke:#000000;stroke-width:0.5;" x="280.713681175" xlink:href="#mf0c55a9a47" y="239.07653047"/>
      </g>
     </g>
    </g>
    <g id="ytick_12">
     <g id="line2d_38">
      <g>
       <use style="stroke:#000000;stroke-width:0.5;" x="280.713681175" xlink:href="#mf0c55a9a47" y="225.648277955"/>
      </g>
     </g>
    </g>
    <g id="ytick_13">
     <g id="line2d_39">
      <g>
       <use style="stroke:#000000;stroke-width:0.5;" x="280.713681175" xlink:href="#mf0c55a9a47" y="212.22002544"/>
      </g>
     </g>
    </g>
    <g id="ytick_14">
     <g id="line2d_40">
      <g>
       <use style="stroke:#000000;stroke-width:0.5;" x="280.713681175" xlink:href="#mf0c55a9a47" y="185.363520409"/>
      </g>
     </g>
    </g>
    <g id="ytick_15">
     <g id="line2d_41">
      <g>
       <use style="stroke:#000000;stroke-width:0.5;" x="280.713681175" xlink:href="#mf0c55a9a47" y="171.935267894"/>
      </g>
     </g>
    </g>
    <g id="ytick_16">
     <g id="line2d_42">
      <g>
       <use style="stroke:#000000;stroke-width:0.5;" x="280.713681175" xlink:href="#mf0c55a9a47" y="158.507015379"/>
      </g>
     </g>
    </g>
    <g id="ytick_17">
     <g id="line2d_43">
      <g>
       <use style="stroke:#000000;stroke-width:0.5;" x="280.713681175" xlink:href="#mf0c55a9a47" y="145.078762863"/>
      </g>
     </g>
    </g>
    <g id="ytick_18">
     <g id="line2d_44">
      <g>
       <use style="stroke:#000000;stroke-width:0.5;" x="280.713681175" xlink:href="#mf0c55a9a47" y="118.222257833"/>
      </g>
     </g>
    </g>
    <g id="ytick_19">
     <g id="line2d_45">
      <g>
       <use style="stroke:#000000;stroke-width:0.5;" x="280.713681175" xlink:href="#mf0c55a9a47" y="104.794005318"/>
      </g>
     </g>
    </g>
    <g id="ytick_20">
     <g id="line2d_46">
      <g>
       <use style="stroke:#000000;stroke-width:0.5;" x="280.713681175" xlink:href="#mf0c55a9a47" y="91.3657528024"/>
      </g>
     </g>
    </g>
    <g id="ytick_21">
     <g id="line2d_47">
      <g>
       <use style="stroke:#000000;stroke-width:0.5;" x="280.713681175" xlink:href="#mf0c55a9a47" y="77.9375002871"/>
      </g>
     </g>
    </g>
    <g id="ytick_22">
     <g id="line2d_48">
      <g>
       <use style="stroke:#000000;stroke-width:0.5;" x="280.713681175" xlink:href="#mf0c55a9a47" y="51.0809952566"/>
      </g>
     </g>
    </g>
    <g id="text_10">
     <!-- $a_{ji}$ -->
     <g transform="translate(272.233681175 16.285)scale(0.16 -0.16)">
      <use transform="translate(0.0 0.8125)" xlink:href="#Cmmi10-61"/>
      <use transform="translate(52.783203125 -24.696875)scale(0.7)" xlink:href="#Cmmi10-6a"/>
      <use transform="translate(81.5625 -24.696875)scale(0.7)" xlink:href="#Cmmi10-69"/>
     </g>
    </g>
   </g>
   <g id="patch_13">
    <path d="
M8.91895 64.5092
L314.205 64.5092" style="fill:none;stroke:#000000;stroke-width:0.8;"/>
   </g>
   <g id="patch_14">
    <path d="
M280.714 339.003
L280.714 30.685" style="fill:none;stroke:#000000;stroke-width:0.8;"/>
   </g>
  </g>
 </g>
 <defs>
  <clipPath id="p5ec19bca65">
   <rect height="308.3185" width="305.286330355" x="8.91895278163" y="30.685"/>
  </clipPath>
 </defs>
</svg>
