<?xml version="1.0" encoding="utf-8" standalone="no"?>
<!DOCTYPE svg PUBLIC "-//W3C//DTD SVG 1.1//EN"
  "http://www.w3.org/Graphics/SVG/1.1/DTD/svg11.dtd">
<!-- Created with matplotlib (http://matplotlib.org/) -->
<svg height="204pt" version="1.1" viewBox="0 0 274 204" width="274pt" xmlns="http://www.w3.org/2000/svg" xmlns:xlink="http://www.w3.org/1999/xlink">
 <defs>
  <style type="text/css">
*{stroke-linecap:butt;stroke-linejoin:round;}
  </style>
 </defs>
 <g id="figure_1">
  <g id="patch_1">
   <path d="
M2.22045e-16 204.924
L274.926 204.924
L274.926 0
L2.22045e-16 0
z
" style="fill:#ffffff;"/>
  </g>
  <g id="axes_1">
   <g id="patch_2">
    <path d="
M21.4137 190.31
L253.806 190.31
L253.806 7.66666
L21.4137 7.66666
z
" style="fill:#ffffff;"/>
   </g>
   <g id="line2d_1">
    <path clip-path="url(#p1f6924c1b8)" d="
M25.8828 11.179
L35.9383 12.7146
L47.111 14.6901
L52.6973 15.4423
L59.401 16.1067
L67.2219 16.6201
L76.1601 16.971
L88.4501 17.2166
L108.561 17.359
L157.721 17.4056
L249.337 17.4073
L249.337 17.4073" style="fill:none;stroke:#ff00da;stroke-linecap:square;"/>
   </g>
   <g id="line2d_2">
    <path clip-path="url(#p1f6924c1b8)" d="
M25.8828 181.294
L29.2346 182.006
L33.7037 182.659
L39.2901 183.167
L45.9937 183.523
L56.0492 183.796
L71.691 183.963
L104.092 184.037
L249.337 184.046
L249.337 184.046" style="fill:none;stroke:#4800ff;stroke-linecap:square;"/>
   </g>
   <g id="line2d_3">
    <path clip-path="url(#p1f6924c1b8)" d="
M25.8828 186.798
L29.2346 186.086
L33.7037 185.433
L39.2901 184.924
L45.9937 184.569
L56.0492 184.295
L71.691 184.128
L104.092 184.054
L249.337 184.046
L249.337 184.046" style="fill:none;stroke:#0091ff;stroke-linecap:square;"/>
   </g>
   <g id="line2d_4">
    <path clip-path="url(#p1f6924c1b8)" d="
M25.8828 184.046
L27.0001 183.261
L28.1174 181.213
L29.2346 178.289
L31.4692 170.955
L37.0555 151.206
L39.2901 144.194
L41.5246 137.937
L43.7592 132.431
L45.9937 127.631
L48.2283 123.469
L50.4628 119.875
L52.6973 116.778
L54.9319 114.114
L57.1664 111.826
L59.401 109.862
L61.6355 108.176
L63.8701 106.73
L66.1046 105.49
L69.4564 103.954
L72.8082 102.735
L76.1601 101.767
L79.5119 100.999
L83.981 100.215
L89.5673 99.5211
L96.271 98.9742
L104.092 98.5861
L115.265 98.2943
L132.024 98.1218
L166.659 98.0497
L249.337 98.0424
L249.337 98.0424" style="fill:none;stroke:#00ff91;stroke-linecap:square;"/>
   </g>
   <g id="line2d_5">
    <path clip-path="url(#p1f6924c1b8)" d="
M25.8828 184.011
L39.2901 184.03
L109.678 183.716
L249.337 183.71
L249.337 183.71" style="fill:none;stroke:#48ff00;stroke-linecap:square;"/>
   </g>
   <g id="line2d_6">
    <path clip-path="url(#p1f6924c1b8)" d="
M25.8828 184.024
L27.0001 183.481
L28.1174 181.607
L29.2346 178.804
L30.3519 175.389
L32.5864 167.62
L37.0555 151.853
L39.2901 144.79
L41.5246 138.475
L43.7592 132.911
L45.9937 128.054
L48.2283 123.84
L50.4628 120.198
L52.6973 117.059
L54.9319 114.358
L57.1664 112.037
L59.401 110.044
L61.6355 108.333
L63.8701 106.865
L66.1046 105.607
L69.4564 104.047
L72.8082 102.809
L76.1601 101.826
L79.5119 101.046
L83.981 100.25
L88.4501 99.6648
L94.0364 99.1466
L100.74 98.7382
L109.678 98.4184
L123.085 98.1917
L145.431 98.0745
L212.467 98.0427
L249.337 98.0424
L249.337 98.0424" style="fill:none;stroke:#ffda00;stroke-linecap:square;"/>
   </g>
   <g id="line2d_7">
    <path clip-path="url(#p1f6924c1b8)" d="
M25.8828 184.046
L49.3455 183.94
L81.7464 183.747
L145.431 183.711
L249.337 183.71
L249.337 183.71" style="fill:none;stroke:#ff0000;stroke-linecap:square;"/>
   </g>
   <g id="matplotlib.axis_1">
    <g id="xtick_1">
     <g id="line2d_8">
      <defs>
       <path d="
M0 0
L0 -4" id="m93b0483c22" style="stroke:#000000;stroke-width:0.5;"/>
      </defs>
      <g>
       <use style="stroke:#000000;stroke-width:0.5;" x="25.8828125" xlink:href="#m93b0483c22" y="184.045785437"/>
      </g>
     </g>
    </g>
    <g id="xtick_2">
     <g id="line2d_9">
      <g>
       <use style="stroke:#000000;stroke-width:0.5;" x="81.7464231232" xlink:href="#m93b0483c22" y="184.045785437"/>
      </g>
     </g>
     <g id="text_1">
      <!-- 5 -->
      <defs>
       <path d="
M10.7969 72.9062
L49.5156 72.9062
L49.5156 64.5938
L19.8281 64.5938
L19.8281 46.7344
Q21.9688 47.4688 24.1094 47.8281
Q26.2656 48.1875 28.4219 48.1875
Q40.625 48.1875 47.75 41.5
Q54.8906 34.8125 54.8906 23.3906
Q54.8906 11.625 47.5625 5.09375
Q40.2344 -1.42188 26.9062 -1.42188
Q22.3125 -1.42188 17.5469 -0.640625
Q12.7969 0.140625 7.71875 1.70312
L7.71875 11.625
Q12.1094 9.23438 16.7969 8.0625
Q21.4844 6.89062 26.7031 6.89062
Q35.1562 6.89062 40.0781 11.3281
Q45.0156 15.7656 45.0156 23.3906
Q45.0156 31 40.0781 35.4375
Q35.1562 39.8906 26.7031 39.8906
Q22.75 39.8906 18.8125 39.0156
Q14.8906 38.1406 10.7969 36.2812
z
" id="BitstreamVeraSans-Roman-35"/>
      </defs>
      <g transform="translate(79.3878293732 195.644222937)scale(0.1 -0.1)">
       <use xlink:href="#BitstreamVeraSans-Roman-35"/>
      </g>
     </g>
    </g>
    <g id="xtick_3">
     <g id="line2d_10">
      <g>
       <use style="stroke:#000000;stroke-width:0.5;" x="137.610033746" xlink:href="#m93b0483c22" y="184.045785437"/>
      </g>
     </g>
     <g id="text_2">
      <!-- 10 -->
      <defs>
       <path d="
M31.7812 66.4062
Q24.1719 66.4062 20.3281 58.9062
Q16.5 51.4219 16.5 36.375
Q16.5 21.3906 20.3281 13.8906
Q24.1719 6.39062 31.7812 6.39062
Q39.4531 6.39062 43.2812 13.8906
Q47.125 21.3906 47.125 36.375
Q47.125 51.4219 43.2812 58.9062
Q39.4531 66.4062 31.7812 66.4062
M31.7812 74.2188
Q44.0469 74.2188 50.5156 64.5156
Q56.9844 54.8281 56.9844 36.375
Q56.9844 17.9688 50.5156 8.26562
Q44.0469 -1.42188 31.7812 -1.42188
Q19.5312 -1.42188 13.0625 8.26562
Q6.59375 17.9688 6.59375 36.375
Q6.59375 54.8281 13.0625 64.5156
Q19.5312 74.2188 31.7812 74.2188" id="BitstreamVeraSans-Roman-30"/>
       <path d="
M12.4062 8.29688
L28.5156 8.29688
L28.5156 63.9219
L10.9844 60.4062
L10.9844 69.3906
L28.4219 72.9062
L38.2812 72.9062
L38.2812 8.29688
L54.3906 8.29688
L54.3906 0
L12.4062 0
z
" id="BitstreamVeraSans-Roman-31"/>
      </defs>
      <g transform="translate(132.128783746 195.644222937)scale(0.1 -0.1)">
       <use xlink:href="#BitstreamVeraSans-Roman-31"/>
       <use x="63.623046875" xlink:href="#BitstreamVeraSans-Roman-30"/>
      </g>
     </g>
    </g>
    <g id="xtick_4">
     <g id="line2d_11">
      <g>
       <use style="stroke:#000000;stroke-width:0.5;" x="193.473644369" xlink:href="#m93b0483c22" y="184.045785437"/>
      </g>
     </g>
     <g id="text_3">
      <!-- 15 -->
      <g transform="translate(188.097081869 195.644222937)scale(0.1 -0.1)">
       <use xlink:href="#BitstreamVeraSans-Roman-31"/>
       <use x="63.623046875" xlink:href="#BitstreamVeraSans-Roman-35"/>
      </g>
     </g>
    </g>
    <g id="xtick_5">
     <g id="line2d_12">
      <g>
       <use style="stroke:#000000;stroke-width:0.5;" x="249.337254993" xlink:href="#m93b0483c22" y="184.045785437"/>
      </g>
     </g>
     <g id="text_4">
      <!-- 20 -->
      <defs>
       <path d="
M19.1875 8.29688
L53.6094 8.29688
L53.6094 0
L7.32812 0
L7.32812 8.29688
Q12.9375 14.1094 22.625 23.8906
Q32.3281 33.6875 34.8125 36.5312
Q39.5469 41.8438 41.4219 45.5312
Q43.3125 49.2188 43.3125 52.7812
Q43.3125 58.5938 39.2344 62.25
Q35.1562 65.9219 28.6094 65.9219
Q23.9688 65.9219 18.8125 64.3125
Q13.6719 62.7031 7.8125 59.4219
L7.8125 69.3906
Q13.7656 71.7812 18.9375 73
Q24.125 74.2188 28.4219 74.2188
Q39.75 74.2188 46.4844 68.5469
Q53.2188 62.8906 53.2188 53.4219
Q53.2188 48.9219 51.5312 44.8906
Q49.8594 40.875 45.4062 35.4062
Q44.1875 33.9844 37.6406 27.2188
Q31.1094 20.4531 19.1875 8.29688" id="BitstreamVeraSans-Roman-32"/>
      </defs>
      <g transform="translate(243.673192493 195.644222937)scale(0.1 -0.1)">
       <use xlink:href="#BitstreamVeraSans-Roman-32"/>
       <use x="63.623046875" xlink:href="#BitstreamVeraSans-Roman-30"/>
      </g>
     </g>
    </g>
    <g id="xtick_6">
     <g id="line2d_13">
      <defs>
       <path d="
M0 0
L0 -2" id="m177f7580d0" style="stroke:#000000;stroke-width:0.5;"/>
      </defs>
      <g>
       <use style="stroke:#000000;stroke-width:0.5;" x="37.0555346246" xlink:href="#m177f7580d0" y="184.045785437"/>
      </g>
     </g>
    </g>
    <g id="xtick_7">
     <g id="line2d_14">
      <g>
       <use style="stroke:#000000;stroke-width:0.5;" x="48.2282567493" xlink:href="#m177f7580d0" y="184.045785437"/>
      </g>
     </g>
    </g>
    <g id="xtick_8">
     <g id="line2d_15">
      <g>
       <use style="stroke:#000000;stroke-width:0.5;" x="59.4009788739" xlink:href="#m177f7580d0" y="184.045785437"/>
      </g>
     </g>
    </g>
    <g id="xtick_9">
     <g id="line2d_16">
      <g>
       <use style="stroke:#000000;stroke-width:0.5;" x="70.5737009985" xlink:href="#m177f7580d0" y="184.045785437"/>
      </g>
     </g>
    </g>
    <g id="xtick_10">
     <g id="line2d_17">
      <g>
       <use style="stroke:#000000;stroke-width:0.5;" x="92.9191452478" xlink:href="#m177f7580d0" y="184.045785437"/>
      </g>
     </g>
    </g>
    <g id="xtick_11">
     <g id="line2d_18">
      <g>
       <use style="stroke:#000000;stroke-width:0.5;" x="104.091867372" xlink:href="#m177f7580d0" y="184.045785437"/>
      </g>
     </g>
    </g>
    <g id="xtick_12">
     <g id="line2d_19">
      <g>
       <use style="stroke:#000000;stroke-width:0.5;" x="115.264589497" xlink:href="#m177f7580d0" y="184.045785437"/>
      </g>
     </g>
    </g>
    <g id="xtick_13">
     <g id="line2d_20">
      <g>
       <use style="stroke:#000000;stroke-width:0.5;" x="126.437311622" xlink:href="#m177f7580d0" y="184.045785437"/>
      </g>
     </g>
    </g>
    <g id="xtick_14">
     <g id="line2d_21">
      <g>
       <use style="stroke:#000000;stroke-width:0.5;" x="148.782755871" xlink:href="#m177f7580d0" y="184.045785437"/>
      </g>
     </g>
    </g>
    <g id="xtick_15">
     <g id="line2d_22">
      <g>
       <use style="stroke:#000000;stroke-width:0.5;" x="159.955477996" xlink:href="#m177f7580d0" y="184.045785437"/>
      </g>
     </g>
    </g>
    <g id="xtick_16">
     <g id="line2d_23">
      <g>
       <use style="stroke:#000000;stroke-width:0.5;" x="171.12820012" xlink:href="#m177f7580d0" y="184.045785437"/>
      </g>
     </g>
    </g>
    <g id="xtick_17">
     <g id="line2d_24">
      <g>
       <use style="stroke:#000000;stroke-width:0.5;" x="182.300922245" xlink:href="#m177f7580d0" y="184.045785437"/>
      </g>
     </g>
    </g>
    <g id="xtick_18">
     <g id="line2d_25">
      <g>
       <use style="stroke:#000000;stroke-width:0.5;" x="204.646366494" xlink:href="#m177f7580d0" y="184.045785437"/>
      </g>
     </g>
    </g>
    <g id="xtick_19">
     <g id="line2d_26">
      <g>
       <use style="stroke:#000000;stroke-width:0.5;" x="215.819088619" xlink:href="#m177f7580d0" y="184.045785437"/>
      </g>
     </g>
    </g>
    <g id="xtick_20">
     <g id="line2d_27">
      <g>
       <use style="stroke:#000000;stroke-width:0.5;" x="226.991810743" xlink:href="#m177f7580d0" y="184.045785437"/>
      </g>
     </g>
    </g>
    <g id="xtick_21">
     <g id="line2d_28">
      <g>
       <use style="stroke:#000000;stroke-width:0.5;" x="238.164532868" xlink:href="#m177f7580d0" y="184.045785437"/>
      </g>
     </g>
    </g>
    <g id="text_5">
     <!-- $t$ -->
     <defs>
      <path d="
M6.20312 8.10938
Q6.20312 9.57812 6.5 10.8906
L13.7188 39.5938
L3.21875 39.5938
Q2.20312 39.5938 2.20312 40.9219
Q2.59375 43.1094 3.51562 43.1094
L14.5938 43.1094
L18.6094 59.4219
Q19 60.75 20.1719 61.6719
Q21.3438 62.5938 22.7969 62.5938
Q24.0781 62.5938 24.9219 61.8281
Q25.7812 61.0781 25.7812 59.8125
Q25.7812 59.5156 25.75 59.3438
Q25.7344 59.1875 25.6875 58.9844
L21.6875 43.1094
L31.9844 43.1094
Q33.0156 43.1094 33.0156 41.7969
Q32.9531 41.5469 32.8125 40.9531
Q32.6719 40.375 32.4219 39.9844
Q32.1719 39.5938 31.6875 39.5938
L20.7969 39.5938
L13.625 10.6875
Q12.8906 7.85938 12.8906 5.8125
Q12.8906 1.51562 15.8281 1.51562
Q20.2188 1.51562 23.6094 5.64062
Q27 9.76562 28.8125 14.7031
Q29.2031 15.2812 29.5938 15.2812
L30.8125 15.2812
Q31.2031 15.2812 31.4375 15.0156
Q31.6875 14.75 31.6875 14.4062
Q31.6875 14.2031 31.5938 14.1094
Q29.3906 8.0625 25.1875 3.46875
Q21 -1.125 15.5781 -1.125
Q11.625 -1.125 8.90625 1.45312
Q6.20312 4.04688 6.20312 8.10938" id="Cmmi10-74"/>
     </defs>
     <g transform="translate(261.806343842 184.045785437)scale(0.16 -0.16)">
      <use transform="translate(0.0 0.40625)" xlink:href="#Cmmi10-74"/>
     </g>
    </g>
   </g>
   <g id="matplotlib.axis_2">
    <g id="ytick_1">
     <g id="line2d_29">
      <defs>
       <path d="
M0 0
L4 0" id="m728421d6d4" style="stroke:#000000;stroke-width:0.5;"/>
      </defs>
      <g>
       <use style="stroke:#000000;stroke-width:0.5;" x="25.8828125" xlink:href="#m728421d6d4" y="184.045785437"/>
      </g>
     </g>
    </g>
    <g id="ytick_2">
     <g id="line2d_30">
      <g>
       <use style="stroke:#000000;stroke-width:0.5;" x="25.8828125" xlink:href="#m728421d6d4" y="149.644440849"/>
      </g>
     </g>
     <g id="text_6">
      <!-- 0.1 -->
      <defs>
       <path d="
M10.6875 12.4062
L21 12.4062
L21 0
L10.6875 0
z
" id="BitstreamVeraSans-Roman-2e"/>
      </defs>
      <g transform="translate(7.5625 152.403815849)scale(0.1 -0.1)">
       <use xlink:href="#BitstreamVeraSans-Roman-30"/>
       <use x="63.623046875" xlink:href="#BitstreamVeraSans-Roman-2e"/>
       <use x="95.41015625" xlink:href="#BitstreamVeraSans-Roman-31"/>
      </g>
     </g>
    </g>
    <g id="ytick_3">
     <g id="line2d_31">
      <g>
       <use style="stroke:#000000;stroke-width:0.5;" x="25.8828125" xlink:href="#m728421d6d4" y="115.243096262"/>
      </g>
     </g>
     <g id="text_7">
      <!-- 0.2 -->
      <g transform="translate(7.640625 118.002471262)scale(0.1 -0.1)">
       <use xlink:href="#BitstreamVeraSans-Roman-30"/>
       <use x="63.623046875" xlink:href="#BitstreamVeraSans-Roman-2e"/>
       <use x="95.41015625" xlink:href="#BitstreamVeraSans-Roman-32"/>
      </g>
     </g>
    </g>
    <g id="ytick_4">
     <g id="line2d_32">
      <g>
       <use style="stroke:#000000;stroke-width:0.5;" x="25.8828125" xlink:href="#m728421d6d4" y="80.8417516747"/>
      </g>
     </g>
     <g id="text_8">
      <!-- 0.3 -->
      <defs>
       <path d="
M40.5781 39.3125
Q47.6562 37.7969 51.625 33
Q55.6094 28.2188 55.6094 21.1875
Q55.6094 10.4062 48.1875 4.48438
Q40.7656 -1.42188 27.0938 -1.42188
Q22.5156 -1.42188 17.6562 -0.515625
Q12.7969 0.390625 7.625 2.20312
L7.625 11.7188
Q11.7188 9.32812 16.5938 8.10938
Q21.4844 6.89062 26.8125 6.89062
Q36.0781 6.89062 40.9375 10.5469
Q45.7969 14.2031 45.7969 21.1875
Q45.7969 27.6406 41.2812 31.2656
Q36.7656 34.9062 28.7188 34.9062
L20.2188 34.9062
L20.2188 43.0156
L29.1094 43.0156
Q36.375 43.0156 40.2344 45.9219
Q44.0938 48.8281 44.0938 54.2969
Q44.0938 59.9062 40.1094 62.9062
Q36.1406 65.9219 28.7188 65.9219
Q24.6562 65.9219 20.0156 65.0312
Q15.375 64.1562 9.8125 62.3125
L9.8125 71.0938
Q15.4375 72.6562 20.3438 73.4375
Q25.25 74.2188 29.5938 74.2188
Q40.8281 74.2188 47.3594 69.1094
Q53.9062 64.0156 53.9062 55.3281
Q53.9062 49.2656 50.4375 45.0938
Q46.9688 40.9219 40.5781 39.3125" id="BitstreamVeraSans-Roman-33"/>
      </defs>
      <g transform="translate(7.440625 83.6011266747)scale(0.1 -0.1)">
       <use xlink:href="#BitstreamVeraSans-Roman-30"/>
       <use x="63.623046875" xlink:href="#BitstreamVeraSans-Roman-2e"/>
       <use x="95.41015625" xlink:href="#BitstreamVeraSans-Roman-33"/>
      </g>
     </g>
    </g>
    <g id="ytick_5">
     <g id="line2d_33">
      <g>
       <use style="stroke:#000000;stroke-width:0.5;" x="25.8828125" xlink:href="#m728421d6d4" y="46.4404070874"/>
      </g>
     </g>
     <g id="text_9">
      <!-- 0.4 -->
      <defs>
       <path d="
M37.7969 64.3125
L12.8906 25.3906
L37.7969 25.3906
z

M35.2031 72.9062
L47.6094 72.9062
L47.6094 25.3906
L58.0156 25.3906
L58.0156 17.1875
L47.6094 17.1875
L47.6094 0
L37.7969 0
L37.7969 17.1875
L4.89062 17.1875
L4.89062 26.7031
z
" id="BitstreamVeraSans-Roman-34"/>
      </defs>
      <g transform="translate(7.2 49.1997820874)scale(0.1 -0.1)">
       <use xlink:href="#BitstreamVeraSans-Roman-30"/>
       <use x="63.623046875" xlink:href="#BitstreamVeraSans-Roman-2e"/>
       <use x="95.41015625" xlink:href="#BitstreamVeraSans-Roman-34"/>
      </g>
     </g>
    </g>
    <g id="ytick_6">
     <g id="line2d_34">
      <g>
       <use style="stroke:#000000;stroke-width:0.5;" x="25.8828125" xlink:href="#m728421d6d4" y="12.0390625"/>
      </g>
     </g>
     <g id="text_10">
      <!-- 0.5 -->
      <g transform="translate(7.5125 14.7984375)scale(0.1 -0.1)">
       <use xlink:href="#BitstreamVeraSans-Roman-30"/>
       <use x="63.623046875" xlink:href="#BitstreamVeraSans-Roman-2e"/>
       <use x="95.41015625" xlink:href="#BitstreamVeraSans-Roman-35"/>
      </g>
     </g>
    </g>
    <g id="ytick_7">
     <g id="line2d_35">
      <defs>
       <path d="
M0 0
L2 0" id="mf0c55a9a47" style="stroke:#000000;stroke-width:0.5;"/>
      </defs>
      <g>
       <use style="stroke:#000000;stroke-width:0.5;" x="25.8828125" xlink:href="#mf0c55a9a47" y="177.165516519"/>
      </g>
     </g>
    </g>
    <g id="ytick_8">
     <g id="line2d_36">
      <g>
       <use style="stroke:#000000;stroke-width:0.5;" x="25.8828125" xlink:href="#mf0c55a9a47" y="170.285247602"/>
      </g>
     </g>
    </g>
    <g id="ytick_9">
     <g id="line2d_37">
      <g>
       <use style="stroke:#000000;stroke-width:0.5;" x="25.8828125" xlink:href="#mf0c55a9a47" y="163.404978684"/>
      </g>
     </g>
    </g>
    <g id="ytick_10">
     <g id="line2d_38">
      <g>
       <use style="stroke:#000000;stroke-width:0.5;" x="25.8828125" xlink:href="#mf0c55a9a47" y="156.524709767"/>
      </g>
     </g>
    </g>
    <g id="ytick_11">
     <g id="line2d_39">
      <g>
       <use style="stroke:#000000;stroke-width:0.5;" x="25.8828125" xlink:href="#mf0c55a9a47" y="142.764171932"/>
      </g>
     </g>
    </g>
    <g id="ytick_12">
     <g id="line2d_40">
      <g>
       <use style="stroke:#000000;stroke-width:0.5;" x="25.8828125" xlink:href="#mf0c55a9a47" y="135.883903015"/>
      </g>
     </g>
    </g>
    <g id="ytick_13">
     <g id="line2d_41">
      <g>
       <use style="stroke:#000000;stroke-width:0.5;" x="25.8828125" xlink:href="#mf0c55a9a47" y="129.003634097"/>
      </g>
     </g>
    </g>
    <g id="ytick_14">
     <g id="line2d_42">
      <g>
       <use style="stroke:#000000;stroke-width:0.5;" x="25.8828125" xlink:href="#mf0c55a9a47" y="122.12336518"/>
      </g>
     </g>
    </g>
    <g id="ytick_15">
     <g id="line2d_43">
      <g>
       <use style="stroke:#000000;stroke-width:0.5;" x="25.8828125" xlink:href="#mf0c55a9a47" y="108.362827345"/>
      </g>
     </g>
    </g>
    <g id="ytick_16">
     <g id="line2d_44">
      <g>
       <use style="stroke:#000000;stroke-width:0.5;" x="25.8828125" xlink:href="#mf0c55a9a47" y="101.482558427"/>
      </g>
     </g>
    </g>
    <g id="ytick_17">
     <g id="line2d_45">
      <g>
       <use style="stroke:#000000;stroke-width:0.5;" x="25.8828125" xlink:href="#mf0c55a9a47" y="94.6022895097"/>
      </g>
     </g>
    </g>
    <g id="ytick_18">
     <g id="line2d_46">
      <g>
       <use style="stroke:#000000;stroke-width:0.5;" x="25.8828125" xlink:href="#mf0c55a9a47" y="87.7220205922"/>
      </g>
     </g>
    </g>
    <g id="ytick_19">
     <g id="line2d_47">
      <g>
       <use style="stroke:#000000;stroke-width:0.5;" x="25.8828125" xlink:href="#mf0c55a9a47" y="73.9614827573"/>
      </g>
     </g>
    </g>
    <g id="ytick_20">
     <g id="line2d_48">
      <g>
       <use style="stroke:#000000;stroke-width:0.5;" x="25.8828125" xlink:href="#mf0c55a9a47" y="67.0812138398"/>
      </g>
     </g>
    </g>
    <g id="ytick_21">
     <g id="line2d_49">
      <g>
       <use style="stroke:#000000;stroke-width:0.5;" x="25.8828125" xlink:href="#mf0c55a9a47" y="60.2009449223"/>
      </g>
     </g>
    </g>
    <g id="ytick_22">
     <g id="line2d_50">
      <g>
       <use style="stroke:#000000;stroke-width:0.5;" x="25.8828125" xlink:href="#mf0c55a9a47" y="53.3206760048"/>
      </g>
     </g>
    </g>
    <g id="ytick_23">
     <g id="line2d_51">
      <g>
       <use style="stroke:#000000;stroke-width:0.5;" x="25.8828125" xlink:href="#mf0c55a9a47" y="39.5601381699"/>
      </g>
     </g>
    </g>
    <g id="ytick_24">
     <g id="line2d_52">
      <g>
       <use style="stroke:#000000;stroke-width:0.5;" x="25.8828125" xlink:href="#mf0c55a9a47" y="32.6798692524"/>
      </g>
     </g>
    </g>
    <g id="ytick_25">
     <g id="line2d_53">
      <g>
       <use style="stroke:#000000;stroke-width:0.5;" x="25.8828125" xlink:href="#mf0c55a9a47" y="25.7996003349"/>
      </g>
     </g>
    </g>
    <g id="ytick_26">
     <g id="line2d_54">
      <g>
       <use style="stroke:#000000;stroke-width:0.5;" x="25.8828125" xlink:href="#mf0c55a9a47" y="18.9193314175"/>
      </g>
     </g>
    </g>
   </g>
   <g id="patch_3">
    <path d="
M21.4137 184.046
L253.806 184.046" style="fill:none;stroke:#000000;stroke-width:0.8;"/>
   </g>
   <g id="patch_4">
    <path d="
M25.8828 190.31
L25.8828 7.66666" style="fill:none;stroke:#000000;stroke-width:0.8;"/>
   </g>
   <g id="legend_1">
    <g id="patch_5">
     <path d="
M27.4137 150.582
L101.214 150.582
L101.214 47.395
L27.4137 47.395
L27.4137 150.582
z
" style="fill:#e6e6e6;stroke:#000000;"/>
    </g>
    <g id="line2d_55">
     <path d="
M38.2137 59.5132
L31.6137 59.5132" style="fill:none;stroke:#ff00da;stroke-linecap:square;"/>
    </g>
    <g id="line2d_56"/>
    <g id="text_11">
     <!-- $p\left({x}_{{a}{0}}, {X}_{{a}{0}}\right)$ -->
     <defs>
      <path d="
M3.60938 0
Q2.59375 0 2.59375 1.3125
Q2.64062 1.5625 2.8125 2.1875
Q2.98438 2.82812 3.25 3.17188
Q3.51562 3.51562 4 3.51562
Q13.0938 3.51562 19.5781 10.2969
Q19.6719 10.4062 19.7969 10.4531
Q19.9219 10.5 19.9219 10.5
L41.7969 34.0781
L29.8906 62.7969
Q28.8594 64.1094 26.5625 64.4531
Q24.2656 64.7969 21.1875 64.7969
Q20.2188 64.7969 20.2188 66.1094
Q20.5625 67.3906 20.75 67.8438
Q20.9531 68.3125 21.9219 68.3125
L46.9219 68.3125
Q47.9062 68.3125 47.9062 67
Q47.8594 66.75 47.6875 66.1094
Q47.5156 65.4844 47.2344 65.1406
Q46.9688 64.7969 46.4844 64.7969
Q44.625 64.7969 42.6406 64.1875
Q40.6719 63.5781 39.8906 62.2031
L48.4844 41.5
L64.8906 59.0781
Q65.0469 59.4219 65.5781 60.2812
Q66.1094 61.1406 66.1094 61.9219
Q66.1094 63.375 64.8438 64.0781
Q63.5781 64.7969 61.8125 64.7969
Q60.7969 64.7969 60.7969 66.1094
Q61.1406 67.3906 61.3281 67.8438
Q61.5312 68.3125 62.5 68.3125
L84.1875 68.3125
Q84.7188 68.3125 84.9531 67.9219
Q85.2031 67.5312 85.2031 67
Q85.1562 66.75 85 66.1562
Q84.8594 65.5781 84.6094 65.1875
Q84.375 64.7969 83.8906 64.7969
Q79.25 64.7969 75.3594 63.1094
Q71.4844 61.4219 68.2188 58.0156
Q68.1719 57.9531 68.0938 57.9219
Q68.0156 57.9062 67.9219 57.8125
L49.8125 38.2812
L63.4844 5.51562
Q65.0938 3.51562 72.2188 3.51562
Q73.1875 3.51562 73.1875 2.20312
Q72.8594 0.875 72.625 0.4375
Q72.4062 0 71.4844 0
L46.4844 0
Q45.5156 0 45.5156 1.3125
Q45.5625 1.5625 45.7031 2.17188
Q45.8438 2.78125 46.1094 3.14062
Q46.3906 3.51562 46.7812 3.51562
Q48.7344 3.51562 50.7344 4.125
Q52.7344 4.73438 53.5156 6.10938
L43.1094 31
L22.9062 9.1875
Q22.75 8.84375 22.2188 8
Q21.6875 7.17188 21.6875 6.39062
Q21.6875 4.9375 23.0469 4.21875
Q24.4219 3.51562 25.9844 3.51562
Q27 3.51562 27 2.20312
Q26.6562 0.78125 26.4531 0.390625
Q26.2656 0 25.2969 0
z
" id="Cmmi10-58"/>
      <path d="
M25 -2.20312
Q12.75 -2.20312 8.32812 7.875
Q3.90625 17.9688 3.90625 31.8906
Q3.90625 40.5781 5.48438 48.2344
Q7.07812 55.9062 11.7812 61.25
Q16.5 66.6094 25 66.6094
Q31.5938 66.6094 35.7812 63.375
Q39.9844 60.1562 42.1875 55.0469
Q44.3906 49.9531 45.1875 44.1094
Q46 38.2812 46 31.8906
Q46 23.2969 44.4062 15.7969
Q42.8281 8.29688 38.1875 3.04688
Q33.5469 -2.20312 25 -2.20312
M25 0.390625
Q30.5625 0.390625 33.2969 6.09375
Q36.0312 11.8125 36.6719 18.75
Q37.3125 25.6875 37.3125 33.5
Q37.3125 41.0156 36.6719 47.3594
Q36.0312 53.7188 33.3125 58.8594
Q30.6094 64.0156 25 64.0156
Q19.3438 64.0156 16.6094 58.8281
Q13.875 53.6562 13.2344 47.3281
Q12.5938 41.0156 12.5938 33.5
Q12.5938 27.9375 12.8594 23
Q13.1406 18.0625 14.3125 12.8125
Q15.4844 7.5625 18.0938 3.96875
Q20.7031 0.390625 25 0.390625" id="Cmr10-30"/>
      <path d="
M31 -24.8125
Q25.4375 -20.4062 21.4062 -14.7188
Q17.3906 -9.03125 14.8125 -2.57812
Q12.25 3.85938 10.9844 10.8906
Q9.71875 17.9219 9.71875 25
Q9.71875 32.1719 10.9844 39.2031
Q12.25 46.2344 14.8594 52.7344
Q17.4844 59.2344 21.5312 64.8906
Q25.5938 70.5625 31 74.8125
Q31 75 31.5 75
L32.4219 75
Q32.7188 75 32.9531 74.7344
Q33.2031 74.4688 33.2031 74.125
Q33.2031 73.6875 33.0156 73.4844
Q28.125 68.7031 24.875 63.2344
Q21.625 57.7656 19.6406 51.5781
Q17.6719 45.4062 16.7969 38.7812
Q15.9219 32.1719 15.9219 25
Q15.9219 -6.78125 32.9062 -23.2969
Q33.2031 -23.5781 33.2031 -24.125
Q33.2031 -24.3594 32.9375 -24.6719
Q32.6719 -25 32.4219 -25
L31.5 -25
Q31 -25 31 -24.8125" id="Cmr10-28"/>
      <path d="
M6.5 -25
Q5.60938 -25 5.60938 -24.125
Q5.60938 -23.6875 5.8125 -23.4844
Q22.9062 -6.78125 22.9062 25
Q22.9062 56.7812 6 73.2969
Q5.60938 73.5312 5.60938 74.125
Q5.60938 74.4688 5.875 74.7344
Q6.15625 75 6.5 75
L7.42188 75
Q7.71875 75 7.90625 74.8125
Q15.0938 69.1406 19.875 61.0312
Q24.6562 52.9375 26.875 43.75
Q29.1094 34.5781 29.1094 25
Q29.1094 17.9219 27.9062 11.0625
Q26.7031 4.20312 24.0938 -2.45312
Q21.4844 -9.125 17.4844 -14.7656
Q13.4844 -20.4062 7.90625 -24.8125
Q7.71875 -25 7.42188 -25
z
" id="Cmr10-29"/>
      <path d="
M17.3906 -1.125
Q11.0781 -1.125 7.4375 3.64062
Q3.8125 8.40625 3.8125 14.8906
Q3.8125 21.2969 7.125 28.1719
Q10.4531 35.0625 16.0938 39.625
Q21.7344 44.1875 28.2188 44.1875
Q31.2031 44.1875 33.5469 42.5781
Q35.8906 40.9688 37.2031 38.1875
Q38.3281 42.1875 41.6094 42.1875
Q42.875 42.1875 43.7188 41.4219
Q44.5781 40.6719 44.5781 39.4062
Q44.5781 39.1094 44.5469 38.9531
Q44.5312 38.8125 44.4844 38.625
L37.5 10.6875
Q36.8125 7.71875 36.8125 5.8125
Q36.8125 1.51562 39.7031 1.51562
Q42.8281 1.51562 44.4531 5.48438
Q46.0938 9.46875 47.2188 14.7031
Q47.4062 15.2812 48 15.2812
L49.2188 15.2812
Q49.6094 15.2812 49.8438 14.9375
Q50.0938 14.5938 50.0938 14.3125
Q48.3438 7.32812 46.2656 3.09375
Q44.1875 -1.125 39.5 -1.125
Q36.1406 -1.125 33.5469 0.84375
Q30.9531 2.82812 30.3281 6.10938
Q23.875 -1.125 17.3906 -1.125
M17.4844 1.51562
Q21.0938 1.51562 24.4844 4.21875
Q27.875 6.9375 30.3281 10.5938
Q30.4219 10.6875 30.4219 10.8906
L35.7969 32.625
L35.8906 32.9062
Q35.2969 36.4688 33.3125 39.0312
Q31.3438 41.6094 27.9844 41.6094
Q24.6094 41.6094 21.7031 38.8438
Q18.7969 36.0781 16.7969 32.3281
Q14.8438 28.3281 13.0625 21.3438
Q11.2812 14.3594 11.2812 10.5
Q11.2812 7.03125 12.7656 4.26562
Q14.2656 1.51562 17.4844 1.51562" id="Cmmi10-61"/>
      <path d="
M-2.48438 -19.3906
Q-3.42188 -19.3906 -3.42188 -18.1094
Q-3.07812 -15.9219 -2.09375 -15.9219
Q1.03125 -15.9219 2.26562 -15.3594
Q3.51562 -14.7969 4.20312 -12.5
L15.4844 32.5156
Q16.2188 34.375 16.2188 37.3125
Q16.2188 41.6094 13.2812 41.6094
Q10.1562 41.6094 8.64062 37.8594
Q7.125 34.125 5.71875 28.4219
Q5.71875 27.7812 4.89062 27.7812
L3.71875 27.7812
Q3.46875 27.7812 3.17188 28.1406
Q2.875 28.5156 2.875 28.8125
Q3.95312 33.1562 4.95312 36.1719
Q5.95312 39.2031 8.07812 41.6875
Q10.2031 44.1875 13.375 44.1875
Q16.7969 44.1875 19.375 42.25
Q21.9688 40.3281 22.7031 37.0156
Q25.4375 40.1875 28.75 42.1875
Q32.0781 44.1875 35.5938 44.1875
Q39.7969 44.1875 42.8906 41.9375
Q46 39.7031 47.5625 36.0625
Q49.125 32.4219 49.125 28.2188
Q49.125 21.7812 45.8281 14.8906
Q42.5312 8.01562 36.8906 3.4375
Q31.25 -1.125 24.8125 -1.125
Q21.875 -1.125 19.5 0.53125
Q17.1406 2.20312 15.8281 4.89062
L11.2812 -12.8906
Q11.0312 -14.3594 10.9844 -14.5938
Q10.9844 -15.9219 17.5781 -15.9219
Q18.6094 -15.9219 18.6094 -17.1875
Q18.2656 -18.5 18.0469 -18.9375
Q17.8281 -19.3906 16.8906 -19.3906
z

M24.9062 1.51562
Q28.375 1.51562 31.3438 4.375
Q34.3281 7.23438 36.1875 10.7969
Q37.5469 13.4844 38.7344 17.3594
Q39.9375 21.2344 40.8125 25.625
Q41.7031 30.0312 41.7031 32.625
Q41.7031 34.9062 41.0938 36.9062
Q40.4844 38.9219 39.0938 40.2656
Q37.7031 41.6094 35.4062 41.6094
Q31.7344 41.6094 28.4844 38.9844
Q25.25 36.375 22.6094 32.5156
L22.6094 32.1719
L17.0938 10.1094
Q17.7812 6.54688 19.7344 4.03125
Q21.6875 1.51562 24.9062 1.51562" id="Cmmi10-70"/>
      <path d="
M7.8125 2.875
Q9.57812 1.51562 12.7969 1.51562
Q15.9219 1.51562 18.3125 4.51562
Q20.7031 7.51562 21.5781 11.0781
L26.125 28.8125
Q27.2031 33.6406 27.2031 35.4062
Q27.2031 37.8906 25.8125 39.75
Q24.4219 41.6094 21.9219 41.6094
Q18.75 41.6094 15.9688 39.625
Q13.1875 37.6406 11.2812 34.5938
Q9.375 31.5469 8.59375 28.4219
Q8.40625 27.7812 7.8125 27.7812
L6.59375 27.7812
Q5.8125 27.7812 5.8125 28.7188
L5.8125 29
Q6.78125 32.7188 9.125 36.25
Q11.4688 39.7969 14.8594 41.9844
Q18.2656 44.1875 22.125 44.1875
Q25.7812 44.1875 28.7344 42.2344
Q31.6875 40.2812 32.9062 36.9219
Q34.625 39.9844 37.2812 42.0781
Q39.9375 44.1875 43.1094 44.1875
Q45.2656 44.1875 47.5 43.4219
Q49.75 42.6719 51.1719 41.1094
Q52.5938 39.5469 52.5938 37.2031
Q52.5938 34.6719 50.9531 32.8281
Q49.3125 31 46.7812 31
Q45.1719 31 44.0938 32.0312
Q43.0156 33.0625 43.0156 34.625
Q43.0156 36.7188 44.4531 38.2969
Q45.9062 39.8906 47.9062 40.1875
Q46.0938 41.6094 42.9219 41.6094
Q39.7031 41.6094 37.3281 38.625
Q34.9688 35.6406 33.9844 31.9844
L29.5938 14.3125
Q28.5156 10.2969 28.5156 7.71875
Q28.5156 5.17188 29.9531 3.34375
Q31.3906 1.51562 33.7969 1.51562
Q38.4844 1.51562 42.1562 5.64062
Q45.8438 9.76562 47.0156 14.7031
Q47.2188 15.2812 47.7969 15.2812
L49.0312 15.2812
Q49.4219 15.2812 49.6562 15.0156
Q49.9062 14.75 49.9062 14.4062
Q49.9062 14.3125 49.8125 14.1094
Q48.3906 8.15625 43.8438 3.51562
Q39.3125 -1.125 33.5938 -1.125
Q29.9375 -1.125 26.9844 0.84375
Q24.0312 2.82812 22.7969 6.20312
Q21.2344 3.26562 18.4688 1.0625
Q15.7188 -1.125 12.5938 -1.125
Q10.4531 -1.125 8.17188 -0.359375
Q5.90625 0.390625 4.48438 1.95312
Q3.07812 3.51562 3.07812 5.90625
Q3.07812 8.25 4.70312 10.1719
Q6.34375 12.1094 8.79688 12.1094
Q10.4531 12.1094 11.5781 11.1094
Q12.7031 10.1094 12.7031 8.5
Q12.7031 6.39062 11.2969 4.82812
Q9.90625 3.26562 7.8125 2.875" id="Cmmi10-78"/>
      <path d="
M9.90625 -18.0156
Q9.90625 -17.5781 10.2969 -17.1875
Q13.9219 -13.7188 15.9219 -9.17188
Q17.9219 -4.64062 17.9219 0.390625
L17.9219 1.60938
Q16.3125 0 13.9219 0
Q11.625 0 10.0156 1.60938
Q8.40625 3.21875 8.40625 5.51562
Q8.40625 7.85938 10.0156 9.42188
Q11.625 10.9844 13.9219 10.9844
Q17.4844 10.9844 19 7.6875
Q20.5156 4.39062 20.5156 0.390625
Q20.5156 -5.17188 18.2812 -10.1719
Q16.0625 -15.1875 12.0156 -19.1875
Q11.625 -19.3906 11.375 -19.3906
Q10.8906 -19.3906 10.3906 -18.9375
Q9.90625 -18.5 9.90625 -18.0156" id="Cmmi10-3b"/>
     </defs>
     <g transform="translate(41.2137236501 63.713152028)scale(0.12 -0.12)">
      <use transform="translate(0.0 0.6875)" xlink:href="#Cmmi10-70"/>
      <use transform="translate(50.29296875 -2.5203125)scale(0.953640625)" xlink:href="#Cmr10-28"/>
      <use transform="translate(87.3099060059 0.6875)" xlink:href="#Cmmi10-78"/>
      <use transform="translate(144.389984131 -24.821875)scale(0.7)" xlink:href="#Cmmi10-61"/>
      <use transform="translate(181.338226318 -24.821875)scale(0.7)" xlink:href="#Cmr10-30"/>
      <use transform="translate(216.338226318 0.6875)" xlink:href="#Cmmi10-3b"/>
      <use transform="translate(246.006195068 0.6875)" xlink:href="#Cmmi10-58"/>
      <use transform="translate(328.818695068 -24.821875)scale(0.7)" xlink:href="#Cmmi10-61"/>
      <use transform="translate(365.766937256 -24.821875)scale(0.7)" xlink:href="#Cmr10-30"/>
      <use transform="translate(400.766937256 -2.5203125)scale(0.953640625)" xlink:href="#Cmr10-29"/>
     </g>
    </g>
    <g id="line2d_57">
     <path d="
M38.2137 72.2313
L31.6137 72.2313" style="fill:none;stroke:#4800ff;stroke-linecap:square;"/>
    </g>
    <g id="line2d_58"/>
    <g id="text_12">
     <!-- $b\left({x}_{{t}{0}}, {X}_{{t}{0}}\right)$ -->
     <defs>
      <path d="
M17.2812 -1.125
Q11.2344 -1.125 7.85938 3.60938
Q4.5 8.34375 4.5 14.7031
Q4.5 15.625 4.95312 18.3281
Q5.42188 21.0469 5.42188 21.6875
L15.0938 60.5
Q15.4844 62.2031 15.5781 63.1875
Q15.5781 64.7969 9.07812 64.7969
Q8.10938 64.7969 8.10938 66.1094
Q8.15625 66.3594 8.32812 66.9844
Q8.5 67.625 8.76562 67.9688
Q9.03125 68.3125 9.51562 68.3125
L23 69.3906
Q24.2188 69.3906 24.2188 68.1094
L16.7969 38.625
Q22.4688 44.1875 28.2188 44.1875
Q32.4688 44.1875 35.5156 41.9375
Q38.5781 39.7031 40.0938 36.0312
Q41.6094 32.375 41.6094 28.2188
Q41.6094 23.3906 39.7188 18.2344
Q37.8438 13.0938 34.5156 8.67188
Q31.2031 4.25 26.75 1.5625
Q22.3125 -1.125 17.2812 -1.125
M17.4844 1.51562
Q20.9062 1.51562 23.875 4.375
Q26.8594 7.23438 28.7188 10.7969
Q30.7188 14.7969 32.4531 21.6562
Q34.1875 28.5156 34.1875 32.625
Q34.1875 36.1875 32.6875 38.8906
Q31.2031 41.6094 27.9844 41.6094
Q24.3594 41.6094 21.0625 38.9375
Q17.7812 36.2812 15.2812 32.625
L12.5 21.2969
Q10.8906 14.9844 10.7969 11.1875
Q10.7969 7.42188 12.4219 4.46875
Q14.0625 1.51562 17.4844 1.51562" id="Cmmi10-62"/>
     </defs>
     <g transform="translate(41.2137236501 76.431277028)scale(0.12 -0.12)">
      <use transform="translate(0.0 0.609375)" xlink:href="#Cmmi10-62"/>
      <use transform="translate(42.919921875 -2.5984375)scale(0.953640625)" xlink:href="#Cmr10-28"/>
      <use transform="translate(79.9368591309 0.609375)" xlink:href="#Cmmi10-78"/>
      <use transform="translate(137.016937256 -24.9)scale(0.7)" xlink:href="#Cmmi10-74"/>
      <use transform="translate(162.275726318 -24.9)scale(0.7)" xlink:href="#Cmr10-30"/>
      <use transform="translate(197.275726318 0.609375)" xlink:href="#Cmmi10-3b"/>
      <use transform="translate(226.943695068 0.609375)" xlink:href="#Cmmi10-58"/>
      <use transform="translate(309.756195068 -24.9)scale(0.7)" xlink:href="#Cmmi10-74"/>
      <use transform="translate(335.014984131 -24.9)scale(0.7)" xlink:href="#Cmr10-30"/>
      <use transform="translate(370.014984131 -2.5984375)scale(0.953640625)" xlink:href="#Cmr10-29"/>
     </g>
    </g>
    <g id="line2d_59">
     <path d="
M38.2137 84.9494
L31.6137 84.9494" style="fill:none;stroke:#0091ff;stroke-linecap:square;"/>
    </g>
    <g id="line2d_60"/>
    <g id="text_13">
     <!-- $B\left({x}_{{t}{0}}, {X}_{{t}{0}}\right)$ -->
     <defs>
      <path d="
M4.98438 0
Q4 0 4 1.3125
Q4.04688 1.5625 4.1875 2.14062
Q4.34375 2.73438 4.57812 3.125
Q4.82812 3.51562 5.32812 3.51562
Q8.15625 3.51562 10.25 3.65625
Q12.3594 3.8125 13.8125 4.20312
Q14.9844 4.64062 15.7188 6.89062
L29.3906 61.8125
Q29.5938 62.7969 29.5938 63.1875
Q29.5938 64.2656 28.4219 64.4062
Q26.5156 64.7969 21.1875 64.7969
Q20.2188 64.7969 20.2188 66.1094
Q20.2656 66.3594 20.4062 66.9688
Q20.5625 67.5781 20.8281 67.9375
Q21.0938 68.3125 21.4844 68.3125
L57.3281 68.3125
Q60.5938 68.3125 63.7969 67.5
Q67 66.7031 69.7031 64.9375
Q72.4062 63.1875 74 60.5625
Q75.5938 57.9531 75.5938 54.5
Q75.5938 50.7344 73.6562 47.5
Q71.7344 44.2812 68.6719 41.8906
Q65.625 39.5 62.0781 37.9531
Q58.5469 36.4219 54.6875 35.6875
Q57.4219 35.6875 60.2188 34.6094
Q63.0312 33.5469 65.2344 31.6875
Q67.4375 29.8281 68.7812 27.2344
Q70.125 24.6562 70.125 21.6875
Q70.125 15.6719 65.9219 10.6875
Q61.7188 5.71875 55.3438 2.85938
Q48.9688 0 43.0156 0
z

M23.3906 4.29688
Q23.3906 3.51562 26.8125 3.51562
L41.1094 3.51562
Q46 3.51562 50.4844 6.21875
Q54.9844 8.9375 57.6875 13.4219
Q60.4062 17.9219 60.4062 22.7969
Q60.4062 25.7812 59.1562 28.4375
Q57.9062 31.1094 55.5625 32.6406
Q53.2188 34.1875 50.2031 34.1875
L30.7188 34.1875
L23.7812 6.5
Q23.3906 5.125 23.3906 4.29688
M31.3906 36.8125
L46.5781 36.8125
Q51.375 36.8125 55.8906 39.25
Q60.4062 41.7031 63.25 45.8906
Q66.1094 50.0938 66.1094 54.7812
Q66.1094 59.125 63.3906 61.9531
Q60.6875 64.7969 56.3906 64.7969
L42.6719 64.7969
Q39.9844 64.7969 39.0625 64.2969
Q38.1406 63.8125 37.5 61.375
z
" id="Cmmi10-42"/>
     </defs>
     <g transform="translate(41.2137236501 89.149402028)scale(0.12 -0.12)">
      <use transform="translate(0.0 0.6875)" xlink:href="#Cmmi10-42"/>
      <use transform="translate(75.78125 -2.5203125)scale(0.953640625)" xlink:href="#Cmr10-28"/>
      <use transform="translate(112.798187256 0.6875)" xlink:href="#Cmmi10-78"/>
      <use transform="translate(169.878265381 -24.821875)scale(0.7)" xlink:href="#Cmmi10-74"/>
      <use transform="translate(195.137054443 -24.821875)scale(0.7)" xlink:href="#Cmr10-30"/>
      <use transform="translate(230.137054443 0.6875)" xlink:href="#Cmmi10-3b"/>
      <use transform="translate(259.805023193 0.6875)" xlink:href="#Cmmi10-58"/>
      <use transform="translate(342.617523193 -24.821875)scale(0.7)" xlink:href="#Cmmi10-74"/>
      <use transform="translate(367.876312256 -24.821875)scale(0.7)" xlink:href="#Cmr10-30"/>
      <use transform="translate(402.876312256 -2.5203125)scale(0.953640625)" xlink:href="#Cmr10-29"/>
     </g>
    </g>
    <g id="line2d_61">
     <path d="
M38.2137 97.6675
L31.6137 97.6675" style="fill:none;stroke:#00ff91;stroke-linecap:square;"/>
    </g>
    <g id="line2d_62"/>
    <g id="text_14">
     <!-- $c_{t}\left({x}_{{t}{0}}\right)$ -->
     <defs>
      <path d="
M11.7188 11.9219
Q11.7188 7.5625 13.9375 4.53125
Q16.1562 1.51562 20.3125 1.51562
Q26.2656 1.51562 31.75 4.25
Q37.25 6.98438 40.7188 11.8125
Q41.0156 12.1094 41.5 12.1094
Q42 12.1094 42.5 11.5469
Q43.0156 10.9844 43.0156 10.5
Q43.0156 10.1094 42.8281 9.90625
Q39.1562 4.78125 32.9531 1.82812
Q26.7656 -1.125 20.125 -1.125
Q15.3281 -1.125 11.6719 1.14062
Q8.01562 3.42188 6 7.21875
Q4 11.0312 4 15.8281
Q4 22.5625 7.76562 29.2031
Q11.5312 35.8438 17.7812 40.0156
Q24.0312 44.1875 30.9062 44.1875
Q35.4062 44.1875 38.9844 42.0156
Q42.5781 39.8438 42.5781 35.5938
Q42.5781 32.8594 40.9844 30.9219
Q39.4062 29 36.7188 29
Q35.1094 29 34 30
Q32.9062 31 32.9062 32.625
Q32.9062 34.9688 34.6094 36.625
Q36.3281 38.2812 38.625 38.2812
L38.8125 38.2812
Q37.6406 39.9844 35.4219 40.7969
Q33.2031 41.6094 30.8125 41.6094
Q24.9531 41.6094 20.5469 36.5938
Q16.1562 31.5938 13.9375 24.625
Q11.7188 17.6719 11.7188 11.9219" id="Cmmi10-63"/>
     </defs>
     <g transform="translate(41.2137236501 101.867527028)scale(0.12 -0.12)">
      <use transform="translate(0.0 0.8125)" xlink:href="#Cmmi10-63"/>
      <use transform="translate(43.212890625 -24.696875)scale(0.7)" xlink:href="#Cmmi10-74"/>
      <use transform="translate(68.4716796875 -8.4265625)scale(0.712390625)" xlink:href="#Cmr10-28"/>
      <use transform="translate(96.1236877441 0.8125)" xlink:href="#Cmmi10-78"/>
      <use transform="translate(153.203765869 -24.696875)scale(0.7)" xlink:href="#Cmmi10-74"/>
      <use transform="translate(178.462554932 -24.696875)scale(0.7)" xlink:href="#Cmr10-30"/>
      <use transform="translate(213.462554932 -8.4265625)scale(0.712390625)" xlink:href="#Cmr10-29"/>
     </g>
    </g>
    <g id="line2d_63">
     <path d="
M38.2137 110.386
L31.6137 110.386" style="fill:none;stroke:#48ff00;stroke-linecap:square;"/>
    </g>
    <g id="line2d_64"/>
    <g id="text_15">
     <!-- $c_{a}\left({x}_{{a}{0}}\right)$ -->
     <g transform="translate(41.2137236501 114.585652028)scale(0.12 -0.12)">
      <use transform="translate(0.0 0.8125)" xlink:href="#Cmmi10-63"/>
      <use transform="translate(43.212890625 -24.696875)scale(0.7)" xlink:href="#Cmmi10-61"/>
      <use transform="translate(80.1611328125 -8.4265625)scale(0.712390625)" xlink:href="#Cmr10-28"/>
      <use transform="translate(107.813140869 0.8125)" xlink:href="#Cmmi10-78"/>
      <use transform="translate(164.893218994 -24.696875)scale(0.7)" xlink:href="#Cmmi10-61"/>
      <use transform="translate(201.841461182 -24.696875)scale(0.7)" xlink:href="#Cmr10-30"/>
      <use transform="translate(236.841461182 -8.4265625)scale(0.712390625)" xlink:href="#Cmr10-29"/>
     </g>
    </g>
    <g id="line2d_65">
     <path d="
M38.2137 123.104
L31.6137 123.104" style="fill:none;stroke:#ffda00;stroke-linecap:square;"/>
    </g>
    <g id="line2d_66"/>
    <g id="text_16">
     <!-- $C_{t}\left({X}_{{t}{0}}\right)$ -->
     <defs>
      <path d="
M14.5938 21.5781
Q14.5938 15.5781 16.9062 11.0156
Q19.2344 6.45312 23.6562 3.875
Q28.0781 1.3125 34.0781 1.3125
Q40.375 1.3125 46.2031 4.53125
Q52.0469 7.76562 56.1719 13.1562
Q60.2969 18.5625 61.8125 24.6094
Q62.0156 25.2031 62.5938 25.2031
L63.8125 25.2031
Q64.2031 25.2031 64.4531 24.9219
Q64.7031 24.6562 64.7031 24.3125
Q64.7031 24.2188 64.5938 24.0312
Q62.8906 17.0938 57.9844 11.0156
Q53.0781 4.9375 46.2344 1.35938
Q39.4062 -2.20312 32.1719 -2.20312
Q24.3594 -2.20312 18.1562 1.3125
Q11.9688 4.82812 8.51562 11.0781
Q5.07812 17.3281 5.07812 25.2031
Q5.07812 33.5938 8.82812 41.8125
Q12.5938 50.0469 18.9375 56.4688
Q25.2969 62.8906 33.4219 66.7031
Q41.5469 70.5156 49.9062 70.5156
Q53.2188 70.5156 56.25 69.5
Q59.2812 68.5 61.8594 66.4531
Q64.4531 64.4062 66.1094 61.7188
L74.0312 70.3125
Q74.0312 70.5156 74.5156 70.5156
L75.0938 70.5156
Q75.4844 70.5156 75.7344 70.1719
Q75.9844 69.8281 75.9844 69.4844
L69.1875 42.4844
Q69.1875 41.7969 68.4062 41.7969
L66.6094 41.7969
Q65.8281 41.7969 65.8281 42.9219
Q66.2188 45.125 66.2188 48.1875
Q66.2188 53.0781 64.5469 57.3906
Q62.8906 61.7188 59.3906 64.3594
Q55.9062 67 50.875 67
Q42.7188 67 35.9375 62.8906
Q29.1562 58.7969 24.4375 52.125
Q19.7344 45.4531 17.1562 37.3281
Q14.5938 29.2031 14.5938 21.5781" id="Cmmi10-43"/>
     </defs>
     <g transform="translate(41.2137236501 127.303777028)scale(0.12 -0.12)">
      <use transform="translate(0.0 0.484375)" xlink:href="#Cmmi10-43"/>
      <use transform="translate(71.38671875 -25.025)scale(0.7)" xlink:href="#Cmmi10-74"/>
      <use transform="translate(96.6455078125 -2.7234375)scale(0.953640625)" xlink:href="#Cmr10-28"/>
      <use transform="translate(133.662445068 0.484375)" xlink:href="#Cmmi10-58"/>
      <use transform="translate(216.474945068 -25.025)scale(0.7)" xlink:href="#Cmmi10-74"/>
      <use transform="translate(241.733734131 -25.025)scale(0.7)" xlink:href="#Cmr10-30"/>
      <use transform="translate(276.733734131 -2.7234375)scale(0.953640625)" xlink:href="#Cmr10-29"/>
     </g>
    </g>
    <g id="line2d_67">
     <path d="
M38.2137 135.822
L31.6137 135.822" style="fill:none;stroke:#ff0000;stroke-linecap:square;"/>
    </g>
    <g id="line2d_68"/>
    <g id="text_17">
     <!-- $C_{a}\left({X}_{{a}{0}}\right)$ -->
     <g transform="translate(41.2137236501 140.021902028)scale(0.12 -0.12)">
      <use transform="translate(0.0 0.484375)" xlink:href="#Cmmi10-43"/>
      <use transform="translate(71.38671875 -25.025)scale(0.7)" xlink:href="#Cmmi10-61"/>
      <use transform="translate(108.334960938 -2.7234375)scale(0.953640625)" xlink:href="#Cmr10-28"/>
      <use transform="translate(145.351898193 0.484375)" xlink:href="#Cmmi10-58"/>
      <use transform="translate(228.164398193 -25.025)scale(0.7)" xlink:href="#Cmmi10-61"/>
      <use transform="translate(265.112640381 -25.025)scale(0.7)" xlink:href="#Cmr10-30"/>
      <use transform="translate(300.112640381 -2.7234375)scale(0.953640625)" xlink:href="#Cmr10-29"/>
     </g>
    </g>
   </g>
  </g>
 </g>
 <defs>
  <clipPath id="p1f6924c1b8">
   <rect height="182.64361123" width="232.392620192" x="21.4137236501" y="7.66665891316"/>
  </clipPath>
 </defs>
</svg>
