<?xml version="1.0" encoding="utf-8" standalone="no"?>
<!DOCTYPE svg PUBLIC "-//W3C//DTD SVG 1.1//EN"
  "http://www.w3.org/Graphics/SVG/1.1/DTD/svg11.dtd">
<!-- Created with matplotlib (http://matplotlib.org/) -->
<svg height="204pt" version="1.1" viewBox="0 0 274 204" width="274pt" xmlns="http://www.w3.org/2000/svg" xmlns:xlink="http://www.w3.org/1999/xlink">
 <defs>
  <style type="text/css">
*{stroke-linecap:butt;stroke-linejoin:round;}
  </style>
 </defs>
 <g id="figure_1">
  <g id="patch_1">
   <path d="
M0 204.389
L274.881 204.389
L274.881 0
L0 0
z
" style="fill:#ffffff;"/>
  </g>
  <g id="axes_1">
   <g id="patch_2">
    <path d="
M17.7265 193.866
L253.761 193.866
L253.761 7.2
L17.7265 7.2
z
" style="fill:#ffffff;"/>
   </g>
   <g id="line2d_1">
    <path clip-path="url(#pea1976232f)" d="
M22.2656 177.76
L197.489 177.751
L242.547 177.57
L247.553 177.475
L249.222 177.353
L249.222 177.353" style="fill:none;stroke:#ff00da;stroke-linecap:square;"/>
   </g>
   <g id="line2d_2">
    <path clip-path="url(#pea1976232f)" d="
M22.2656 190.276
L62.3168 188.347
L97.3615 186.442
L127.4 184.591
L152.432 182.83
L172.457 181.217
L189.145 179.67
L202.496 178.238
L214.177 176.768
L222.521 175.526
L229.197 174.349
L234.203 173.298
L239.209 172.003
L242.547 170.893
L244.216 170.203
L245.885 169.348
L247.553 168.155
L249.222 165.11
L249.222 165.11" style="fill:none;stroke:#4800ff;stroke-linecap:square;"/>
   </g>
   <g id="line2d_3">
    <path clip-path="url(#pea1976232f)" d="
M22.2656 184.413
L65.6544 182.537
L102.368 180.729
L132.406 179.039
L157.438 177.423
L177.464 175.931
L194.152 174.487
L207.502 173.13
L217.515 171.931
L225.859 170.742
L232.534 169.587
L237.541 168.517
L240.878 167.634
L244.216 166.492
L245.885 165.729
L247.553 164.664
L249.222 161.945
L249.222 161.945" style="fill:none;stroke:#0091ff;stroke-linecap:square;"/>
   </g>
   <g id="line2d_4">
    <path clip-path="url(#pea1976232f)" d="
M22.2656 172.584
L65.6544 171.864
L100.699 171.064
L127.4 170.247
L149.094 169.375
L165.782 168.506
L179.133 167.62
L190.814 166.633
L200.827 165.548
L207.502 164.641
L214.177 163.515
L219.184 162.463
L224.19 161.145
L227.528 160.053
L230.865 158.709
L234.203 156.992
L235.872 155.929
L237.541 154.673
L239.209 153.151
L240.878 151.248
L242.547 148.756
L244.216 145.261
L245.885 139.742
L247.553 128.464
L249.222 10.7897
L249.222 10.7897" style="fill:none;stroke:#ffda00;stroke-linecap:square;"/>
   </g>
   <g id="line2d_5">
    <path clip-path="url(#pea1976232f)" d="
M22.2656 175.596
L70.6608 174.58
L105.706 173.635
L132.406 172.715
L154.101 171.755
L170.789 170.81
L184.139 169.849
L195.821 168.773
L204.165 167.799
L210.84 166.833
L217.515 165.618
L222.521 164.461
L225.859 163.519
L229.197 162.38
L232.534 160.958
L234.203 160.097
L235.872 159.1
L237.541 157.923
L239.209 156.499
L240.878 154.72
L242.547 152.395
L244.216 149.138
L245.885 144.002
L247.553 133.524
L249.222 24.4455
L249.222 24.4455" style="fill:none;stroke:#ff0000;stroke-linecap:square;"/>
   </g>
   <g id="matplotlib.axis_1">
    <g id="xtick_1">
     <g id="line2d_6">
      <defs>
       <path d="
M0 0
L0 -4" id="m93b0483c22" style="stroke:#000000;stroke-width:0.5;"/>
      </defs>
      <g>
       <use style="stroke:#000000;stroke-width:0.5;" x="22.265625" xlink:href="#m93b0483c22" y="183.510819287"/>
      </g>
     </g>
    </g>
    <g id="xtick_2">
     <g id="line2d_7">
      <g>
       <use style="stroke:#000000;stroke-width:0.5;" x="63.9855782827" xlink:href="#m93b0483c22" y="183.510819287"/>
      </g>
     </g>
     <g id="text_1">
      <!-- 0.05 -->
      <defs>
       <path d="
M31.7812 66.4062
Q24.1719 66.4062 20.3281 58.9062
Q16.5 51.4219 16.5 36.375
Q16.5 21.3906 20.3281 13.8906
Q24.1719 6.39062 31.7812 6.39062
Q39.4531 6.39062 43.2812 13.8906
Q47.125 21.3906 47.125 36.375
Q47.125 51.4219 43.2812 58.9062
Q39.4531 66.4062 31.7812 66.4062
M31.7812 74.2188
Q44.0469 74.2188 50.5156 64.5156
Q56.9844 54.8281 56.9844 36.375
Q56.9844 17.9688 50.5156 8.26562
Q44.0469 -1.42188 31.7812 -1.42188
Q19.5312 -1.42188 13.0625 8.26562
Q6.59375 17.9688 6.59375 36.375
Q6.59375 54.8281 13.0625 64.5156
Q19.5312 74.2188 31.7812 74.2188" id="BitstreamVeraSans-Roman-30"/>
       <path d="
M10.6875 12.4062
L21 12.4062
L21 0
L10.6875 0
z
" id="BitstreamVeraSans-Roman-2e"/>
       <path d="
M10.7969 72.9062
L49.5156 72.9062
L49.5156 64.5938
L19.8281 64.5938
L19.8281 46.7344
Q21.9688 47.4688 24.1094 47.8281
Q26.2656 48.1875 28.4219 48.1875
Q40.625 48.1875 47.75 41.5
Q54.8906 34.8125 54.8906 23.3906
Q54.8906 11.625 47.5625 5.09375
Q40.2344 -1.42188 26.9062 -1.42188
Q22.3125 -1.42188 17.5469 -0.640625
Q12.7969 0.140625 7.71875 1.70312
L7.71875 11.625
Q12.1094 9.23438 16.7969 8.0625
Q21.4844 6.89062 26.7031 6.89062
Q35.1562 6.89062 40.0781 11.3281
Q45.0156 15.7656 45.0156 23.3906
Q45.0156 31 40.0781 35.4375
Q35.1562 39.8906 26.7031 39.8906
Q22.75 39.8906 18.8125 39.0156
Q14.8906 38.1406 10.7969 36.2812
z
" id="BitstreamVeraSans-Roman-35"/>
      </defs>
      <g transform="translate(53.6191720327 195.109256787)scale(0.1 -0.1)">
       <use xlink:href="#BitstreamVeraSans-Roman-30"/>
       <use x="63.623046875" xlink:href="#BitstreamVeraSans-Roman-2e"/>
       <use x="95.41015625" xlink:href="#BitstreamVeraSans-Roman-30"/>
       <use x="159.033203125" xlink:href="#BitstreamVeraSans-Roman-35"/>
      </g>
     </g>
    </g>
    <g id="xtick_3">
     <g id="line2d_8">
      <g>
       <use style="stroke:#000000;stroke-width:0.5;" x="105.705531565" xlink:href="#m93b0483c22" y="183.510819287"/>
      </g>
     </g>
     <g id="text_2">
      <!-- 0.1 -->
      <defs>
       <path d="
M12.4062 8.29688
L28.5156 8.29688
L28.5156 63.9219
L10.9844 60.4062
L10.9844 69.3906
L28.4219 72.9062
L38.2812 72.9062
L38.2812 8.29688
L54.3906 8.29688
L54.3906 0
L12.4062 0
z
" id="BitstreamVeraSans-Roman-31"/>
      </defs>
      <g transform="translate(98.5453753154 195.109256787)scale(0.1 -0.1)">
       <use xlink:href="#BitstreamVeraSans-Roman-30"/>
       <use x="63.623046875" xlink:href="#BitstreamVeraSans-Roman-2e"/>
       <use x="95.41015625" xlink:href="#BitstreamVeraSans-Roman-31"/>
      </g>
     </g>
    </g>
    <g id="xtick_4">
     <g id="line2d_9">
      <g>
       <use style="stroke:#000000;stroke-width:0.5;" x="147.425484848" xlink:href="#m93b0483c22" y="183.510819287"/>
      </g>
     </g>
     <g id="text_3">
      <!-- 0.15 -->
      <g transform="translate(137.059078598 195.109256787)scale(0.1 -0.1)">
       <use xlink:href="#BitstreamVeraSans-Roman-30"/>
       <use x="63.623046875" xlink:href="#BitstreamVeraSans-Roman-2e"/>
       <use x="95.41015625" xlink:href="#BitstreamVeraSans-Roman-31"/>
       <use x="159.033203125" xlink:href="#BitstreamVeraSans-Roman-35"/>
      </g>
     </g>
    </g>
    <g id="xtick_5">
     <g id="line2d_10">
      <g>
       <use style="stroke:#000000;stroke-width:0.5;" x="189.145438131" xlink:href="#m93b0483c22" y="183.510819287"/>
      </g>
     </g>
     <g id="text_4">
      <!-- 0.2 -->
      <defs>
       <path d="
M19.1875 8.29688
L53.6094 8.29688
L53.6094 0
L7.32812 0
L7.32812 8.29688
Q12.9375 14.1094 22.625 23.8906
Q32.3281 33.6875 34.8125 36.5312
Q39.5469 41.8438 41.4219 45.5312
Q43.3125 49.2188 43.3125 52.7812
Q43.3125 58.5938 39.2344 62.25
Q35.1562 65.9219 28.6094 65.9219
Q23.9688 65.9219 18.8125 64.3125
Q13.6719 62.7031 7.8125 59.4219
L7.8125 69.3906
Q13.7656 71.7812 18.9375 73
Q24.125 74.2188 28.4219 74.2188
Q39.75 74.2188 46.4844 68.5469
Q53.2188 62.8906 53.2188 53.4219
Q53.2188 48.9219 51.5312 44.8906
Q49.8594 40.875 45.4062 35.4062
Q44.1875 33.9844 37.6406 27.2188
Q31.1094 20.4531 19.1875 8.29688" id="BitstreamVeraSans-Roman-32"/>
      </defs>
      <g transform="translate(182.024344381 195.109256787)scale(0.1 -0.1)">
       <use xlink:href="#BitstreamVeraSans-Roman-30"/>
       <use x="63.623046875" xlink:href="#BitstreamVeraSans-Roman-2e"/>
       <use x="95.41015625" xlink:href="#BitstreamVeraSans-Roman-32"/>
      </g>
     </g>
    </g>
    <g id="xtick_6">
     <g id="line2d_11">
      <g>
       <use style="stroke:#000000;stroke-width:0.5;" x="230.865391414" xlink:href="#m93b0483c22" y="183.510819287"/>
      </g>
     </g>
     <g id="text_5">
      <!-- 0.25 -->
      <g transform="translate(220.498985164 195.109256787)scale(0.1 -0.1)">
       <use xlink:href="#BitstreamVeraSans-Roman-30"/>
       <use x="63.623046875" xlink:href="#BitstreamVeraSans-Roman-2e"/>
       <use x="95.41015625" xlink:href="#BitstreamVeraSans-Roman-32"/>
       <use x="159.033203125" xlink:href="#BitstreamVeraSans-Roman-35"/>
      </g>
     </g>
    </g>
    <g id="xtick_7">
     <g id="line2d_12">
      <defs>
       <path d="
M0 0
L0 -2" id="m177f7580d0" style="stroke:#000000;stroke-width:0.5;"/>
      </defs>
      <g>
       <use style="stroke:#000000;stroke-width:0.5;" x="30.6096156565" xlink:href="#m177f7580d0" y="183.510819287"/>
      </g>
     </g>
    </g>
    <g id="xtick_8">
     <g id="line2d_13">
      <g>
       <use style="stroke:#000000;stroke-width:0.5;" x="38.9536063131" xlink:href="#m177f7580d0" y="183.510819287"/>
      </g>
     </g>
    </g>
    <g id="xtick_9">
     <g id="line2d_14">
      <g>
       <use style="stroke:#000000;stroke-width:0.5;" x="47.2975969696" xlink:href="#m177f7580d0" y="183.510819287"/>
      </g>
     </g>
    </g>
    <g id="xtick_10">
     <g id="line2d_15">
      <g>
       <use style="stroke:#000000;stroke-width:0.5;" x="55.6415876262" xlink:href="#m177f7580d0" y="183.510819287"/>
      </g>
     </g>
    </g>
    <g id="xtick_11">
     <g id="line2d_16">
      <g>
       <use style="stroke:#000000;stroke-width:0.5;" x="72.3295689393" xlink:href="#m177f7580d0" y="183.510819287"/>
      </g>
     </g>
    </g>
    <g id="xtick_12">
     <g id="line2d_17">
      <g>
       <use style="stroke:#000000;stroke-width:0.5;" x="80.6735595958" xlink:href="#m177f7580d0" y="183.510819287"/>
      </g>
     </g>
    </g>
    <g id="xtick_13">
     <g id="line2d_18">
      <g>
       <use style="stroke:#000000;stroke-width:0.5;" x="89.0175502523" xlink:href="#m177f7580d0" y="183.510819287"/>
      </g>
     </g>
    </g>
    <g id="xtick_14">
     <g id="line2d_19">
      <g>
       <use style="stroke:#000000;stroke-width:0.5;" x="97.3615409089" xlink:href="#m177f7580d0" y="183.510819287"/>
      </g>
     </g>
    </g>
    <g id="xtick_15">
     <g id="line2d_20">
      <g>
       <use style="stroke:#000000;stroke-width:0.5;" x="114.049522222" xlink:href="#m177f7580d0" y="183.510819287"/>
      </g>
     </g>
    </g>
    <g id="xtick_16">
     <g id="line2d_21">
      <g>
       <use style="stroke:#000000;stroke-width:0.5;" x="122.393512879" xlink:href="#m177f7580d0" y="183.510819287"/>
      </g>
     </g>
    </g>
    <g id="xtick_17">
     <g id="line2d_22">
      <g>
       <use style="stroke:#000000;stroke-width:0.5;" x="130.737503535" xlink:href="#m177f7580d0" y="183.510819287"/>
      </g>
     </g>
    </g>
    <g id="xtick_18">
     <g id="line2d_23">
      <g>
       <use style="stroke:#000000;stroke-width:0.5;" x="139.081494192" xlink:href="#m177f7580d0" y="183.510819287"/>
      </g>
     </g>
    </g>
    <g id="xtick_19">
     <g id="line2d_24">
      <g>
       <use style="stroke:#000000;stroke-width:0.5;" x="155.769475505" xlink:href="#m177f7580d0" y="183.510819287"/>
      </g>
     </g>
    </g>
    <g id="xtick_20">
     <g id="line2d_25">
      <g>
       <use style="stroke:#000000;stroke-width:0.5;" x="164.113466161" xlink:href="#m177f7580d0" y="183.510819287"/>
      </g>
     </g>
    </g>
    <g id="xtick_21">
     <g id="line2d_26">
      <g>
       <use style="stroke:#000000;stroke-width:0.5;" x="172.457456818" xlink:href="#m177f7580d0" y="183.510819287"/>
      </g>
     </g>
    </g>
    <g id="xtick_22">
     <g id="line2d_27">
      <g>
       <use style="stroke:#000000;stroke-width:0.5;" x="180.801447474" xlink:href="#m177f7580d0" y="183.510819287"/>
      </g>
     </g>
    </g>
    <g id="xtick_23">
     <g id="line2d_28">
      <g>
       <use style="stroke:#000000;stroke-width:0.5;" x="197.489428787" xlink:href="#m177f7580d0" y="183.510819287"/>
      </g>
     </g>
    </g>
    <g id="xtick_24">
     <g id="line2d_29">
      <g>
       <use style="stroke:#000000;stroke-width:0.5;" x="205.833419444" xlink:href="#m177f7580d0" y="183.510819287"/>
      </g>
     </g>
    </g>
    <g id="xtick_25">
     <g id="line2d_30">
      <g>
       <use style="stroke:#000000;stroke-width:0.5;" x="214.177410101" xlink:href="#m177f7580d0" y="183.510819287"/>
      </g>
     </g>
    </g>
    <g id="xtick_26">
     <g id="line2d_31">
      <g>
       <use style="stroke:#000000;stroke-width:0.5;" x="222.521400757" xlink:href="#m177f7580d0" y="183.510819287"/>
      </g>
     </g>
    </g>
    <g id="xtick_27">
     <g id="line2d_32">
      <g>
       <use style="stroke:#000000;stroke-width:0.5;" x="239.20938207" xlink:href="#m177f7580d0" y="183.510819287"/>
      </g>
     </g>
    </g>
    <g id="text_6">
     <!-- $t$ -->
     <defs>
      <path d="
M6.20312 8.10938
Q6.20312 9.57812 6.5 10.8906
L13.7188 39.5938
L3.21875 39.5938
Q2.20312 39.5938 2.20312 40.9219
Q2.59375 43.1094 3.51562 43.1094
L14.5938 43.1094
L18.6094 59.4219
Q19 60.75 20.1719 61.6719
Q21.3438 62.5938 22.7969 62.5938
Q24.0781 62.5938 24.9219 61.8281
Q25.7812 61.0781 25.7812 59.8125
Q25.7812 59.5156 25.75 59.3438
Q25.7344 59.1875 25.6875 58.9844
L21.6875 43.1094
L31.9844 43.1094
Q33.0156 43.1094 33.0156 41.7969
Q32.9531 41.5469 32.8125 40.9531
Q32.6719 40.375 32.4219 39.9844
Q32.1719 39.5938 31.6875 39.5938
L20.7969 39.5938
L13.625 10.6875
Q12.8906 7.85938 12.8906 5.8125
Q12.8906 1.51562 15.8281 1.51562
Q20.2188 1.51562 23.6094 5.64062
Q27 9.76562 28.8125 14.7031
Q29.2031 15.2812 29.5938 15.2812
L30.8125 15.2812
Q31.2031 15.2812 31.4375 15.0156
Q31.6875 14.75 31.6875 14.4062
Q31.6875 14.2031 31.5938 14.1094
Q29.3906 8.0625 25.1875 3.46875
Q21 -1.125 15.5781 -1.125
Q11.625 -1.125 8.90625 1.45312
Q6.20312 4.04688 6.20312 8.10938" id="Cmmi10-74"/>
     </defs>
     <g transform="translate(261.761301775 183.510819287)scale(0.16 -0.16)">
      <use transform="translate(0.0 0.40625)" xlink:href="#Cmmi10-74"/>
     </g>
    </g>
   </g>
   <g id="matplotlib.axis_2">
    <g id="ytick_1">
     <g id="line2d_33">
      <defs>
       <path d="
M0 0
L4 0" id="m728421d6d4" style="stroke:#000000;stroke-width:0.5;"/>
      </defs>
      <g>
       <use style="stroke:#000000;stroke-width:0.5;" x="22.265625" xlink:href="#m728421d6d4" y="183.510819287"/>
      </g>
     </g>
    </g>
    <g id="ytick_2">
     <g id="line2d_34">
      <g>
       <use style="stroke:#000000;stroke-width:0.5;" x="22.265625" xlink:href="#m728421d6d4" y="160.96002328"/>
      </g>
     </g>
     <g id="text_7">
      <!-- 2 -->
      <g transform="translate(13.6375 163.71939828)scale(0.1 -0.1)">
       <use xlink:href="#BitstreamVeraSans-Roman-32"/>
      </g>
     </g>
    </g>
    <g id="ytick_3">
     <g id="line2d_35">
      <g>
       <use style="stroke:#000000;stroke-width:0.5;" x="22.265625" xlink:href="#m728421d6d4" y="138.409227272"/>
      </g>
     </g>
     <g id="text_8">
      <!-- 4 -->
      <defs>
       <path d="
M37.7969 64.3125
L12.8906 25.3906
L37.7969 25.3906
z

M35.2031 72.9062
L47.6094 72.9062
L47.6094 25.3906
L58.0156 25.3906
L58.0156 17.1875
L47.6094 17.1875
L47.6094 0
L37.7969 0
L37.7969 17.1875
L4.89062 17.1875
L4.89062 26.7031
z
" id="BitstreamVeraSans-Roman-34"/>
      </defs>
      <g transform="translate(12.953125 141.168602272)scale(0.1 -0.1)">
       <use xlink:href="#BitstreamVeraSans-Roman-34"/>
      </g>
     </g>
    </g>
    <g id="ytick_4">
     <g id="line2d_36">
      <g>
       <use style="stroke:#000000;stroke-width:0.5;" x="22.265625" xlink:href="#m728421d6d4" y="115.858431265"/>
      </g>
     </g>
     <g id="text_9">
      <!-- 6 -->
      <defs>
       <path d="
M33.0156 40.375
Q26.375 40.375 22.4844 35.8281
Q18.6094 31.2969 18.6094 23.3906
Q18.6094 15.5312 22.4844 10.9531
Q26.375 6.39062 33.0156 6.39062
Q39.6562 6.39062 43.5312 10.9531
Q47.4062 15.5312 47.4062 23.3906
Q47.4062 31.2969 43.5312 35.8281
Q39.6562 40.375 33.0156 40.375
M52.5938 71.2969
L52.5938 62.3125
Q48.875 64.0625 45.0938 64.9844
Q41.3125 65.9219 37.5938 65.9219
Q27.8281 65.9219 22.6719 59.3281
Q17.5312 52.7344 16.7969 39.4062
Q19.6719 43.6562 24.0156 45.9219
Q28.375 48.1875 33.5938 48.1875
Q44.5781 48.1875 50.9531 41.5156
Q57.3281 34.8594 57.3281 23.3906
Q57.3281 12.1562 50.6875 5.35938
Q44.0469 -1.42188 33.0156 -1.42188
Q20.3594 -1.42188 13.6719 8.26562
Q6.98438 17.9688 6.98438 36.375
Q6.98438 53.6562 15.1875 63.9375
Q23.3906 74.2188 37.2031 74.2188
Q40.9219 74.2188 44.7031 73.4844
Q48.4844 72.75 52.5938 71.2969" id="BitstreamVeraSans-Roman-36"/>
      </defs>
      <g transform="translate(13.23125 118.617806265)scale(0.1 -0.1)">
       <use xlink:href="#BitstreamVeraSans-Roman-36"/>
      </g>
     </g>
    </g>
    <g id="ytick_5">
     <g id="line2d_37">
      <g>
       <use style="stroke:#000000;stroke-width:0.5;" x="22.265625" xlink:href="#m728421d6d4" y="93.3076352579"/>
      </g>
     </g>
     <g id="text_10">
      <!-- 8 -->
      <defs>
       <path d="
M31.7812 34.625
Q24.75 34.625 20.7188 30.8594
Q16.7031 27.0938 16.7031 20.5156
Q16.7031 13.9219 20.7188 10.1562
Q24.75 6.39062 31.7812 6.39062
Q38.8125 6.39062 42.8594 10.1719
Q46.9219 13.9688 46.9219 20.5156
Q46.9219 27.0938 42.8906 30.8594
Q38.875 34.625 31.7812 34.625
M21.9219 38.8125
Q15.5781 40.375 12.0312 44.7188
Q8.5 49.0781 8.5 55.3281
Q8.5 64.0625 14.7188 69.1406
Q20.9531 74.2188 31.7812 74.2188
Q42.6719 74.2188 48.875 69.1406
Q55.0781 64.0625 55.0781 55.3281
Q55.0781 49.0781 51.5312 44.7188
Q48 40.375 41.7031 38.8125
Q48.8281 37.1562 52.7969 32.3125
Q56.7812 27.4844 56.7812 20.5156
Q56.7812 9.90625 50.3125 4.23438
Q43.8438 -1.42188 31.7812 -1.42188
Q19.7344 -1.42188 13.25 4.23438
Q6.78125 9.90625 6.78125 20.5156
Q6.78125 27.4844 10.7812 32.3125
Q14.7969 37.1562 21.9219 38.8125
M18.3125 54.3906
Q18.3125 48.7344 21.8438 45.5625
Q25.3906 42.3906 31.7812 42.3906
Q38.1406 42.3906 41.7188 45.5625
Q45.3125 48.7344 45.3125 54.3906
Q45.3125 60.0625 41.7188 63.2344
Q38.1406 66.4062 31.7812 66.4062
Q25.3906 66.4062 21.8438 63.2344
Q18.3125 60.0625 18.3125 54.3906" id="BitstreamVeraSans-Roman-38"/>
      </defs>
      <g transform="translate(13.265625 96.0670102579)scale(0.1 -0.1)">
       <use xlink:href="#BitstreamVeraSans-Roman-38"/>
      </g>
     </g>
    </g>
    <g id="ytick_6">
     <g id="line2d_38">
      <g>
       <use style="stroke:#000000;stroke-width:0.5;" x="22.265625" xlink:href="#m728421d6d4" y="70.7568392507"/>
      </g>
     </g>
     <g id="text_11">
      <!-- 10 -->
      <g transform="translate(7.303125 73.5162142507)scale(0.1 -0.1)">
       <use xlink:href="#BitstreamVeraSans-Roman-31"/>
       <use x="63.623046875" xlink:href="#BitstreamVeraSans-Roman-30"/>
      </g>
     </g>
    </g>
    <g id="ytick_7">
     <g id="line2d_39">
      <g>
       <use style="stroke:#000000;stroke-width:0.5;" x="22.265625" xlink:href="#m728421d6d4" y="48.2060432435"/>
      </g>
     </g>
     <g id="text_12">
      <!-- 12 -->
      <g transform="translate(7.640625 50.9654182435)scale(0.1 -0.1)">
       <use xlink:href="#BitstreamVeraSans-Roman-31"/>
       <use x="63.623046875" xlink:href="#BitstreamVeraSans-Roman-32"/>
      </g>
     </g>
    </g>
    <g id="ytick_8">
     <g id="line2d_40">
      <g>
       <use style="stroke:#000000;stroke-width:0.5;" x="22.265625" xlink:href="#m728421d6d4" y="25.6552472362"/>
      </g>
     </g>
     <g id="text_13">
      <!-- 14 -->
      <g transform="translate(7.2 28.4146222362)scale(0.1 -0.1)">
       <use xlink:href="#BitstreamVeraSans-Roman-31"/>
       <use x="63.623046875" xlink:href="#BitstreamVeraSans-Roman-34"/>
      </g>
     </g>
    </g>
    <g id="ytick_9">
     <g id="line2d_41">
      <defs>
       <path d="
M0 0
L2 0" id="mf0c55a9a47" style="stroke:#000000;stroke-width:0.5;"/>
      </defs>
      <g>
       <use style="stroke:#000000;stroke-width:0.5;" x="22.265625" xlink:href="#mf0c55a9a47" y="189.148518289"/>
      </g>
     </g>
    </g>
    <g id="ytick_10">
     <g id="line2d_42">
      <g>
       <use style="stroke:#000000;stroke-width:0.5;" x="22.265625" xlink:href="#mf0c55a9a47" y="177.873120285"/>
      </g>
     </g>
    </g>
    <g id="ytick_11">
     <g id="line2d_43">
      <g>
       <use style="stroke:#000000;stroke-width:0.5;" x="22.265625" xlink:href="#mf0c55a9a47" y="172.235421283"/>
      </g>
     </g>
    </g>
    <g id="ytick_12">
     <g id="line2d_44">
      <g>
       <use style="stroke:#000000;stroke-width:0.5;" x="22.265625" xlink:href="#mf0c55a9a47" y="166.597722281"/>
      </g>
     </g>
    </g>
    <g id="ytick_13">
     <g id="line2d_45">
      <g>
       <use style="stroke:#000000;stroke-width:0.5;" x="22.265625" xlink:href="#mf0c55a9a47" y="155.322324278"/>
      </g>
     </g>
    </g>
    <g id="ytick_14">
     <g id="line2d_46">
      <g>
       <use style="stroke:#000000;stroke-width:0.5;" x="22.265625" xlink:href="#mf0c55a9a47" y="149.684625276"/>
      </g>
     </g>
    </g>
    <g id="ytick_15">
     <g id="line2d_47">
      <g>
       <use style="stroke:#000000;stroke-width:0.5;" x="22.265625" xlink:href="#mf0c55a9a47" y="144.046926274"/>
      </g>
     </g>
    </g>
    <g id="ytick_16">
     <g id="line2d_48">
      <g>
       <use style="stroke:#000000;stroke-width:0.5;" x="22.265625" xlink:href="#mf0c55a9a47" y="132.77152827"/>
      </g>
     </g>
    </g>
    <g id="ytick_17">
     <g id="line2d_49">
      <g>
       <use style="stroke:#000000;stroke-width:0.5;" x="22.265625" xlink:href="#mf0c55a9a47" y="127.133829269"/>
      </g>
     </g>
    </g>
    <g id="ytick_18">
     <g id="line2d_50">
      <g>
       <use style="stroke:#000000;stroke-width:0.5;" x="22.265625" xlink:href="#mf0c55a9a47" y="121.496130267"/>
      </g>
     </g>
    </g>
    <g id="ytick_19">
     <g id="line2d_51">
      <g>
       <use style="stroke:#000000;stroke-width:0.5;" x="22.265625" xlink:href="#mf0c55a9a47" y="110.220732263"/>
      </g>
     </g>
    </g>
    <g id="ytick_20">
     <g id="line2d_52">
      <g>
       <use style="stroke:#000000;stroke-width:0.5;" x="22.265625" xlink:href="#mf0c55a9a47" y="104.583033261"/>
      </g>
     </g>
    </g>
    <g id="ytick_21">
     <g id="line2d_53">
      <g>
       <use style="stroke:#000000;stroke-width:0.5;" x="22.265625" xlink:href="#mf0c55a9a47" y="98.9453342597"/>
      </g>
     </g>
    </g>
    <g id="ytick_22">
     <g id="line2d_54">
      <g>
       <use style="stroke:#000000;stroke-width:0.5;" x="22.265625" xlink:href="#mf0c55a9a47" y="87.6699362561"/>
      </g>
     </g>
    </g>
    <g id="ytick_23">
     <g id="line2d_55">
      <g>
       <use style="stroke:#000000;stroke-width:0.5;" x="22.265625" xlink:href="#mf0c55a9a47" y="82.0322372543"/>
      </g>
     </g>
    </g>
    <g id="ytick_24">
     <g id="line2d_56">
      <g>
       <use style="stroke:#000000;stroke-width:0.5;" x="22.265625" xlink:href="#mf0c55a9a47" y="76.3945382525"/>
      </g>
     </g>
    </g>
    <g id="ytick_25">
     <g id="line2d_57">
      <g>
       <use style="stroke:#000000;stroke-width:0.5;" x="22.265625" xlink:href="#mf0c55a9a47" y="65.1191402489"/>
      </g>
     </g>
    </g>
    <g id="ytick_26">
     <g id="line2d_58">
      <g>
       <use style="stroke:#000000;stroke-width:0.5;" x="22.265625" xlink:href="#mf0c55a9a47" y="59.4814412471"/>
      </g>
     </g>
    </g>
    <g id="ytick_27">
     <g id="line2d_59">
      <g>
       <use style="stroke:#000000;stroke-width:0.5;" x="22.265625" xlink:href="#mf0c55a9a47" y="53.8437422453"/>
      </g>
     </g>
    </g>
    <g id="ytick_28">
     <g id="line2d_60">
      <g>
       <use style="stroke:#000000;stroke-width:0.5;" x="22.265625" xlink:href="#mf0c55a9a47" y="42.5683442416"/>
      </g>
     </g>
    </g>
    <g id="ytick_29">
     <g id="line2d_61">
      <g>
       <use style="stroke:#000000;stroke-width:0.5;" x="22.265625" xlink:href="#mf0c55a9a47" y="36.9306452398"/>
      </g>
     </g>
    </g>
    <g id="ytick_30">
     <g id="line2d_62">
      <g>
       <use style="stroke:#000000;stroke-width:0.5;" x="22.265625" xlink:href="#mf0c55a9a47" y="31.292946238"/>
      </g>
     </g>
    </g>
    <g id="ytick_31">
     <g id="line2d_63">
      <g>
       <use style="stroke:#000000;stroke-width:0.5;" x="22.265625" xlink:href="#mf0c55a9a47" y="20.0175482344"/>
      </g>
     </g>
    </g>
    <g id="ytick_32">
     <g id="line2d_64">
      <g>
       <use style="stroke:#000000;stroke-width:0.5;" x="22.265625" xlink:href="#mf0c55a9a47" y="14.3798492326"/>
      </g>
     </g>
    </g>
   </g>
   <g id="patch_3">
    <path d="
M17.7265 183.511
L253.761 183.511" style="fill:none;stroke:#000000;stroke-width:0.8;"/>
   </g>
   <g id="patch_4">
    <path d="
M22.2656 193.866
L22.2656 7.2" style="fill:none;stroke:#000000;stroke-width:0.8;"/>
   </g>
   <g id="legend_1">
    <g id="patch_5">
     <path d="
M173.961 90.9506
L247.761 90.9506
L247.761 13.2
L173.961 13.2
L173.961 90.9506
z
" style="fill:#e6e6e6;stroke:#000000;"/>
    </g>
    <g id="line2d_65">
     <path d="
M184.761 25.3181
L178.161 25.3181" style="fill:none;stroke:#ff00da;stroke-linecap:square;"/>
    </g>
    <g id="line2d_66"/>
    <g id="text_14">
     <!-- $p\left({x}_{{a}{0}}, {X}_{{a}{0}}\right)$ -->
     <defs>
      <path d="
M3.60938 0
Q2.59375 0 2.59375 1.3125
Q2.64062 1.5625 2.8125 2.1875
Q2.98438 2.82812 3.25 3.17188
Q3.51562 3.51562 4 3.51562
Q13.0938 3.51562 19.5781 10.2969
Q19.6719 10.4062 19.7969 10.4531
Q19.9219 10.5 19.9219 10.5
L41.7969 34.0781
L29.8906 62.7969
Q28.8594 64.1094 26.5625 64.4531
Q24.2656 64.7969 21.1875 64.7969
Q20.2188 64.7969 20.2188 66.1094
Q20.5625 67.3906 20.75 67.8438
Q20.9531 68.3125 21.9219 68.3125
L46.9219 68.3125
Q47.9062 68.3125 47.9062 67
Q47.8594 66.75 47.6875 66.1094
Q47.5156 65.4844 47.2344 65.1406
Q46.9688 64.7969 46.4844 64.7969
Q44.625 64.7969 42.6406 64.1875
Q40.6719 63.5781 39.8906 62.2031
L48.4844 41.5
L64.8906 59.0781
Q65.0469 59.4219 65.5781 60.2812
Q66.1094 61.1406 66.1094 61.9219
Q66.1094 63.375 64.8438 64.0781
Q63.5781 64.7969 61.8125 64.7969
Q60.7969 64.7969 60.7969 66.1094
Q61.1406 67.3906 61.3281 67.8438
Q61.5312 68.3125 62.5 68.3125
L84.1875 68.3125
Q84.7188 68.3125 84.9531 67.9219
Q85.2031 67.5312 85.2031 67
Q85.1562 66.75 85 66.1562
Q84.8594 65.5781 84.6094 65.1875
Q84.375 64.7969 83.8906 64.7969
Q79.25 64.7969 75.3594 63.1094
Q71.4844 61.4219 68.2188 58.0156
Q68.1719 57.9531 68.0938 57.9219
Q68.0156 57.9062 67.9219 57.8125
L49.8125 38.2812
L63.4844 5.51562
Q65.0938 3.51562 72.2188 3.51562
Q73.1875 3.51562 73.1875 2.20312
Q72.8594 0.875 72.625 0.4375
Q72.4062 0 71.4844 0
L46.4844 0
Q45.5156 0 45.5156 1.3125
Q45.5625 1.5625 45.7031 2.17188
Q45.8438 2.78125 46.1094 3.14062
Q46.3906 3.51562 46.7812 3.51562
Q48.7344 3.51562 50.7344 4.125
Q52.7344 4.73438 53.5156 6.10938
L43.1094 31
L22.9062 9.1875
Q22.75 8.84375 22.2188 8
Q21.6875 7.17188 21.6875 6.39062
Q21.6875 4.9375 23.0469 4.21875
Q24.4219 3.51562 25.9844 3.51562
Q27 3.51562 27 2.20312
Q26.6562 0.78125 26.4531 0.390625
Q26.2656 0 25.2969 0
z
" id="Cmmi10-58"/>
      <path d="
M25 -2.20312
Q12.75 -2.20312 8.32812 7.875
Q3.90625 17.9688 3.90625 31.8906
Q3.90625 40.5781 5.48438 48.2344
Q7.07812 55.9062 11.7812 61.25
Q16.5 66.6094 25 66.6094
Q31.5938 66.6094 35.7812 63.375
Q39.9844 60.1562 42.1875 55.0469
Q44.3906 49.9531 45.1875 44.1094
Q46 38.2812 46 31.8906
Q46 23.2969 44.4062 15.7969
Q42.8281 8.29688 38.1875 3.04688
Q33.5469 -2.20312 25 -2.20312
M25 0.390625
Q30.5625 0.390625 33.2969 6.09375
Q36.0312 11.8125 36.6719 18.75
Q37.3125 25.6875 37.3125 33.5
Q37.3125 41.0156 36.6719 47.3594
Q36.0312 53.7188 33.3125 58.8594
Q30.6094 64.0156 25 64.0156
Q19.3438 64.0156 16.6094 58.8281
Q13.875 53.6562 13.2344 47.3281
Q12.5938 41.0156 12.5938 33.5
Q12.5938 27.9375 12.8594 23
Q13.1406 18.0625 14.3125 12.8125
Q15.4844 7.5625 18.0938 3.96875
Q20.7031 0.390625 25 0.390625" id="Cmr10-30"/>
      <path d="
M31 -24.8125
Q25.4375 -20.4062 21.4062 -14.7188
Q17.3906 -9.03125 14.8125 -2.57812
Q12.25 3.85938 10.9844 10.8906
Q9.71875 17.9219 9.71875 25
Q9.71875 32.1719 10.9844 39.2031
Q12.25 46.2344 14.8594 52.7344
Q17.4844 59.2344 21.5312 64.8906
Q25.5938 70.5625 31 74.8125
Q31 75 31.5 75
L32.4219 75
Q32.7188 75 32.9531 74.7344
Q33.2031 74.4688 33.2031 74.125
Q33.2031 73.6875 33.0156 73.4844
Q28.125 68.7031 24.875 63.2344
Q21.625 57.7656 19.6406 51.5781
Q17.6719 45.4062 16.7969 38.7812
Q15.9219 32.1719 15.9219 25
Q15.9219 -6.78125 32.9062 -23.2969
Q33.2031 -23.5781 33.2031 -24.125
Q33.2031 -24.3594 32.9375 -24.6719
Q32.6719 -25 32.4219 -25
L31.5 -25
Q31 -25 31 -24.8125" id="Cmr10-28"/>
      <path d="
M6.5 -25
Q5.60938 -25 5.60938 -24.125
Q5.60938 -23.6875 5.8125 -23.4844
Q22.9062 -6.78125 22.9062 25
Q22.9062 56.7812 6 73.2969
Q5.60938 73.5312 5.60938 74.125
Q5.60938 74.4688 5.875 74.7344
Q6.15625 75 6.5 75
L7.42188 75
Q7.71875 75 7.90625 74.8125
Q15.0938 69.1406 19.875 61.0312
Q24.6562 52.9375 26.875 43.75
Q29.1094 34.5781 29.1094 25
Q29.1094 17.9219 27.9062 11.0625
Q26.7031 4.20312 24.0938 -2.45312
Q21.4844 -9.125 17.4844 -14.7656
Q13.4844 -20.4062 7.90625 -24.8125
Q7.71875 -25 7.42188 -25
z
" id="Cmr10-29"/>
      <path d="
M17.3906 -1.125
Q11.0781 -1.125 7.4375 3.64062
Q3.8125 8.40625 3.8125 14.8906
Q3.8125 21.2969 7.125 28.1719
Q10.4531 35.0625 16.0938 39.625
Q21.7344 44.1875 28.2188 44.1875
Q31.2031 44.1875 33.5469 42.5781
Q35.8906 40.9688 37.2031 38.1875
Q38.3281 42.1875 41.6094 42.1875
Q42.875 42.1875 43.7188 41.4219
Q44.5781 40.6719 44.5781 39.4062
Q44.5781 39.1094 44.5469 38.9531
Q44.5312 38.8125 44.4844 38.625
L37.5 10.6875
Q36.8125 7.71875 36.8125 5.8125
Q36.8125 1.51562 39.7031 1.51562
Q42.8281 1.51562 44.4531 5.48438
Q46.0938 9.46875 47.2188 14.7031
Q47.4062 15.2812 48 15.2812
L49.2188 15.2812
Q49.6094 15.2812 49.8438 14.9375
Q50.0938 14.5938 50.0938 14.3125
Q48.3438 7.32812 46.2656 3.09375
Q44.1875 -1.125 39.5 -1.125
Q36.1406 -1.125 33.5469 0.84375
Q30.9531 2.82812 30.3281 6.10938
Q23.875 -1.125 17.3906 -1.125
M17.4844 1.51562
Q21.0938 1.51562 24.4844 4.21875
Q27.875 6.9375 30.3281 10.5938
Q30.4219 10.6875 30.4219 10.8906
L35.7969 32.625
L35.8906 32.9062
Q35.2969 36.4688 33.3125 39.0312
Q31.3438 41.6094 27.9844 41.6094
Q24.6094 41.6094 21.7031 38.8438
Q18.7969 36.0781 16.7969 32.3281
Q14.8438 28.3281 13.0625 21.3438
Q11.2812 14.3594 11.2812 10.5
Q11.2812 7.03125 12.7656 4.26562
Q14.2656 1.51562 17.4844 1.51562" id="Cmmi10-61"/>
      <path d="
M-2.48438 -19.3906
Q-3.42188 -19.3906 -3.42188 -18.1094
Q-3.07812 -15.9219 -2.09375 -15.9219
Q1.03125 -15.9219 2.26562 -15.3594
Q3.51562 -14.7969 4.20312 -12.5
L15.4844 32.5156
Q16.2188 34.375 16.2188 37.3125
Q16.2188 41.6094 13.2812 41.6094
Q10.1562 41.6094 8.64062 37.8594
Q7.125 34.125 5.71875 28.4219
Q5.71875 27.7812 4.89062 27.7812
L3.71875 27.7812
Q3.46875 27.7812 3.17188 28.1406
Q2.875 28.5156 2.875 28.8125
Q3.95312 33.1562 4.95312 36.1719
Q5.95312 39.2031 8.07812 41.6875
Q10.2031 44.1875 13.375 44.1875
Q16.7969 44.1875 19.375 42.25
Q21.9688 40.3281 22.7031 37.0156
Q25.4375 40.1875 28.75 42.1875
Q32.0781 44.1875 35.5938 44.1875
Q39.7969 44.1875 42.8906 41.9375
Q46 39.7031 47.5625 36.0625
Q49.125 32.4219 49.125 28.2188
Q49.125 21.7812 45.8281 14.8906
Q42.5312 8.01562 36.8906 3.4375
Q31.25 -1.125 24.8125 -1.125
Q21.875 -1.125 19.5 0.53125
Q17.1406 2.20312 15.8281 4.89062
L11.2812 -12.8906
Q11.0312 -14.3594 10.9844 -14.5938
Q10.9844 -15.9219 17.5781 -15.9219
Q18.6094 -15.9219 18.6094 -17.1875
Q18.2656 -18.5 18.0469 -18.9375
Q17.8281 -19.3906 16.8906 -19.3906
z

M24.9062 1.51562
Q28.375 1.51562 31.3438 4.375
Q34.3281 7.23438 36.1875 10.7969
Q37.5469 13.4844 38.7344 17.3594
Q39.9375 21.2344 40.8125 25.625
Q41.7031 30.0312 41.7031 32.625
Q41.7031 34.9062 41.0938 36.9062
Q40.4844 38.9219 39.0938 40.2656
Q37.7031 41.6094 35.4062 41.6094
Q31.7344 41.6094 28.4844 38.9844
Q25.25 36.375 22.6094 32.5156
L22.6094 32.1719
L17.0938 10.1094
Q17.7812 6.54688 19.7344 4.03125
Q21.6875 1.51562 24.9062 1.51562" id="Cmmi10-70"/>
      <path d="
M7.8125 2.875
Q9.57812 1.51562 12.7969 1.51562
Q15.9219 1.51562 18.3125 4.51562
Q20.7031 7.51562 21.5781 11.0781
L26.125 28.8125
Q27.2031 33.6406 27.2031 35.4062
Q27.2031 37.8906 25.8125 39.75
Q24.4219 41.6094 21.9219 41.6094
Q18.75 41.6094 15.9688 39.625
Q13.1875 37.6406 11.2812 34.5938
Q9.375 31.5469 8.59375 28.4219
Q8.40625 27.7812 7.8125 27.7812
L6.59375 27.7812
Q5.8125 27.7812 5.8125 28.7188
L5.8125 29
Q6.78125 32.7188 9.125 36.25
Q11.4688 39.7969 14.8594 41.9844
Q18.2656 44.1875 22.125 44.1875
Q25.7812 44.1875 28.7344 42.2344
Q31.6875 40.2812 32.9062 36.9219
Q34.625 39.9844 37.2812 42.0781
Q39.9375 44.1875 43.1094 44.1875
Q45.2656 44.1875 47.5 43.4219
Q49.75 42.6719 51.1719 41.1094
Q52.5938 39.5469 52.5938 37.2031
Q52.5938 34.6719 50.9531 32.8281
Q49.3125 31 46.7812 31
Q45.1719 31 44.0938 32.0312
Q43.0156 33.0625 43.0156 34.625
Q43.0156 36.7188 44.4531 38.2969
Q45.9062 39.8906 47.9062 40.1875
Q46.0938 41.6094 42.9219 41.6094
Q39.7031 41.6094 37.3281 38.625
Q34.9688 35.6406 33.9844 31.9844
L29.5938 14.3125
Q28.5156 10.2969 28.5156 7.71875
Q28.5156 5.17188 29.9531 3.34375
Q31.3906 1.51562 33.7969 1.51562
Q38.4844 1.51562 42.1562 5.64062
Q45.8438 9.76562 47.0156 14.7031
Q47.2188 15.2812 47.7969 15.2812
L49.0312 15.2812
Q49.4219 15.2812 49.6562 15.0156
Q49.9062 14.75 49.9062 14.4062
Q49.9062 14.3125 49.8125 14.1094
Q48.3906 8.15625 43.8438 3.51562
Q39.3125 -1.125 33.5938 -1.125
Q29.9375 -1.125 26.9844 0.84375
Q24.0312 2.82812 22.7969 6.20312
Q21.2344 3.26562 18.4688 1.0625
Q15.7188 -1.125 12.5938 -1.125
Q10.4531 -1.125 8.17188 -0.359375
Q5.90625 0.390625 4.48438 1.95312
Q3.07812 3.51562 3.07812 5.90625
Q3.07812 8.25 4.70312 10.1719
Q6.34375 12.1094 8.79688 12.1094
Q10.4531 12.1094 11.5781 11.1094
Q12.7031 10.1094 12.7031 8.5
Q12.7031 6.39062 11.2969 4.82812
Q9.90625 3.26562 7.8125 2.875" id="Cmmi10-78"/>
      <path d="
M9.90625 -18.0156
Q9.90625 -17.5781 10.2969 -17.1875
Q13.9219 -13.7188 15.9219 -9.17188
Q17.9219 -4.64062 17.9219 0.390625
L17.9219 1.60938
Q16.3125 0 13.9219 0
Q11.625 0 10.0156 1.60938
Q8.40625 3.21875 8.40625 5.51562
Q8.40625 7.85938 10.0156 9.42188
Q11.625 10.9844 13.9219 10.9844
Q17.4844 10.9844 19 7.6875
Q20.5156 4.39062 20.5156 0.390625
Q20.5156 -5.17188 18.2812 -10.1719
Q16.0625 -15.1875 12.0156 -19.1875
Q11.625 -19.3906 11.375 -19.3906
Q10.8906 -19.3906 10.3906 -18.9375
Q9.90625 -18.5 9.90625 -18.0156" id="Cmmi10-3b"/>
     </defs>
     <g transform="translate(187.761301775 29.518125)scale(0.12 -0.12)">
      <use transform="translate(0.0 0.6875)" xlink:href="#Cmmi10-70"/>
      <use transform="translate(50.29296875 -2.5203125)scale(0.953640625)" xlink:href="#Cmr10-28"/>
      <use transform="translate(87.3099060059 0.6875)" xlink:href="#Cmmi10-78"/>
      <use transform="translate(144.389984131 -24.821875)scale(0.7)" xlink:href="#Cmmi10-61"/>
      <use transform="translate(181.338226318 -24.821875)scale(0.7)" xlink:href="#Cmr10-30"/>
      <use transform="translate(216.338226318 0.6875)" xlink:href="#Cmmi10-3b"/>
      <use transform="translate(246.006195068 0.6875)" xlink:href="#Cmmi10-58"/>
      <use transform="translate(328.818695068 -24.821875)scale(0.7)" xlink:href="#Cmmi10-61"/>
      <use transform="translate(365.766937256 -24.821875)scale(0.7)" xlink:href="#Cmr10-30"/>
      <use transform="translate(400.766937256 -2.5203125)scale(0.953640625)" xlink:href="#Cmr10-29"/>
     </g>
    </g>
    <g id="line2d_67">
     <path d="
M184.761 38.0363
L178.161 38.0363" style="fill:none;stroke:#4800ff;stroke-linecap:square;"/>
    </g>
    <g id="line2d_68"/>
    <g id="text_15">
     <!-- $b\left({x}_{{t}{0}}, {X}_{{t}{0}}\right)$ -->
     <defs>
      <path d="
M17.2812 -1.125
Q11.2344 -1.125 7.85938 3.60938
Q4.5 8.34375 4.5 14.7031
Q4.5 15.625 4.95312 18.3281
Q5.42188 21.0469 5.42188 21.6875
L15.0938 60.5
Q15.4844 62.2031 15.5781 63.1875
Q15.5781 64.7969 9.07812 64.7969
Q8.10938 64.7969 8.10938 66.1094
Q8.15625 66.3594 8.32812 66.9844
Q8.5 67.625 8.76562 67.9688
Q9.03125 68.3125 9.51562 68.3125
L23 69.3906
Q24.2188 69.3906 24.2188 68.1094
L16.7969 38.625
Q22.4688 44.1875 28.2188 44.1875
Q32.4688 44.1875 35.5156 41.9375
Q38.5781 39.7031 40.0938 36.0312
Q41.6094 32.375 41.6094 28.2188
Q41.6094 23.3906 39.7188 18.2344
Q37.8438 13.0938 34.5156 8.67188
Q31.2031 4.25 26.75 1.5625
Q22.3125 -1.125 17.2812 -1.125
M17.4844 1.51562
Q20.9062 1.51562 23.875 4.375
Q26.8594 7.23438 28.7188 10.7969
Q30.7188 14.7969 32.4531 21.6562
Q34.1875 28.5156 34.1875 32.625
Q34.1875 36.1875 32.6875 38.8906
Q31.2031 41.6094 27.9844 41.6094
Q24.3594 41.6094 21.0625 38.9375
Q17.7812 36.2812 15.2812 32.625
L12.5 21.2969
Q10.8906 14.9844 10.7969 11.1875
Q10.7969 7.42188 12.4219 4.46875
Q14.0625 1.51562 17.4844 1.51562" id="Cmmi10-62"/>
     </defs>
     <g transform="translate(187.761301775 42.23625)scale(0.12 -0.12)">
      <use transform="translate(0.0 0.609375)" xlink:href="#Cmmi10-62"/>
      <use transform="translate(42.919921875 -2.5984375)scale(0.953640625)" xlink:href="#Cmr10-28"/>
      <use transform="translate(79.9368591309 0.609375)" xlink:href="#Cmmi10-78"/>
      <use transform="translate(137.016937256 -24.9)scale(0.7)" xlink:href="#Cmmi10-74"/>
      <use transform="translate(162.275726318 -24.9)scale(0.7)" xlink:href="#Cmr10-30"/>
      <use transform="translate(197.275726318 0.609375)" xlink:href="#Cmmi10-3b"/>
      <use transform="translate(226.943695068 0.609375)" xlink:href="#Cmmi10-58"/>
      <use transform="translate(309.756195068 -24.9)scale(0.7)" xlink:href="#Cmmi10-74"/>
      <use transform="translate(335.014984131 -24.9)scale(0.7)" xlink:href="#Cmr10-30"/>
      <use transform="translate(370.014984131 -2.5984375)scale(0.953640625)" xlink:href="#Cmr10-29"/>
     </g>
    </g>
    <g id="line2d_69">
     <path d="
M184.761 50.7544
L178.161 50.7544" style="fill:none;stroke:#0091ff;stroke-linecap:square;"/>
    </g>
    <g id="line2d_70"/>
    <g id="text_16">
     <!-- $B\left({x}_{{t}{0}}, {X}_{{t}{0}}\right)$ -->
     <defs>
      <path d="
M4.98438 0
Q4 0 4 1.3125
Q4.04688 1.5625 4.1875 2.14062
Q4.34375 2.73438 4.57812 3.125
Q4.82812 3.51562 5.32812 3.51562
Q8.15625 3.51562 10.25 3.65625
Q12.3594 3.8125 13.8125 4.20312
Q14.9844 4.64062 15.7188 6.89062
L29.3906 61.8125
Q29.5938 62.7969 29.5938 63.1875
Q29.5938 64.2656 28.4219 64.4062
Q26.5156 64.7969 21.1875 64.7969
Q20.2188 64.7969 20.2188 66.1094
Q20.2656 66.3594 20.4062 66.9688
Q20.5625 67.5781 20.8281 67.9375
Q21.0938 68.3125 21.4844 68.3125
L57.3281 68.3125
Q60.5938 68.3125 63.7969 67.5
Q67 66.7031 69.7031 64.9375
Q72.4062 63.1875 74 60.5625
Q75.5938 57.9531 75.5938 54.5
Q75.5938 50.7344 73.6562 47.5
Q71.7344 44.2812 68.6719 41.8906
Q65.625 39.5 62.0781 37.9531
Q58.5469 36.4219 54.6875 35.6875
Q57.4219 35.6875 60.2188 34.6094
Q63.0312 33.5469 65.2344 31.6875
Q67.4375 29.8281 68.7812 27.2344
Q70.125 24.6562 70.125 21.6875
Q70.125 15.6719 65.9219 10.6875
Q61.7188 5.71875 55.3438 2.85938
Q48.9688 0 43.0156 0
z

M23.3906 4.29688
Q23.3906 3.51562 26.8125 3.51562
L41.1094 3.51562
Q46 3.51562 50.4844 6.21875
Q54.9844 8.9375 57.6875 13.4219
Q60.4062 17.9219 60.4062 22.7969
Q60.4062 25.7812 59.1562 28.4375
Q57.9062 31.1094 55.5625 32.6406
Q53.2188 34.1875 50.2031 34.1875
L30.7188 34.1875
L23.7812 6.5
Q23.3906 5.125 23.3906 4.29688
M31.3906 36.8125
L46.5781 36.8125
Q51.375 36.8125 55.8906 39.25
Q60.4062 41.7031 63.25 45.8906
Q66.1094 50.0938 66.1094 54.7812
Q66.1094 59.125 63.3906 61.9531
Q60.6875 64.7969 56.3906 64.7969
L42.6719 64.7969
Q39.9844 64.7969 39.0625 64.2969
Q38.1406 63.8125 37.5 61.375
z
" id="Cmmi10-42"/>
     </defs>
     <g transform="translate(187.761301775 54.954375)scale(0.12 -0.12)">
      <use transform="translate(0.0 0.6875)" xlink:href="#Cmmi10-42"/>
      <use transform="translate(75.78125 -2.5203125)scale(0.953640625)" xlink:href="#Cmr10-28"/>
      <use transform="translate(112.798187256 0.6875)" xlink:href="#Cmmi10-78"/>
      <use transform="translate(169.878265381 -24.821875)scale(0.7)" xlink:href="#Cmmi10-74"/>
      <use transform="translate(195.137054443 -24.821875)scale(0.7)" xlink:href="#Cmr10-30"/>
      <use transform="translate(230.137054443 0.6875)" xlink:href="#Cmmi10-3b"/>
      <use transform="translate(259.805023193 0.6875)" xlink:href="#Cmmi10-58"/>
      <use transform="translate(342.617523193 -24.821875)scale(0.7)" xlink:href="#Cmmi10-74"/>
      <use transform="translate(367.876312256 -24.821875)scale(0.7)" xlink:href="#Cmr10-30"/>
      <use transform="translate(402.876312256 -2.5203125)scale(0.953640625)" xlink:href="#Cmr10-29"/>
     </g>
    </g>
    <g id="line2d_71">
     <path d="
M184.761 63.4725
L178.161 63.4725" style="fill:none;stroke:#ffda00;stroke-linecap:square;"/>
    </g>
    <g id="line2d_72"/>
    <g id="text_17">
     <!-- $\mathit{Nhat}_{0}$ -->
     <defs>
      <path d="
M5.32812 1.8125
Q5.32812 2.39062 5.42188 2.6875
L19.9219 60.5
Q20.3125 62.2031 20.4062 63.1875
Q20.4062 64.7969 13.9219 64.7969
Q12.8906 64.7969 12.8906 66.1094
Q12.9375 66.3594 13.1094 66.9844
Q13.2812 67.625 13.5469 67.9688
Q13.8125 68.3125 14.3125 68.3125
L27.7812 69.3906
L28.0781 69.3906
Q28.0781 69.2812 28.4219 69.1094
Q28.7656 68.9531 28.8125 68.8906
Q29 68.4062 29 68.1094
L21.1875 36.9219
Q27.3438 44.1875 35.7969 44.1875
Q39.3125 44.1875 41.875 42.9688
Q44.4375 41.75 45.875 39.2812
Q47.3125 36.8125 47.3125 33.4062
Q47.3125 29.2969 45.4844 23.4844
Q43.6562 17.6719 40.9219 10.5
Q39.5 7.23438 39.5 4.5
Q39.5 1.51562 41.7969 1.51562
Q45.7031 1.51562 48.3125 5.6875
Q50.9219 9.85938 52 14.7031
Q52.2031 15.2812 52.7812 15.2812
L54 15.2812
Q54.3906 15.2812 54.6406 15.0156
Q54.8906 14.75 54.8906 14.4062
Q54.8906 14.3125 54.7812 14.1094
Q53.9062 10.5 52.1719 7
Q50.4375 3.51562 47.7969 1.1875
Q45.1719 -1.125 41.6094 -1.125
Q38.0938 -1.125 35.5938 1.29688
Q33.1094 3.71875 33.1094 7.17188
Q33.1094 9.03125 33.8906 11.0781
Q36.7188 18.6094 38.5938 24.5156
Q40.4844 30.4219 40.4844 34.9062
Q40.4844 37.7969 39.3594 39.7031
Q38.2344 41.6094 35.5938 41.6094
Q30.2188 41.6094 26.2188 38.3125
Q22.2188 35.0156 19.2812 29.5938
L12.5 2.29688
Q12.1094 0.78125 10.9844 -0.171875
Q9.85938 -1.125 8.40625 -1.125
Q7.125 -1.125 6.21875 -0.265625
Q5.32812 0.59375 5.32812 1.8125" id="Cmmi10-68"/>
      <path d="
M4.6875 0
Q3.71875 0 3.71875 1.3125
Q3.76562 1.5625 3.90625 2.17188
Q4.04688 2.78125 4.3125 3.14062
Q4.59375 3.51562 4.98438 3.51562
Q14.5469 3.51562 16.1094 9.625
L29.6875 64.3125
Q26.9062 64.7969 20.9062 64.7969
Q19.9219 64.7969 19.9219 66.1094
Q19.9688 66.3594 20.1094 66.9688
Q20.2656 67.5781 20.5312 67.9375
Q20.7969 68.3125 21.1875 68.3125
L38.4844 68.3125
Q39.2031 68.3125 39.4062 67.6719
L61.625 14.7969
L72.7031 59.0781
Q72.9062 60.1562 72.9062 60.5938
Q72.9062 64.7969 65.1875 64.7969
Q64.2031 64.7969 64.2031 66.1094
Q64.5469 67.3906 64.7344 67.8438
Q64.9375 68.3125 65.9219 68.3125
L87.3125 68.3125
Q88.2812 68.3125 88.2812 67
Q88.2344 66.75 88.0781 66.1406
Q87.9375 65.5312 87.6719 65.1562
Q87.4062 64.7969 87.0156 64.7969
Q77.4375 64.7969 75.875 58.6875
L61.5312 0.875
Q61.1875 0 60.5 0
L59.2812 0
Q58.5938 0 58.4062 0.6875
L32.9062 61.1875
L32.7188 61.8125
Q32.5156 62.0156 32.5156 62.1094
L19.2812 9.1875
Q19.1875 8.9375 19.1406 8.5625
Q19.0938 8.20312 19 7.71875
Q19 5.125 21.2344 4.3125
Q23.4844 3.51562 26.8125 3.51562
Q27.7812 3.51562 27.7812 2.20312
Q27.4375 0.828125 27.1875 0.40625
Q26.9531 0 26.125 0
z
" id="Cmmi10-4e"/>
     </defs>
     <g transform="translate(187.761301775 67.6725)scale(0.12 -0.12)">
      <use transform="translate(0.0 0.609375)" xlink:href="#Cmmi10-4e"/>
      <use transform="translate(80.322265625 0.609375)" xlink:href="#Cmmi10-68"/>
      <use transform="translate(137.939453125 0.609375)" xlink:href="#Cmmi10-61"/>
      <use transform="translate(190.72265625 0.609375)" xlink:href="#Cmmi10-74"/>
      <use transform="translate(226.806640625 -24.9)scale(0.7)" xlink:href="#Cmr10-30"/>
     </g>
    </g>
    <g id="line2d_73">
     <path d="
M184.761 76.1906
L178.161 76.1906" style="fill:none;stroke:#ff0000;stroke-linecap:square;"/>
    </g>
    <g id="line2d_74"/>
    <g id="text_18">
     <!-- $\mathit{nhat}_{0}$ -->
     <defs>
      <path d="
M7.71875 1.70312
Q7.71875 2.29688 7.8125 2.59375
L15.2812 32.4219
Q16.0156 35.2031 16.0156 37.3125
Q16.0156 41.6094 13.0938 41.6094
Q9.96875 41.6094 8.45312 37.8594
Q6.9375 34.125 5.51562 28.4219
Q5.51562 28.125 5.21875 27.9531
Q4.9375 27.7812 4.6875 27.7812
L3.51562 27.7812
Q3.17188 27.7812 2.92188 28.1406
Q2.6875 28.5156 2.6875 28.8125
Q3.76562 33.1562 4.76562 36.1719
Q5.76562 39.2031 7.89062 41.6875
Q10.0156 44.1875 13.1875 44.1875
Q16.9375 44.1875 19.8125 41.8125
Q22.7031 39.4531 22.7031 35.7969
Q25.6875 39.7031 29.6875 41.9375
Q33.6875 44.1875 38.1875 44.1875
Q41.75 44.1875 44.3281 42.9688
Q46.9219 41.75 48.3594 39.2812
Q49.8125 36.8125 49.8125 33.4062
Q49.8125 29.2969 47.9688 23.4844
Q46.1406 17.6719 43.4062 10.5
Q42 7.23438 42 4.5
Q42 1.51562 44.2812 1.51562
Q48.1875 1.51562 50.7969 5.70312
Q53.4219 9.90625 54.5 14.7031
Q54.6875 15.2812 55.3281 15.2812
L56.5 15.2812
Q56.8906 15.2812 57.1562 15.0312
Q57.4219 14.7969 57.4219 14.4062
Q57.4219 14.3125 57.3281 14.1094
Q55.9531 8.45312 52.5625 3.65625
Q49.1719 -1.125 44.0938 -1.125
Q40.5781 -1.125 38.0781 1.29688
Q35.5938 3.71875 35.5938 7.17188
Q35.5938 9.03125 36.375 11.0781
Q37.6406 14.3594 39.2812 18.8906
Q40.9219 23.4375 41.9688 27.5781
Q43.0156 31.7344 43.0156 34.9062
Q43.0156 37.7031 41.8594 39.6562
Q40.7188 41.6094 37.9844 41.6094
Q34.3281 41.6094 31.25 39.9844
Q28.1719 38.375 25.875 35.7188
Q23.5781 33.0625 21.6875 29.3906
L14.8906 2.20312
Q14.5469 0.828125 13.3438 -0.140625
Q12.1562 -1.125 10.6875 -1.125
Q9.46875 -1.125 8.59375 -0.34375
Q7.71875 0.4375 7.71875 1.70312" id="Cmmi10-6e"/>
     </defs>
     <g transform="translate(187.761301775 80.390625)scale(0.12 -0.12)">
      <use transform="translate(0.0 0.609375)" xlink:href="#Cmmi10-6e"/>
      <use transform="translate(60.009765625 0.609375)" xlink:href="#Cmmi10-68"/>
      <use transform="translate(117.626953125 0.609375)" xlink:href="#Cmmi10-61"/>
      <use transform="translate(170.41015625 0.609375)" xlink:href="#Cmmi10-74"/>
      <use transform="translate(206.494140625 -24.9)scale(0.7)" xlink:href="#Cmr10-30"/>
     </g>
    </g>
   </g>
  </g>
 </g>
 <defs>
  <clipPath id="pea1976232f">
   <rect height="186.665784718" width="236.034807692" x="17.7264940828" y="7.2"/>
  </clipPath>
 </defs>
</svg>
