<?xml version="1.0" encoding="utf-8" standalone="no"?>
<!DOCTYPE svg PUBLIC "-//W3C//DTD SVG 1.1//EN"
  "http://www.w3.org/Graphics/SVG/1.1/DTD/svg11.dtd">
<!-- Created with matplotlib (http://matplotlib.org/) -->
<svg height="346pt" version="1.1" viewBox="0 0 320 346" width="320pt" xmlns="http://www.w3.org/2000/svg" xmlns:xlink="http://www.w3.org/1999/xlink">
 <defs>
  <style type="text/css">
*{stroke-linecap:butt;stroke-linejoin:round;}
  </style>
 </defs>
 <g id="figure_1">
  <g id="patch_1">
   <path d="
M-6.10623e-16 346.203
L320.649 346.203
L320.649 0
L-6.10623e-16 0
z
" style="fill:#ffffff;"/>
  </g>
  <g id="axes_1">
   <g id="patch_2">
    <path d="
M9.4232 339.003
L288.489 339.003
L288.489 30.685
L9.4232 30.685
z
" style="fill:#ffffff;"/>
   </g>
   <g id="patch_3">
    <path clip-path="url(#pba3918e046)" d="
M14.7898 333.074
Q20.8302 327.034 25.2894 322.575" style="fill:none;stroke:#ff0000;stroke-linecap:round;stroke-width:2.0;"/>
    <path clip-path="url(#pba3918e046)" d="
M14.6828 326.11
L25.2894 322.575
L21.7539 333.181
L14.6828 326.11
z
" style="fill:#ff0000;stroke:#ff0000;stroke-linecap:round;stroke-width:2.0;"/>
   </g>
   <g id="patch_4">
    <path clip-path="url(#pba3918e046)" d="
M263.566 87.5831
Q267.942 81.5427 271.005 77.3133" style="fill:none;stroke:#ff0000;stroke-linecap:round;stroke-width:2.0;"/>
    <path clip-path="url(#pba3918e046)" d="
M261.09 82.479
L271.005 77.3133
L269.188 88.3451
L261.09 82.479
z
" style="fill:#ff0000;stroke:#ff0000;stroke-linecap:round;stroke-width:2.0;"/>
   </g>
   <g id="patch_5">
    <path clip-path="url(#pba3918e046)" d="
M263.566 87.5831
Q265.052 86.256 264.87 86.4185" style="fill:none;stroke:#008000;stroke-linecap:round;stroke-width:2.0;"/>
    <path clip-path="url(#pba3918e046)" d="
M254.081 89.3505
L264.87 86.4185
L260.743 96.8089
L254.081 89.3505
z
" style="fill:#008000;stroke:#008000;stroke-linecap:round;stroke-width:2.0;"/>
   </g>
   <g id="patch_6">
    <path clip-path="url(#pba3918e046)" d="
M263.566 87.5831
Q271.858 77.9752 278.689 70.0601" style="fill:none;stroke:#800080;stroke-linecap:round;stroke-width:2.0;"/>
    <path clip-path="url(#pba3918e046)" d="
M268.37 74.3639
L278.689 70.0601
L275.941 80.8974
L268.37 74.3639
z
" style="fill:#800080;stroke:#800080;stroke-linecap:round;stroke-width:2.0;"/>
   </g>
   <g id="patch_7">
    <path clip-path="url(#pba3918e046)" d="
M263.566 87.5831
Q273.344 76.6481 281.631 67.3801" style="fill:none;stroke:#0000ff;stroke-linecap:round;stroke-width:2.0;"/>
    <path clip-path="url(#pba3918e046)" d="
M271.239 71.5018
L281.631 67.3801
L278.693 78.1674
L271.239 71.5018
z
" style="fill:#0000ff;stroke:#0000ff;stroke-linecap:round;stroke-width:2.0;"/>
   </g>
   <g id="patch_8">
    <path clip-path="url(#pba3918e046)" d="
M260.281 84.2978
Q266.321 79.9226 270.551 76.8592" style="fill:none;stroke:#ff0000;stroke-linecap:round;stroke-width:2.0;"/>
    <path clip-path="url(#pba3918e046)" d="
M259.519 78.6759
L270.551 76.8592
L265.385 86.7746
L259.519 78.6759
z
" style="fill:#ff0000;stroke:#ff0000;stroke-linecap:round;stroke-width:2.0;"/>
   </g>
   <g id="patch_9">
    <path clip-path="url(#pba3918e046)" d="
M260.281 84.2978
Q261.608 82.8119 261.446 82.9938" style="fill:none;stroke:#008000;stroke-linecap:round;stroke-width:2.0;"/>
    <path clip-path="url(#pba3918e046)" d="
M251.055 87.1216
L261.446 82.9938
L258.514 93.7828
L251.055 87.1216
z
" style="fill:#008000;stroke:#008000;stroke-linecap:round;stroke-width:2.0;"/>
   </g>
   <g id="patch_10">
    <path clip-path="url(#pba3918e046)" d="
M260.281 84.2978
Q269.889 76.0059 277.804 69.175" style="fill:none;stroke:#800080;stroke-linecap:round;stroke-width:2.0;"/>
    <path clip-path="url(#pba3918e046)" d="
M266.967 71.9233
L277.804 69.175
L273.5 79.4938
L266.967 71.9233
z
" style="fill:#800080;stroke:#800080;stroke-linecap:round;stroke-width:2.0;"/>
   </g>
   <g id="patch_11">
    <path clip-path="url(#pba3918e046)" d="
M260.281 84.2978
Q271.216 74.52 280.484 66.2327" style="fill:none;stroke:#0000ff;stroke-linecap:round;stroke-width:2.0;"/>
    <path clip-path="url(#pba3918e046)" d="
M269.697 69.1711
L280.484 66.2327
L276.362 76.6256
L269.697 69.1711
z
" style="fill:#0000ff;stroke:#0000ff;stroke-linecap:round;stroke-width:2.0;"/>
   </g>
   <g id="patch_12">
    <path clip-path="url(#pba3918e046)" d="
M14.7898 333.074
Q19.165 328.699 21.959 325.905" style="fill:none;stroke:#ff0000;stroke-linecap:round;stroke-width:2.0;"/>
    <path clip-path="url(#pba3918e046)" d="
M11.3524 329.441
L21.959 325.905
L18.4234 336.512
L11.3524 329.441
z
" style="fill:#ff0000;stroke:#ff0000;stroke-linecap:round;stroke-width:2.0;"/>
   </g>
   <g id="line2d_1">
    <path clip-path="url(#pba3918e046)" d="
M14.7898 333.074
L14.7898 333.074" style="fill:none;stroke:#ff0000;stroke-linecap:square;"/>
   </g>
   <g id="line2d_2">
    <path clip-path="url(#pba3918e046)" d="
M14.7898 333.074
L14.7898 333.074" style="fill:none;stroke:#808080;stroke-linecap:square;"/>
   </g>
   <g id="line2d_3">
    <path clip-path="url(#pba3918e046)" d="
M14.7898 333.074
L14.7898 333.074" style="fill:none;stroke:#808080;stroke-linecap:square;"/>
   </g>
   <g id="line2d_4">
    <path clip-path="url(#pba3918e046)" d="
M263.566 87.5831
L272.672 77.5614
L276.769 73.0816
L276.769 73.0816" style="fill:none;stroke:#ff0000;stroke-linecap:square;"/>
   </g>
   <g id="line2d_5">
    <path clip-path="url(#pba3918e046)" d="
M251.369 85.7131
L258.27 86.3439
L261.85 86.8687
L263.223 87.2519
L263.56 87.5147
L263.501 87.7003
L263.148 87.9061
L262.076 88.2097
L259.794 88.5918
L255.431 89.0736
L250.831 89.453
L250.831 89.453" style="fill:none;stroke:#808080;stroke-linecap:square;"/>
   </g>
   <g id="line2d_6">
    <path clip-path="url(#pba3918e046)" d="
M249.834 135.267
L252.384 128.95
L254.843 122.254
L257.001 115.719
L258.878 109.338
L260.571 102.777
L261.999 96.3333
L263.202 89.8475
L264.173 83.3357
L264.892 76.9813
L265.393 70.4976
L265.649 64.3949
L265.695 58.0214
L265.514 51.6658
L265.1 45.2157
L264.584 39.8995
L264.584 39.8995" style="fill:none;stroke:#808080;stroke-linecap:square;"/>
   </g>
   <g id="line2d_7">
    <path clip-path="url(#pba3918e046)" d="
M260.281 84.2978
L270.303 75.1921
L274.783 71.0956
L274.783 71.0956" style="fill:none;stroke:#ff0000;stroke-linecap:square;"/>
   </g>
   <g id="line2d_8">
    <path clip-path="url(#pba3918e046)" d="
M250.682 84.0285
L260.433 84.2582
L260.445 84.2686
L260.425 84.2777
L260.425 84.2777
L259.808 84.3277
L254.884 84.4467
L244.948 84.567
L244.948 84.567" style="fill:none;stroke:#808080;stroke-linecap:square;"/>
   </g>
   <g id="line2d_9">
    <path clip-path="url(#pba3918e046)" d="
M247.565 131.981
L249.869 125.969
L252.236 119.156
L254.141 113.032
L255.872 106.773
L257.374 100.556
L258.753 93.8457
L259.82 87.5347
L260.687 81.0323
L261.289 74.8819
L261.685 68.5938
L261.859 62.4622
L261.818 56.1161
L261.548 49.7214
L261.037 43.1894
L260.356 37.1825
L260.281 36.6142
L260.281 36.6142" style="fill:none;stroke:#808080;stroke-linecap:square;"/>
   </g>
   <g id="line2d_10">
    <path clip-path="url(#pba3918e046)" d="
M14.7898 333.074
L14.7898 333.074" style="fill:none;stroke:#ff0000;stroke-linecap:square;"/>
   </g>
   <g id="line2d_11">
    <path clip-path="url(#pba3918e046)" d="
M14.7898 333.074
L14.7898 333.074" style="fill:none;stroke:#808080;stroke-linecap:square;"/>
   </g>
   <g id="line2d_12">
    <path clip-path="url(#pba3918e046)" d="
M14.7898 333.074
L14.7898 333.074" style="fill:none;stroke:#808080;stroke-linecap:square;"/>
   </g>
   <g id="matplotlib.axis_1">
    <g id="xtick_1">
     <g id="line2d_13">
      <defs>
       <path d="
M0 0
L0 -4" id="m93b0483c22" style="stroke:#000000;stroke-width:0.5;"/>
      </defs>
      <g>
       <use style="stroke:#000000;stroke-width:0.5;" x="14.78984375" xlink:href="#m93b0483c22" y="83.7484547595"/>
      </g>
     </g>
     <g id="text_1">
      <!-- -20 -->
      <defs>
       <path d="
M19.1875 8.29688
L53.6094 8.29688
L53.6094 0
L7.32812 0
L7.32812 8.29688
Q12.9375 14.1094 22.625 23.8906
Q32.3281 33.6875 34.8125 36.5312
Q39.5469 41.8438 41.4219 45.5312
Q43.3125 49.2188 43.3125 52.7812
Q43.3125 58.5938 39.2344 62.25
Q35.1562 65.9219 28.6094 65.9219
Q23.9688 65.9219 18.8125 64.3125
Q13.6719 62.7031 7.8125 59.4219
L7.8125 69.3906
Q13.7656 71.7812 18.9375 73
Q24.125 74.2188 28.4219 74.2188
Q39.75 74.2188 46.4844 68.5469
Q53.2188 62.8906 53.2188 53.4219
Q53.2188 48.9219 51.5312 44.8906
Q49.8594 40.875 45.4062 35.4062
Q44.1875 33.9844 37.6406 27.2188
Q31.1094 20.4531 19.1875 8.29688" id="BitstreamVeraSans-Roman-32"/>
       <path d="
M31.7812 66.4062
Q24.1719 66.4062 20.3281 58.9062
Q16.5 51.4219 16.5 36.375
Q16.5 21.3906 20.3281 13.8906
Q24.1719 6.39062 31.7812 6.39062
Q39.4531 6.39062 43.2812 13.8906
Q47.125 21.3906 47.125 36.375
Q47.125 51.4219 43.2812 58.9062
Q39.4531 66.4062 31.7812 66.4062
M31.7812 74.2188
Q44.0469 74.2188 50.5156 64.5156
Q56.9844 54.8281 56.9844 36.375
Q56.9844 17.9688 50.5156 8.26562
Q44.0469 -1.42188 31.7812 -1.42188
Q19.5312 -1.42188 13.0625 8.26562
Q6.59375 17.9688 6.59375 36.375
Q6.59375 54.8281 13.0625 64.5156
Q19.5312 74.2188 31.7812 74.2188" id="BitstreamVeraSans-Roman-30"/>
       <path d="
M4.89062 31.3906
L31.2031 31.3906
L31.2031 23.3906
L4.89062 23.3906
z
" id="BitstreamVeraSans-Roman-2d"/>
      </defs>
      <g transform="translate(7.2 95.3468922595)scale(0.1 -0.1)">
       <use xlink:href="#BitstreamVeraSans-Roman-2d"/>
       <use x="36.083984375" xlink:href="#BitstreamVeraSans-Roman-32"/>
       <use x="99.70703125" xlink:href="#BitstreamVeraSans-Roman-30"/>
      </g>
     </g>
    </g>
    <g id="xtick_2">
     <g id="line2d_14">
      <g>
       <use style="stroke:#000000;stroke-width:0.5;" x="77.1213045793" xlink:href="#m93b0483c22" y="83.7484547595"/>
      </g>
     </g>
     <g id="text_2">
      <!-- -15 -->
      <defs>
       <path d="
M12.4062 8.29688
L28.5156 8.29688
L28.5156 63.9219
L10.9844 60.4062
L10.9844 69.3906
L28.4219 72.9062
L38.2812 72.9062
L38.2812 8.29688
L54.3906 8.29688
L54.3906 0
L12.4062 0
z
" id="BitstreamVeraSans-Roman-31"/>
       <path d="
M10.7969 72.9062
L49.5156 72.9062
L49.5156 64.5938
L19.8281 64.5938
L19.8281 46.7344
Q21.9688 47.4688 24.1094 47.8281
Q26.2656 48.1875 28.4219 48.1875
Q40.625 48.1875 47.75 41.5
Q54.8906 34.8125 54.8906 23.3906
Q54.8906 11.625 47.5625 5.09375
Q40.2344 -1.42188 26.9062 -1.42188
Q22.3125 -1.42188 17.5469 -0.640625
Q12.7969 0.140625 7.71875 1.70312
L7.71875 11.625
Q12.1094 9.23438 16.7969 8.0625
Q21.4844 6.89062 26.7031 6.89062
Q35.1562 6.89062 40.0781 11.3281
Q45.0156 15.7656 45.0156 23.3906
Q45.0156 31 40.0781 35.4375
Q35.1562 39.8906 26.7031 39.8906
Q22.75 39.8906 18.8125 39.0156
Q14.8906 38.1406 10.7969 36.2812
z
" id="BitstreamVeraSans-Roman-35"/>
      </defs>
      <g transform="translate(69.6361483293 95.3468922595)scale(0.1 -0.1)">
       <use xlink:href="#BitstreamVeraSans-Roman-2d"/>
       <use x="36.083984375" xlink:href="#BitstreamVeraSans-Roman-31"/>
       <use x="99.70703125" xlink:href="#BitstreamVeraSans-Roman-35"/>
      </g>
     </g>
    </g>
    <g id="xtick_3">
     <g id="line2d_15">
      <g>
       <use style="stroke:#000000;stroke-width:0.5;" x="139.452765409" xlink:href="#m93b0483c22" y="83.7484547595"/>
      </g>
     </g>
     <g id="text_3">
      <!-- -10 -->
      <g transform="translate(131.862921659 95.3468922595)scale(0.1 -0.1)">
       <use xlink:href="#BitstreamVeraSans-Roman-2d"/>
       <use x="36.083984375" xlink:href="#BitstreamVeraSans-Roman-31"/>
       <use x="99.70703125" xlink:href="#BitstreamVeraSans-Roman-30"/>
      </g>
     </g>
    </g>
    <g id="xtick_4">
     <g id="line2d_16">
      <g>
       <use style="stroke:#000000;stroke-width:0.5;" x="201.784226238" xlink:href="#m93b0483c22" y="83.7484547595"/>
      </g>
     </g>
     <g id="text_4">
      <!-- -5 -->
      <g transform="translate(197.480319988 95.3468922595)scale(0.1 -0.1)">
       <use xlink:href="#BitstreamVeraSans-Roman-2d"/>
       <use x="36.083984375" xlink:href="#BitstreamVeraSans-Roman-35"/>
      </g>
     </g>
    </g>
    <g id="xtick_5">
     <g id="line2d_17">
      <g>
       <use style="stroke:#000000;stroke-width:0.5;" x="264.115687067" xlink:href="#m93b0483c22" y="83.7484547595"/>
      </g>
     </g>
    </g>
    <g id="xtick_6">
     <g id="line2d_18">
      <defs>
       <path d="
M0 0
L0 -2" id="m177f7580d0" style="stroke:#000000;stroke-width:0.5;"/>
      </defs>
      <g>
       <use style="stroke:#000000;stroke-width:0.5;" x="27.2561359159" xlink:href="#m177f7580d0" y="83.7484547595"/>
      </g>
     </g>
    </g>
    <g id="xtick_7">
     <g id="line2d_19">
      <g>
       <use style="stroke:#000000;stroke-width:0.5;" x="39.7224280817" xlink:href="#m177f7580d0" y="83.7484547595"/>
      </g>
     </g>
    </g>
    <g id="xtick_8">
     <g id="line2d_20">
      <g>
       <use style="stroke:#000000;stroke-width:0.5;" x="52.1887202476" xlink:href="#m177f7580d0" y="83.7484547595"/>
      </g>
     </g>
    </g>
    <g id="xtick_9">
     <g id="line2d_21">
      <g>
       <use style="stroke:#000000;stroke-width:0.5;" x="64.6550124135" xlink:href="#m177f7580d0" y="83.7484547595"/>
      </g>
     </g>
    </g>
    <g id="xtick_10">
     <g id="line2d_22">
      <g>
       <use style="stroke:#000000;stroke-width:0.5;" x="89.5875967452" xlink:href="#m177f7580d0" y="83.7484547595"/>
      </g>
     </g>
    </g>
    <g id="xtick_11">
     <g id="line2d_23">
      <g>
       <use style="stroke:#000000;stroke-width:0.5;" x="102.053888911" xlink:href="#m177f7580d0" y="83.7484547595"/>
      </g>
     </g>
    </g>
    <g id="xtick_12">
     <g id="line2d_24">
      <g>
       <use style="stroke:#000000;stroke-width:0.5;" x="114.520181077" xlink:href="#m177f7580d0" y="83.7484547595"/>
      </g>
     </g>
    </g>
    <g id="xtick_13">
     <g id="line2d_25">
      <g>
       <use style="stroke:#000000;stroke-width:0.5;" x="126.986473243" xlink:href="#m177f7580d0" y="83.7484547595"/>
      </g>
     </g>
    </g>
    <g id="xtick_14">
     <g id="line2d_26">
      <g>
       <use style="stroke:#000000;stroke-width:0.5;" x="151.919057575" xlink:href="#m177f7580d0" y="83.7484547595"/>
      </g>
     </g>
    </g>
    <g id="xtick_15">
     <g id="line2d_27">
      <g>
       <use style="stroke:#000000;stroke-width:0.5;" x="164.38534974" xlink:href="#m177f7580d0" y="83.7484547595"/>
      </g>
     </g>
    </g>
    <g id="xtick_16">
     <g id="line2d_28">
      <g>
       <use style="stroke:#000000;stroke-width:0.5;" x="176.851641906" xlink:href="#m177f7580d0" y="83.7484547595"/>
      </g>
     </g>
    </g>
    <g id="xtick_17">
     <g id="line2d_29">
      <g>
       <use style="stroke:#000000;stroke-width:0.5;" x="189.317934072" xlink:href="#m177f7580d0" y="83.7484547595"/>
      </g>
     </g>
    </g>
    <g id="xtick_18">
     <g id="line2d_30">
      <g>
       <use style="stroke:#000000;stroke-width:0.5;" x="214.250518404" xlink:href="#m177f7580d0" y="83.7484547595"/>
      </g>
     </g>
    </g>
    <g id="xtick_19">
     <g id="line2d_31">
      <g>
       <use style="stroke:#000000;stroke-width:0.5;" x="226.71681057" xlink:href="#m177f7580d0" y="83.7484547595"/>
      </g>
     </g>
    </g>
    <g id="xtick_20">
     <g id="line2d_32">
      <g>
       <use style="stroke:#000000;stroke-width:0.5;" x="239.183102736" xlink:href="#m177f7580d0" y="83.7484547595"/>
      </g>
     </g>
    </g>
    <g id="xtick_21">
     <g id="line2d_33">
      <g>
       <use style="stroke:#000000;stroke-width:0.5;" x="251.649394902" xlink:href="#m177f7580d0" y="83.7484547595"/>
      </g>
     </g>
    </g>
    <g id="text_5">
     <!-- $a_{ij}$ -->
     <defs>
      <path d="
M17.3906 -1.125
Q11.0781 -1.125 7.4375 3.64062
Q3.8125 8.40625 3.8125 14.8906
Q3.8125 21.2969 7.125 28.1719
Q10.4531 35.0625 16.0938 39.625
Q21.7344 44.1875 28.2188 44.1875
Q31.2031 44.1875 33.5469 42.5781
Q35.8906 40.9688 37.2031 38.1875
Q38.3281 42.1875 41.6094 42.1875
Q42.875 42.1875 43.7188 41.4219
Q44.5781 40.6719 44.5781 39.4062
Q44.5781 39.1094 44.5469 38.9531
Q44.5312 38.8125 44.4844 38.625
L37.5 10.6875
Q36.8125 7.71875 36.8125 5.8125
Q36.8125 1.51562 39.7031 1.51562
Q42.8281 1.51562 44.4531 5.48438
Q46.0938 9.46875 47.2188 14.7031
Q47.4062 15.2812 48 15.2812
L49.2188 15.2812
Q49.6094 15.2812 49.8438 14.9375
Q50.0938 14.5938 50.0938 14.3125
Q48.3438 7.32812 46.2656 3.09375
Q44.1875 -1.125 39.5 -1.125
Q36.1406 -1.125 33.5469 0.84375
Q30.9531 2.82812 30.3281 6.10938
Q23.875 -1.125 17.3906 -1.125
M17.4844 1.51562
Q21.0938 1.51562 24.4844 4.21875
Q27.875 6.9375 30.3281 10.5938
Q30.4219 10.6875 30.4219 10.8906
L35.7969 32.625
L35.8906 32.9062
Q35.2969 36.4688 33.3125 39.0312
Q31.3438 41.6094 27.9844 41.6094
Q24.6094 41.6094 21.7031 38.8438
Q18.7969 36.0781 16.7969 32.3281
Q14.8438 28.3281 13.0625 21.3438
Q11.2812 14.3594 11.2812 10.5
Q11.2812 7.03125 12.7656 4.26562
Q14.2656 1.51562 17.4844 1.51562" id="Cmmi10-61"/>
      <path d="
M7.8125 7.17188
Q7.8125 9.03125 8.59375 11.0781
L16.7031 32.625
Q18.0156 36.2812 18.0156 38.625
Q18.0156 41.6094 15.8281 41.6094
Q11.8594 41.6094 9.29688 37.5312
Q6.73438 33.4531 5.51562 28.4219
Q5.32812 27.7812 4.6875 27.7812
L3.51562 27.7812
Q2.6875 27.7812 2.6875 28.7188
L2.6875 29
Q4.29688 34.9688 7.60938 39.5781
Q10.9375 44.1875 16.0156 44.1875
Q19.5781 44.1875 22.0469 41.8438
Q24.5156 39.5 24.5156 35.8906
Q24.5156 34.0312 23.6875 31.9844
L15.5781 10.5
Q14.2031 7.17188 14.2031 4.5
Q14.2031 1.51562 16.5 1.51562
Q20.4062 1.51562 23.0156 5.6875
Q25.6406 9.85938 26.7031 14.7031
Q26.9062 15.2812 27.4844 15.2812
L28.7188 15.2812
Q29.1094 15.2812 29.3438 15.0156
Q29.5938 14.75 29.5938 14.4062
Q29.5938 14.3125 29.5 14.1094
Q28.125 8.45312 24.7344 3.65625
Q21.3438 -1.125 16.3125 -1.125
Q12.7969 -1.125 10.2969 1.29688
Q7.8125 3.71875 7.8125 7.17188
M19.0938 60.5938
Q19.0938 62.7031 20.8438 64.4062
Q22.6094 66.1094 24.7031 66.1094
Q26.4219 66.1094 27.5156 65.0625
Q28.6094 64.0156 28.6094 62.4062
Q28.6094 60.1562 26.8281 58.4688
Q25.0469 56.7812 22.9062 56.7812
Q21.2969 56.7812 20.1875 57.875
Q19.0938 58.9844 19.0938 60.5938" id="Cmmi10-69"/>
      <path d="
M-1.3125 -14.2031
Q-1.3125 -11.7656 0.359375 -9.98438
Q2.04688 -8.20312 4.5 -8.20312
Q6.10938 -8.20312 7.20312 -9.20312
Q8.29688 -10.2031 8.29688 -11.8125
Q8.29688 -13.7188 7.09375 -15.25
Q5.90625 -16.7969 4.10938 -17.2812
Q5.85938 -17.9219 7.625 -17.9219
Q11.8594 -17.9219 14.9844 -13.9844
Q18.1094 -10.0625 19.3906 -5.17188
L28.8125 32.4219
Q29.5 35.2969 29.5 37.3125
Q29.5 41.6094 26.5156 41.6094
Q22.125 41.6094 18.8281 37.625
Q15.5312 33.6406 13.4844 28.4219
Q13.2812 27.7812 12.7031 27.7812
L11.5312 27.7812
Q10.6875 27.7812 10.6875 28.7188
L10.6875 29
Q12.9375 35.0156 17.0781 39.5938
Q21.2344 44.1875 26.7031 44.1875
Q30.8594 44.1875 33.5156 41.5938
Q36.1875 39.0156 36.1875 35.0156
Q36.1875 33.5938 35.8906 32.1719
L26.4219 -5.8125
Q25.3906 -9.85938 22.5 -13.2344
Q19.625 -16.6094 15.625 -18.5625
Q11.625 -20.5156 7.42188 -20.5156
Q4.04688 -20.5156 1.35938 -18.8906
Q-1.3125 -17.2812 -1.3125 -14.2031
M30.3281 60.5938
Q30.3281 62.7969 32.0312 64.4531
Q33.7344 66.1094 35.8906 66.1094
Q37.5938 66.1094 38.6875 65.0625
Q39.7969 64.0156 39.7969 62.4062
Q39.7969 60.1562 38.0156 58.4688
Q36.2344 56.7812 34.0781 56.7812
Q32.4688 56.7812 31.3906 57.9062
Q30.3281 59.0312 30.3281 60.5938" id="Cmmi10-6a"/>
     </defs>
     <g transform="translate(296.488511985 83.7484547595)scale(0.16 -0.16)">
      <use transform="translate(0.0 0.8125)" xlink:href="#Cmmi10-61"/>
      <use transform="translate(52.783203125 -24.696875)scale(0.7)" xlink:href="#Cmmi10-69"/>
      <use transform="translate(76.8798828125 -24.696875)scale(0.7)" xlink:href="#Cmmi10-6a"/>
     </g>
    </g>
   </g>
   <g id="matplotlib.axis_2">
    <g id="ytick_1">
     <g id="line2d_34">
      <defs>
       <path d="
M0 0
L4 0" id="m728421d6d4" style="stroke:#000000;stroke-width:0.5;"/>
      </defs>
      <g>
       <use style="stroke:#000000;stroke-width:0.5;" x="264.115687067" xlink:href="#m728421d6d4" y="333.074298077"/>
      </g>
     </g>
     <g id="text_6">
      <!-- -20 -->
      <g transform="translate(244.935999567 335.833673077)scale(0.1 -0.1)">
       <use xlink:href="#BitstreamVeraSans-Roman-2d"/>
       <use x="36.083984375" xlink:href="#BitstreamVeraSans-Roman-32"/>
       <use x="99.70703125" xlink:href="#BitstreamVeraSans-Roman-30"/>
      </g>
     </g>
    </g>
    <g id="ytick_2">
     <g id="line2d_35">
      <g>
       <use style="stroke:#000000;stroke-width:0.5;" x="264.115687067" xlink:href="#m728421d6d4" y="270.742837248"/>
      </g>
     </g>
     <g id="text_7">
      <!-- -15 -->
      <g transform="translate(245.145374567 273.502212248)scale(0.1 -0.1)">
       <use xlink:href="#BitstreamVeraSans-Roman-2d"/>
       <use x="36.083984375" xlink:href="#BitstreamVeraSans-Roman-31"/>
       <use x="99.70703125" xlink:href="#BitstreamVeraSans-Roman-35"/>
      </g>
     </g>
    </g>
    <g id="ytick_3">
     <g id="line2d_36">
      <g>
       <use style="stroke:#000000;stroke-width:0.5;" x="264.115687067" xlink:href="#m728421d6d4" y="208.411376418"/>
      </g>
     </g>
     <g id="text_8">
      <!-- -10 -->
      <g transform="translate(244.935999567 211.170751418)scale(0.1 -0.1)">
       <use xlink:href="#BitstreamVeraSans-Roman-2d"/>
       <use x="36.083984375" xlink:href="#BitstreamVeraSans-Roman-31"/>
       <use x="99.70703125" xlink:href="#BitstreamVeraSans-Roman-30"/>
      </g>
     </g>
    </g>
    <g id="ytick_4">
     <g id="line2d_37">
      <g>
       <use style="stroke:#000000;stroke-width:0.5;" x="264.115687067" xlink:href="#m728421d6d4" y="146.079915589"/>
      </g>
     </g>
     <g id="text_9">
      <!-- -5 -->
      <g transform="translate(251.507874567 148.839290589)scale(0.1 -0.1)">
       <use xlink:href="#BitstreamVeraSans-Roman-2d"/>
       <use x="36.083984375" xlink:href="#BitstreamVeraSans-Roman-35"/>
      </g>
     </g>
    </g>
    <g id="ytick_5">
     <g id="line2d_38">
      <g>
       <use style="stroke:#000000;stroke-width:0.5;" x="264.115687067" xlink:href="#m728421d6d4" y="83.7484547595"/>
      </g>
     </g>
    </g>
    <g id="ytick_6">
     <g id="line2d_39">
      <defs>
       <path d="
M0 0
L2 0" id="mf0c55a9a47" style="stroke:#000000;stroke-width:0.5;"/>
      </defs>
      <g>
       <use style="stroke:#000000;stroke-width:0.5;" x="264.115687067" xlink:href="#mf0c55a9a47" y="320.608005911"/>
      </g>
     </g>
    </g>
    <g id="ytick_7">
     <g id="line2d_40">
      <g>
       <use style="stroke:#000000;stroke-width:0.5;" x="264.115687067" xlink:href="#mf0c55a9a47" y="308.141713745"/>
      </g>
     </g>
    </g>
    <g id="ytick_8">
     <g id="line2d_41">
      <g>
       <use style="stroke:#000000;stroke-width:0.5;" x="264.115687067" xlink:href="#mf0c55a9a47" y="295.675421579"/>
      </g>
     </g>
    </g>
    <g id="ytick_9">
     <g id="line2d_42">
      <g>
       <use style="stroke:#000000;stroke-width:0.5;" x="264.115687067" xlink:href="#mf0c55a9a47" y="283.209129413"/>
      </g>
     </g>
    </g>
    <g id="ytick_10">
     <g id="line2d_43">
      <g>
       <use style="stroke:#000000;stroke-width:0.5;" x="264.115687067" xlink:href="#mf0c55a9a47" y="258.276545082"/>
      </g>
     </g>
    </g>
    <g id="ytick_11">
     <g id="line2d_44">
      <g>
       <use style="stroke:#000000;stroke-width:0.5;" x="264.115687067" xlink:href="#mf0c55a9a47" y="245.810252916"/>
      </g>
     </g>
    </g>
    <g id="ytick_12">
     <g id="line2d_45">
      <g>
       <use style="stroke:#000000;stroke-width:0.5;" x="264.115687067" xlink:href="#mf0c55a9a47" y="233.34396075"/>
      </g>
     </g>
    </g>
    <g id="ytick_13">
     <g id="line2d_46">
      <g>
       <use style="stroke:#000000;stroke-width:0.5;" x="264.115687067" xlink:href="#mf0c55a9a47" y="220.877668584"/>
      </g>
     </g>
    </g>
    <g id="ytick_14">
     <g id="line2d_47">
      <g>
       <use style="stroke:#000000;stroke-width:0.5;" x="264.115687067" xlink:href="#mf0c55a9a47" y="195.945084252"/>
      </g>
     </g>
    </g>
    <g id="ytick_15">
     <g id="line2d_48">
      <g>
       <use style="stroke:#000000;stroke-width:0.5;" x="264.115687067" xlink:href="#mf0c55a9a47" y="183.478792086"/>
      </g>
     </g>
    </g>
    <g id="ytick_16">
     <g id="line2d_49">
      <g>
       <use style="stroke:#000000;stroke-width:0.5;" x="264.115687067" xlink:href="#mf0c55a9a47" y="171.012499921"/>
      </g>
     </g>
    </g>
    <g id="ytick_17">
     <g id="line2d_50">
      <g>
       <use style="stroke:#000000;stroke-width:0.5;" x="264.115687067" xlink:href="#mf0c55a9a47" y="158.546207755"/>
      </g>
     </g>
    </g>
    <g id="ytick_18">
     <g id="line2d_51">
      <g>
       <use style="stroke:#000000;stroke-width:0.5;" x="264.115687067" xlink:href="#mf0c55a9a47" y="133.613623423"/>
      </g>
     </g>
    </g>
    <g id="ytick_19">
     <g id="line2d_52">
      <g>
       <use style="stroke:#000000;stroke-width:0.5;" x="264.115687067" xlink:href="#mf0c55a9a47" y="121.147331257"/>
      </g>
     </g>
    </g>
    <g id="ytick_20">
     <g id="line2d_53">
      <g>
       <use style="stroke:#000000;stroke-width:0.5;" x="264.115687067" xlink:href="#mf0c55a9a47" y="108.681039091"/>
      </g>
     </g>
    </g>
    <g id="ytick_21">
     <g id="line2d_54">
      <g>
       <use style="stroke:#000000;stroke-width:0.5;" x="264.115687067" xlink:href="#mf0c55a9a47" y="96.2147469254"/>
      </g>
     </g>
    </g>
    <g id="ytick_22">
     <g id="line2d_55">
      <g>
       <use style="stroke:#000000;stroke-width:0.5;" x="264.115687067" xlink:href="#mf0c55a9a47" y="71.2821625937"/>
      </g>
     </g>
    </g>
    <g id="ytick_23">
     <g id="line2d_56">
      <g>
       <use style="stroke:#000000;stroke-width:0.5;" x="264.115687067" xlink:href="#mf0c55a9a47" y="58.8158704278"/>
      </g>
     </g>
    </g>
    <g id="ytick_24">
     <g id="line2d_57">
      <g>
       <use style="stroke:#000000;stroke-width:0.5;" x="264.115687067" xlink:href="#mf0c55a9a47" y="46.3495782619"/>
      </g>
     </g>
    </g>
    <g id="text_10">
     <!-- $a_{ji}$ -->
     <g transform="translate(255.635687067 16.285)scale(0.16 -0.16)">
      <use transform="translate(0.0 0.8125)" xlink:href="#Cmmi10-61"/>
      <use transform="translate(52.783203125 -24.696875)scale(0.7)" xlink:href="#Cmmi10-6a"/>
      <use transform="translate(81.5625 -24.696875)scale(0.7)" xlink:href="#Cmmi10-69"/>
     </g>
    </g>
   </g>
   <g id="patch_13">
    <path d="
M9.4232 83.7485
L288.489 83.7485" style="fill:none;stroke:#000000;stroke-width:0.8;"/>
   </g>
   <g id="patch_14">
    <path d="
M264.116 339.003
L264.116 30.685" style="fill:none;stroke:#000000;stroke-width:0.8;"/>
   </g>
  </g>
 </g>
 <defs>
  <clipPath id="pba3918e046">
   <rect height="308.3185" width="279.065308789" x="9.42320319637" y="30.685"/>
  </clipPath>
 </defs>
</svg>
