<?xml version="1.0" encoding="utf-8" standalone="no"?>
<!DOCTYPE svg PUBLIC "-//W3C//DTD SVG 1.1//EN"
  "http://www.w3.org/Graphics/SVG/1.1/DTD/svg11.dtd">
<!-- Created with matplotlib (http://matplotlib.org/) -->
<svg height="204pt" version="1.1" viewBox="0 0 275 204" width="275pt" xmlns="http://www.w3.org/2000/svg" xmlns:xlink="http://www.w3.org/1999/xlink">
 <defs>
  <style type="text/css">
*{stroke-linecap:butt;stroke-linejoin:round;}
  </style>
 </defs>
 <g id="figure_1">
  <g id="patch_1">
   <path d="
M0 204.315
L275.101 204.315
L275.101 0
L0 0
z
" style="fill:#ffffff;"/>
  </g>
  <g id="axes_1">
   <g id="patch_2">
    <path d="
M27.5789 194.4
L253.981 194.4
L253.981 7.2
L27.5789 7.2
z
" style="fill:#ffffff;"/>
   </g>
   <g id="line2d_1">
    <path clip-path="url(#p34626285c9)" d="
M31.9328 183.437
L34.3516 183.438
L36.7705 183.436
L39.1893 183.431
L41.6081 183.421
L44.0269 183.407
L46.4458 183.39
L48.8646 183.368
L51.2834 183.342
L53.7022 183.311
L56.1211 183.277
L58.5399 183.238
L60.9587 183.194
L63.3775 183.146
L65.7964 183.093
L68.2152 183.035
L70.634 182.972
L73.0528 182.904
L75.4717 182.831
L77.8905 182.752
L80.3093 182.668
L82.7281 182.579
L85.147 182.483
L87.5658 182.382
L89.9846 182.275
L92.4034 182.162
L94.8223 182.042
L97.2411 181.916
L99.6599 181.784
L102.079 181.644
L104.498 181.498
L106.916 181.344
L109.335 181.183
L111.754 181.015
L114.173 180.838
L116.592 180.654
L119.011 180.461
L121.429 180.26
L123.848 180.05
L126.267 179.83
L128.686 179.602
L131.105 179.364
L133.523 179.115
L135.942 178.856
L138.361 178.587
L140.78 178.306
L143.199 178.014
L145.618 177.71
L148.036 177.394
L150.455 177.064
L152.874 176.721
L155.293 176.365
L157.712 175.993
L160.131 175.607
L162.549 175.204
L164.968 174.785
L167.387 174.348
L169.806 173.893
L172.225 173.419
L174.643 172.925
L177.062 172.409
L179.481 171.871
L181.9 171.31
L184.319 170.723
L186.738 170.11
L189.156 169.468
L191.575 168.796
L193.994 168.092
L196.413 167.353
L198.832 166.577
L201.251 165.761
L203.669 164.901
L206.088 163.994
L208.507 163.036
L210.926 162.02
L213.345 160.943
L215.763 159.796
L218.182 158.571
L220.601 157.26
L223.02 155.849
L225.439 154.323
L227.858 152.665
L230.276 150.85
L232.695 148.846
L235.114 146.609
L237.533 144.075
L239.952 141.151
L242.371 137.678
L244.789 133.37
L247.208 127.579
L249.627 118.049" style="fill:none;stroke:#7f00ff;stroke-linecap:square;"/>
   </g>
   <g id="line2d_2">
    <path clip-path="url(#p34626285c9)" d="
M31.9328 190.8
L34.3516 189.889
L36.7705 188.973
L39.1893 188.05
L41.6081 187.122
L44.0269 186.187
L46.4458 185.247
L48.8646 184.299
L51.2834 183.346
L53.7022 182.386
L56.1211 181.419
L58.5399 180.445
L60.9587 179.464
L63.3775 178.477
L65.7964 177.482
L68.2152 176.479
L70.634 175.469
L73.0528 174.451
L75.4717 173.426
L77.8905 172.392
L80.3093 171.35
L82.7281 170.299
L85.147 169.24
L87.5658 168.172
L89.9846 167.095
L92.4034 166.008
L94.8223 164.913
L97.2411 163.807
L99.6599 162.691
L102.079 161.565
L104.498 160.429
L106.916 159.282
L109.335 158.124
L111.754 156.954
L114.173 155.772
L116.592 154.579
L119.011 153.373
L121.429 152.154
L123.848 150.923
L126.267 149.677
L128.686 148.418
L131.105 147.144
L133.523 145.855
L135.942 144.551
L138.361 143.231
L140.78 141.894
L143.199 140.541
L145.618 139.169
L148.036 137.78
L150.455 136.371
L152.874 134.942
L155.293 133.493
L157.712 132.022
L160.131 130.529
L162.549 129.013
L164.968 127.472
L167.387 125.906
L169.806 124.313
L172.225 122.692
L174.643 121.041
L177.062 119.36
L179.481 117.646
L181.9 115.898
L184.319 114.113
L186.738 112.29
L189.156 110.425
L191.575 108.518
L193.994 106.563
L196.413 104.559
L198.832 102.502
L201.251 100.387
L203.669 98.21
L206.088 95.9658
L208.507 93.6482
L210.926 91.2503
L213.345 88.7642
L215.763 86.1803
L218.182 83.4875
L220.601 80.6723
L223.02 77.7185
L225.439 74.606
L227.858 71.3093
L230.276 67.7961
L232.695 64.0233
L235.114 59.9323
L237.533 55.4394
L239.952 50.419
L242.371 44.6662
L244.789 37.8062
L247.208 29.0055
L249.627 15.4013" style="fill:none;stroke:#00ffff;stroke-linecap:square;"/>
   </g>
   <g id="line2d_3">
    <path clip-path="url(#p34626285c9)" d="
M31.9328 174.232
L34.3516 174.293
L36.7705 174.35
L39.1893 174.403
L41.6081 174.453
L44.0269 174.499
L46.4458 174.541
L48.8646 174.58
L51.2834 174.614
L53.7022 174.644
L56.1211 174.671
L58.5399 174.693
L60.9587 174.71
L63.3775 174.724
L65.7964 174.733
L68.2152 174.737
L70.634 174.736
L73.0528 174.731
L75.4717 174.721
L77.8905 174.706
L80.3093 174.686
L82.7281 174.66
L85.147 174.629
L87.5658 174.593
L89.9846 174.551
L92.4034 174.503
L94.8223 174.449
L97.2411 174.389
L99.6599 174.323
L102.079 174.25
L104.498 174.171
L106.916 174.085
L109.335 173.992
L111.754 173.892
L114.173 173.784
L116.592 173.669
L119.011 173.545
L121.429 173.414
L123.848 173.275
L126.267 173.127
L128.686 172.969
L131.105 172.803
L133.523 172.627
L135.942 172.442
L138.361 172.246
L140.78 172.04
L143.199 171.822
L145.618 171.594
L148.036 171.353
L150.455 171.101
L152.874 170.835
L155.293 170.556
L157.712 170.264
L160.131 169.957
L162.549 169.635
L164.968 169.297
L167.387 168.942
L169.806 168.571
L172.225 168.18
L174.643 167.771
L177.062 167.342
L179.481 166.891
L181.9 166.418
L184.319 165.92
L186.738 165.398
L189.156 164.848
L191.575 164.27
L193.994 163.661
L196.413 163.019
L198.832 162.341
L201.251 161.625
L203.669 160.868
L206.088 160.065
L208.507 159.214
L210.926 158.308
L213.345 157.343
L215.763 156.311
L218.182 155.206
L220.601 154.017
L223.02 152.733
L225.439 151.34
L227.858 149.819
L230.276 148.149
L232.695 146.297
L235.114 144.222
L237.533 141.863
L239.952 139.128
L242.371 135.867
L244.789 131.803
L247.208 126.312
L249.627 117.215" style="fill:none;stroke:#7fff00;stroke-linecap:square;"/>
   </g>
   <g id="line2d_4">
    <path clip-path="url(#p34626285c9)" d="
M31.9328 183.437
L34.3516 182.54
L36.7705 181.638
L39.1893 180.73
L41.6081 179.816
L44.0269 178.896
L46.4458 177.97
L48.8646 177.038
L51.2834 176.1
L53.7022 175.155
L56.1211 174.203
L58.5399 173.245
L60.9587 172.279
L63.3775 171.307
L65.7964 170.328
L68.2152 169.341
L70.634 168.347
L73.0528 167.345
L75.4717 166.336
L77.8905 165.318
L80.3093 164.292
L82.7281 163.258
L85.147 162.216
L87.5658 161.165
L89.9846 160.105
L92.4034 159.035
L94.8223 157.957
L97.2411 156.869
L99.6599 155.77
L102.079 154.662
L104.498 153.544
L106.916 152.415
L109.335 151.275
L111.754 150.123
L114.173 148.96
L116.592 147.786
L119.011 146.599
L121.429 145.399
L123.848 144.187
L126.267 142.961
L128.686 141.722
L131.105 140.468
L133.523 139.199
L135.942 137.916
L138.361 136.617
L140.78 135.301
L143.199 133.969
L145.618 132.619
L148.036 131.251
L150.455 129.864
L152.874 128.458
L155.293 127.032
L157.712 125.584
L160.131 124.115
L162.549 122.622
L164.968 121.106
L167.387 119.564
L169.806 117.996
L172.225 116.401
L174.643 114.776
L177.062 113.122
L179.481 111.435
L181.9 109.714
L184.319 107.957
L186.738 106.162
L189.156 104.328
L191.575 102.45
L193.994 100.526
L196.413 98.5539
L198.832 96.5288
L201.251 94.4473
L203.669 92.3046
L206.088 90.0957
L208.507 87.8146
L210.926 85.4545
L213.345 83.0075
L215.763 80.4643
L218.182 77.8139
L220.601 75.0431
L223.02 72.1358
L225.439 69.0723
L227.858 65.8276
L230.276 62.3697
L232.695 58.6563
L235.114 54.6296
L237.533 50.2076
L239.952 45.2662
L242.371 39.604
L244.789 32.852
L247.208 24.1899
L249.627 10.8" style="fill:none;stroke:#ff0000;stroke-linecap:square;"/>
   </g>
   <g id="matplotlib.axis_1">
    <g id="xtick_1">
     <g id="line2d_5">
      <defs>
       <path d="
M0 0
L0 -4" id="m93b0483c22" style="stroke:#000000;stroke-width:0.5;"/>
      </defs>
      <g>
       <use style="stroke:#000000;stroke-width:0.5;" x="31.9328125" xlink:href="#m93b0483c22" y="183.436642946"/>
      </g>
     </g>
    </g>
    <g id="xtick_2">
     <g id="line2d_6">
      <g>
       <use style="stroke:#000000;stroke-width:0.5;" x="92.403430874" xlink:href="#m93b0483c22" y="183.436642946"/>
      </g>
     </g>
     <g id="text_1">
      <!-- 0.05 -->
      <defs>
       <path d="
M31.7812 66.4062
Q24.1719 66.4062 20.3281 58.9062
Q16.5 51.4219 16.5 36.375
Q16.5 21.3906 20.3281 13.8906
Q24.1719 6.39062 31.7812 6.39062
Q39.4531 6.39062 43.2812 13.8906
Q47.125 21.3906 47.125 36.375
Q47.125 51.4219 43.2812 58.9062
Q39.4531 66.4062 31.7812 66.4062
M31.7812 74.2188
Q44.0469 74.2188 50.5156 64.5156
Q56.9844 54.8281 56.9844 36.375
Q56.9844 17.9688 50.5156 8.26562
Q44.0469 -1.42188 31.7812 -1.42188
Q19.5312 -1.42188 13.0625 8.26562
Q6.59375 17.9688 6.59375 36.375
Q6.59375 54.8281 13.0625 64.5156
Q19.5312 74.2188 31.7812 74.2188" id="BitstreamVeraSans-Roman-30"/>
       <path d="
M10.6875 12.4062
L21 12.4062
L21 0
L10.6875 0
z
" id="BitstreamVeraSans-Roman-2e"/>
       <path d="
M10.7969 72.9062
L49.5156 72.9062
L49.5156 64.5938
L19.8281 64.5938
L19.8281 46.7344
Q21.9688 47.4688 24.1094 47.8281
Q26.2656 48.1875 28.4219 48.1875
Q40.625 48.1875 47.75 41.5
Q54.8906 34.8125 54.8906 23.3906
Q54.8906 11.625 47.5625 5.09375
Q40.2344 -1.42188 26.9062 -1.42188
Q22.3125 -1.42188 17.5469 -0.640625
Q12.7969 0.140625 7.71875 1.70312
L7.71875 11.625
Q12.1094 9.23438 16.7969 8.0625
Q21.4844 6.89062 26.7031 6.89062
Q35.1562 6.89062 40.0781 11.3281
Q45.0156 15.7656 45.0156 23.3906
Q45.0156 31 40.0781 35.4375
Q35.1562 39.8906 26.7031 39.8906
Q22.75 39.8906 18.8125 39.0156
Q14.8906 38.1406 10.7969 36.2812
z
" id="BitstreamVeraSans-Roman-35"/>
      </defs>
      <g transform="translate(82.037024624 195.035080446)scale(0.1 -0.1)">
       <use xlink:href="#BitstreamVeraSans-Roman-30"/>
       <use x="63.623046875" xlink:href="#BitstreamVeraSans-Roman-2e"/>
       <use x="95.41015625" xlink:href="#BitstreamVeraSans-Roman-30"/>
       <use x="159.033203125" xlink:href="#BitstreamVeraSans-Roman-35"/>
      </g>
     </g>
    </g>
    <g id="xtick_3">
     <g id="line2d_7">
      <g>
       <use style="stroke:#000000;stroke-width:0.5;" x="152.874049248" xlink:href="#m93b0483c22" y="183.436642946"/>
      </g>
     </g>
     <g id="text_2">
      <!-- 0.1 -->
      <defs>
       <path d="
M12.4062 8.29688
L28.5156 8.29688
L28.5156 63.9219
L10.9844 60.4062
L10.9844 69.3906
L28.4219 72.9062
L38.2812 72.9062
L38.2812 8.29688
L54.3906 8.29688
L54.3906 0
L12.4062 0
z
" id="BitstreamVeraSans-Roman-31"/>
      </defs>
      <g transform="translate(145.713892998 195.035080446)scale(0.1 -0.1)">
       <use xlink:href="#BitstreamVeraSans-Roman-30"/>
       <use x="63.623046875" xlink:href="#BitstreamVeraSans-Roman-2e"/>
       <use x="95.41015625" xlink:href="#BitstreamVeraSans-Roman-31"/>
      </g>
     </g>
    </g>
    <g id="xtick_4">
     <g id="line2d_8">
      <g>
       <use style="stroke:#000000;stroke-width:0.5;" x="213.344667622" xlink:href="#m93b0483c22" y="183.436642946"/>
      </g>
     </g>
     <g id="text_3">
      <!-- 0.15 -->
      <g transform="translate(202.978261372 195.035080446)scale(0.1 -0.1)">
       <use xlink:href="#BitstreamVeraSans-Roman-30"/>
       <use x="63.623046875" xlink:href="#BitstreamVeraSans-Roman-2e"/>
       <use x="95.41015625" xlink:href="#BitstreamVeraSans-Roman-31"/>
       <use x="159.033203125" xlink:href="#BitstreamVeraSans-Roman-35"/>
      </g>
     </g>
    </g>
    <g id="xtick_5">
     <g id="line2d_9">
      <defs>
       <path d="
M0 0
L0 -2" id="m177f7580d0" style="stroke:#000000;stroke-width:0.5;"/>
      </defs>
      <g>
       <use style="stroke:#000000;stroke-width:0.5;" x="44.0269361748" xlink:href="#m177f7580d0" y="183.436642946"/>
      </g>
     </g>
    </g>
    <g id="xtick_6">
     <g id="line2d_10">
      <g>
       <use style="stroke:#000000;stroke-width:0.5;" x="56.1210598496" xlink:href="#m177f7580d0" y="183.436642946"/>
      </g>
     </g>
    </g>
    <g id="xtick_7">
     <g id="line2d_11">
      <g>
       <use style="stroke:#000000;stroke-width:0.5;" x="68.2151835244" xlink:href="#m177f7580d0" y="183.436642946"/>
      </g>
     </g>
    </g>
    <g id="xtick_8">
     <g id="line2d_12">
      <g>
       <use style="stroke:#000000;stroke-width:0.5;" x="80.3093071992" xlink:href="#m177f7580d0" y="183.436642946"/>
      </g>
     </g>
    </g>
    <g id="xtick_9">
     <g id="line2d_13">
      <g>
       <use style="stroke:#000000;stroke-width:0.5;" x="104.497554549" xlink:href="#m177f7580d0" y="183.436642946"/>
      </g>
     </g>
    </g>
    <g id="xtick_10">
     <g id="line2d_14">
      <g>
       <use style="stroke:#000000;stroke-width:0.5;" x="116.591678224" xlink:href="#m177f7580d0" y="183.436642946"/>
      </g>
     </g>
    </g>
    <g id="xtick_11">
     <g id="line2d_15">
      <g>
       <use style="stroke:#000000;stroke-width:0.5;" x="128.685801898" xlink:href="#m177f7580d0" y="183.436642946"/>
      </g>
     </g>
    </g>
    <g id="xtick_12">
     <g id="line2d_16">
      <g>
       <use style="stroke:#000000;stroke-width:0.5;" x="140.779925573" xlink:href="#m177f7580d0" y="183.436642946"/>
      </g>
     </g>
    </g>
    <g id="xtick_13">
     <g id="line2d_17">
      <g>
       <use style="stroke:#000000;stroke-width:0.5;" x="164.968172923" xlink:href="#m177f7580d0" y="183.436642946"/>
      </g>
     </g>
    </g>
    <g id="xtick_14">
     <g id="line2d_18">
      <g>
       <use style="stroke:#000000;stroke-width:0.5;" x="177.062296598" xlink:href="#m177f7580d0" y="183.436642946"/>
      </g>
     </g>
    </g>
    <g id="xtick_15">
     <g id="line2d_19">
      <g>
       <use style="stroke:#000000;stroke-width:0.5;" x="189.156420272" xlink:href="#m177f7580d0" y="183.436642946"/>
      </g>
     </g>
    </g>
    <g id="xtick_16">
     <g id="line2d_20">
      <g>
       <use style="stroke:#000000;stroke-width:0.5;" x="201.250543947" xlink:href="#m177f7580d0" y="183.436642946"/>
      </g>
     </g>
    </g>
    <g id="xtick_17">
     <g id="line2d_21">
      <g>
       <use style="stroke:#000000;stroke-width:0.5;" x="225.438791297" xlink:href="#m177f7580d0" y="183.436642946"/>
      </g>
     </g>
    </g>
    <g id="xtick_18">
     <g id="line2d_22">
      <g>
       <use style="stroke:#000000;stroke-width:0.5;" x="237.532914972" xlink:href="#m177f7580d0" y="183.436642946"/>
      </g>
     </g>
    </g>
    <g id="text_4">
     <!-- $t$ -->
     <defs>
      <path d="
M6.20312 8.10938
Q6.20312 9.57812 6.5 10.8906
L13.7188 39.5938
L3.21875 39.5938
Q2.20312 39.5938 2.20312 40.9219
Q2.59375 43.1094 3.51562 43.1094
L14.5938 43.1094
L18.6094 59.4219
Q19 60.75 20.1719 61.6719
Q21.3438 62.5938 22.7969 62.5938
Q24.0781 62.5938 24.9219 61.8281
Q25.7812 61.0781 25.7812 59.8125
Q25.7812 59.5156 25.75 59.3438
Q25.7344 59.1875 25.6875 58.9844
L21.6875 43.1094
L31.9844 43.1094
Q33.0156 43.1094 33.0156 41.7969
Q32.9531 41.5469 32.8125 40.9531
Q32.6719 40.375 32.4219 39.9844
Q32.1719 39.5938 31.6875 39.5938
L20.7969 39.5938
L13.625 10.6875
Q12.8906 7.85938 12.8906 5.8125
Q12.8906 1.51562 15.8281 1.51562
Q20.2188 1.51562 23.6094 5.64062
Q27 9.76562 28.8125 14.7031
Q29.2031 15.2812 29.5938 15.2812
L30.8125 15.2812
Q31.2031 15.2812 31.4375 15.0156
Q31.6875 14.75 31.6875 14.4062
Q31.6875 14.2031 31.5938 14.1094
Q29.3906 8.0625 25.1875 3.46875
Q21 -1.125 15.5781 -1.125
Q11.625 -1.125 8.90625 1.45312
Q6.20312 4.04688 6.20312 8.10938" id="Cmmi10-74"/>
     </defs>
     <g transform="translate(261.980923169 183.436642946)scale(0.16 -0.16)">
      <use transform="translate(0.0 0.40625)" xlink:href="#Cmmi10-74"/>
     </g>
    </g>
   </g>
   <g id="matplotlib.axis_2">
    <g id="ytick_1">
     <g id="line2d_23">
      <defs>
       <path d="
M0 0
L4 0" id="m728421d6d4" style="stroke:#000000;stroke-width:0.5;"/>
      </defs>
      <g>
       <use style="stroke:#000000;stroke-width:0.5;" x="31.9328125" xlink:href="#m728421d6d4" y="183.436642946"/>
      </g>
     </g>
    </g>
    <g id="ytick_2">
     <g id="line2d_24">
      <g>
       <use style="stroke:#000000;stroke-width:0.5;" x="31.9328125" xlink:href="#m728421d6d4" y="137.41463664"/>
      </g>
     </g>
     <g id="text_5">
      <!-- 0.05 -->
      <g transform="translate(7.2 140.17401164)scale(0.1 -0.1)">
       <use xlink:href="#BitstreamVeraSans-Roman-30"/>
       <use x="63.623046875" xlink:href="#BitstreamVeraSans-Roman-2e"/>
       <use x="95.41015625" xlink:href="#BitstreamVeraSans-Roman-30"/>
       <use x="159.033203125" xlink:href="#BitstreamVeraSans-Roman-35"/>
      </g>
     </g>
    </g>
    <g id="ytick_3">
     <g id="line2d_25">
      <g>
       <use style="stroke:#000000;stroke-width:0.5;" x="31.9328125" xlink:href="#m728421d6d4" y="91.3926303346"/>
      </g>
     </g>
     <g id="text_6">
      <!-- 0.1 -->
      <g transform="translate(13.6125 94.1520053346)scale(0.1 -0.1)">
       <use xlink:href="#BitstreamVeraSans-Roman-30"/>
       <use x="63.623046875" xlink:href="#BitstreamVeraSans-Roman-2e"/>
       <use x="95.41015625" xlink:href="#BitstreamVeraSans-Roman-31"/>
      </g>
     </g>
    </g>
    <g id="ytick_4">
     <g id="line2d_26">
      <g>
       <use style="stroke:#000000;stroke-width:0.5;" x="31.9328125" xlink:href="#m728421d6d4" y="45.3706240291"/>
      </g>
     </g>
     <g id="text_7">
      <!-- 0.15 -->
      <g transform="translate(7.2 48.1299990291)scale(0.1 -0.1)">
       <use xlink:href="#BitstreamVeraSans-Roman-30"/>
       <use x="63.623046875" xlink:href="#BitstreamVeraSans-Roman-2e"/>
       <use x="95.41015625" xlink:href="#BitstreamVeraSans-Roman-31"/>
       <use x="159.033203125" xlink:href="#BitstreamVeraSans-Roman-35"/>
      </g>
     </g>
    </g>
    <g id="ytick_5">
     <g id="line2d_27">
      <defs>
       <path d="
M0 0
L2 0" id="mf0c55a9a47" style="stroke:#000000;stroke-width:0.5;"/>
      </defs>
      <g>
       <use style="stroke:#000000;stroke-width:0.5;" x="31.9328125" xlink:href="#mf0c55a9a47" y="192.641044207"/>
      </g>
     </g>
    </g>
    <g id="ytick_6">
     <g id="line2d_28">
      <g>
       <use style="stroke:#000000;stroke-width:0.5;" x="31.9328125" xlink:href="#mf0c55a9a47" y="174.232241684"/>
      </g>
     </g>
    </g>
    <g id="ytick_7">
     <g id="line2d_29">
      <g>
       <use style="stroke:#000000;stroke-width:0.5;" x="31.9328125" xlink:href="#mf0c55a9a47" y="165.027840423"/>
      </g>
     </g>
    </g>
    <g id="ytick_8">
     <g id="line2d_30">
      <g>
       <use style="stroke:#000000;stroke-width:0.5;" x="31.9328125" xlink:href="#mf0c55a9a47" y="155.823439162"/>
      </g>
     </g>
    </g>
    <g id="ytick_9">
     <g id="line2d_31">
      <g>
       <use style="stroke:#000000;stroke-width:0.5;" x="31.9328125" xlink:href="#mf0c55a9a47" y="146.619037901"/>
      </g>
     </g>
    </g>
    <g id="ytick_10">
     <g id="line2d_32">
      <g>
       <use style="stroke:#000000;stroke-width:0.5;" x="31.9328125" xlink:href="#mf0c55a9a47" y="128.210235379"/>
      </g>
     </g>
    </g>
    <g id="ytick_11">
     <g id="line2d_33">
      <g>
       <use style="stroke:#000000;stroke-width:0.5;" x="31.9328125" xlink:href="#mf0c55a9a47" y="119.005834118"/>
      </g>
     </g>
    </g>
    <g id="ytick_12">
     <g id="line2d_34">
      <g>
       <use style="stroke:#000000;stroke-width:0.5;" x="31.9328125" xlink:href="#mf0c55a9a47" y="109.801432857"/>
      </g>
     </g>
    </g>
    <g id="ytick_13">
     <g id="line2d_35">
      <g>
       <use style="stroke:#000000;stroke-width:0.5;" x="31.9328125" xlink:href="#mf0c55a9a47" y="100.597031596"/>
      </g>
     </g>
    </g>
    <g id="ytick_14">
     <g id="line2d_36">
      <g>
       <use style="stroke:#000000;stroke-width:0.5;" x="31.9328125" xlink:href="#mf0c55a9a47" y="82.1882290735"/>
      </g>
     </g>
    </g>
    <g id="ytick_15">
     <g id="line2d_37">
      <g>
       <use style="stroke:#000000;stroke-width:0.5;" x="31.9328125" xlink:href="#mf0c55a9a47" y="72.9838278124"/>
      </g>
     </g>
    </g>
    <g id="ytick_16">
     <g id="line2d_38">
      <g>
       <use style="stroke:#000000;stroke-width:0.5;" x="31.9328125" xlink:href="#mf0c55a9a47" y="63.7794265513"/>
      </g>
     </g>
    </g>
    <g id="ytick_17">
     <g id="line2d_39">
      <g>
       <use style="stroke:#000000;stroke-width:0.5;" x="31.9328125" xlink:href="#mf0c55a9a47" y="54.5750252902"/>
      </g>
     </g>
    </g>
    <g id="ytick_18">
     <g id="line2d_40">
      <g>
       <use style="stroke:#000000;stroke-width:0.5;" x="31.9328125" xlink:href="#mf0c55a9a47" y="36.166222768"/>
      </g>
     </g>
    </g>
    <g id="ytick_19">
     <g id="line2d_41">
      <g>
       <use style="stroke:#000000;stroke-width:0.5;" x="31.9328125" xlink:href="#mf0c55a9a47" y="26.961821507"/>
      </g>
     </g>
    </g>
    <g id="ytick_20">
     <g id="line2d_42">
      <g>
       <use style="stroke:#000000;stroke-width:0.5;" x="31.9328125" xlink:href="#mf0c55a9a47" y="17.7574202459"/>
      </g>
     </g>
    </g>
   </g>
   <g id="patch_3">
    <path d="
M27.5789 183.437
L253.981 183.437" style="fill:none;stroke:#000000;stroke-width:0.8;"/>
   </g>
   <g id="patch_4">
    <path d="
M31.9328 194.4
L31.9328 7.2" style="fill:none;stroke:#000000;stroke-width:0.8;"/>
   </g>
   <g id="legend_1">
    <g id="patch_5">
     <path d="
M33.5789 78.2325
L73.1789 78.2325
L73.1789 13.2
L33.5789 13.2
L33.5789 78.2325
z
" style="fill:#e6e6e6;stroke:#000000;"/>
    </g>
    <g id="line2d_43">
     <path d="
M44.3789 25.3181
L37.7789 25.3181" style="fill:none;stroke:#7f00ff;stroke-linecap:square;"/>
    </g>
    <g id="line2d_44"/>
    <g id="text_8">
     <!-- ${X}_{{a}{0}}$ -->
     <defs>
      <path d="
M3.60938 0
Q2.59375 0 2.59375 1.3125
Q2.64062 1.5625 2.8125 2.1875
Q2.98438 2.82812 3.25 3.17188
Q3.51562 3.51562 4 3.51562
Q13.0938 3.51562 19.5781 10.2969
Q19.6719 10.4062 19.7969 10.4531
Q19.9219 10.5 19.9219 10.5
L41.7969 34.0781
L29.8906 62.7969
Q28.8594 64.1094 26.5625 64.4531
Q24.2656 64.7969 21.1875 64.7969
Q20.2188 64.7969 20.2188 66.1094
Q20.5625 67.3906 20.75 67.8438
Q20.9531 68.3125 21.9219 68.3125
L46.9219 68.3125
Q47.9062 68.3125 47.9062 67
Q47.8594 66.75 47.6875 66.1094
Q47.5156 65.4844 47.2344 65.1406
Q46.9688 64.7969 46.4844 64.7969
Q44.625 64.7969 42.6406 64.1875
Q40.6719 63.5781 39.8906 62.2031
L48.4844 41.5
L64.8906 59.0781
Q65.0469 59.4219 65.5781 60.2812
Q66.1094 61.1406 66.1094 61.9219
Q66.1094 63.375 64.8438 64.0781
Q63.5781 64.7969 61.8125 64.7969
Q60.7969 64.7969 60.7969 66.1094
Q61.1406 67.3906 61.3281 67.8438
Q61.5312 68.3125 62.5 68.3125
L84.1875 68.3125
Q84.7188 68.3125 84.9531 67.9219
Q85.2031 67.5312 85.2031 67
Q85.1562 66.75 85 66.1562
Q84.8594 65.5781 84.6094 65.1875
Q84.375 64.7969 83.8906 64.7969
Q79.25 64.7969 75.3594 63.1094
Q71.4844 61.4219 68.2188 58.0156
Q68.1719 57.9531 68.0938 57.9219
Q68.0156 57.9062 67.9219 57.8125
L49.8125 38.2812
L63.4844 5.51562
Q65.0938 3.51562 72.2188 3.51562
Q73.1875 3.51562 73.1875 2.20312
Q72.8594 0.875 72.625 0.4375
Q72.4062 0 71.4844 0
L46.4844 0
Q45.5156 0 45.5156 1.3125
Q45.5625 1.5625 45.7031 2.17188
Q45.8438 2.78125 46.1094 3.14062
Q46.3906 3.51562 46.7812 3.51562
Q48.7344 3.51562 50.7344 4.125
Q52.7344 4.73438 53.5156 6.10938
L43.1094 31
L22.9062 9.1875
Q22.75 8.84375 22.2188 8
Q21.6875 7.17188 21.6875 6.39062
Q21.6875 4.9375 23.0469 4.21875
Q24.4219 3.51562 25.9844 3.51562
Q27 3.51562 27 2.20312
Q26.6562 0.78125 26.4531 0.390625
Q26.2656 0 25.2969 0
z
" id="Cmmi10-58"/>
      <path d="
M17.3906 -1.125
Q11.0781 -1.125 7.4375 3.64062
Q3.8125 8.40625 3.8125 14.8906
Q3.8125 21.2969 7.125 28.1719
Q10.4531 35.0625 16.0938 39.625
Q21.7344 44.1875 28.2188 44.1875
Q31.2031 44.1875 33.5469 42.5781
Q35.8906 40.9688 37.2031 38.1875
Q38.3281 42.1875 41.6094 42.1875
Q42.875 42.1875 43.7188 41.4219
Q44.5781 40.6719 44.5781 39.4062
Q44.5781 39.1094 44.5469 38.9531
Q44.5312 38.8125 44.4844 38.625
L37.5 10.6875
Q36.8125 7.71875 36.8125 5.8125
Q36.8125 1.51562 39.7031 1.51562
Q42.8281 1.51562 44.4531 5.48438
Q46.0938 9.46875 47.2188 14.7031
Q47.4062 15.2812 48 15.2812
L49.2188 15.2812
Q49.6094 15.2812 49.8438 14.9375
Q50.0938 14.5938 50.0938 14.3125
Q48.3438 7.32812 46.2656 3.09375
Q44.1875 -1.125 39.5 -1.125
Q36.1406 -1.125 33.5469 0.84375
Q30.9531 2.82812 30.3281 6.10938
Q23.875 -1.125 17.3906 -1.125
M17.4844 1.51562
Q21.0938 1.51562 24.4844 4.21875
Q27.875 6.9375 30.3281 10.5938
Q30.4219 10.6875 30.4219 10.8906
L35.7969 32.625
L35.8906 32.9062
Q35.2969 36.4688 33.3125 39.0312
Q31.3438 41.6094 27.9844 41.6094
Q24.6094 41.6094 21.7031 38.8438
Q18.7969 36.0781 16.7969 32.3281
Q14.8438 28.3281 13.0625 21.3438
Q11.2812 14.3594 11.2812 10.5
Q11.2812 7.03125 12.7656 4.26562
Q14.2656 1.51562 17.4844 1.51562" id="Cmmi10-61"/>
      <path d="
M25 -2.20312
Q12.75 -2.20312 8.32812 7.875
Q3.90625 17.9688 3.90625 31.8906
Q3.90625 40.5781 5.48438 48.2344
Q7.07812 55.9062 11.7812 61.25
Q16.5 66.6094 25 66.6094
Q31.5938 66.6094 35.7812 63.375
Q39.9844 60.1562 42.1875 55.0469
Q44.3906 49.9531 45.1875 44.1094
Q46 38.2812 46 31.8906
Q46 23.2969 44.4062 15.7969
Q42.8281 8.29688 38.1875 3.04688
Q33.5469 -2.20312 25 -2.20312
M25 0.390625
Q30.5625 0.390625 33.2969 6.09375
Q36.0312 11.8125 36.6719 18.75
Q37.3125 25.6875 37.3125 33.5
Q37.3125 41.0156 36.6719 47.3594
Q36.0312 53.7188 33.3125 58.8594
Q30.6094 64.0156 25 64.0156
Q19.3438 64.0156 16.6094 58.8281
Q13.875 53.6562 13.2344 47.3281
Q12.5938 41.0156 12.5938 33.5
Q12.5938 27.9375 12.8594 23
Q13.1406 18.0625 14.3125 12.8125
Q15.4844 7.5625 18.0938 3.96875
Q20.7031 0.390625 25 0.390625" id="Cmr10-30"/>
     </defs>
     <g transform="translate(47.3789279771 29.518125)scale(0.12 -0.12)">
      <use transform="translate(0.0 0.6875)" xlink:href="#Cmmi10-58"/>
      <use transform="translate(82.8125 -24.821875)scale(0.7)" xlink:href="#Cmmi10-61"/>
      <use transform="translate(119.760742188 -24.821875)scale(0.7)" xlink:href="#Cmr10-30"/>
     </g>
    </g>
    <g id="line2d_45">
     <path d="
M44.3789 38.0363
L37.7789 38.0363" style="fill:none;stroke:#00ffff;stroke-linecap:square;"/>
    </g>
    <g id="line2d_46"/>
    <g id="text_9">
     <!-- ${X}_{{t}{0}}$ -->
     <g transform="translate(47.3789279771 42.23625)scale(0.12 -0.12)">
      <use transform="translate(0.0 0.6875)" xlink:href="#Cmmi10-58"/>
      <use transform="translate(82.8125 -24.821875)scale(0.7)" xlink:href="#Cmmi10-74"/>
      <use transform="translate(108.071289062 -24.821875)scale(0.7)" xlink:href="#Cmr10-30"/>
     </g>
    </g>
    <g id="line2d_47">
     <path d="
M44.3789 50.7544
L37.7789 50.7544" style="fill:none;stroke:#7fff00;stroke-linecap:square;"/>
    </g>
    <g id="line2d_48"/>
    <g id="text_10">
     <!-- ${x}_{{a}{0}}$ -->
     <defs>
      <path d="
M7.8125 2.875
Q9.57812 1.51562 12.7969 1.51562
Q15.9219 1.51562 18.3125 4.51562
Q20.7031 7.51562 21.5781 11.0781
L26.125 28.8125
Q27.2031 33.6406 27.2031 35.4062
Q27.2031 37.8906 25.8125 39.75
Q24.4219 41.6094 21.9219 41.6094
Q18.75 41.6094 15.9688 39.625
Q13.1875 37.6406 11.2812 34.5938
Q9.375 31.5469 8.59375 28.4219
Q8.40625 27.7812 7.8125 27.7812
L6.59375 27.7812
Q5.8125 27.7812 5.8125 28.7188
L5.8125 29
Q6.78125 32.7188 9.125 36.25
Q11.4688 39.7969 14.8594 41.9844
Q18.2656 44.1875 22.125 44.1875
Q25.7812 44.1875 28.7344 42.2344
Q31.6875 40.2812 32.9062 36.9219
Q34.625 39.9844 37.2812 42.0781
Q39.9375 44.1875 43.1094 44.1875
Q45.2656 44.1875 47.5 43.4219
Q49.75 42.6719 51.1719 41.1094
Q52.5938 39.5469 52.5938 37.2031
Q52.5938 34.6719 50.9531 32.8281
Q49.3125 31 46.7812 31
Q45.1719 31 44.0938 32.0312
Q43.0156 33.0625 43.0156 34.625
Q43.0156 36.7188 44.4531 38.2969
Q45.9062 39.8906 47.9062 40.1875
Q46.0938 41.6094 42.9219 41.6094
Q39.7031 41.6094 37.3281 38.625
Q34.9688 35.6406 33.9844 31.9844
L29.5938 14.3125
Q28.5156 10.2969 28.5156 7.71875
Q28.5156 5.17188 29.9531 3.34375
Q31.3906 1.51562 33.7969 1.51562
Q38.4844 1.51562 42.1562 5.64062
Q45.8438 9.76562 47.0156 14.7031
Q47.2188 15.2812 47.7969 15.2812
L49.0312 15.2812
Q49.4219 15.2812 49.6562 15.0156
Q49.9062 14.75 49.9062 14.4062
Q49.9062 14.3125 49.8125 14.1094
Q48.3906 8.15625 43.8438 3.51562
Q39.3125 -1.125 33.5938 -1.125
Q29.9375 -1.125 26.9844 0.84375
Q24.0312 2.82812 22.7969 6.20312
Q21.2344 3.26562 18.4688 1.0625
Q15.7188 -1.125 12.5938 -1.125
Q10.4531 -1.125 8.17188 -0.359375
Q5.90625 0.390625 4.48438 1.95312
Q3.07812 3.51562 3.07812 5.90625
Q3.07812 8.25 4.70312 10.1719
Q6.34375 12.1094 8.79688 12.1094
Q10.4531 12.1094 11.5781 11.1094
Q12.7031 10.1094 12.7031 8.5
Q12.7031 6.39062 11.2969 4.82812
Q9.90625 3.26562 7.8125 2.875" id="Cmmi10-78"/>
     </defs>
     <g transform="translate(47.3789279771 54.954375)scale(0.12 -0.12)">
      <use transform="translate(0.0 0.8125)" xlink:href="#Cmmi10-78"/>
      <use transform="translate(57.080078125 -24.696875)scale(0.7)" xlink:href="#Cmmi10-61"/>
      <use transform="translate(94.0283203125 -24.696875)scale(0.7)" xlink:href="#Cmr10-30"/>
     </g>
    </g>
    <g id="line2d_49">
     <path d="
M44.3789 63.4725
L37.7789 63.4725" style="fill:none;stroke:#ff0000;stroke-linecap:square;"/>
    </g>
    <g id="line2d_50"/>
    <g id="text_11">
     <!-- ${x}_{{t}{0}}$ -->
     <g transform="translate(47.3789279771 67.6725)scale(0.12 -0.12)">
      <use transform="translate(0.0 0.8125)" xlink:href="#Cmmi10-78"/>
      <use transform="translate(57.080078125 -24.696875)scale(0.7)" xlink:href="#Cmmi10-74"/>
      <use transform="translate(82.3388671875 -24.696875)scale(0.7)" xlink:href="#Cmr10-30"/>
     </g>
    </g>
   </g>
  </g>
 </g>
 <defs>
  <clipPath id="p34626285c9">
   <rect height="187.200167169" width="226.401995192" x="27.5789279771" y="7.2"/>
  </clipPath>
 </defs>
</svg>
