<?xml version="1.0" encoding="utf-8" standalone="no"?>
<!DOCTYPE svg PUBLIC "-//W3C//DTD SVG 1.1//EN"
  "http://www.w3.org/Graphics/SVG/1.1/DTD/svg11.dtd">
<!-- Created with matplotlib (http://matplotlib.org/) -->
<svg height="419pt" version="1.1" viewBox="0 0 563 419" width="563pt" xmlns="http://www.w3.org/2000/svg" xmlns:xlink="http://www.w3.org/1999/xlink">
 <defs>
  <style type="text/css">
*{stroke-linecap:butt;stroke-linejoin:round;}
  </style>
 </defs>
 <g id="figure_1">
  <g id="patch_1">
   <path d="
M-2.22045e-16 419.868
L563.166 419.868
L563.166 0
L-2.22045e-16 0
z
" style="fill:#ffffff;"/>
  </g>
  <g id="axes_1">
   <g id="patch_2">
    <path d="
M32.1625 406.211
L542.046 406.211
L542.046 30.685
L32.1625 30.685
z
" style="fill:#ffffff;"/>
   </g>
   <g id="line2d_1">
    <path clip-path="url(#p64958b1563)" d="
M41.9679 376.078
L42.2354 390.73
L42.5028 395.42
L42.8148 397.41
L43.1713 398.288
L43.5725 398.686
L44.1073 398.885
L45.1324 398.975
L49.8123 398.989
L86.4936 398.989
L86.5381 376.078
L86.6273 377.179
L86.8947 378.557
L87.1176 378.798
L87.385 378.719
L88.321 377.936
L89.1232 377.492
L90.1038 377.218
L91.6192 377.059
L94.8728 376.996
L124.2 376.991
L131.108 376.991
L131.108 376.991
L131.554 326.212
L131.911 316.957
L132.445 301.939
L134.763 228.666
L135.432 216.959
L136.1 208.849
L136.769 203.229
L137.482 199.075
L138.195 196.192
L138.908 194.163
L139.666 192.643
L140.468 191.522
L141.315 190.708
L142.295 190.079
L143.454 189.613
L144.925 189.278
L146.975 189.056
L150.452 188.935
L160.168 188.9
L175.679 188.9
L175.679 188.9
L175.768 171.879
L175.812 172.736
L176.169 182.419
L176.525 186.1
L176.882 187.658
L177.239 188.345
L177.64 188.675
L178.219 188.838
L179.512 188.896
L195.379 188.9
L220.249 188.9
L220.249 188.9
L220.694 88.0217
L221.006 59.7952
L221.318 48.8669
L221.63 44.694
L221.942 43.0297
L222.299 42.2649
L222.7 41.9371
L223.28 41.7864
L224.661 41.7352
L247.035 41.7328
L264.819 41.7328
L264.819 41.7328
L264.953 66.6959
L265.086 78.3165
L265.131 78.3153
L265.265 73.1993
L265.844 45.551
L266.156 40.0376
L266.423 38.3106
L266.646 37.919
L266.825 37.9541
L267.137 38.3471
L268.385 40.1461
L269.098 40.7179
L269.989 41.1349
L271.192 41.4333
L273.064 41.6422
L276.452 41.7615
L286.034 41.7983
L309.389 41.7991
L309.389 41.7991
L309.434 74.4437
L309.478 61.2281
L309.657 43.3693
L309.879 41.5098
L310.058 41.2889
L310.325 41.3802
L311.038 41.7026
L311.93 41.795
L315.941 41.8014
L353.959 41.7991
L353.959 41.7991
L354.004 39.1167
L354.182 78.9836
L354.405 108.188
L354.45 108.868
L354.494 108.644
L354.762 101.805
L355.029 98.2406
L355.296 97.23
L355.608 96.8242
L355.876 96.7918
L356.366 97.033
L357.57 97.6606
L358.639 97.9298
L360.244 98.0779
L363.899 98.133
L398.53 98.1363
L398.53 98.1363
L398.574 110.334
L398.619 105.19
L398.708 102.754
L398.752 103.246
L398.931 104.751
L399.02 104.299
L399.644 99.5692
L400 98.793
L400.402 98.4034
L400.936 98.2168
L402.006 98.1436
L409.583 98.1363
L443.1 98.1363
L443.1 98.1363
L443.189 95.145
L443.233 95.7374
L443.367 106.339
L443.724 133.351
L443.857 134.932
L443.902 134.816
L444.08 132.659
L445.15 116.156
L445.729 111.119
L446.309 107.934
L446.933 105.702
L447.601 104.097
L448.359 102.842
L449.206 101.859
L450.186 101.052
L451.39 100.357
L452.861 99.7751
L454.733 99.2839
L457.184 98.8804
L460.571 98.5607
L465.608 98.3284
L474.031 98.1898
L487.67 98.1433
L487.67 98.1433
L488.16 297.906
L488.428 314.97
L488.829 325.936
L489.23 331.724
L489.631 334.748
L490.077 336.549
L490.612 337.833
L491.236 338.77
L491.993 339.488
L492.929 340.062
L494.177 340.554
L495.871 340.972
L498.322 341.332
L502.066 341.638
L508.128 341.886
L518.869 342.076
L532.24 342.171
L532.24 342.171" style="fill:none;stroke:#0000ff;stroke-linecap:square;"/>
   </g>
   <g id="line2d_2">
    <path clip-path="url(#p64958b1563)" d="
M131.108 376.078
L131.376 381.364
L131.509 381.828
L131.554 381.815
L131.688 381.442
L131.955 379.725
L132.445 374.701
L134.629 349.756
L135.343 345.05
L136.011 342.005
L136.724 339.766
L137.437 338.228
L138.195 337.102
L139.042 336.249
L139.978 335.629
L141.092 335.166
L142.518 334.827
L144.524 334.6
L147.867 334.474
L156.781 334.435
L175.723 334.382
L175.946 332.791
L176.08 332.804
L177.149 334.228
L177.773 334.383
L179.244 334.432
L207.279 334.434
L220.249 334.434
L220.249 334.434
L220.65 305.191
L220.962 295.335
L221.274 291.476
L221.586 290.007
L221.898 289.425
L222.299 289.141
L222.923 289.014
L224.706 288.978
L264.819 288.977
L264.819 288.977
L264.997 307.661
L265.086 308.456
L265.131 308.15
L265.354 304.006
L265.8 296.339
L266.156 293.585
L266.513 292.473
L266.869 292.065
L267.315 291.914
L268.474 291.872
L283.583 291.735
L309.389 291.735
L309.389 291.735
L309.434 291.169
L309.523 292.405
L309.567 292.351
L309.879 291.631
L310.147 291.569
L312.598 291.731
L349.324 291.735
L353.959 291.735
L353.959 291.735
L354.316 326.673
L354.405 327.158
L354.583 325.471
L354.851 323.499
L355.118 322.976
L355.519 322.723
L356.01 322.678
L361.715 322.94
L398.53 322.944
L398.53 322.944
L398.574 322.401
L398.574 322.401
L398.574 322.401
L398.886 324.968
L399.02 324.657
L399.421 323.541
L399.778 323.215
L400.357 323.019
L401.471 322.95
L410.43 322.944
L443.1 322.944
L443.1 322.944
L443.189 320.929
L443.233 321.532
L443.768 333.508
L443.857 333.436
L444.08 332.465
L444.883 328.738
L445.462 327.049
L446.041 325.988
L446.71 325.217
L447.512 324.639
L448.537 324.18
L449.964 323.796
L452.058 323.479
L455.312 323.231
L460.883 323.056
L472.204 322.964
L487.67 322.946
L487.67 322.946
L488.027 377.12
L488.249 381.689
L488.561 383.706
L489.096 385.716
L489.497 386.45
L489.988 386.864
L490.79 387.198
L491.993 387.434
L494.311 387.624
L499.258 387.763
L512.273 387.855
L532.24 387.886
L532.24 387.886" style="fill:none;stroke:#0000ff;stroke-linecap:square;"/>
   </g>
   <g id="line2d_3">
    <path clip-path="url(#p64958b1563)" d="
M175.679 376.078
L175.901 393.636
L176.124 397.538
L176.347 398.577
L176.615 398.896
L177.06 398.981
L180.046 398.989
L220.204 398.989
L220.338 375.886
L220.917 374.988
L221.408 374.621
L222.032 374.458
L223.369 374.403
L241.464 374.4
L264.819 374.4
L264.819 374.4
L265.131 364.208
L265.354 362.286
L265.532 362.074
L265.71 362.351
L266.201 363.813
L266.914 365.694
L267.538 366.763
L268.206 367.499
L269.009 368.053
L270.034 368.474
L271.415 368.784
L273.466 368.995
L277.076 369.113
L287.461 369.147
L309.389 369.147
L309.389 369.147
L309.434 368.042
L309.523 368.527
L309.746 368.923
L310.147 369.093
L311.038 369.158
L318.571 369.148
L353.959 369.147
L353.959 369.147
L354.093 365.686
L354.405 357.186
L354.583 356.555
L355.341 356.497
L356.188 356.764
L357.436 357.047
L359.219 357.185
L363.676 357.228
L398.53 357.23
L398.53 357.23
L398.619 359.906
L398.663 359.853
L399.064 357.893
L399.421 357.561
L399.956 357.33
L400.847 357.243
L405.126 357.23
L443.1 357.23
L443.1 357.23
L443.323 367.616
L443.412 368.193
L443.456 368.181
L443.635 367.351
L444.259 364.222
L444.927 361.901
L445.507 360.637
L446.131 359.777
L446.888 359.122
L447.824 358.62
L449.117 358.202
L450.944 357.862
L453.752 357.589
L458.343 357.39
L467.034 357.27
L487.67 357.231
L487.67 357.231
L487.937 353.316
L488.027 353.966
L488.829 363.287
L489.23 364.786
L489.676 365.614
L490.166 366.082
L490.834 366.392
L491.949 366.624
L494.088 366.804
L498.857 366.94
L511.738 367.029
L532.24 367.059
L532.24 367.059" style="fill:none;stroke:#0000ff;stroke-linecap:square;"/>
   </g>
   <g id="line2d_4">
    <path clip-path="url(#p64958b1563)" d="
M309.389 376.078
L309.434 389.07
L309.567 398.619
L309.746 398.985
L311.439 398.989
L353.915 398.989
L354.138 338.924
L354.182 337.919
L354.182 337.919
L354.182 337.919
L354.36 345.484
L354.583 349.722
L354.628 349.7
L354.806 348.7
L355.118 347.245
L355.475 346.603
L356.01 346.084
L356.678 345.775
L357.703 345.568
L359.575 345.449
L364.968 345.415
L398.53 345.414
L398.53 345.414
L398.574 347.524
L398.619 346.576
L398.752 344.927
L398.797 345.044
L399.109 346.282
L399.243 346.162
L399.688 345.644
L400.223 345.486
L401.382 345.42
L411.678 345.414
L443.1 345.414
L443.1 345.414
L443.144 345.759
L443.367 339.729
L443.412 339.874
L443.59 343.196
L443.902 347.68
L444.125 348.266
L444.303 348.131
L445.551 346.607
L446.264 346.186
L447.245 345.894
L448.849 345.685
L452.014 345.535
L459.68 345.444
L487.67 345.415
L487.67 345.415
L487.715 345.035
L487.848 357.708
L488.16 383.724
L488.428 390.166
L488.74 392.97
L489.141 394.641
L489.631 395.753
L490.21 396.507
L490.924 397.062
L491.904 397.526
L493.286 397.911
L495.336 398.231
L498.634 398.497
L504.384 398.708
L515.571 398.863
L532.24 398.94
L532.24 398.94" style="fill:none;stroke:#0000ff;stroke-linecap:square;"/>
   </g>
   <g id="line2d_5">
    <path clip-path="url(#p64958b1563)" d="
M398.53 376.078
L398.574 391.079
L398.708 398.745
L398.886 398.987
L402.051 398.989
L443.055 398.989
L443.1 376.078
L443.189 380.136
L443.545 390.185
L443.857 393.196
L444.259 394.771
L444.749 395.831
L445.373 396.647
L446.131 397.259
L447.111 397.744
L448.448 398.136
L450.365 398.448
L453.395 398.696
L458.61 398.871
L469.262 398.967
L487.625 398.988
L487.848 336.135
L487.937 339.942
L488.249 354.181
L488.472 356.437
L488.829 357.439
L489.631 359.23
L490.032 359.488
L490.701 359.571
L492.484 359.516
L498.189 359.332
L510.222 359.225
L532.24 359.18
L532.24 359.18" style="fill:none;stroke:#0000ff;stroke-linecap:square;"/>
   </g>
   <g id="matplotlib.axis_1">
    <g id="xtick_1">
     <g id="line2d_6">
      <defs>
       <path d="
M0 0
L0 -4" id="m93b0483c22" style="stroke:#000000;stroke-width:0.5;"/>
      </defs>
      <g>
       <use style="stroke:#000000;stroke-width:0.5;" x="41.9679447115" xlink:href="#m93b0483c22" y="398.989497041"/>
      </g>
     </g>
     <g id="text_1">
      <!-- 200 -->
      <defs>
       <path d="
M19.1875 8.29688
L53.6094 8.29688
L53.6094 0
L7.32812 0
L7.32812 8.29688
Q12.9375 14.1094 22.625 23.8906
Q32.3281 33.6875 34.8125 36.5312
Q39.5469 41.8438 41.4219 45.5312
Q43.3125 49.2188 43.3125 52.7812
Q43.3125 58.5938 39.2344 62.25
Q35.1562 65.9219 28.6094 65.9219
Q23.9688 65.9219 18.8125 64.3125
Q13.6719 62.7031 7.8125 59.4219
L7.8125 69.3906
Q13.7656 71.7812 18.9375 73
Q24.125 74.2188 28.4219 74.2188
Q39.75 74.2188 46.4844 68.5469
Q53.2188 62.8906 53.2188 53.4219
Q53.2188 48.9219 51.5312 44.8906
Q49.8594 40.875 45.4062 35.4062
Q44.1875 33.9844 37.6406 27.2188
Q31.1094 20.4531 19.1875 8.29688" id="BitstreamVeraSans-Roman-32"/>
       <path d="
M31.7812 66.4062
Q24.1719 66.4062 20.3281 58.9062
Q16.5 51.4219 16.5 36.375
Q16.5 21.3906 20.3281 13.8906
Q24.1719 6.39062 31.7812 6.39062
Q39.4531 6.39062 43.2812 13.8906
Q47.125 21.3906 47.125 36.375
Q47.125 51.4219 43.2812 58.9062
Q39.4531 66.4062 31.7812 66.4062
M31.7812 74.2188
Q44.0469 74.2188 50.5156 64.5156
Q56.9844 54.8281 56.9844 36.375
Q56.9844 17.9688 50.5156 8.26562
Q44.0469 -1.42188 31.7812 -1.42188
Q19.5312 -1.42188 13.0625 8.26562
Q6.59375 17.9688 6.59375 36.375
Q6.59375 54.8281 13.0625 64.5156
Q19.5312 74.2188 31.7812 74.2188" id="BitstreamVeraSans-Roman-30"/>
      </defs>
      <g transform="translate(33.1226322115 410.587934541)scale(0.1 -0.1)">
       <use xlink:href="#BitstreamVeraSans-Roman-32"/>
       <use x="63.623046875" xlink:href="#BitstreamVeraSans-Roman-30"/>
       <use x="127.24609375" xlink:href="#BitstreamVeraSans-Roman-30"/>
      </g>
     </g>
    </g>
    <g id="xtick_2">
     <g id="line2d_7">
      <g>
       <use style="stroke:#000000;stroke-width:0.5;" x="131.10835118" xlink:href="#m93b0483c22" y="398.989497041"/>
      </g>
     </g>
     <g id="text_2">
      <!-- 400 -->
      <defs>
       <path d="
M37.7969 64.3125
L12.8906 25.3906
L37.7969 25.3906
z

M35.2031 72.9062
L47.6094 72.9062
L47.6094 25.3906
L58.0156 25.3906
L58.0156 17.1875
L47.6094 17.1875
L47.6094 0
L37.7969 0
L37.7969 17.1875
L4.89062 17.1875
L4.89062 26.7031
z
" id="BitstreamVeraSans-Roman-34"/>
      </defs>
      <g transform="translate(122.14116368 410.587934541)scale(0.1 -0.1)">
       <use xlink:href="#BitstreamVeraSans-Roman-34"/>
       <use x="63.623046875" xlink:href="#BitstreamVeraSans-Roman-30"/>
       <use x="127.24609375" xlink:href="#BitstreamVeraSans-Roman-30"/>
      </g>
     </g>
    </g>
    <g id="xtick_3">
     <g id="line2d_8">
      <g>
       <use style="stroke:#000000;stroke-width:0.5;" x="220.248757649" xlink:href="#m93b0483c22" y="398.989497041"/>
      </g>
     </g>
     <g id="text_3">
      <!-- 600 -->
      <defs>
       <path d="
M33.0156 40.375
Q26.375 40.375 22.4844 35.8281
Q18.6094 31.2969 18.6094 23.3906
Q18.6094 15.5312 22.4844 10.9531
Q26.375 6.39062 33.0156 6.39062
Q39.6562 6.39062 43.5312 10.9531
Q47.4062 15.5312 47.4062 23.3906
Q47.4062 31.2969 43.5312 35.8281
Q39.6562 40.375 33.0156 40.375
M52.5938 71.2969
L52.5938 62.3125
Q48.875 64.0625 45.0938 64.9844
Q41.3125 65.9219 37.5938 65.9219
Q27.8281 65.9219 22.6719 59.3281
Q17.5312 52.7344 16.7969 39.4062
Q19.6719 43.6562 24.0156 45.9219
Q28.375 48.1875 33.5938 48.1875
Q44.5781 48.1875 50.9531 41.5156
Q57.3281 34.8594 57.3281 23.3906
Q57.3281 12.1562 50.6875 5.35938
Q44.0469 -1.42188 33.0156 -1.42188
Q20.3594 -1.42188 13.6719 8.26562
Q6.98438 17.9688 6.98438 36.375
Q6.98438 53.6562 15.1875 63.9375
Q23.3906 74.2188 37.2031 74.2188
Q40.9219 74.2188 44.7031 73.4844
Q48.4844 72.75 52.5938 71.2969" id="BitstreamVeraSans-Roman-36"/>
      </defs>
      <g transform="translate(211.386257649 410.587934541)scale(0.1 -0.1)">
       <use xlink:href="#BitstreamVeraSans-Roman-36"/>
       <use x="63.623046875" xlink:href="#BitstreamVeraSans-Roman-30"/>
       <use x="127.24609375" xlink:href="#BitstreamVeraSans-Roman-30"/>
      </g>
     </g>
    </g>
    <g id="xtick_4">
     <g id="line2d_9">
      <g>
       <use style="stroke:#000000;stroke-width:0.5;" x="309.389164117" xlink:href="#m93b0483c22" y="398.989497041"/>
      </g>
     </g>
     <g id="text_4">
      <!-- 800 -->
      <defs>
       <path d="
M31.7812 34.625
Q24.75 34.625 20.7188 30.8594
Q16.7031 27.0938 16.7031 20.5156
Q16.7031 13.9219 20.7188 10.1562
Q24.75 6.39062 31.7812 6.39062
Q38.8125 6.39062 42.8594 10.1719
Q46.9219 13.9688 46.9219 20.5156
Q46.9219 27.0938 42.8906 30.8594
Q38.875 34.625 31.7812 34.625
M21.9219 38.8125
Q15.5781 40.375 12.0312 44.7188
Q8.5 49.0781 8.5 55.3281
Q8.5 64.0625 14.7188 69.1406
Q20.9531 74.2188 31.7812 74.2188
Q42.6719 74.2188 48.875 69.1406
Q55.0781 64.0625 55.0781 55.3281
Q55.0781 49.0781 51.5312 44.7188
Q48 40.375 41.7031 38.8125
Q48.8281 37.1562 52.7969 32.3125
Q56.7812 27.4844 56.7812 20.5156
Q56.7812 9.90625 50.3125 4.23438
Q43.8438 -1.42188 31.7812 -1.42188
Q19.7344 -1.42188 13.25 4.23438
Q6.78125 9.90625 6.78125 20.5156
Q6.78125 27.4844 10.7812 32.3125
Q14.7969 37.1562 21.9219 38.8125
M18.3125 54.3906
Q18.3125 48.7344 21.8438 45.5625
Q25.3906 42.3906 31.7812 42.3906
Q38.1406 42.3906 41.7188 45.5625
Q45.3125 48.7344 45.3125 54.3906
Q45.3125 60.0625 41.7188 63.2344
Q38.1406 66.4062 31.7812 66.4062
Q25.3906 66.4062 21.8438 63.2344
Q18.3125 60.0625 18.3125 54.3906" id="BitstreamVeraSans-Roman-38"/>
      </defs>
      <g transform="translate(300.516507867 410.587934541)scale(0.1 -0.1)">
       <use xlink:href="#BitstreamVeraSans-Roman-38"/>
       <use x="63.623046875" xlink:href="#BitstreamVeraSans-Roman-30"/>
       <use x="127.24609375" xlink:href="#BitstreamVeraSans-Roman-30"/>
      </g>
     </g>
    </g>
    <g id="xtick_5">
     <g id="line2d_10">
      <g>
       <use style="stroke:#000000;stroke-width:0.5;" x="398.529570586" xlink:href="#m93b0483c22" y="398.989497041"/>
      </g>
     </g>
     <g id="text_5">
      <!-- 1000 -->
      <defs>
       <path d="
M12.4062 8.29688
L28.5156 8.29688
L28.5156 63.9219
L10.9844 60.4062
L10.9844 69.3906
L28.4219 72.9062
L38.2812 72.9062
L38.2812 8.29688
L54.3906 8.29688
L54.3906 0
L12.4062 0
z
" id="BitstreamVeraSans-Roman-31"/>
      </defs>
      <g transform="translate(386.685820586 410.587934541)scale(0.1 -0.1)">
       <use xlink:href="#BitstreamVeraSans-Roman-31"/>
       <use x="63.623046875" xlink:href="#BitstreamVeraSans-Roman-30"/>
       <use x="127.24609375" xlink:href="#BitstreamVeraSans-Roman-30"/>
       <use x="190.869140625" xlink:href="#BitstreamVeraSans-Roman-30"/>
      </g>
     </g>
    </g>
    <g id="xtick_6">
     <g id="line2d_11">
      <g>
       <use style="stroke:#000000;stroke-width:0.5;" x="487.669977054" xlink:href="#m93b0483c22" y="398.989497041"/>
      </g>
     </g>
     <g id="text_6">
      <!-- 1200 -->
      <g transform="translate(475.826227054 410.587934541)scale(0.1 -0.1)">
       <use xlink:href="#BitstreamVeraSans-Roman-31"/>
       <use x="63.623046875" xlink:href="#BitstreamVeraSans-Roman-32"/>
       <use x="127.24609375" xlink:href="#BitstreamVeraSans-Roman-30"/>
       <use x="190.869140625" xlink:href="#BitstreamVeraSans-Roman-30"/>
      </g>
     </g>
    </g>
    <g id="xtick_7">
     <g id="line2d_12">
      <defs>
       <path d="
M0 0
L0 -2" id="m177f7580d0" style="stroke:#000000;stroke-width:0.5;"/>
      </defs>
      <g>
       <use style="stroke:#000000;stroke-width:0.5;" x="64.2530463287" xlink:href="#m177f7580d0" y="398.989497041"/>
      </g>
     </g>
    </g>
    <g id="xtick_8">
     <g id="line2d_13">
      <g>
       <use style="stroke:#000000;stroke-width:0.5;" x="86.5381479458" xlink:href="#m177f7580d0" y="398.989497041"/>
      </g>
     </g>
    </g>
    <g id="xtick_9">
     <g id="line2d_14">
      <g>
       <use style="stroke:#000000;stroke-width:0.5;" x="108.823249563" xlink:href="#m177f7580d0" y="398.989497041"/>
      </g>
     </g>
    </g>
    <g id="xtick_10">
     <g id="line2d_15">
      <g>
       <use style="stroke:#000000;stroke-width:0.5;" x="153.393452797" xlink:href="#m177f7580d0" y="398.989497041"/>
      </g>
     </g>
    </g>
    <g id="xtick_11">
     <g id="line2d_16">
      <g>
       <use style="stroke:#000000;stroke-width:0.5;" x="175.678554414" xlink:href="#m177f7580d0" y="398.989497041"/>
      </g>
     </g>
    </g>
    <g id="xtick_12">
     <g id="line2d_17">
      <g>
       <use style="stroke:#000000;stroke-width:0.5;" x="197.963656031" xlink:href="#m177f7580d0" y="398.989497041"/>
      </g>
     </g>
    </g>
    <g id="xtick_13">
     <g id="line2d_18">
      <g>
       <use style="stroke:#000000;stroke-width:0.5;" x="242.533859266" xlink:href="#m177f7580d0" y="398.989497041"/>
      </g>
     </g>
    </g>
    <g id="xtick_14">
     <g id="line2d_19">
      <g>
       <use style="stroke:#000000;stroke-width:0.5;" x="264.818960883" xlink:href="#m177f7580d0" y="398.989497041"/>
      </g>
     </g>
    </g>
    <g id="xtick_15">
     <g id="line2d_20">
      <g>
       <use style="stroke:#000000;stroke-width:0.5;" x="287.1040625" xlink:href="#m177f7580d0" y="398.989497041"/>
      </g>
     </g>
    </g>
    <g id="xtick_16">
     <g id="line2d_21">
      <g>
       <use style="stroke:#000000;stroke-width:0.5;" x="331.674265734" xlink:href="#m177f7580d0" y="398.989497041"/>
      </g>
     </g>
    </g>
    <g id="xtick_17">
     <g id="line2d_22">
      <g>
       <use style="stroke:#000000;stroke-width:0.5;" x="353.959367351" xlink:href="#m177f7580d0" y="398.989497041"/>
      </g>
     </g>
    </g>
    <g id="xtick_18">
     <g id="line2d_23">
      <g>
       <use style="stroke:#000000;stroke-width:0.5;" x="376.244468969" xlink:href="#m177f7580d0" y="398.989497041"/>
      </g>
     </g>
    </g>
    <g id="xtick_19">
     <g id="line2d_24">
      <g>
       <use style="stroke:#000000;stroke-width:0.5;" x="420.814672203" xlink:href="#m177f7580d0" y="398.989497041"/>
      </g>
     </g>
    </g>
    <g id="xtick_20">
     <g id="line2d_25">
      <g>
       <use style="stroke:#000000;stroke-width:0.5;" x="443.09977382" xlink:href="#m177f7580d0" y="398.989497041"/>
      </g>
     </g>
    </g>
    <g id="xtick_21">
     <g id="line2d_26">
      <g>
       <use style="stroke:#000000;stroke-width:0.5;" x="465.384875437" xlink:href="#m177f7580d0" y="398.989497041"/>
      </g>
     </g>
    </g>
    <g id="xtick_22">
     <g id="line2d_27">
      <g>
       <use style="stroke:#000000;stroke-width:0.5;" x="509.955078671" xlink:href="#m177f7580d0" y="398.989497041"/>
      </g>
     </g>
    </g>
    <g id="text_7">
     <!-- $t$ -->
     <defs>
      <path d="
M6.20312 8.10938
Q6.20312 9.57812 6.5 10.8906
L13.7188 39.5938
L3.21875 39.5938
Q2.20312 39.5938 2.20312 40.9219
Q2.59375 43.1094 3.51562 43.1094
L14.5938 43.1094
L18.6094 59.4219
Q19 60.75 20.1719 61.6719
Q21.3438 62.5938 22.7969 62.5938
Q24.0781 62.5938 24.9219 61.8281
Q25.7812 61.0781 25.7812 59.8125
Q25.7812 59.5156 25.75 59.3438
Q25.7344 59.1875 25.6875 58.9844
L21.6875 43.1094
L31.9844 43.1094
Q33.0156 43.1094 33.0156 41.7969
Q32.9531 41.5469 32.8125 40.9531
Q32.6719 40.375 32.4219 39.9844
Q32.1719 39.5938 31.6875 39.5938
L20.7969 39.5938
L13.625 10.6875
Q12.8906 7.85938 12.8906 5.8125
Q12.8906 1.51562 15.8281 1.51562
Q20.2188 1.51562 23.6094 5.64062
Q27 9.76562 28.8125 14.7031
Q29.2031 15.2812 29.5938 15.2812
L30.8125 15.2812
Q31.2031 15.2812 31.4375 15.0156
Q31.6875 14.75 31.6875 14.4062
Q31.6875 14.2031 31.5938 14.1094
Q29.3906 8.0625 25.1875 3.46875
Q21 -1.125 15.5781 -1.125
Q11.625 -1.125 8.90625 1.45312
Q6.20312 4.04688 6.20312 8.10938" id="Cmmi10-74"/>
     </defs>
     <g transform="translate(550.045625 398.989497041)scale(0.16 -0.16)">
      <use transform="translate(0.0 0.40625)" xlink:href="#Cmmi10-74"/>
     </g>
    </g>
   </g>
   <g id="matplotlib.axis_2">
    <g id="ytick_1">
     <g id="line2d_28">
      <defs>
       <path d="
M0 0
L4 0" id="m728421d6d4" style="stroke:#000000;stroke-width:0.5;"/>
      </defs>
      <g>
       <use style="stroke:#000000;stroke-width:0.5;" x="22.1625" xlink:href="#m728421d6d4" y="398.989497041"/>
      </g>
     </g>
     <g id="text_8">
      <!-- 0 -->
      <g transform="translate(13.1234375 401.748872041)scale(0.1 -0.1)">
       <use xlink:href="#BitstreamVeraSans-Roman-30"/>
      </g>
     </g>
    </g>
    <g id="ytick_2">
     <g id="line2d_29">
      <g>
       <use style="stroke:#000000;stroke-width:0.5;" x="22.1625" xlink:href="#m728421d6d4" y="284.433140385"/>
      </g>
     </g>
     <g id="text_9">
      <!-- 5 -->
      <defs>
       <path d="
M10.7969 72.9062
L49.5156 72.9062
L49.5156 64.5938
L19.8281 64.5938
L19.8281 46.7344
Q21.9688 47.4688 24.1094 47.8281
Q26.2656 48.1875 28.4219 48.1875
Q40.625 48.1875 47.75 41.5
Q54.8906 34.8125 54.8906 23.3906
Q54.8906 11.625 47.5625 5.09375
Q40.2344 -1.42188 26.9062 -1.42188
Q22.3125 -1.42188 17.5469 -0.640625
Q12.7969 0.140625 7.71875 1.70312
L7.71875 11.625
Q12.1094 9.23438 16.7969 8.0625
Q21.4844 6.89062 26.7031 6.89062
Q35.1562 6.89062 40.0781 11.3281
Q45.0156 15.7656 45.0156 23.3906
Q45.0156 31 40.0781 35.4375
Q35.1562 39.8906 26.7031 39.8906
Q22.75 39.8906 18.8125 39.0156
Q14.8906 38.1406 10.7969 36.2812
z
" id="BitstreamVeraSans-Roman-35"/>
      </defs>
      <g transform="translate(13.4453125 287.192515385)scale(0.1 -0.1)">
       <use xlink:href="#BitstreamVeraSans-Roman-35"/>
      </g>
     </g>
    </g>
    <g id="ytick_3">
     <g id="line2d_30">
      <g>
       <use style="stroke:#000000;stroke-width:0.5;" x="22.1625" xlink:href="#m728421d6d4" y="169.876783729"/>
      </g>
     </g>
     <g id="text_10">
      <!-- 10 -->
      <g transform="translate(7.2 172.636158729)scale(0.1 -0.1)">
       <use xlink:href="#BitstreamVeraSans-Roman-31"/>
       <use x="63.623046875" xlink:href="#BitstreamVeraSans-Roman-30"/>
      </g>
     </g>
    </g>
    <g id="ytick_4">
     <g id="line2d_31">
      <g>
       <use style="stroke:#000000;stroke-width:0.5;" x="22.1625" xlink:href="#m728421d6d4" y="55.3204270731"/>
      </g>
     </g>
     <g id="text_11">
      <!-- 15 -->
      <g transform="translate(7.409375 58.0798020731)scale(0.1 -0.1)">
       <use xlink:href="#BitstreamVeraSans-Roman-31"/>
       <use x="63.623046875" xlink:href="#BitstreamVeraSans-Roman-35"/>
      </g>
     </g>
    </g>
    <g id="ytick_5">
     <g id="line2d_32">
      <defs>
       <path d="
M0 0
L2 0" id="mf0c55a9a47" style="stroke:#000000;stroke-width:0.5;"/>
      </defs>
      <g>
       <use style="stroke:#000000;stroke-width:0.5;" x="22.1625" xlink:href="#mf0c55a9a47" y="376.07822571"/>
      </g>
     </g>
    </g>
    <g id="ytick_6">
     <g id="line2d_33">
      <g>
       <use style="stroke:#000000;stroke-width:0.5;" x="22.1625" xlink:href="#mf0c55a9a47" y="353.166954379"/>
      </g>
     </g>
    </g>
    <g id="ytick_7">
     <g id="line2d_34">
      <g>
       <use style="stroke:#000000;stroke-width:0.5;" x="22.1625" xlink:href="#mf0c55a9a47" y="330.255683048"/>
      </g>
     </g>
    </g>
    <g id="ytick_8">
     <g id="line2d_35">
      <g>
       <use style="stroke:#000000;stroke-width:0.5;" x="22.1625" xlink:href="#mf0c55a9a47" y="307.344411717"/>
      </g>
     </g>
    </g>
    <g id="ytick_9">
     <g id="line2d_36">
      <g>
       <use style="stroke:#000000;stroke-width:0.5;" x="22.1625" xlink:href="#mf0c55a9a47" y="261.521869054"/>
      </g>
     </g>
    </g>
    <g id="ytick_10">
     <g id="line2d_37">
      <g>
       <use style="stroke:#000000;stroke-width:0.5;" x="22.1625" xlink:href="#mf0c55a9a47" y="238.610597723"/>
      </g>
     </g>
    </g>
    <g id="ytick_11">
     <g id="line2d_38">
      <g>
       <use style="stroke:#000000;stroke-width:0.5;" x="22.1625" xlink:href="#mf0c55a9a47" y="215.699326392"/>
      </g>
     </g>
    </g>
    <g id="ytick_12">
     <g id="line2d_39">
      <g>
       <use style="stroke:#000000;stroke-width:0.5;" x="22.1625" xlink:href="#mf0c55a9a47" y="192.78805506"/>
      </g>
     </g>
    </g>
    <g id="ytick_13">
     <g id="line2d_40">
      <g>
       <use style="stroke:#000000;stroke-width:0.5;" x="22.1625" xlink:href="#mf0c55a9a47" y="146.965512398"/>
      </g>
     </g>
    </g>
    <g id="ytick_14">
     <g id="line2d_41">
      <g>
       <use style="stroke:#000000;stroke-width:0.5;" x="22.1625" xlink:href="#mf0c55a9a47" y="124.054241067"/>
      </g>
     </g>
    </g>
    <g id="ytick_15">
     <g id="line2d_42">
      <g>
       <use style="stroke:#000000;stroke-width:0.5;" x="22.1625" xlink:href="#mf0c55a9a47" y="101.142969736"/>
      </g>
     </g>
    </g>
    <g id="ytick_16">
     <g id="line2d_43">
      <g>
       <use style="stroke:#000000;stroke-width:0.5;" x="22.1625" xlink:href="#mf0c55a9a47" y="78.2316984043"/>
      </g>
     </g>
    </g>
    <g id="text_12">
     <!-- $X$ -->
     <defs>
      <path d="
M3.60938 0
Q2.59375 0 2.59375 1.3125
Q2.64062 1.5625 2.8125 2.1875
Q2.98438 2.82812 3.25 3.17188
Q3.51562 3.51562 4 3.51562
Q13.0938 3.51562 19.5781 10.2969
Q19.6719 10.4062 19.7969 10.4531
Q19.9219 10.5 19.9219 10.5
L41.7969 34.0781
L29.8906 62.7969
Q28.8594 64.1094 26.5625 64.4531
Q24.2656 64.7969 21.1875 64.7969
Q20.2188 64.7969 20.2188 66.1094
Q20.5625 67.3906 20.75 67.8438
Q20.9531 68.3125 21.9219 68.3125
L46.9219 68.3125
Q47.9062 68.3125 47.9062 67
Q47.8594 66.75 47.6875 66.1094
Q47.5156 65.4844 47.2344 65.1406
Q46.9688 64.7969 46.4844 64.7969
Q44.625 64.7969 42.6406 64.1875
Q40.6719 63.5781 39.8906 62.2031
L48.4844 41.5
L64.8906 59.0781
Q65.0469 59.4219 65.5781 60.2812
Q66.1094 61.1406 66.1094 61.9219
Q66.1094 63.375 64.8438 64.0781
Q63.5781 64.7969 61.8125 64.7969
Q60.7969 64.7969 60.7969 66.1094
Q61.1406 67.3906 61.3281 67.8438
Q61.5312 68.3125 62.5 68.3125
L84.1875 68.3125
Q84.7188 68.3125 84.9531 67.9219
Q85.2031 67.5312 85.2031 67
Q85.1562 66.75 85 66.1562
Q84.8594 65.5781 84.6094 65.1875
Q84.375 64.7969 83.8906 64.7969
Q79.25 64.7969 75.3594 63.1094
Q71.4844 61.4219 68.2188 58.0156
Q68.1719 57.9531 68.0938 57.9219
Q68.0156 57.9062 67.9219 57.8125
L49.8125 38.2812
L63.4844 5.51562
Q65.0938 3.51562 72.2188 3.51562
Q73.1875 3.51562 73.1875 2.20312
Q72.8594 0.875 72.625 0.4375
Q72.4062 0 71.4844 0
L46.4844 0
Q45.5156 0 45.5156 1.3125
Q45.5625 1.5625 45.7031 2.17188
Q45.8438 2.78125 46.1094 3.14062
Q46.3906 3.51562 46.7812 3.51562
Q48.7344 3.51562 50.7344 4.125
Q52.7344 4.73438 53.5156 6.10938
L43.1094 31
L22.9062 9.1875
Q22.75 8.84375 22.2188 8
Q21.6875 7.17188 21.6875 6.39062
Q21.6875 4.9375 23.0469 4.21875
Q24.4219 3.51562 25.9844 3.51562
Q27 3.51562 27 2.20312
Q26.6562 0.78125 26.4531 0.390625
Q26.2656 0 25.2969 0
z
" id="Cmmi10-58"/>
     </defs>
     <g transform="translate(15.5225 19.3575)scale(0.16 -0.16)">
      <use transform="translate(0.0 0.6875)" xlink:href="#Cmmi10-58"/>
     </g>
    </g>
   </g>
   <g id="patch_3">
    <path d="
M32.1625 398.989
L542.046 398.989" style="fill:none;stroke:#000000;stroke-width:0.8;"/>
   </g>
   <g id="patch_4">
    <path d="
M22.1625 406.211
L22.1625 30.685" style="fill:none;stroke:#000000;stroke-width:0.8;"/>
   </g>
  </g>
 </g>
 <defs>
  <clipPath id="p64958b1563">
   <rect height="375.526153846" width="509.883125" x="32.1625" y="30.685"/>
  </clipPath>
 </defs>
</svg>
